<?xml version="1.0" encoding="UTF-8" standalone="no"?> <svg width="64" height="64" viewBox="0 0 64 64" fill="none" xmlns="http://www.w3.org/2000/svg">
<path d="M45.47 38.1C44.8273 40.5202 43.6256 42.7557 41.9614 44.6268C40.2973 46.4979 38.2172 47.9523 35.8885 48.8729C33.5598 49.7936 31.0476 50.1548 28.5539 49.9276C26.0601 49.7003 23.6545 48.8909 21.5306 47.5645C19.4067 46.2381 17.6238 44.4317 16.3253 42.2906C15.0268 40.1495 14.2489 37.7336 14.0543 35.2371C13.8597 32.7406 14.2538 30.2333 15.2048 27.9168C16.1558 25.6004 17.6373 23.5395 19.53 21.9C19.1749 23.2376 18.9968 24.616 19 26C19.0004 26.9049 19.0773 27.8081 19.23 28.7C17.9101 31.368 17.6288 34.4313 18.4409 37.295C19.253 40.1587 21.1004 42.6184 23.6243 44.1963C26.1483 45.7743 29.1686 46.3578 32.0987 45.8337C35.0289 45.3095 37.6596 43.7151 39.48 41.36C41.6889 40.7194 43.7326 39.6071 45.47 38.1V38.1Z" fill="#CFF09E"/>
<path d="M30 22C27.6266 22 25.3066 22.7038 23.3332 24.0224C21.3598 25.3409 19.8217 27.2151 18.9135 29.4078C18.0052 31.6005 17.7676 34.0133 18.2306 36.3411C18.6936 38.6689 19.8365 40.8071 21.5147 42.4853C23.193 44.1635 25.3311 45.3064 27.6589 45.7694C29.9867 46.2324 32.3995 45.9948 34.5922 45.0866C36.7849 44.1783 38.6591 42.6402 39.9776 40.6668C41.2962 38.6935 42 36.3734 42 34C42 30.8174 40.7357 27.7652 38.4853 25.5147C36.2349 23.2643 33.1826 22 30 22ZM35 42C31.2437 41.9995 27.6075 40.6763 24.7294 38.2626C21.8512 35.8489 19.9148 32.4988 19.26 28.8C21.1704 26.7594 23.7338 25.4506 26.507 25.0999C29.2802 24.7491 32.0887 25.3785 34.447 26.8791C36.8053 28.3797 38.5651 30.6573 39.422 33.318C40.279 35.9786 40.1792 38.8551 39.14 41.45C37.7896 41.8117 36.398 41.9966 35 42V42Z" fill="#CFF09E"/>
<path d="M30.114 32C29.6131 32.0071 29.1262 31.835 28.7411 31.5146C28.3561 31.1943 28.0982 30.7468 28.014 30.253C27.982 29.983 28.0053 29.7094 28.0826 29.4488C28.1599 29.1881 28.2895 28.946 28.4636 28.7371C28.6376 28.5283 28.8523 28.3571 29.0947 28.2341C29.3372 28.111 29.6021 28.0386 29.8734 28.0214C30.1447 28.0042 30.4167 28.0425 30.6727 28.1339C30.9287 28.2253 31.1634 28.368 31.3624 28.5531C31.5614 28.7383 31.7206 28.9621 31.8303 29.2109C31.9399 29.4597 31.9976 29.7282 32 30H36C35.9986 28.7604 35.6133 27.5517 34.897 26.54C34.1808 25.5282 33.1687 24.7632 32 24.35V24C32 23.4696 31.7893 22.9609 31.4142 22.5858C31.0392 22.2107 30.5304 22 30 22C29.4696 22 28.9609 22.2107 28.5858 22.5858C28.2107 22.9609 28 23.4696 28 24V24.35C24.441 25.614 22.411 30.131 25.559 34.319C26.0722 34.9391 26.7343 35.4191 27.4832 35.7141C28.2322 36.0091 29.0437 36.1096 29.842 36.006C30.243 35.9742 30.6443 36.0641 30.9935 36.2639C31.3426 36.4638 31.6234 36.7643 31.7991 37.1261C31.9748 37.488 32.0374 37.8945 31.9785 38.2924C31.9196 38.6904 31.7421 39.0614 31.4691 39.3569C31.1961 39.6524 30.8404 39.8587 30.4483 39.9489C30.0563 40.039 29.6462 40.0089 29.2715 39.8623C28.8968 39.7158 28.5751 39.4597 28.3483 39.1275C28.1214 38.7952 28.0001 38.4023 28 38H24C24.0014 39.2396 24.3867 40.4483 25.103 41.46C25.8193 42.4718 26.8313 43.2368 28 43.65V44C28 44.5304 28.2107 45.0391 28.5858 45.4142C28.9609 45.7893 29.4696 46 30 46C30.5304 46 31.0392 45.7893 31.4142 45.4142C31.7893 45.0391 32 44.5304 32 44V43.65C33.3214 43.1788 34.4358 42.2595 35.1497 41.0518C35.8636 39.8442 36.1317 38.4246 35.9075 37.0398C35.6833 35.6549 34.981 34.3924 33.9226 33.4717C32.8641 32.551 31.5165 32.0302 30.114 32V32Z" fill="#A8DBA8"/>
<path d="M3.82701 40.656C5.34054 46.5995 8.83182 51.851 13.7266 55.5466C18.6214 59.2423 24.6282 61.162 30.759 60.99C45.465 60.586 57 48.15 57 33.438V11H61L54 3L47 11H51V33.5C51 44.887 42.146 54.585 30.766 54.989C27.9454 55.092 25.133 54.6253 22.4968 53.6168C19.8606 52.6083 17.4548 51.0788 15.423 49.1196C13.3913 47.1604 11.7754 44.8117 10.6718 42.2139C9.56819 39.6161 8.99961 36.8225 9.00001 34V34C8.18695 34.0005 7.38474 34.1867 6.65454 34.5443C5.92433 34.9019 5.28541 35.4215 4.78647 36.0635C4.28753 36.7055 3.94175 37.4529 3.77548 38.2487C3.6092 39.0446 3.62683 39.868 3.82701 40.656V40.656Z" fill="#79BD9A"/>
<path d="M13 24V11H17L10 3L3 11H7V24H13Z" fill="#A8DBA8"/>
<path d="M28 14.5V9H31L26 3.5L21 9H24V14.5H28Z" fill="#A8DBA8"/>
<path d="M41 15.5V12H43L39 6.5L35 12H37V15.5H41Z" fill="#A8DBA8"/>
<path d="M30 51C26.6377 51 23.3509 50.003 20.5553 48.135C17.7597 46.267 15.5807 43.612 14.2941 40.5056C13.0074 37.3993 12.6707 33.9811 13.3267 30.6835C13.9826 27.3858 15.6017 24.3567 17.9792 21.9792C20.3567 19.6017 23.3858 17.9826 26.6835 17.3267C29.9811 16.6707 33.3993 17.0074 36.5056 18.294C39.612 19.5807 42.267 21.7597 44.135 24.5553C46.003 27.3509 47 30.6377 47 34C46.995 38.5071 45.2023 42.8282 42.0153 46.0153C38.8282 49.2023 34.5071 50.995 30 51V51ZM30 19C27.0333 19 24.1332 19.8797 21.6665 21.528C19.1997 23.1762 17.2771 25.5189 16.1418 28.2597C15.0065 31.0006 14.7094 34.0166 15.2882 36.9264C15.867 39.8361 17.2956 42.5088 19.3934 44.6066C21.4912 46.7044 24.1639 48.133 27.0737 48.7118C29.9834 49.2906 32.9994 48.9935 35.7403 47.8582C38.4811 46.7229 40.8238 44.8003 42.4721 42.3336C44.1203 39.8668 45 36.9667 45 34C44.9955 30.0231 43.4137 26.2104 40.6016 23.3984C37.7896 20.5863 33.9769 19.0045 30 19V19Z" fill="#3B8686"/>
<path d="M30 47C29.2607 46.9999 28.5474 46.7268 27.9971 46.2332C27.4468 45.7395 27.0981 45.06 27.018 44.325C25.8188 43.7585 24.8048 42.8636 24.0936 41.744C23.3824 40.6245 23.0032 39.3263 23 38C23 37.7348 23.1054 37.4804 23.2929 37.2929C23.4804 37.1054 23.7348 37 24 37H28C28.2652 37 28.5196 37.1054 28.7071 37.2929C28.8946 37.4804 29 37.7348 29 38C29 38.1661 29.0413 38.3296 29.1203 38.4757C29.1993 38.6218 29.3135 38.746 29.4525 38.8369C29.5915 38.9279 29.7509 38.9828 29.9165 38.9966C30.082 39.0105 30.2484 38.9829 30.4006 38.9164C30.5528 38.8499 30.686 38.7465 30.7882 38.6155C30.8904 38.4846 30.9584 38.3303 30.9861 38.1665C31.0137 38.0027 31.0001 37.8346 30.9465 37.6774C30.8929 37.5202 30.8009 37.3788 30.679 37.266C30.5773 37.1723 30.4575 37.1004 30.327 37.0546C30.1965 37.0089 30.058 36.9903 29.92 37C28.9537 37.1209 27.9725 36.9931 27.0695 36.6285C26.1665 36.264 25.3715 35.6749 24.76 34.917C23.9795 33.9636 23.4395 32.8366 23.1854 31.631C22.9313 30.4253 22.9706 29.1763 23.3 27.989C23.5853 27.05 24.064 26.1811 24.7052 25.4382C25.3463 24.6952 26.1359 24.0946 27.023 23.675C27.1038 22.9406 27.4528 22.2619 28.0031 21.7688C28.5533 21.2758 29.2662 21.0031 30.005 21.0031C30.7438 21.0031 31.4567 21.2758 32.0069 21.7688C32.5572 22.2619 32.9062 22.9406 32.987 23.675C34.1853 24.2422 35.1983 25.1375 35.9085 26.2569C36.6188 27.3764 36.9972 28.6742 37 30C37 30.2652 36.8946 30.5196 36.7071 30.7071C36.5196 30.8946 36.2652 31 36 31H32C31.7348 31 31.4804 30.8946 31.2929 30.7071C31.1054 30.5196 31 30.2652 31 30C30.9993 29.8636 30.9708 29.7287 30.916 29.6037C30.8613 29.4787 30.7816 29.3663 30.6818 29.2733C30.5819 29.1802 30.4641 29.1086 30.3356 29.0629C30.2071 29.0171 30.0705 28.9981 29.9344 29.007C29.7982 29.016 29.6654 29.0527 29.5439 29.1149C29.4225 29.1771 29.3151 29.2636 29.2283 29.3688C29.1416 29.4741 29.0772 29.5961 29.0394 29.7271C29.0015 29.8582 28.9908 29.9957 29.008 30.131C29.0654 30.3839 29.2089 30.6089 29.4139 30.7676C29.619 30.9263 29.8728 31.0088 30.132 31.001V31.001C31.7085 31.0343 33.2276 31.5989 34.4431 32.6034C35.6587 33.6078 36.4995 34.9933 36.8293 36.5353C37.1591 38.0772 36.9586 39.6854 36.2604 41.0992C35.5621 42.513 34.4069 43.6497 32.982 44.325C32.9019 45.06 32.5532 45.7395 32.0029 46.2332C31.4526 46.7268 30.7393 46.9999 30 47ZM25.1 39C25.2752 39.8436 25.6647 40.6279 26.2309 41.2774C26.7972 41.9268 27.5211 42.4195 28.333 42.708C28.5279 42.7768 28.6967 42.9044 28.8161 43.0731C28.9356 43.2417 28.9998 43.4433 29 43.65V44C29 44.2652 29.1054 44.5196 29.2929 44.7071C29.4804 44.8946 29.7348 45 30 45C30.2652 45 30.5196 44.8946 30.7071 44.7071C30.8946 44.5196 31 44.2652 31 44V43.65C31 43.4435 31.064 43.2422 31.1831 43.0735C31.3021 42.9048 31.4705 42.7772 31.665 42.708C32.7655 42.3154 33.6937 41.5499 34.2885 40.5442C34.8834 39.5386 35.1073 38.3564 34.9213 37.2029C34.7354 36.0494 34.1513 34.9975 33.2706 34.2297C32.3899 33.462 31.2681 33.0269 30.1 33C29.3588 33.0021 28.6414 32.7386 28.0778 32.2572C27.5143 31.7758 27.1418 31.1084 27.028 30.376C26.9396 29.6441 27.1238 28.9052 27.5454 28.3004C27.967 27.6957 28.5966 27.2673 29.314 27.0972C30.0313 26.927 30.7862 27.027 31.4345 27.3779C32.0829 27.7289 32.5793 28.3063 32.829 29H34.9C34.7246 28.1565 34.3351 27.3722 33.7688 26.7228C33.2026 26.0734 32.4788 25.5807 31.667 25.292C31.4721 25.2232 31.3033 25.0956 31.1839 24.927C31.0644 24.7583 31.0002 24.5567 31 24.35V24C31 23.7348 30.8946 23.4804 30.7071 23.2929C30.5196 23.1054 30.2652 23 30 23C29.7348 23 29.4804 23.1054 29.2929 23.2929C29.1054 23.4804 29 23.7348 29 24V24.35C29 24.5565 28.936 24.7578 28.8169 24.9265C28.6979 25.0952 28.5295 25.2228 28.335 25.292C27.5946 25.5555 26.9263 25.9888 26.3836 26.5571C25.8409 27.1255 25.4389 27.8132 25.21 28.565C24.9757 29.4533 24.9577 30.3848 25.1574 31.2816C25.3571 32.1783 25.7688 33.0141 26.358 33.719C26.7705 34.2048 27.2995 34.578 27.8956 34.8036C28.4916 35.0293 29.1352 35.0999 29.766 35.009C30.3242 34.9654 30.8835 35.079 31.3805 35.3367C31.8776 35.5945 32.2926 35.9862 32.5786 36.4676C32.8645 36.949 33.0101 37.5008 32.9988 38.0606C32.9875 38.6204 32.8197 39.1658 32.5145 39.6353C32.2093 40.1047 31.7788 40.4793 31.2717 40.7168C30.7646 40.9542 30.2012 41.045 29.6452 40.9789C29.0892 40.9128 28.5628 40.6925 28.1256 40.3427C27.6883 39.993 27.3577 39.5279 27.171 39H25.1Z" fill="#3B8686"/>
<path d="M29.99 62C23.7582 62.0272 17.6975 59.9628 12.7781 56.1373C7.85859 52.3118 4.36481 46.9464 2.85599 40.9V40.9C2.61908 39.9644 2.5988 38.9871 2.79669 38.0424C2.99458 37.0978 3.40542 36.2108 3.99793 35.4489C4.59044 34.6871 5.34898 34.0705 6.2158 33.6461C7.08262 33.2217 8.03486 33.0008 8.99999 33C9.26521 33 9.51956 33.1054 9.7071 33.2929C9.89463 33.4804 9.99999 33.7348 9.99999 34C9.99995 36.6879 10.5417 39.3483 11.5929 41.8221C12.6441 44.2959 14.1832 46.5325 16.1182 48.3981C18.0532 50.2638 20.3445 51.7202 22.855 52.6805C25.3655 53.6408 28.0439 54.0851 30.73 53.987C41.355 53.609 50 44.417 50 33.5V12H47C46.8077 12.0002 46.6195 11.9449 46.4579 11.8409C46.2962 11.7368 46.168 11.5884 46.0885 11.4133C46.0091 11.2383 45.9818 11.044 46.0099 10.8538C46.038 10.6636 46.1203 10.4856 46.247 10.341L53.247 2.341C53.3437 2.2384 53.4605 2.15665 53.5899 2.10078C53.7194 2.0449 53.859 2.01608 54 2.01608C54.141 2.01608 54.2806 2.0449 54.41 2.10078C54.5395 2.15665 54.6562 2.2384 54.753 2.341L61.753 10.341C61.8797 10.4856 61.962 10.6636 61.9901 10.8538C62.0182 11.044 61.9909 11.2383 61.9114 11.4133C61.832 11.5884 61.7038 11.7368 61.5421 11.8409C61.3805 11.9449 61.1922 12.0002 61 12H58V33.438C58 48.77 45.792 61.578 30.786 61.989C30.521 62 30.255 62 29.99 62ZM4.79999 40.41C6.2295 46.148 9.58379 51.2222 14.303 54.7856C19.0222 58.349 24.8208 60.186 30.731 59.99C44.664 59.608 56 47.7 56 33.438V11C56 10.7348 56.1053 10.4804 56.2929 10.2929C56.4804 10.1054 56.7348 10 57 10H58.8L54 4.519L49.2 10H51C51.2652 10 51.5196 10.1054 51.7071 10.2929C51.8946 10.4804 52 10.7348 52 11V33.5C52 45.484 42.49 55.573 30.8 55.989C25.0219 56.1995 19.3932 54.1268 15.1314 50.2193C10.8697 46.3118 8.31751 40.8836 8.02699 35.109C7.46411 35.2399 6.93299 35.4819 6.46475 35.8206C5.99651 36.1593 5.60055 36.588 5.30004 37.0817C4.99953 37.5753 4.80052 38.124 4.71466 38.6955C4.6288 39.267 4.65781 39.8498 4.79999 40.41V40.41Z" fill="#3B8686"/>
<path d="M39.958 39.648C39.7899 39.6478 39.6246 39.6053 39.4773 39.5243C39.33 39.4433 39.2055 39.3265 39.1153 39.1846C39.0251 39.0428 38.9721 38.8805 38.9612 38.7128C38.9504 38.5451 38.9819 38.3773 39.053 38.225C39.6765 36.9038 39.9998 35.4609 39.9998 34C39.9998 32.5391 39.6765 31.0962 39.053 29.775C38.9974 29.656 38.9658 29.5273 38.9599 29.3961C38.9541 29.2648 38.9741 29.1338 39.0189 29.0103C39.0637 28.8869 39.1324 28.7734 39.221 28.6765C39.3097 28.5796 39.4165 28.5011 39.5355 28.4455C39.6545 28.3899 39.7833 28.3582 39.9145 28.3524C40.0457 28.3465 40.1767 28.3666 40.3002 28.4114C40.4237 28.4562 40.5371 28.5249 40.634 28.6135C40.7309 28.7022 40.8094 28.809 40.865 28.928C41.6125 30.5144 42 32.2464 42 34C42 35.7536 41.6125 37.4856 40.865 39.072C40.7843 39.2444 40.6561 39.3901 40.4954 39.4922C40.3348 39.5942 40.1483 39.6483 39.958 39.648V39.648Z" fill="#3B8686"/>
<path d="M20.042 39.648C19.8517 39.6483 19.6652 39.5942 19.5046 39.4922C19.3439 39.3901 19.2157 39.2444 19.135 39.072C18.3894 37.4893 18.0019 35.7617 18.0002 34.0121C17.9984 32.2626 18.3825 30.5342 19.125 28.95C19.1776 28.8267 19.2545 28.7151 19.351 28.6221C19.4476 28.5291 19.5618 28.4564 19.6871 28.4084C19.8123 28.3604 19.9459 28.3381 20.0799 28.3428C20.2139 28.3475 20.3456 28.3791 20.4671 28.4357C20.5887 28.4923 20.6976 28.5728 20.7874 28.6724C20.8772 28.7719 20.9461 28.8886 20.9899 29.0153C21.0338 29.142 21.0517 29.2762 21.0426 29.41C21.0335 29.5438 20.9976 29.6744 20.937 29.794C20.318 31.1134 19.9979 32.5532 19.9997 34.0106C20.0014 35.468 20.3249 36.9071 20.947 38.225C21.0179 38.3769 21.0495 38.5442 21.0389 38.7116C21.0282 38.8789 20.9757 39.0408 20.886 39.1825C20.7964 39.3242 20.6726 39.4411 20.526 39.5225C20.3794 39.6038 20.2147 39.647 20.047 39.648H20.042Z" fill="#3B8686"/>
<path d="M13 25H7C6.73479 25 6.48043 24.8946 6.2929 24.7071C6.10536 24.5196 6 24.2652 6 24V12H3C2.80776 12.0002 2.61954 11.9449 2.45789 11.8409C2.29624 11.7368 2.16801 11.5884 2.08855 11.4133C2.0091 11.2383 1.98179 11.044 2.00989 10.8538C2.03799 10.6636 2.12031 10.4856 2.247 10.341L9.247 2.341C9.34376 2.2384 9.46046 2.15665 9.58995 2.10078C9.71944 2.0449 9.85898 2.01608 10 2.01608C10.141 2.01608 10.2806 2.0449 10.4101 2.10078C10.5395 2.15665 10.6562 2.2384 10.753 2.341L17.753 10.341C17.8797 10.4856 17.962 10.6636 17.9901 10.8538C18.0182 11.044 17.9909 11.2383 17.9115 11.4133C17.832 11.5884 17.7038 11.7368 17.5421 11.8409C17.3805 11.9449 17.1922 12.0002 17 12H14V24C14 24.2652 13.8946 24.5196 13.7071 24.7071C13.5196 24.8946 13.2652 25 13 25ZM8 23H12V11C12 10.7348 12.1054 10.4804 12.2929 10.2929C12.4804 10.1054 12.7348 10 13 10H14.8L10 4.519L5.2 10H7C7.26522 10 7.51957 10.1054 7.70711 10.2929C7.89465 10.4804 8 10.7348 8 11V23Z" fill="#3B8686"/>
<path d="M28 15.5H24C23.7348 15.5 23.4804 15.3946 23.2929 15.2071C23.1053 15.0196 23 14.7652 23 14.5V10H21C20.8062 10.0001 20.6165 9.94383 20.4541 9.83811C20.2917 9.73239 20.1635 9.58175 20.0851 9.40452C20.0067 9.22728 19.9815 9.03109 20.0126 8.83979C20.0436 8.6485 20.1296 8.47034 20.26 8.327L25.26 2.827C25.3562 2.72806 25.4712 2.64941 25.5983 2.5957C25.7254 2.542 25.862 2.51432 26 2.51432C26.138 2.51432 26.2746 2.542 26.4017 2.5957C26.5288 2.64941 26.6438 2.72806 26.74 2.827L31.74 8.327C31.8704 8.47034 31.9564 8.6485 31.9874 8.83979C32.0185 9.03109 31.9933 9.22728 31.9149 9.40452C31.8365 9.58175 31.7083 9.73239 31.5459 9.83811C31.3834 9.94383 31.1938 10.0001 31 10H29V14.5C29 14.7652 28.8946 15.0196 28.7071 15.2071C28.5196 15.3946 28.2652 15.5 28 15.5ZM25 13.5H27V9C27 8.73479 27.1053 8.48043 27.2929 8.2929C27.4804 8.10536 27.7348 8 28 8H28.739L26 4.987L23.261 8H24C24.2652 8 24.5196 8.10536 24.7071 8.2929C24.8946 8.48043 25 8.73479 25 9V13.5Z" fill="#3B8686"/>
<path d="M41 16.5H37C36.7348 16.5 36.4804 16.3946 36.2929 16.2071C36.1054 16.0196 36 15.7652 36 15.5V13H35C34.8156 13 34.6347 12.949 34.4774 12.8527C34.3201 12.7563 34.1926 12.6183 34.1088 12.4539C34.0251 12.2896 33.9885 12.1053 34.003 11.9214C34.0175 11.7375 34.0826 11.5612 34.191 11.412L38.191 5.912C38.2883 5.791 38.4115 5.69336 38.5515 5.62627C38.6915 5.55918 38.8448 5.52436 39 5.52436C39.1553 5.52436 39.3085 5.55918 39.4486 5.62627C39.5886 5.69336 39.7117 5.791 39.809 5.912L43.809 11.412C43.9175 11.5612 43.9826 11.7375 43.9971 11.9214C44.0116 12.1053 43.9749 12.2896 43.8912 12.4539C43.8075 12.6183 43.6799 12.7563 43.5226 12.8527C43.3653 12.949 43.1845 13 43 13H42V15.5C42 15.7652 41.8947 16.0196 41.7071 16.2071C41.5196 16.3946 41.2652 16.5 41 16.5ZM38 14.5H40V12C40 11.7348 40.1054 11.4804 40.2929 11.2929C40.4804 11.1054 40.7348 11 41 11H41.036L39 8.2L36.964 11H37C37.2652 11 37.5196 11.1054 37.7071 11.2929C37.8947 11.4804 38 11.7348 38 12V14.5Z" fill="#3B8686"/>
</svg>
