<?xml version="1.0" encoding="UTF-8"?>
<svg xmlns="http://www.w3.org/2000/svg" xmlns:xlink="http://www.w3.org/1999/xlink" width="30px" height="30px" viewBox="0 0 30 30" version="1.1">
<g id="surface1">
<path style=" stroke:none;fill-rule:evenodd;fill:rgb(16.078431%,21.176471%,26.666667%);fill-opacity:1;" d="M 15 2.5 C 8.097656 2.5 2.5 8.097656 2.5 15 C 2.5 17.773438 3.402344 20.332031 4.929688 22.40625 C 6.152344 20.003906 8.214844 18.105469 10.734375 17.082031 C 9.5 15.941406 8.726562 14.3125 8.726562 12.5 C 8.726562 9.042969 11.542969 6.25 15 6.25 C 18.457031 6.25 21.273438 9.042969 21.273438 12.5 C 21.273438 14.3125 20.5 15.941406 19.265625 17.082031 C 21.785156 18.105469 23.847656 20.003906 25.070312 22.40625 C 26.597656 20.332031 27.5 17.773438 27.5 15 C 27.5 8.097656 21.902344 2.5 15 2.5 Z M 23.230469 24.40625 C 21.976562 21.101562 18.765625 18.75 15 18.75 C 11.234375 18.75 8.023438 21.101562 6.769531 24.40625 C 8.96875 26.335938 11.847656 27.5 15 27.5 C 18.152344 27.5 21.03125 26.335938 23.230469 24.40625 Z M 0 15 C 0 6.714844 6.714844 0 15 0 C 23.285156 0 30 6.714844 30 15 C 30 19.171875 28.296875 22.949219 25.546875 25.664062 C 22.839844 28.34375 19.113281 30 15 30 C 10.886719 30 7.160156 28.34375 4.453125 25.664062 C 1.703125 22.949219 0 19.171875 0 15 Z M 15 8.75 C 12.910156 8.75 11.226562 10.433594 11.226562 12.5 C 11.226562 14.566406 12.910156 16.25 15 16.25 C 17.089844 16.25 18.773438 14.566406 18.773438 12.5 C 18.773438 10.433594 17.089844 8.75 15 8.75 Z M 15 8.75 "/>
</g>
</svg>
