<svg xmlns="http://www.w3.org/2000/svg"  viewBox="0 0 48 48" width="30px" height="30px"><radialGradient id="A7gfmRnQJ4TuM2hgrd0Tra" cx="11.177" cy="8.393" r="40.312" gradientUnits="userSpaceOnUse"><stop offset="0" stop-color="#0370c8"/><stop offset=".484" stop-color="#036fc5"/><stop offset=".775" stop-color="#036abd"/><stop offset="1" stop-color="#0362b0"/></radialGradient><path fill="url(#A7gfmRnQJ4TuM2hgrd0Tra)" d="M44,24c0,11.045-8.955,20-20,20S4,35.045,4,24S12.955,4,24,4S44,12.955,44,24z"/><radialGradient id="A7gfmRnQJ4TuM2hgrd0Trb" cx="24" cy="44.108" r="16.14" gradientUnits="userSpaceOnUse"><stop offset="0"/><stop offset="1" stop-opacity="0"/></radialGradient><path fill="url(#A7gfmRnQJ4TuM2hgrd0Trb)" d="M24,44c5.795,0,10.998-2.48,14.651-6.418C36.177,31.943,30.552,28,24,28	s-12.177,3.943-14.651,9.582C13.002,41.52,18.205,44,24,44z"/><radialGradient id="A7gfmRnQJ4TuM2hgrd0Trc" cx="24" cy="20" r="9.5" gradientUnits="userSpaceOnUse"><stop offset="0"/><stop offset="1" stop-opacity="0"/></radialGradient><circle cx="24" cy="20" r="9.5" fill="url(#A7gfmRnQJ4TuM2hgrd0Trc)"/><linearGradient id="A7gfmRnQJ4TuM2hgrd0Trd" x1="18.573" x2="29.735" y1="13.573" y2="24.735" gradientUnits="userSpaceOnUse"><stop offset="0" stop-color="#75daff"/><stop offset="1" stop-color="#1ea2e4"/></linearGradient><circle cx="24" cy="19" r="8" fill="url(#A7gfmRnQJ4TuM2hgrd0Trd)"/><linearGradient id="A7gfmRnQJ4TuM2hgrd0Tre" x1="17.007" x2="30.888" y1="31.21" y2="45.091" gradientUnits="userSpaceOnUse"><stop offset="0" stop-color="#75daff"/><stop offset="1" stop-color="#1ea2e4"/></linearGradient><path fill="url(#A7gfmRnQJ4TuM2hgrd0Tre)" d="M24,44c5.015,0,9.587-1.859,13.098-4.909C35.107,33.784,30.002,30,24,30	s-11.107,3.784-13.098,9.091C14.413,42.141,18.985,44,24,44z"/></svg>