<?xml version="1.0" encoding="UTF-8"?>
<svg xmlns="http://www.w3.org/2000/svg" xmlns:xlink="http://www.w3.org/1999/xlink" width="50px" height="50px" viewBox="0 0 50 50" version="1.1">
<g id="surface1">
<path style=" stroke:none;fill-rule:nonzero;fill:rgb(15.294118%,68.235294%,37.647059%);fill-opacity:1;" d="M 45.832031 27.082031 C 45.832031 38.589844 36.507812 47.917969 25 47.917969 C 13.496094 47.917969 4.167969 38.589844 4.167969 27.082031 C 4.167969 15.578125 13.496094 6.25 25 6.25 C 36.507812 6.25 45.832031 15.578125 45.832031 27.082031 Z M 45.832031 27.082031 "/>
<path style=" stroke:none;fill-rule:nonzero;fill:rgb(18.039216%,80%,44.313725%);fill-opacity:1;" d="M 45.832031 25 C 45.832031 36.507812 36.507812 45.832031 25 45.832031 C 13.496094 45.832031 4.167969 36.507812 4.167969 25 C 4.167969 13.496094 13.496094 4.167969 25 4.167969 C 36.507812 4.167969 45.832031 13.496094 45.832031 25 Z M 45.832031 25 "/>
<path style=" stroke:none;fill-rule:nonzero;fill:rgb(15.294118%,68.235294%,37.647059%);fill-opacity:1;" d="M 12.5 29.167969 L 22.917969 29.167969 L 22.917969 39.582031 L 27.082031 39.582031 L 27.082031 29.167969 L 37.5 29.167969 L 37.5 25 L 27.082031 25 L 27.082031 14.582031 L 22.917969 14.582031 L 22.917969 25 L 12.5 25 Z M 12.5 29.167969 "/>
<path style=" stroke:none;fill-rule:nonzero;fill:rgb(92.54902%,94.117647%,94.509804%);fill-opacity:1;" d="M 12.5 27.082031 L 22.917969 27.082031 L 22.917969 37.5 L 27.082031 37.5 L 27.082031 27.082031 L 37.5 27.082031 L 37.5 22.917969 L 27.082031 22.917969 L 27.082031 12.5 L 22.917969 12.5 L 22.917969 22.917969 L 12.5 22.917969 Z M 12.5 27.082031 "/>
</g>
</svg>
