<?xml version="1.0" encoding="UTF-8"?>
<svg xmlns="http://www.w3.org/2000/svg" xmlns:xlink="http://www.w3.org/1999/xlink" width="32px" height="27px" viewBox="0 0 32 27" version="1.1">
<g id="surface1">
<path style=" stroke:none;fill-rule:nonzero;fill:rgb(0%,0%,0%);fill-opacity:1;" d="M 21.332031 9.71875 L 21.332031 10.800781 L 26.898438 10.800781 L 27.417969 12.890625 C 25.171875 13.378906 23.152344 13.988281 21.332031 14.675781 L 21.332031 15.859375 C 23.214844 15.113281 25.3125 14.457031 27.675781 13.941406 L 28.296875 16.464844 C 26.378906 18.195312 23.738281 21.242188 22.003906 25.917969 L 14.320312 25.917969 C 13.355469 24.535156 12.136719 23.460938 10.820312 22.648438 C 12.523438 20.894531 14.898438 18.980469 18.132812 17.304688 L 18.132812 16.0625 C 14.359375 17.921875 11.667969 20.097656 9.800781 22.082031 C 7.234375 20.769531 4.519531 20.277344 2.804688 20.09375 L 3.476562 17.363281 C 8.3125 16.085938 10.125 12.949219 10.796875 10.800781 L 18.132812 10.800781 L 18.132812 9.71875 L 4.265625 9.71875 L 0 27 L 32 27 L 27.734375 9.71875 Z M 5.101562 10.800781 L 9.703125 10.800781 C 9.085938 12.585938 7.554688 15 3.773438 16.171875 Z M 1.367188 25.921875 L 2.542969 21.160156 C 4.089844 21.324219 6.621094 21.761719 9.035156 22.929688 C 8.066406 24.058594 7.367188 25.089844 6.878906 25.921875 Z M 8.175781 25.921875 C 8.644531 25.207031 9.265625 24.371094 10.058594 23.472656 C 11.136719 24.105469 12.152344 24.90625 12.996094 25.921875 Z M 30.632812 25.921875 L 23.160156 25.921875 C 24.695312 22.027344 26.886719 19.335938 28.601562 17.683594 Z M 30.632812 25.921875 "/>
<path style=" stroke:none;fill-rule:nonzero;fill:rgb(0%,0%,0%);fill-opacity:1;" d="M 19.199219 19.441406 L 20.265625 19.441406 L 20.265625 7.507812 C 20.644531 7.449219 21 7.34375 21.332031 7.183594 C 22.59375 6.574219 23.464844 5.285156 23.464844 3.78125 C 23.464844 1.691406 21.796875 0 19.734375 0 C 17.671875 0 16 1.691406 16 3.78125 C 16 5.285156 16.875 6.574219 18.132812 7.183594 C 18.464844 7.34375 18.824219 7.449219 19.199219 7.503906 Z M 17.066406 3.78125 C 17.066406 2.289062 18.261719 1.078125 19.734375 1.078125 C 21.207031 1.078125 22.398438 2.289062 22.398438 3.78125 C 22.398438 5.269531 21.207031 6.480469 19.734375 6.480469 C 18.261719 6.480469 17.066406 5.269531 17.066406 3.78125 Z M 17.066406 3.78125 "/>
</g>
</svg>
