<?xml version="1.0" encoding="UTF-8"?>
<svg xmlns="http://www.w3.org/2000/svg" xmlns:xlink="http://www.w3.org/1999/xlink" width="100px" height="100px" viewBox="0 0 100 100" version="1.1">
<g id="surface1">
<path style=" stroke:none;fill-rule:nonzero;fill:rgb(99.215686%,34.901961%,34.901961%);fill-opacity:1;" d="M 85.398438 15.085938 C 88.097656 15.085938 90.28125 17.273438 90.28125 19.96875 C 90.28125 22.667969 88.097656 24.851562 85.398438 24.851562 C 82.703125 24.851562 80.515625 22.667969 80.515625 19.96875 C 80.515625 17.273438 82.703125 15.085938 85.398438 15.085938 Z M 85.398438 15.085938 "/>
<path style=" stroke:none;fill-rule:nonzero;fill:rgb(99.215686%,34.901961%,34.901961%);fill-opacity:1;" d="M 27.78125 80.515625 C 27.78125 84.292969 24.722656 87.351562 20.945312 87.351562 C 17.171875 87.351562 14.109375 84.292969 14.109375 80.515625 C 14.109375 76.742188 17.171875 73.679688 20.945312 73.679688 C 24.722656 73.679688 27.78125 76.742188 27.78125 80.515625 Z M 27.78125 80.515625 "/>
<path style=" stroke:none;fill-rule:nonzero;fill:rgb(30.588235%,37.254902%,49.803922%);fill-opacity:1;" d="M 23.800781 15.453125 C 25.460938 13.789062 27.773438 12.953125 30.109375 13.167969 L 46.355469 14.644531 C 48.199219 14.8125 49.925781 15.617188 51.234375 16.929688 L 87.121094 52.8125 C 90.210938 55.902344 90.210938 60.910156 87.121094 64 L 86.5 64.621094 C 86.476562 64.613281 73.515625 70.957031 73.484375 70.945312 L 67.164062 83.957031 L 66.542969 84.578125 C 63.453125 87.667969 58.445312 87.667969 55.355469 84.578125 L 19.570312 48.796875 C 18.203125 47.421875 17.382812 45.601562 17.269531 43.667969 L 16.273438 26.738281 C 16.140625 24.480469 16.976562 22.277344 18.578125 20.679688 C 20.53125 18.722656 21.882812 17.371094 23.800781 15.453125 Z M 25.039062 22.5 C 23.515625 24.023438 23.515625 26.5 25.039062 28.023438 C 26.566406 29.546875 29.039062 29.546875 30.566406 28.023438 C 32.089844 26.496094 32.089844 24.023438 30.566406 22.5 C 29.042969 20.976562 26.566406 20.976562 25.039062 22.5 Z M 25.039062 22.5 "/>
<path style=" stroke:none;fill-rule:nonzero;fill:rgb(99.215686%,86.666667%,25.490196%);fill-opacity:1;" d="M 86.5 64.625 L 67.164062 83.957031 L 25.734375 42.523438 L 45.066406 23.1875 L 86.5 64.621094 Z M 86.5 64.625 "/>
<path style=" stroke:none;fill-rule:nonzero;fill:rgb(0%,0%,0%);fill-opacity:1;" d="M 92.726562 35.109375 C 92.726562 35.917969 92.070312 36.570312 91.257812 36.570312 C 90.449219 36.570312 89.796875 35.917969 89.796875 35.109375 C 89.796875 34.296875 90.449219 33.640625 91.257812 33.640625 C 92.070312 33.640625 92.726562 34.296875 92.726562 35.109375 Z M 92.726562 35.109375 "/>
<path style=" stroke:none;fill-rule:nonzero;fill:rgb(0%,0%,0%);fill-opacity:1;" d="M 85.890625 81.492188 C 86.695312 81.492188 87.351562 82.148438 87.351562 82.960938 C 87.351562 83.765625 86.695312 84.421875 85.890625 84.421875 C 85.082031 84.421875 84.421875 83.765625 84.421875 82.960938 C 84.421875 82.148438 85.082031 81.492188 85.890625 81.492188 Z M 85.890625 81.492188 "/>
<path style=" stroke:none;fill-rule:nonzero;fill:rgb(0%,0%,0%);fill-opacity:1;" d="M 72.078125 64.21875 C 72.285156 64.726562 72.378906 65.230469 72.359375 65.734375 C 72.34375 66.234375 72.21875 66.722656 71.992188 67.195312 C 71.761719 67.664062 71.449219 68.097656 71.054688 68.496094 C 70.613281 68.9375 70.148438 69.265625 69.660156 69.484375 C 69.167969 69.703125 68.671875 69.8125 68.164062 69.8125 C 67.664062 69.8125 67.164062 69.703125 66.671875 69.488281 C 66.175781 69.269531 65.714844 68.945312 65.28125 68.511719 L 63.125 66.359375 L 68.898438 60.582031 L 71.054688 62.734375 C 71.53125 63.214844 71.875 63.707031 72.078125 64.21875 Z M 70.53125 65.5 C 70.554688 65.21875 70.511719 64.945312 70.40625 64.671875 C 70.296875 64.402344 70.121094 64.148438 69.882812 63.90625 L 69.0625 63.085938 L 65.628906 66.519531 L 66.453125 67.34375 C 66.695312 67.585938 66.953125 67.757812 67.230469 67.859375 C 67.507812 67.964844 67.789062 68 68.070312 67.976562 C 68.351562 67.945312 68.632812 67.863281 68.90625 67.722656 C 69.183594 67.582031 69.449219 67.386719 69.695312 67.136719 C 69.953125 66.882812 70.148438 66.617188 70.289062 66.339844 C 70.429688 66.0625 70.511719 65.785156 70.53125 65.5 Z M 70.53125 65.5 "/>
<path style=" stroke:none;fill-rule:nonzero;fill:rgb(0%,0%,0%);fill-opacity:1;" d="M 67.222656 58.90625 L 61.449219 64.679688 L 60.375 63.609375 L 61.015625 57.644531 L 57.714844 60.945312 L 56.378906 59.613281 L 62.15625 53.835938 L 63.199219 54.878906 L 62.496094 60.960938 L 65.890625 57.570312 Z M 67.222656 58.90625 "/>
<path style=" stroke:none;fill-rule:nonzero;fill:rgb(0%,0%,0%);fill-opacity:1;" d="M 66.84375 13.132812 C 66.84375 13.945312 66.191406 14.601562 65.382812 14.601562 C 64.570312 14.601562 63.914062 13.945312 63.914062 13.132812 C 63.914062 12.324219 64.570312 11.671875 65.382812 11.671875 C 66.191406 11.671875 66.84375 12.324219 66.84375 13.132812 Z M 66.84375 13.132812 "/>
<path style=" stroke:none;fill-rule:nonzero;fill:rgb(0%,0%,0%);fill-opacity:1;" d="M 58.910156 50.589844 L 55.242188 58.472656 L 53.875 57.105469 L 54.71875 55.367188 L 52.921875 53.566406 L 51.1875 54.421875 L 49.824219 53.054688 L 57.707031 49.386719 Z M 55.421875 54.230469 L 56.789062 51.511719 L 54.054688 52.863281 Z M 55.421875 54.230469 "/>
<path style=" stroke:none;fill-rule:nonzero;fill:rgb(0%,0%,0%);fill-opacity:1;" d="M 53.390625 45.414062 C 53.507812 45.757812 53.558594 46.109375 53.542969 46.460938 C 53.523438 46.8125 53.449219 47.152344 53.308594 47.480469 C 53.171875 47.808594 52.984375 48.09375 52.746094 48.328125 C 52.566406 48.507812 52.371094 48.660156 52.164062 48.78125 C 51.953125 48.90625 51.734375 49 51.507812 49.0625 C 51.28125 49.125 51.050781 49.160156 50.816406 49.160156 C 50.582031 49.160156 50.351562 49.125 50.125 49.0625 L 49.246094 52.476562 L 47.742188 50.976562 L 48.5 48.007812 L 47.628906 47.132812 L 45.765625 49 L 44.429688 47.664062 L 50.207031 41.890625 L 52.808594 44.492188 C 53.078125 44.761719 53.273438 45.070312 53.390625 45.414062 Z M 51.757812 46.207031 C 51.769531 45.9375 51.699219 45.726562 51.546875 45.570312 L 50.367188 44.394531 L 48.789062 45.96875 L 50.007812 47.191406 C 50.167969 47.351562 50.375 47.410156 50.640625 47.375 C 50.90625 47.339844 51.152344 47.203125 51.382812 46.972656 C 51.625 46.734375 51.75 46.476562 51.757812 46.207031 Z M 51.757812 46.207031 "/>
<path style=" stroke:none;fill-rule:nonzero;fill:rgb(0%,0%,0%);fill-opacity:1;" d="M 47.703125 39.640625 C 47.777344 39.890625 47.804688 40.140625 47.777344 40.398438 C 47.753906 40.648438 47.683594 40.890625 47.570312 41.132812 C 47.457031 41.371094 47.304688 41.582031 47.125 41.765625 C 46.84375 42.042969 46.515625 42.234375 46.132812 42.339844 C 45.75 42.445312 45.359375 42.421875 44.957031 42.273438 C 45.191406 42.699219 45.277344 43.132812 45.222656 43.578125 C 45.164062 44.015625 44.941406 44.433594 44.550781 44.824219 C 44.300781 45.074219 44.035156 45.242188 43.746094 45.320312 C 43.457031 45.402344 43.164062 45.414062 42.863281 45.359375 C 42.5625 45.300781 42.261719 45.183594 41.960938 45.007812 C 41.660156 44.832031 41.375 44.609375 41.109375 44.34375 L 38.296875 41.53125 L 44.070312 35.757812 L 47.285156 38.96875 C 47.484375 39.167969 47.625 39.394531 47.703125 39.640625 Z M 45.835938 40.101562 C 45.835938 39.898438 45.765625 39.726562 45.625 39.585938 L 44.265625 38.226562 L 43.070312 39.425781 L 44.378906 40.734375 C 44.527344 40.878906 44.707031 40.960938 44.917969 40.976562 C 45.128906 40.992188 45.335938 40.898438 45.542969 40.695312 C 45.734375 40.5 45.832031 40.304688 45.835938 40.101562 Z M 43.765625 42.585938 C 43.785156 42.359375 43.71875 42.167969 43.5625 42.007812 L 42.023438 40.472656 L 40.761719 41.734375 L 42.242188 43.214844 C 42.417969 43.386719 42.617188 43.476562 42.84375 43.476562 C 43.074219 43.476562 43.277344 43.382812 43.464844 43.199219 C 43.640625 43.019531 43.742188 42.816406 43.765625 42.585938 Z M 43.765625 42.585938 "/>
<path style=" stroke:none;fill-rule:nonzero;fill:rgb(0%,0%,0%);fill-opacity:1;" d="M 43.40625 85.890625 C 43.40625 86.699219 42.753906 87.351562 41.945312 87.351562 C 41.132812 87.351562 40.476562 86.699219 40.476562 85.890625 C 40.476562 85.078125 41.132812 84.421875 41.945312 84.421875 C 42.753906 84.421875 43.40625 85.078125 43.40625 85.890625 Z M 43.40625 85.890625 "/>
<path style=" stroke:none;fill-rule:nonzero;fill:rgb(0%,0%,0%);fill-opacity:1;" d="M 21.921875 62.453125 C 21.921875 63.261719 21.269531 63.914062 20.460938 63.914062 C 19.648438 63.914062 18.992188 63.261719 18.992188 62.453125 C 18.992188 61.640625 19.648438 60.984375 20.460938 60.984375 C 21.269531 60.984375 21.921875 61.640625 21.921875 62.453125 Z M 21.921875 62.453125 "/>
<path style=" stroke:none;fill-rule:nonzero;fill:rgb(0%,0%,0%);fill-opacity:1;" d="M 10.203125 21.4375 C 10.203125 22.246094 9.550781 22.898438 8.742188 22.898438 C 7.929688 22.898438 7.273438 22.246094 7.273438 21.4375 C 7.273438 20.625 7.929688 19.96875 8.742188 19.96875 C 9.550781 19.96875 10.203125 20.625 10.203125 21.4375 Z M 10.203125 21.4375 "/>
<path style=" stroke:none;fill-rule:nonzero;fill:rgb(0%,0%,0%);fill-opacity:1;" d="M 60.949219 87.867188 C 58.671875 87.867188 56.398438 87 54.664062 85.269531 L 18.882812 49.484375 C 17.339844 47.941406 16.421875 45.894531 16.292969 43.722656 L 15.296875 26.792969 C 15.148438 24.261719 16.09375 21.78125 17.886719 19.988281 L 23.113281 14.761719 C 24.980469 12.890625 27.566406 11.957031 30.199219 12.195312 L 46.445312 13.671875 C 48.511719 13.859375 50.460938 14.769531 51.925781 16.238281 L 87.8125 52.125 C 89.488281 53.800781 90.414062 56.035156 90.414062 58.40625 C 90.414062 60.78125 89.488281 63.011719 87.8125 64.691406 L 67.234375 85.269531 C 65.5 87 63.226562 87.867188 60.949219 87.867188 Z M 29.390625 14.113281 C 27.558594 14.113281 25.800781 14.832031 24.492188 16.140625 L 19.265625 21.367188 C 17.867188 22.765625 17.132812 24.703125 17.25 26.679688 L 18.246094 43.609375 C 18.34375 45.304688 19.0625 46.902344 20.261719 48.105469 L 56.046875 83.886719 C 57.355469 85.199219 59.097656 85.917969 60.949219 85.917969 C 62.800781 85.917969 64.542969 85.199219 65.851562 83.886719 L 66.472656 83.265625 L 85.808594 63.933594 L 86.429688 63.308594 C 87.738281 62 88.460938 60.257812 88.460938 58.40625 C 88.460938 56.554688 87.738281 54.8125 86.429688 53.503906 L 50.542969 17.617188 C 49.398438 16.476562 47.882812 15.765625 46.269531 15.617188 L 30.023438 14.140625 C 29.8125 14.121094 29.597656 14.113281 29.390625 14.113281 Z M 29.390625 14.113281 "/>
<path style=" stroke:none;fill-rule:nonzero;fill:rgb(0%,0%,0%);fill-opacity:1;" d="M 27.804688 30.140625 C 26.554688 30.140625 25.300781 29.667969 24.351562 28.714844 C 23.429688 27.792969 22.921875 26.566406 22.921875 25.261719 C 22.921875 23.957031 23.429688 22.730469 24.351562 21.808594 C 26.253906 19.90625 29.351562 19.90625 31.257812 21.808594 C 32.179688 22.730469 32.6875 23.957031 32.6875 25.261719 C 32.6875 26.566406 32.179688 27.792969 31.257812 28.714844 C 30.304688 29.667969 29.054688 30.140625 27.804688 30.140625 Z M 27.804688 22.332031 C 27.054688 22.332031 26.304688 22.617188 25.730469 23.191406 C 25.179688 23.742188 24.875 24.480469 24.875 25.261719 C 24.875 26.042969 25.179688 26.78125 25.730469 27.332031 C 26.285156 27.886719 27.019531 28.191406 27.804688 28.191406 C 28.585938 28.191406 29.324219 27.886719 29.875 27.332031 C 30.429688 26.78125 30.734375 26.042969 30.734375 25.261719 C 30.734375 24.480469 30.429688 23.742188 29.875 23.191406 C 29.304688 22.621094 28.554688 22.332031 27.804688 22.332031 Z M 27.804688 22.332031 "/>
<path style=" stroke:none;fill-rule:nonzero;fill:rgb(0%,0%,0%);fill-opacity:1;" d="M 25.039062 23.476562 C 24.789062 23.476562 24.539062 23.382812 24.351562 23.191406 L 15.375 14.210938 C 14.992188 13.832031 14.992188 13.210938 15.375 12.832031 C 15.753906 12.449219 16.375 12.449219 16.753906 12.832031 L 25.730469 21.808594 C 26.113281 22.191406 26.113281 22.808594 25.730469 23.191406 C 25.539062 23.382812 25.289062 23.476562 25.039062 23.476562 Z M 25.039062 23.476562 "/>
<path style=" stroke:none;fill-rule:nonzero;fill:rgb(0%,0%,0%);fill-opacity:1;" d="M 67.164062 84.933594 C 66.914062 84.933594 66.664062 84.839844 66.472656 84.648438 L 25.042969 43.214844 C 24.660156 42.835938 24.660156 42.214844 25.042969 41.835938 L 44.375 22.5 C 44.558594 22.316406 44.808594 22.210938 45.066406 22.210938 C 45.324219 22.210938 45.574219 22.316406 45.757812 22.5 L 87.1875 63.929688 C 87.570312 64.3125 87.570312 64.929688 87.1875 65.3125 C 86.808594 65.691406 86.1875 65.691406 85.808594 65.3125 L 45.066406 24.570312 L 27.113281 42.523438 L 67.855469 83.265625 C 68.234375 83.648438 68.234375 84.265625 67.855469 84.648438 C 67.664062 84.839844 67.414062 84.933594 67.164062 84.933594 Z M 67.164062 84.933594 "/>
<path style=" stroke:none;fill-rule:nonzero;fill:rgb(0%,0%,0%);fill-opacity:1;" d="M 85.398438 25.828125 C 82.167969 25.828125 79.539062 23.203125 79.539062 19.96875 C 79.539062 16.738281 82.167969 14.109375 85.398438 14.109375 C 88.632812 14.109375 91.257812 16.738281 91.257812 19.96875 C 91.257812 23.203125 88.632812 25.828125 85.398438 25.828125 Z M 85.398438 16.0625 C 83.246094 16.0625 81.492188 17.816406 81.492188 19.96875 C 81.492188 22.125 83.246094 23.875 85.398438 23.875 C 87.554688 23.875 89.304688 22.125 89.304688 19.96875 C 89.304688 17.816406 87.554688 16.0625 85.398438 16.0625 Z M 85.398438 16.0625 "/>
<path style=" stroke:none;fill-rule:nonzero;fill:rgb(0%,0%,0%);fill-opacity:1;" d="M 20.945312 88.328125 C 16.640625 88.328125 13.132812 84.824219 13.132812 80.515625 C 13.132812 76.210938 16.640625 72.703125 20.945312 72.703125 C 25.253906 72.703125 28.757812 76.210938 28.757812 80.515625 C 28.757812 84.824219 25.253906 88.328125 20.945312 88.328125 Z M 20.945312 74.65625 C 17.714844 74.65625 15.085938 77.285156 15.085938 80.515625 C 15.085938 83.75 17.714844 86.375 20.945312 86.375 C 24.179688 86.375 26.804688 83.75 26.804688 80.515625 C 26.804688 77.285156 24.179688 74.65625 20.945312 74.65625 Z M 20.945312 74.65625 "/>
</g>
</svg>
