<?xml version="1.0" encoding="UTF-8" standalone="no"?>
<svg
   xmlns:dc="http://purl.org/dc/elements/1.1/"
   xmlns:cc="http://creativecommons.org/ns#"
   xmlns:rdf="http://www.w3.org/1999/02/22-rdf-syntax-ns#"
   xmlns:svg="http://www.w3.org/2000/svg"
   xmlns="http://www.w3.org/2000/svg"
   width="24"
   height="24"
   viewBox="0 0 24 24"
   version="1.1"
   id="svg8">
  <defs
     id="defs2">
    <rect
       x="-1.1008456"
       y="289.81766"
       width="7.9207187"
       height="7.0346723"
       id="rect2504" />
  </defs>
  <metadata
     id="metadata5">
    <rdf:RDF>
      <cc:Work
         rdf:about="">
        <dc:format>image/svg+xml</dc:format>
        <dc:type
           rdf:resource="http://purl.org/dc/dcmitype/StillImage" />
        <dc:title />
      </cc:Work>
    </rdf:RDF>
  </metadata>
  <g
     id="g2859"
     transform="translate(-0.046875,-0.0761934)"
     style="display:inline">
    <path
       id="rect2210"
       style="color:#000000;font-style:normal;font-variant:normal;font-weight:normal;font-stretch:normal;font-size:medium;line-height:normal;font-family:sans-serif;font-variant-ligatures:normal;font-variant-position:normal;font-variant-caps:normal;font-variant-numeric:normal;font-variant-alternates:normal;font-variant-east-asian:normal;font-feature-settings:normal;font-variation-settings:normal;text-indent:0;text-align:start;text-decoration:none;text-decoration-line:none;text-decoration-style:solid;text-decoration-color:#000000;letter-spacing:normal;word-spacing:normal;text-transform:none;writing-mode:lr-tb;direction:ltr;text-orientation:mixed;dominant-baseline:auto;baseline-shift:baseline;text-anchor:start;white-space:normal;shape-padding:0;shape-margin:0;inline-size:0;clip-rule:nonzero;display:inline;overflow:visible;visibility:visible;opacity:1;isolation:auto;mix-blend-mode:normal;color-interpolation:sRGB;color-interpolation-filters:linearRGB;solid-color:#000000;solid-opacity:1;vector-effect:none;fill:#000000;fill-opacity:1;fill-rule:nonzero;stroke:none;stroke-linecap:square;stroke-linejoin:miter;stroke-miterlimit:4;stroke-dasharray:none;stroke-dashoffset:0;stroke-opacity:1;paint-order:fill markers stroke;color-rendering:auto;image-rendering:auto;shape-rendering:auto;text-rendering:auto;enable-background:accumulate;stop-color:#000000;stop-opacity:1"
       d="m -38.492188,12.871094 v 0.5 8.833984 h 5.035157 v -1.24414 l 0.01758,0.0059 c 1.313582,0.436857 3.186917,0.820619 5.042969,1.484375 l 0.138672,0.04883 0.142578,-0.0332 c 0.583743,-0.135717 2.149295,-0.62254 4.023437,-1.224609 1.874143,-0.602071 4.015803,-1.31062 5.605469,-1.859376 0.762151,-0.263593 1.16874,-1.116206 0.888672,-1.873046 v -0.002 -0.002 c -0.294283,-0.774252 -1.144115,-1.11568 -1.871094,-0.892578 l -4.902344,1.498047 c -0.0044,-0.510227 -0.259565,-1.01297 -0.673828,-1.33789 l -0.02539,-0.01953 -0.02734,-0.01563 c -2.093814,-1.2474 -2.27499,-1.402161 -5.21875,-2.966797 l -0.134766,-0.07226 -0.152344,0.01563 c -1.009482,0.108018 -2.71865,0.38978 -2.853515,0.412109 v -1.255859 z m 1,1 h 3.035157 v 7.333984 h -3.035157 z m 6.841797,0.859375 c 2.692392,1.433897 2.999138,1.650815 4.990235,2.83789 0.314142,0.250955 0.396989,0.557927 0.205078,0.833985 -0.104098,0.14993 -0.206386,0.208884 -0.357422,0.234375 -0.149526,0.02524 -0.359444,-0.0014 -0.595703,-0.105469 -0.90067,-0.416019 -1.388705,-0.683741 -2.380859,-1.240234 l -0.435547,-0.244141 -0.488282,0.871094 0.435547,0.246093 c 0.995404,0.558317 1.525127,0.847708 2.451172,1.275391 l 0.002,0.002 h 0.0039 c 0.378627,0.168851 0.780663,0.246044 1.173828,0.179688 0.220065,-0.03714 0.430539,-0.129512 0.61914,-0.261719 l 5.851563,-1.791016 c 0.232485,-0.07135 0.542529,0.04481 0.638672,0.289063 0.0908,0.249822 -0.02003,0.49176 -0.275391,0.580078 -1.578851,0.545021 -3.716242,1.253502 -5.583984,1.853516 -1.81488,0.583031 -3.343786,1.04746 -3.833985,1.167968 -1.873089,-0.651673 -3.730059,-1.054138 -4.894531,-1.441406 l -0.332031,-0.111328 v -4.763672 l 0.08203,-0.01367 c 0,0 1.71352,-0.279784 2.724609,-0.398437 z"
       transform="translate(40)" />
    <path
       id="ellipse2216"
       style="color:#000000;font-style:normal;font-variant:normal;font-weight:normal;font-stretch:normal;font-size:medium;line-height:normal;font-family:sans-serif;font-variant-ligatures:normal;font-variant-position:normal;font-variant-caps:normal;font-variant-numeric:normal;font-variant-alternates:normal;font-variant-east-asian:normal;font-feature-settings:normal;font-variation-settings:normal;text-indent:0;text-align:start;text-decoration:none;text-decoration-line:none;text-decoration-style:solid;text-decoration-color:#000000;letter-spacing:normal;word-spacing:normal;text-transform:none;writing-mode:lr-tb;direction:ltr;text-orientation:mixed;dominant-baseline:auto;baseline-shift:baseline;text-anchor:start;white-space:normal;shape-padding:0;shape-margin:0;inline-size:0;clip-rule:nonzero;display:inline;overflow:visible;visibility:visible;opacity:1;isolation:auto;mix-blend-mode:normal;color-interpolation:sRGB;color-interpolation-filters:linearRGB;solid-color:#000000;solid-opacity:1;vector-effect:none;fill:#000000;fill-opacity:1;fill-rule:nonzero;stroke:none;stroke-linecap:butt;stroke-linejoin:miter;stroke-miterlimit:4;stroke-dasharray:none;stroke-dashoffset:0;stroke-opacity:1;paint-order:fill markers stroke;color-rendering:auto;image-rendering:auto;shape-rendering:auto;text-rendering:auto;enable-background:accumulate;stop-color:#000000;stop-opacity:1"
       d="m -23.880859,1.6523438 c -3.566239,0 -6.46875,2.9006442 -6.46875,6.4667968 0,3.5661524 2.902511,6.4687504 6.46875,6.4687504 3.566238,0 6.466797,-2.902598 6.466797,-6.4687504 0,-3.5661526 -2.900559,-6.4667969 -6.466797,-6.4667968 z m 0,1 c 0.198344,0 0.407687,0.08797 0.65039,0.3261718 0.242704,0.2382023 0.494568,0.6216052 0.708985,1.1191406 0.234461,0.5440484 0.419779,1.2273752 0.544922,1.9882813 h -3.808594 c 0.125143,-0.7609061 0.31046,-1.4442329 0.544922,-1.9882813 0.214416,-0.4975355 0.466281,-0.8809383 0.708984,-1.1191406 0.242703,-0.2382022 0.452046,-0.3261718 0.650391,-0.3261718 z M -25.792969,3 c -0.131045,0.2166624 -0.255393,0.4462948 -0.365234,0.7011719 -0.291782,0.6770555 -0.50267,1.493299 -0.636719,2.3847656 h -2.160156 C -28.384959,4.6605172 -27.235299,3.5368746 -25.792969,3 Z m 3.824219,0 c 1.442006,0.5368898 2.59239,1.6604598 3.162109,3.0859375 h -2.160156 C -21.100846,5.1944709 -21.311734,4.3782274 -21.603516,3.7011719 -21.713356,3.4462948 -21.837704,3.2166624 -21.96875,3 Z M -29.25,7.0859375 h 0.06641 2.273438 c -0.02443,0.3379925 -0.04297,0.6795409 -0.04297,1.0332031 0,0.3536623 0.01854,0.6952106 0.04297,1.0332032 H -29.183594 -29.25 c -0.06379,-0.3347856 -0.09961,-0.6795241 -0.09961,-1.0332032 0,-0.353679 0.03582,-0.6984646 0.09961,-1.0332031 z m 3.341797,0 h 4.054687 c 0.02671,0.3361094 0.04492,0.6786683 0.04492,1.0332031 0,0.3545349 -0.01821,0.6970937 -0.04492,1.0332032 h -4.054687 c -0.02671,-0.3361095 -0.04492,-0.6786683 -0.04492,-1.0332032 0,-0.3545348 0.01821,-0.6970937 0.04492,-1.0332031 z m 5.056641,0 h 2.273437 0.06445 c 0.06374,0.3347385 0.09961,0.6795241 0.09961,1.0332031 0,0.3536791 -0.03587,0.6984176 -0.09961,1.0332032 h -0.06445 -2.273437 c 0.02442,-0.3379926 0.04297,-0.6795409 0.04297,-1.0332032 0,-0.3536622 -0.01854,-0.6952106 -0.04297,-1.0332031 z m -8.103516,3.0664065 h 2.160156 c 0.134049,0.891466 0.344937,1.70771 0.636719,2.384765 0.109841,0.254878 0.234189,0.48451 0.365234,0.701172 -1.442203,-0.53728 -2.592026,-1.660225 -3.162109,-3.085937 z m 3.169922,0 h 3.808594 c -0.125143,0.760906 -0.310461,1.444233 -0.544922,1.988281 -0.214417,0.497536 -0.466281,0.882892 -0.708985,1.121094 -0.242703,0.238202 -0.452046,0.326172 -0.65039,0.326172 -0.198345,0 -0.407688,-0.08797 -0.650391,-0.326172 -0.242703,-0.238202 -0.494568,-0.623558 -0.708984,-1.121094 -0.234462,-0.544048 -0.419779,-1.227375 -0.544922,-1.988281 z m 4.818359,0 h 2.160156 c -0.569684,1.42577 -1.72023,2.548642 -3.162109,3.085937 0.131046,-0.216662 0.255394,-0.446294 0.365234,-0.701172 0.291782,-0.677055 0.50267,-1.493299 0.636719,-2.384765 z"
       transform="translate(40)" />
    <g
       transform="translate(0,0.15288813)"
       id="g2850" />
  </g>
</svg>
