<svg xmlns="http://www.w3.org/2000/svg"  viewBox="0 0 48 48" width="30px" height="30px"><linearGradient id="SVGID_1_" x1="13.069" x2="31.926" y1="244.001" y2="216.725" gradientTransform="matrix(1 0 0 -1 0 254)" gradientUnits="userSpaceOnUse"><stop offset="0" stop-color="#7dd8f3"/><stop offset="1" stop-color="#45b0d0"/></linearGradient><path fill="url(#SVGID_1_)" d="M4,38V13h40v25c0,1.1-0.9,2-2,2H6C4.9,40,4,39.1,4,38z"/><path fill="#0f94bf" d="M38.5,22h-23c-0.3,0-0.5-0.2-0.5-0.5v-1c0-0.3,0.2-0.5,0.5-0.5h23c0.3,0,0.5,0.2,0.5,0.5v1	C39,21.8,38.8,22,38.5,22z"/><path fill="#0f94bf" d="M38.5,27h-23c-0.3,0-0.5-0.2-0.5-0.5v-1c0-0.3,0.2-0.5,0.5-0.5h23c0.3,0,0.5,0.2,0.5,0.5v1	C39,26.8,38.8,27,38.5,27z"/><path fill="#0f94bf" d="M38.5,32h-23c-0.3,0-0.5-0.2-0.5-0.5v-1c0-0.3,0.2-0.5,0.5-0.5h23c0.3,0,0.5,0.2,0.5,0.5v1	C39,31.8,38.8,32,38.5,32z"/><linearGradient id="SVGID_2_" x1="4.808" x2="42.75" y1="247.22" y2="239.505" gradientTransform="matrix(1 0 0 -1 0 254)" gradientUnits="userSpaceOnUse"><stop offset="0" stop-color="#0077d2"/><stop offset="1" stop-color="#0b59a2"/></linearGradient><path fill="url(#SVGID_2_)" d="M44,10v3H4v-3c0-1.1,0.9-2,2-2h36C43.1,8,44,8.9,44,10z"/><path fill="#0f94bf" d="M9.5,22h1c0.3,0,0.5-0.2,0.5-0.5v-1c0-0.3-0.2-0.5-0.5-0.5h-1C9.2,20,9,20.2,9,20.5v1C9,21.8,9.2,22,9.5,22z"/><path fill="#0f94bf" d="M9.5,27h1c0.3,0,0.5-0.2,0.5-0.5v-1c0-0.3-0.2-0.5-0.5-0.5h-1C9.2,25,9,25.2,9,25.5v1C9,26.8,9.2,27,9.5,27z"/><path fill="#0f94bf" d="M9.5,32h1c0.3,0,0.5-0.2,0.5-0.5v-1c0-0.3-0.2-0.5-0.5-0.5h-1C9.2,30,9,30.2,9,30.5v1C9,31.8,9.2,32,9.5,32z"/><path d="M42,40c1.1,0,2-0.9,2-2v-1.6l-7.9-5C35.8,31.1,35.4,31,35,31c-0.3,0-0.7,0.1-1,0.2c-0.6,0.4-1,1-1,1.8v7H42z" opacity=".05"/><path d="M42,40c1.1,0,2-0.9,2-2v-1.1l-8.2-5.2c-0.2-0.2-0.5-0.2-0.8-0.2c-0.3,0-0.5,0.1-0.7,0.2	c-0.5,0.3-0.8,0.8-0.8,1.3v7H42z" opacity=".07"/><linearGradient id="SVGID_3_" x1="38.716" x2="41.041" y1="222.133" y2="206.972" gradientTransform="matrix(1 0 0 -1 0 254)" gradientUnits="userSpaceOnUse"><stop offset="0" stop-color="#a3ffff"/><stop offset=".223" stop-color="#9dfbff"/><stop offset=".53" stop-color="#8bf1ff"/><stop offset=".885" stop-color="#6ee0ff"/><stop offset="1" stop-color="#63daff"/></linearGradient><path fill="url(#SVGID_3_)" d="M46.5,39.2l-11-7c-0.3-0.2-0.7-0.2-1,0C34.2,32.3,34,32.6,34,33v14c0,0.4,0.2,0.7,0.5,0.9	C34.7,48,34.8,48,35,48c0.2,0,0.4-0.1,0.5-0.2l11-7c0.3-0.2,0.5-0.5,0.5-0.8S46.8,39.3,46.5,39.2z"/></svg>