<?xml version="1.0" encoding="UTF-8"?>
<svg xmlns="http://www.w3.org/2000/svg" xmlns:xlink="http://www.w3.org/1999/xlink" width="50px" height="50px" viewBox="0 0 50 50" version="1.1">
<g id="surface1">
<path style=" stroke:none;fill-rule:nonzero;fill:rgb(94.117647%,27.058824%,30.588235%);fill-opacity:1;" d="M 33.507812 16.492188 C 32.84375 15.828125 31.941406 15.457031 31.003906 15.457031 C 30.066406 15.457031 29.164062 15.828125 28.5 16.492188 L 25 19.992188 L 21.5 16.492188 C 20.835938 15.828125 19.933594 15.453125 18.996094 15.453125 C 18.058594 15.453125 17.15625 15.828125 16.492188 16.492188 C 15.828125 17.15625 15.453125 18.058594 15.453125 18.996094 C 15.453125 19.933594 15.828125 20.835938 16.492188 21.5 L 19.992188 25 L 16.492188 28.5 C 15.828125 29.164062 15.453125 30.066406 15.453125 31.003906 C 15.453125 31.941406 15.828125 32.84375 16.492188 33.507812 C 17.15625 34.171875 18.058594 34.546875 18.996094 34.546875 C 19.933594 34.546875 20.835938 34.171875 21.5 33.507812 L 25 30.007812 L 28.5 33.507812 C 28.828125 33.835938 29.21875 34.097656 29.648438 34.277344 C 30.078125 34.453125 30.539062 34.546875 31.003906 34.546875 C 31.46875 34.546875 31.929688 34.453125 32.359375 34.277344 C 32.789062 34.097656 33.179688 33.835938 33.507812 33.507812 C 33.835938 33.179688 34.097656 32.789062 34.277344 32.359375 C 34.453125 31.929688 34.546875 31.46875 34.546875 31.003906 C 34.546875 30.539062 34.453125 30.078125 34.277344 29.648438 C 34.097656 29.21875 33.835938 28.828125 33.507812 28.5 L 30.007812 25 L 33.507812 21.5 C 34.167969 20.835938 34.539062 19.933594 34.539062 18.996094 C 34.539062 18.058594 34.167969 17.15625 33.507812 16.492188 Z M 33.507812 16.492188 "/>
<path style=" stroke:none;fill-rule:nonzero;fill:rgb(94.117647%,27.058824%,30.588235%);fill-opacity:1;" d="M 25 2.34375 C 20.519531 2.34375 16.140625 3.671875 12.414062 6.160156 C 8.6875 8.652344 5.78125 12.191406 4.070312 16.328125 C 2.355469 20.46875 1.90625 25.023438 2.777344 29.421875 C 3.652344 33.816406 5.8125 37.851562 8.980469 41.019531 C 12.148438 44.1875 16.183594 46.347656 20.578125 47.222656 C 24.976562 48.09375 29.53125 47.644531 33.671875 45.933594 C 37.808594 44.21875 41.347656 41.3125 43.839844 37.585938 C 46.328125 33.859375 47.65625 29.480469 47.65625 25 C 47.65625 18.992188 45.269531 13.226562 41.019531 8.980469 C 36.773438 4.730469 31.007812 2.34375 25 2.34375 Z M 25 40.625 C 21.910156 40.625 18.890625 39.707031 16.320312 37.992188 C 13.75 36.273438 11.746094 33.835938 10.5625 30.980469 C 9.382812 28.125 9.074219 24.984375 9.675781 21.953125 C 10.277344 18.921875 11.765625 16.136719 13.953125 13.953125 C 16.136719 11.765625 18.921875 10.277344 21.953125 9.675781 C 24.984375 9.074219 28.125 9.382812 30.980469 10.5625 C 33.835938 11.746094 36.273438 13.75 37.992188 16.320312 C 39.707031 18.890625 40.625 21.910156 40.625 25 C 40.625 29.144531 38.980469 33.117188 36.046875 36.046875 C 33.117188 38.980469 29.144531 40.625 25 40.625 Z M 25 40.625 "/>
</g>
</svg>
