<?xml version="1.0" encoding="UTF-8"?>
<svg xmlns="http://www.w3.org/2000/svg" xmlns:xlink="http://www.w3.org/1999/xlink" width="30px" height="30px" viewBox="0 0 30 30" version="1.1">
<g id="surface1">
<path style=" stroke:none;fill-rule:nonzero;fill:rgb(0%,0%,0%);fill-opacity:1;" d="M 16.199219 15.601562 C 16.199219 12.15625 13.953125 9.234375 10.851562 8.203125 C 11.910156 7.4375 12.601562 6.199219 12.601562 4.800781 C 12.601562 2.484375 10.714844 0.601562 8.398438 0.601562 C 6.085938 0.601562 4.199219 2.484375 4.199219 4.800781 C 4.199219 6.199219 4.890625 7.4375 5.945312 8.203125 C 2.84375 9.234375 0.601562 12.15625 0.601562 15.601562 L 0.601562 16.199219 L 16.199219 16.199219 Z M 5.398438 4.800781 C 5.398438 3.144531 6.746094 1.800781 8.398438 1.800781 C 10.054688 1.800781 11.398438 3.144531 11.398438 4.800781 C 11.398438 6.453125 10.054688 7.800781 8.398438 7.800781 C 6.746094 7.800781 5.398438 6.453125 5.398438 4.800781 Z M 1.828125 15 C 2.132812 11.640625 4.960938 9 8.398438 9 C 11.835938 9 14.667969 11.640625 14.972656 15 Z M 1.828125 15 "/>
<path style=" stroke:none;fill-rule:nonzero;fill:rgb(0%,0%,0%);fill-opacity:1;" d="M 24.054688 21.402344 C 25.109375 20.636719 25.800781 19.398438 25.800781 18 C 25.800781 15.683594 23.914062 13.800781 21.601562 13.800781 C 19.285156 13.800781 17.398438 15.683594 17.398438 18 C 17.398438 19.398438 18.089844 20.636719 19.148438 21.402344 C 16.046875 22.433594 13.800781 25.355469 13.800781 28.800781 L 13.800781 29.398438 L 29.398438 29.398438 L 29.398438 28.800781 C 29.398438 25.355469 27.15625 22.433594 24.054688 21.402344 Z M 18.601562 18 C 18.601562 16.347656 19.945312 15 21.601562 15 C 23.253906 15 24.601562 16.347656 24.601562 18 C 24.601562 19.652344 23.253906 21 21.601562 21 C 19.945312 21 18.601562 19.652344 18.601562 18 Z M 15.027344 28.199219 C 15.332031 24.839844 18.164062 22.199219 21.601562 22.199219 C 25.039062 22.199219 27.867188 24.839844 28.171875 28.199219 Z M 15.027344 28.199219 "/>
<path style=" stroke:none;fill-rule:nonzero;fill:rgb(0%,0%,0%);fill-opacity:1;" d="M 22.199219 11.398438 L 22.199219 4.199219 L 17.046875 4.199219 L 19.023438 2.222656 L 18.175781 1.375 L 14.75 4.800781 L 18.175781 8.222656 L 19.023438 7.375 L 17.046875 5.398438 L 21 5.398438 L 21 11.398438 Z M 22.199219 11.398438 "/>
<path style=" stroke:none;fill-rule:nonzero;fill:rgb(0%,0%,0%);fill-opacity:1;" d="M 7.375 22.625 L 9.351562 24.601562 L 5.398438 24.601562 L 5.398438 18.601562 L 4.199219 18.601562 L 4.199219 25.800781 L 9.351562 25.800781 L 7.375 27.777344 L 8.222656 28.625 L 11.648438 25.199219 L 8.222656 21.777344 Z M 7.375 22.625 "/>
</g>
</svg>
