<?xml version="1.0" encoding="UTF-8"?>
<svg xmlns="http://www.w3.org/2000/svg" xmlns:xlink="http://www.w3.org/1999/xlink" width="64px" height="64px" viewBox="0 0 64 64" version="1.1">
<g id="surface1">
<path style=" stroke:none;fill-rule:nonzero;fill:rgb(20.392157%,52.941176%,53.72549%);fill-opacity:1;" d="M 59.371094 50.851562 C 57.253906 43.265625 46.628906 44.105469 42.042969 41.929688 C 37.457031 39.75 38.175781 32.441406 37.59375 31.171875 L 26.40625 31.171875 C 25.824219 32.441406 26.542969 39.75 21.957031 41.929688 C 17.371094 44.105469 6.746094 43.265625 4.628906 50.851562 C 3.460938 55.035156 3.515625 56.3125 3.195312 60.949219 C 3.195312 60.949219 17.773438 64 31.671875 64 C 45.570312 64 60.804688 60.949219 60.804688 60.949219 C 60.484375 56.3125 60.539062 55.035156 59.371094 50.851562 Z M 59.371094 50.851562 "/>
<path style=" stroke:none;fill-rule:nonzero;fill:rgb(18.039216%,49.803922%,49.803922%);fill-opacity:1;" d="M 36.117188 43.597656 C 40.703125 45.777344 51.328125 44.9375 53.445312 52.519531 C 54.558594 56.503906 54.5625 57.855469 54.835938 61.976562 C 58.488281 61.414062 60.804688 60.949219 60.804688 60.949219 C 60.480469 56.3125 60.539062 55.035156 59.371094 50.851562 C 57.253906 43.265625 46.628906 44.105469 42.042969 41.929688 C 37.457031 39.75 38.171875 32.441406 37.59375 31.171875 L 31.667969 31.171875 C 31.667969 31.171875 31.53125 41.421875 36.117188 43.597656 Z M 36.117188 43.597656 "/>
<path style=" stroke:none;fill-rule:nonzero;fill:rgb(18.039216%,49.803922%,49.803922%);fill-opacity:1;" d="M 22.460938 41.65625 L 21.730469 47.355469 L 31.988281 53.4375 Z M 22.460938 41.65625 "/>
<path style=" stroke:none;fill-rule:nonzero;fill:rgb(18.039216%,49.803922%,49.803922%);fill-opacity:1;" d="M 31.988281 53.4375 L 42.023438 47.355469 L 41.429688 41.585938 Z M 31.988281 53.4375 "/>
<path style=" stroke:none;fill-rule:nonzero;fill:rgb(90.980392%,77.254902%,61.960784%);fill-opacity:1;" d="M 31.988281 53.4375 L 39.238281 38.582031 L 24.648438 38.582031 Z M 31.988281 53.4375 "/>
<path style=" stroke:none;fill-rule:nonzero;fill:rgb(86.666667%,70.980392%,55.686275%);fill-opacity:1;" d="M 32.65625 38.582031 C 33.300781 40.753906 34.363281 42.765625 36.117188 43.597656 C 36.296875 43.683594 36.480469 43.761719 36.671875 43.835938 L 39.238281 38.582031 Z M 32.65625 38.582031 "/>
<path style=" stroke:none;fill-rule:nonzero;fill:rgb(36.078431%,61.960784%,62.745098%);fill-opacity:1;" d="M 31.988281 53.4375 L 24.710938 38.398438 C 24.710938 38.398438 24.066406 39.367188 22.460938 41.652344 L 22.5625 46.664062 Z M 31.988281 53.4375 "/>
<path style=" stroke:none;fill-rule:nonzero;fill:rgb(36.078431%,61.960784%,62.745098%);fill-opacity:1;" d="M 31.988281 53.4375 L 39.089844 38.398438 C 39.089844 38.398438 39.824219 39.296875 41.429688 41.585938 L 41.234375 46.664062 Z M 31.988281 53.4375 "/>
<path style=" stroke:none;fill-rule:nonzero;fill:rgb(31.764706%,59.607843%,61.960784%);fill-opacity:1;" d="M 41.300781 45.015625 L 41.429688 41.585938 C 39.824219 39.296875 39.089844 38.398438 39.089844 38.398438 L 36.546875 43.785156 C 37.835938 44.3125 39.503906 44.652344 41.300781 45.015625 Z M 41.300781 45.015625 "/>
<path style=" stroke:none;fill-rule:nonzero;fill:rgb(87.843137%,85.882353%,82.745098%);fill-opacity:1;" d="M 33.257812 56.542969 C 33.257812 55.800781 32.691406 55.195312 31.988281 55.195312 C 31.285156 55.195312 30.714844 55.800781 30.714844 56.542969 C 30.714844 57.285156 31.285156 57.886719 31.988281 57.886719 C 32.691406 57.886719 33.257812 57.285156 33.257812 56.542969 Z M 33.257812 56.542969 "/>
<path style=" stroke:none;fill-rule:nonzero;fill:rgb(87.843137%,85.882353%,82.745098%);fill-opacity:1;" d="M 33.257812 61.554688 C 33.257812 60.808594 32.691406 60.207031 31.988281 60.207031 C 31.285156 60.207031 30.714844 60.808594 30.714844 61.554688 C 30.714844 62.296875 31.285156 62.898438 31.988281 62.898438 C 32.691406 62.898438 33.257812 62.296875 33.257812 61.554688 Z M 33.257812 61.554688 "/>
<path style=" stroke:none;fill-rule:nonzero;fill:rgb(80%,63.529412%,50.588235%);fill-opacity:1;" d="M 24.898438 38.722656 C 26.757812 40.324219 28.933594 41.910156 31.988281 42.367188 C 35.050781 41.90625 37.21875 40.289062 39.078125 38.683594 C 37.53125 35.675781 38.011719 32.085938 37.589844 31.167969 L 26.40625 31.167969 C 25.984375 32.089844 26.453125 35.714844 24.898438 38.722656 Z M 24.898438 38.722656 "/>
<path style=" stroke:none;fill-rule:nonzero;fill:rgb(90.980392%,77.254902%,61.960784%);fill-opacity:1;" d="M 3.195312 60.949219 C 3.195312 60.949219 8.097656 61.976562 14.925781 62.835938 L 3.640625 55.351562 C 3.433594 56.894531 3.367188 58.421875 3.195312 60.949219 Z M 3.195312 60.949219 "/>
<path style=" stroke:none;fill-rule:nonzero;fill:rgb(90.980392%,77.254902%,61.960784%);fill-opacity:1;" d="M 60.355469 55.347656 L 49.164062 62.773438 C 55.921875 61.925781 60.804688 60.949219 60.804688 60.949219 C 60.628906 58.421875 60.566406 56.894531 60.355469 55.347656 Z M 60.355469 55.347656 "/>
<path style=" stroke:none;fill-rule:nonzero;fill:rgb(86.666667%,70.980392%,55.686275%);fill-opacity:1;" d="M 60.804688 60.949219 C 60.628906 58.421875 60.566406 56.894531 60.355469 55.347656 L 54.644531 59.136719 C 54.707031 59.953125 54.761719 60.863281 54.835938 61.976562 C 58.488281 61.414062 60.804688 60.949219 60.804688 60.949219 Z M 60.804688 60.949219 "/>
<path style=" stroke:none;fill-rule:nonzero;fill:rgb(91.764706%,89.803922%,86.27451%);fill-opacity:1;" d="M 49.9375 43.808594 L 45.660156 42.9375 C 45.660156 42.9375 44.75 51.652344 44.46875 63.304688 C 45.976562 63.152344 47.4375 62.988281 48.820312 62.816406 C 49.105469 51.789062 49.9375 43.808594 49.9375 43.808594 Z M 49.9375 43.808594 "/>
<path style=" stroke:none;fill-rule:nonzero;fill:rgb(91.764706%,89.803922%,86.27451%);fill-opacity:1;" d="M 14.054688 43.808594 C 14.054688 43.808594 14.894531 51.8125 15.175781 62.867188 C 16.558594 63.039062 18.015625 63.203125 19.527344 63.355469 C 19.25 51.675781 18.335938 42.9375 18.335938 42.9375 Z M 14.054688 43.808594 "/>
<path style=" stroke:none;fill-rule:nonzero;fill:rgb(87.843137%,85.882353%,82.745098%);fill-opacity:1;" d="M 45.386719 45.941406 C 46.886719 46.355469 48.335938 46.886719 49.601562 47.640625 C 49.792969 45.207031 49.9375 43.808594 49.9375 43.808594 L 45.660156 42.9375 C 45.660156 42.9375 45.546875 44.023438 45.386719 45.941406 Z M 45.386719 45.941406 "/>
<path style=" stroke:none;fill-rule:nonzero;fill:rgb(18.431373%,19.607843%,20%);fill-opacity:1;" d="M 22.597656 36.914062 C 22.597656 36.914062 11.273438 29.753906 13.007812 15.328125 C 13.925781 7.683594 18.347656 0 31.730469 0 C 43.449219 0 46.222656 5.128906 45.59375 8.933594 C 45.59375 8.933594 47.300781 8.90625 48.417969 9.957031 C 50.039062 11.484375 51.503906 20.425781 48.914062 27.484375 C 45.996094 35.4375 41.394531 36.914062 41.394531 36.914062 Z M 22.597656 36.914062 "/>
<path style=" stroke:none;fill-rule:nonzero;fill:rgb(86.666667%,70.980392%,55.686275%);fill-opacity:1;" d="M 44.273438 27.964844 C 45.542969 28.191406 46.914062 26.484375 47.335938 24.148438 C 47.753906 21.8125 47.066406 19.734375 45.796875 19.507812 C 44.527344 19.277344 43.15625 20.988281 42.734375 23.320312 C 42.316406 25.65625 43.003906 27.734375 44.273438 27.964844 Z M 44.273438 27.964844 "/>
<path style=" stroke:none;fill-rule:nonzero;fill:rgb(90.980392%,77.254902%,61.960784%);fill-opacity:1;" d="M 16.628906 24.152344 C 17.050781 26.488281 18.417969 28.195312 19.6875 27.964844 C 20.960938 27.738281 21.648438 25.660156 21.226562 23.324219 C 20.808594 20.988281 19.4375 19.28125 18.167969 19.507812 C 16.898438 19.738281 16.210938 21.816406 16.628906 24.152344 Z M 16.628906 24.152344 "/>
<path style=" stroke:none;fill-rule:nonzero;fill:rgb(90.980392%,77.254902%,61.960784%);fill-opacity:1;" d="M 44.128906 9.433594 L 32.09375 11.285156 C 32.09375 11.285156 27.828125 11.46875 24.347656 13.238281 C 21.152344 14.863281 18.71875 18.042969 18.6875 18.941406 C 18.378906 27.8125 20.1875 39.964844 31.984375 41.738281 C 50.9375 38.890625 44.128906 9.433594 44.128906 9.433594 Z M 44.128906 9.433594 "/>
<path style=" stroke:none;fill-rule:nonzero;fill:rgb(86.666667%,70.980392%,55.686275%);fill-opacity:1;" d="M 31.984375 41.742188 C 50.9375 38.890625 44.128906 9.433594 44.128906 9.433594 L 41.289062 9.433594 C 42.066406 21.738281 43.140625 28.273438 38.675781 35.398438 C 35.136719 41.042969 31.984375 41.742188 31.984375 41.742188 Z M 31.984375 41.742188 "/>
<path style=" stroke:none;fill-rule:nonzero;fill:rgb(86.666667%,70.980392%,55.686275%);fill-opacity:1;" d="M 43.679688 8.121094 C 43.679688 8.121094 37.109375 11.277344 27.300781 11.109375 C 18.65625 10.960938 18.769531 18.371094 18.695312 18.871094 C 18.695312 18.871094 20.710938 15.136719 26.332031 14.113281 C 31.441406 13.183594 35.507812 14.738281 39.15625 15.082031 C 43.222656 15.464844 44.574219 12.382812 44.574219 12.382812 Z M 43.679688 8.121094 "/>
<path style=" stroke:none;fill-rule:nonzero;fill:rgb(18.431373%,19.607843%,20%);fill-opacity:1;" d="M 43.328125 6.914062 C 43.328125 6.914062 37.105469 10.566406 27.300781 10.277344 C 16.824219 9.964844 18.640625 18.644531 18.695312 18.875 C 18.695312 18.875 19.777344 14.808594 25.34375 13.496094 C 28.957031 12.648438 32.433594 12.984375 36.035156 13.699219 C 44.140625 15.308594 44.855469 10.5 44.855469 10.5 C 44.855469 10.5 45.261719 8.628906 43.328125 6.914062 Z M 43.328125 6.914062 "/>
</g>
</svg>
