<?xml version="1.0" encoding="UTF-8"?>
<svg xmlns="http://www.w3.org/2000/svg" xmlns:xlink="http://www.w3.org/1999/xlink" width="50px" height="50px" viewBox="0 0 50 50" version="1.1">
<g id="surface1">
<path style=" stroke:none;fill-rule:nonzero;fill:rgb(97.647059%,88.235294%,3.529412%);fill-opacity:1;" d="M 8.59375 16.40625 L 41.40625 16.40625 L 41.40625 44.53125 C 41.40625 45.359375 41.078125 46.15625 40.492188 46.742188 C 39.90625 47.328125 39.109375 47.65625 38.28125 47.65625 L 11.71875 47.65625 C 10.890625 47.65625 10.09375 47.328125 9.507812 46.742188 C 8.921875 46.15625 8.59375 45.359375 8.59375 44.53125 Z M 8.59375 16.40625 "/>
<path style=" stroke:none;fill-rule:nonzero;fill:rgb(98.823529%,73.72549%,1.568627%);fill-opacity:1;" d="M 35.15625 42.96875 C 28.113281 42.96875 21.355469 40.171875 16.375 35.1875 C 11.390625 30.207031 8.59375 23.449219 8.59375 16.40625 L 8.59375 44.53125 C 8.59375 45.359375 8.921875 46.15625 9.507812 46.742188 C 10.09375 47.328125 10.890625 47.65625 11.71875 47.65625 L 38.28125 47.65625 C 39.109375 47.65625 39.90625 47.328125 40.492188 46.742188 C 41.078125 46.15625 41.40625 45.359375 41.40625 44.53125 L 41.40625 42.96875 Z M 35.15625 42.96875 "/>
<path style=" stroke:none;fill-rule:nonzero;fill:rgb(97.647059%,88.235294%,3.529412%);fill-opacity:1;" d="M 8.59375 10.15625 L 41.40625 10.15625 C 42.234375 10.15625 43.03125 10.484375 43.617188 11.070312 C 44.203125 11.65625 44.53125 12.453125 44.53125 13.28125 L 44.53125 16.40625 L 5.46875 16.40625 L 5.46875 13.28125 C 5.46875 12.453125 5.796875 11.65625 6.382812 11.070312 C 6.96875 10.484375 7.765625 10.15625 8.59375 10.15625 Z M 8.59375 10.15625 "/>
<path style=" stroke:none;fill-rule:nonzero;fill:rgb(97.647059%,88.235294%,3.529412%);fill-opacity:1;" d="M 15.625 5.46875 L 15.625 10.15625 L 18.75 10.15625 L 18.75 5.46875 L 31.25 5.46875 L 31.25 10.15625 L 34.375 10.15625 L 34.375 5.46875 C 34.375 4.640625 34.046875 3.84375 33.460938 3.257812 C 32.875 2.671875 32.078125 2.34375 31.25 2.34375 L 18.75 2.34375 C 17.921875 2.34375 17.125 2.671875 16.539062 3.257812 C 15.953125 3.84375 15.625 4.640625 15.625 5.46875 Z M 15.625 5.46875 "/>
<path style=" stroke:none;fill-rule:nonzero;fill:rgb(98.823529%,73.72549%,1.568627%);fill-opacity:1;" d="M 25.78125 19.53125 L 24.21875 19.53125 C 23.355469 19.53125 22.65625 20.230469 22.65625 21.09375 L 22.65625 39.84375 C 22.65625 40.707031 23.355469 41.40625 24.21875 41.40625 L 25.78125 41.40625 C 26.644531 41.40625 27.34375 40.707031 27.34375 39.84375 L 27.34375 21.09375 C 27.34375 20.230469 26.644531 19.53125 25.78125 19.53125 Z M 25.78125 19.53125 "/>
<path style=" stroke:none;fill-rule:nonzero;fill:rgb(98.823529%,73.72549%,1.568627%);fill-opacity:1;" d="M 35.15625 19.53125 L 33.59375 19.53125 C 32.730469 19.53125 32.03125 20.230469 32.03125 21.09375 L 32.03125 39.84375 C 32.03125 40.707031 32.730469 41.40625 33.59375 41.40625 L 35.15625 41.40625 C 36.019531 41.40625 36.71875 40.707031 36.71875 39.84375 L 36.71875 21.09375 C 36.71875 20.230469 36.019531 19.53125 35.15625 19.53125 Z M 35.15625 19.53125 "/>
<path style=" stroke:none;fill-rule:nonzero;fill:rgb(98.823529%,73.72549%,1.568627%);fill-opacity:1;" d="M 16.40625 19.53125 L 14.84375 19.53125 C 13.980469 19.53125 13.28125 20.230469 13.28125 21.09375 L 13.28125 39.84375 C 13.28125 40.707031 13.980469 41.40625 14.84375 41.40625 L 16.40625 41.40625 C 17.269531 41.40625 17.96875 40.707031 17.96875 39.84375 L 17.96875 21.09375 C 17.96875 20.230469 17.269531 19.53125 16.40625 19.53125 Z M 16.40625 19.53125 "/>
<path style=" stroke:none;fill-rule:nonzero;fill:rgb(98.823529%,73.72549%,1.568627%);fill-opacity:1;" d="M 32.8125 7.03125 L 32.8125 5.46875 C 32.8125 5.054688 32.648438 4.65625 32.355469 4.363281 C 32.0625 4.070312 31.664062 3.90625 31.25 3.90625 L 21.09375 3.90625 C 20.679688 3.90625 20.28125 3.742188 19.988281 3.449219 C 19.695312 3.15625 19.53125 2.757812 19.53125 2.34375 L 18.75 2.34375 C 17.921875 2.34375 17.125 2.671875 16.539062 3.257812 C 15.953125 3.84375 15.625 4.640625 15.625 5.46875 L 15.625 10.15625 L 18.75 10.15625 L 18.75 5.46875 L 31.25 5.46875 L 31.25 10.15625 L 34.375 10.15625 L 34.375 8.59375 C 33.960938 8.59375 33.5625 8.429688 33.269531 8.136719 C 32.976562 7.84375 32.8125 7.445312 32.8125 7.03125 Z M 32.8125 7.03125 "/>
<path style=" stroke:none;fill-rule:nonzero;fill:rgb(98.823529%,73.72549%,1.568627%);fill-opacity:1;" d="M 9.375 10.15625 L 8.59375 10.15625 C 7.765625 10.15625 6.96875 10.484375 6.382812 11.070312 C 5.796875 11.65625 5.46875 12.453125 5.46875 13.28125 L 5.46875 16.40625 L 44.53125 16.40625 L 44.53125 13.28125 L 12.5 13.28125 C 11.671875 13.28125 10.875 12.953125 10.289062 12.367188 C 9.703125 11.78125 9.375 10.984375 9.375 10.15625 Z M 9.375 10.15625 "/>
<path style=" stroke:none;fill-rule:nonzero;fill:rgb(89.803922%,59.215686%,18.823529%);fill-opacity:1;" d="M 35.15625 19.53125 L 33.59375 19.53125 C 33.179688 19.53125 32.78125 19.695312 32.488281 19.988281 C 32.195312 20.28125 32.03125 20.679688 32.03125 21.09375 L 32.03125 21.367188 C 32.945312 21.6875 33.734375 22.285156 34.292969 23.078125 C 34.855469 23.867188 35.15625 24.8125 35.15625 25.78125 L 35.15625 41.40625 C 35.570312 41.40625 35.96875 41.242188 36.261719 40.949219 C 36.554688 40.65625 36.71875 40.257812 36.71875 39.84375 L 36.71875 21.09375 C 36.71875 20.679688 36.554688 20.28125 36.261719 19.988281 C 35.96875 19.695312 35.570312 19.53125 35.15625 19.53125 Z M 35.15625 19.53125 "/>
<path style=" stroke:none;fill-rule:nonzero;fill:rgb(89.803922%,59.215686%,18.823529%);fill-opacity:1;" d="M 25.78125 19.53125 L 24.21875 19.53125 C 23.804688 19.53125 23.40625 19.695312 23.113281 19.988281 C 22.820312 20.28125 22.65625 20.679688 22.65625 21.09375 L 22.65625 21.367188 C 23.570312 21.6875 24.359375 22.285156 24.917969 23.078125 C 25.480469 23.867188 25.78125 24.8125 25.78125 25.78125 L 25.78125 41.40625 C 26.195312 41.40625 26.59375 41.242188 26.886719 40.949219 C 27.179688 40.65625 27.34375 40.257812 27.34375 39.84375 L 27.34375 21.09375 C 27.34375 20.679688 27.179688 20.28125 26.886719 19.988281 C 26.59375 19.695312 26.195312 19.53125 25.78125 19.53125 Z M 25.78125 19.53125 "/>
<path style=" stroke:none;fill-rule:nonzero;fill:rgb(89.803922%,59.215686%,18.823529%);fill-opacity:1;" d="M 16.40625 19.53125 L 14.84375 19.53125 C 14.429688 19.53125 14.03125 19.695312 13.738281 19.988281 C 13.445312 20.28125 13.28125 20.679688 13.28125 21.09375 L 13.28125 21.367188 C 14.195312 21.6875 14.984375 22.285156 15.542969 23.078125 C 16.105469 23.867188 16.40625 24.8125 16.40625 25.78125 L 16.40625 41.40625 C 16.820312 41.40625 17.21875 41.242188 17.511719 40.949219 C 17.804688 40.65625 17.96875 40.257812 17.96875 39.84375 L 17.96875 21.09375 C 17.96875 20.679688 17.804688 20.28125 17.511719 19.988281 C 17.21875 19.695312 16.820312 19.53125 16.40625 19.53125 Z M 16.40625 19.53125 "/>
<path style=" stroke:none;fill-rule:nonzero;fill:rgb(89.803922%,59.215686%,18.823529%);fill-opacity:1;" d="M 24.21875 41.40625 L 25.78125 41.40625 C 25.882812 41.40625 25.980469 41.394531 26.078125 41.375 C 24.902344 40.945312 23.757812 40.433594 22.65625 39.84375 C 22.65625 40.257812 22.820312 40.65625 23.113281 40.949219 C 23.40625 41.242188 23.804688 41.40625 24.21875 41.40625 Z M 24.21875 41.40625 "/>
<path style=" stroke:none;fill-rule:nonzero;fill:rgb(89.803922%,59.215686%,18.823529%);fill-opacity:1;" d="M 14.84375 41.40625 L 16.40625 41.40625 C 16.820312 41.40625 17.21875 41.242188 17.511719 40.949219 C 17.804688 40.65625 17.96875 40.257812 17.96875 39.84375 L 17.96875 36.652344 C 16.1875 35.136719 14.609375 33.394531 13.28125 31.46875 L 13.28125 39.84375 C 13.28125 40.257812 13.445312 40.65625 13.738281 40.949219 C 14.03125 41.242188 14.429688 41.40625 14.84375 41.40625 Z M 14.84375 41.40625 "/>
<path style=" stroke:none;fill-rule:nonzero;fill:rgb(22.352941%,31.764706%,61.568627%);fill-opacity:1;" d="M 41.40625 18.75 C 41.199219 18.75 41 18.832031 40.855469 18.980469 C 40.707031 19.125 40.625 19.324219 40.625 19.53125 L 40.625 44.53125 C 40.625 45.152344 40.378906 45.75 39.9375 46.1875 C 39.5 46.628906 38.902344 46.875 38.28125 46.875 L 11.71875 46.875 C 11.097656 46.875 10.5 46.628906 10.0625 46.1875 C 9.621094 45.75 9.375 45.152344 9.375 44.53125 L 9.375 19.53125 C 9.375 19.324219 9.292969 19.125 9.144531 18.980469 C 9 18.832031 8.800781 18.75 8.59375 18.75 C 8.386719 18.75 8.1875 18.832031 8.042969 18.980469 C 7.894531 19.125 7.8125 19.324219 7.8125 19.53125 L 7.8125 44.53125 C 7.8125 45.566406 8.226562 46.558594 8.957031 47.292969 C 9.691406 48.023438 10.683594 48.4375 11.71875 48.4375 L 38.28125 48.4375 C 39.316406 48.4375 40.308594 48.023438 41.042969 47.292969 C 41.773438 46.558594 42.1875 45.566406 42.1875 44.53125 L 42.1875 19.53125 C 42.1875 19.324219 42.105469 19.125 41.957031 18.980469 C 41.8125 18.832031 41.613281 18.75 41.40625 18.75 Z M 41.40625 18.75 "/>
<path style=" stroke:none;fill-rule:nonzero;fill:rgb(22.352941%,31.764706%,61.568627%);fill-opacity:1;" d="M 41.40625 9.375 L 35.15625 9.375 L 35.15625 5.46875 C 35.15625 4.433594 34.742188 3.441406 34.011719 2.707031 C 33.277344 1.976562 32.285156 1.5625 31.25 1.5625 L 18.75 1.5625 C 17.714844 1.5625 16.722656 1.976562 15.988281 2.707031 C 15.257812 3.441406 14.84375 4.433594 14.84375 5.46875 L 14.84375 9.375 L 8.59375 9.375 C 7.558594 9.375 6.566406 9.789062 5.832031 10.519531 C 5.101562 11.253906 4.6875 12.246094 4.6875 13.28125 L 4.6875 16.40625 C 4.6875 16.613281 4.769531 16.8125 4.917969 16.957031 C 5.0625 17.105469 5.261719 17.1875 5.46875 17.1875 L 10.15625 17.1875 C 10.363281 17.1875 10.5625 17.105469 10.707031 16.957031 C 10.855469 16.8125 10.9375 16.613281 10.9375 16.40625 C 10.9375 16.199219 10.855469 16 10.707031 15.855469 C 10.5625 15.707031 10.363281 15.625 10.15625 15.625 L 6.25 15.625 L 6.25 13.28125 C 6.25 12.660156 6.496094 12.0625 6.9375 11.625 C 7.375 11.183594 7.972656 10.9375 8.59375 10.9375 L 41.40625 10.9375 C 42.027344 10.9375 42.625 11.183594 43.0625 11.625 C 43.503906 12.0625 43.75 12.660156 43.75 13.28125 L 43.75 15.625 L 13.28125 15.625 C 13.074219 15.625 12.875 15.707031 12.730469 15.855469 C 12.582031 16 12.5 16.199219 12.5 16.40625 C 12.5 16.613281 12.582031 16.8125 12.730469 16.957031 C 12.875 17.105469 13.074219 17.1875 13.28125 17.1875 L 44.53125 17.1875 C 44.738281 17.1875 44.9375 17.105469 45.082031 16.957031 C 45.230469 16.8125 45.3125 16.613281 45.3125 16.40625 L 45.3125 13.28125 C 45.3125 12.246094 44.898438 11.253906 44.167969 10.519531 C 43.433594 9.789062 42.441406 9.375 41.40625 9.375 Z M 16.40625 9.375 L 16.40625 5.46875 C 16.40625 4.847656 16.652344 4.25 17.09375 3.8125 C 17.53125 3.371094 18.128906 3.125 18.75 3.125 L 31.25 3.125 C 31.871094 3.125 32.46875 3.371094 32.90625 3.8125 C 33.347656 4.25 33.59375 4.847656 33.59375 5.46875 L 33.59375 9.375 L 19.53125 9.375 L 19.53125 6.25 L 30.46875 6.25 L 30.46875 7.03125 C 30.46875 7.238281 30.550781 7.4375 30.699219 7.582031 C 30.84375 7.730469 31.042969 7.8125 31.25 7.8125 C 31.457031 7.8125 31.65625 7.730469 31.800781 7.582031 C 31.949219 7.4375 32.03125 7.238281 32.03125 7.03125 L 32.03125 5.46875 C 32.03125 5.261719 31.949219 5.0625 31.800781 4.917969 C 31.65625 4.769531 31.457031 4.6875 31.25 4.6875 L 18.75 4.6875 C 18.542969 4.6875 18.34375 4.769531 18.199219 4.917969 C 18.050781 5.0625 17.96875 5.261719 17.96875 5.46875 L 17.96875 9.375 Z M 16.40625 9.375 "/>
<path style=" stroke:none;fill-rule:nonzero;fill:rgb(22.352941%,31.764706%,61.568627%);fill-opacity:1;" d="M 16.40625 18.75 L 14.84375 18.75 C 14.222656 18.75 13.625 18.996094 13.1875 19.4375 C 12.746094 19.875 12.5 20.472656 12.5 21.09375 L 12.5 39.84375 C 12.5 40.050781 12.582031 40.25 12.730469 40.394531 C 12.875 40.542969 13.074219 40.625 13.28125 40.625 C 13.488281 40.625 13.6875 40.542969 13.832031 40.394531 C 13.980469 40.25 14.0625 40.050781 14.0625 39.84375 L 14.0625 21.09375 C 14.0625 20.886719 14.144531 20.6875 14.292969 20.542969 C 14.4375 20.394531 14.636719 20.3125 14.84375 20.3125 L 16.40625 20.3125 C 16.613281 20.3125 16.8125 20.394531 16.957031 20.542969 C 17.105469 20.6875 17.1875 20.886719 17.1875 21.09375 L 17.1875 39.84375 C 17.1875 40.050781 17.269531 40.25 17.417969 40.394531 C 17.5625 40.542969 17.761719 40.625 17.96875 40.625 C 18.175781 40.625 18.375 40.542969 18.519531 40.394531 C 18.667969 40.25 18.75 40.050781 18.75 39.84375 L 18.75 21.09375 C 18.75 20.472656 18.503906 19.875 18.0625 19.4375 C 17.625 18.996094 17.027344 18.75 16.40625 18.75 Z M 16.40625 18.75 "/>
<path style=" stroke:none;fill-rule:nonzero;fill:rgb(22.352941%,31.764706%,61.568627%);fill-opacity:1;" d="M 12.5 44.53125 C 12.5 44.738281 12.582031 44.9375 12.730469 45.082031 C 12.875 45.230469 13.074219 45.3125 13.28125 45.3125 L 37.5 45.3125 C 37.707031 45.3125 37.90625 45.230469 38.050781 45.082031 C 38.199219 44.9375 38.28125 44.738281 38.28125 44.53125 C 38.28125 44.324219 38.199219 44.125 38.050781 43.980469 C 37.90625 43.832031 37.707031 43.75 37.5 43.75 L 13.28125 43.75 C 13.074219 43.75 12.875 43.832031 12.730469 43.980469 C 12.582031 44.125 12.5 44.324219 12.5 44.53125 Z M 12.5 44.53125 "/>
<path style=" stroke:none;fill-rule:nonzero;fill:rgb(22.352941%,31.764706%,61.568627%);fill-opacity:1;" d="M 42.1875 13.28125 C 42.1875 13.074219 42.105469 12.875 41.957031 12.730469 C 41.8125 12.582031 41.613281 12.5 41.40625 12.5 L 8.59375 12.5 C 8.386719 12.5 8.1875 12.582031 8.042969 12.730469 C 7.894531 12.875 7.8125 13.074219 7.8125 13.28125 C 7.8125 13.488281 7.894531 13.6875 8.042969 13.832031 C 8.1875 13.980469 8.386719 14.0625 8.59375 14.0625 L 41.40625 14.0625 C 41.613281 14.0625 41.8125 13.980469 41.957031 13.832031 C 42.105469 13.6875 42.1875 13.488281 42.1875 13.28125 Z M 42.1875 13.28125 "/>
<path style=" stroke:none;fill-rule:nonzero;fill:rgb(22.352941%,31.764706%,61.568627%);fill-opacity:1;" d="M 36.71875 40.625 C 36.925781 40.625 37.125 40.542969 37.269531 40.394531 C 37.417969 40.25 37.5 40.050781 37.5 39.84375 L 37.5 21.09375 C 37.5 20.472656 37.253906 19.875 36.8125 19.4375 C 36.375 18.996094 35.777344 18.75 35.15625 18.75 L 33.59375 18.75 C 32.972656 18.75 32.375 18.996094 31.9375 19.4375 C 31.496094 19.875 31.25 20.472656 31.25 21.09375 L 31.25 34.375 C 31.25 34.582031 31.332031 34.78125 31.480469 34.925781 C 31.625 35.074219 31.824219 35.15625 32.03125 35.15625 C 32.238281 35.15625 32.4375 35.074219 32.582031 34.925781 C 32.730469 34.78125 32.8125 34.582031 32.8125 34.375 L 32.8125 21.09375 C 32.8125 20.886719 32.894531 20.6875 33.042969 20.542969 C 33.1875 20.394531 33.386719 20.3125 33.59375 20.3125 L 35.15625 20.3125 C 35.363281 20.3125 35.5625 20.394531 35.707031 20.542969 C 35.855469 20.6875 35.9375 20.886719 35.9375 21.09375 L 35.9375 39.84375 C 35.9375 40.050781 36.019531 40.25 36.167969 40.394531 C 36.3125 40.542969 36.511719 40.625 36.71875 40.625 Z M 36.71875 40.625 "/>
<path style=" stroke:none;fill-rule:nonzero;fill:rgb(22.352941%,31.764706%,61.568627%);fill-opacity:1;" d="M 31.25 39.84375 C 31.25 40.050781 31.332031 40.25 31.480469 40.394531 C 31.625 40.542969 31.824219 40.625 32.03125 40.625 C 32.238281 40.625 32.4375 40.542969 32.582031 40.394531 C 32.730469 40.25 32.8125 40.050781 32.8125 39.84375 L 32.8125 37.5 C 32.8125 37.292969 32.730469 37.09375 32.582031 36.949219 C 32.4375 36.800781 32.238281 36.71875 32.03125 36.71875 C 31.824219 36.71875 31.625 36.800781 31.480469 36.949219 C 31.332031 37.09375 31.25 37.292969 31.25 37.5 Z M 31.25 39.84375 "/>
<path style=" stroke:none;fill-rule:nonzero;fill:rgb(22.352941%,31.764706%,61.568627%);fill-opacity:1;" d="M 27.34375 40.625 C 27.550781 40.625 27.75 40.542969 27.894531 40.394531 C 28.042969 40.25 28.125 40.050781 28.125 39.84375 L 28.125 21.09375 C 28.125 20.472656 27.878906 19.875 27.4375 19.4375 C 27 18.996094 26.402344 18.75 25.78125 18.75 L 24.21875 18.75 C 23.597656 18.75 23 18.996094 22.5625 19.4375 C 22.121094 19.875 21.875 20.472656 21.875 21.09375 L 21.875 24.21875 C 21.875 24.425781 21.957031 24.625 22.105469 24.769531 C 22.25 24.917969 22.449219 25 22.65625 25 C 22.863281 25 23.0625 24.917969 23.207031 24.769531 C 23.355469 24.625 23.4375 24.425781 23.4375 24.21875 L 23.4375 21.09375 C 23.4375 20.886719 23.519531 20.6875 23.667969 20.542969 C 23.8125 20.394531 24.011719 20.3125 24.21875 20.3125 L 25.78125 20.3125 C 25.988281 20.3125 26.1875 20.394531 26.332031 20.542969 C 26.480469 20.6875 26.5625 20.886719 26.5625 21.09375 L 26.5625 39.84375 C 26.5625 40.050781 26.644531 40.25 26.792969 40.394531 C 26.9375 40.542969 27.136719 40.625 27.34375 40.625 Z M 27.34375 40.625 "/>
<path style=" stroke:none;fill-rule:nonzero;fill:rgb(22.352941%,31.764706%,61.568627%);fill-opacity:1;" d="M 21.875 39.84375 C 21.875 40.050781 21.957031 40.25 22.105469 40.394531 C 22.25 40.542969 22.449219 40.625 22.65625 40.625 C 22.863281 40.625 23.0625 40.542969 23.207031 40.394531 C 23.355469 40.25 23.4375 40.050781 23.4375 39.84375 L 23.4375 27.34375 C 23.4375 27.136719 23.355469 26.9375 23.207031 26.792969 C 23.0625 26.644531 22.863281 26.5625 22.65625 26.5625 C 22.449219 26.5625 22.25 26.644531 22.105469 26.792969 C 21.957031 26.9375 21.875 27.136719 21.875 27.34375 Z M 21.875 39.84375 "/>
</g>
</svg>
