<?xml version="1.0" encoding="UTF-8"?>
<svg xmlns="http://www.w3.org/2000/svg" xmlns:xlink="http://www.w3.org/1999/xlink" width="50px" height="50px" viewBox="0 0 50 50" version="1.1">
<g id="surface1">
<path style=" stroke:none;fill-rule:nonzero;fill:rgb(12.941176%,58.823529%,95.294118%);fill-opacity:1;" d="M 46.875 25 C 46.875 37.082031 37.082031 46.875 25 46.875 C 12.917969 46.875 3.125 37.082031 3.125 25 C 3.125 12.917969 12.917969 3.125 25 3.125 C 37.082031 3.125 46.875 12.917969 46.875 25 Z M 46.875 25 "/>
<path style=" stroke:none;fill-rule:nonzero;fill:rgb(100%,100%,100%);fill-opacity:1;" d="M 22.917969 22.917969 L 27.082031 22.917969 L 27.082031 34.375 L 22.917969 34.375 Z M 22.917969 22.917969 "/>
<path style=" stroke:none;fill-rule:nonzero;fill:rgb(100%,100%,100%);fill-opacity:1;" d="M 27.605469 17.1875 C 27.605469 18.625 26.4375 19.792969 25 19.792969 C 23.5625 19.792969 22.394531 18.625 22.394531 17.1875 C 22.394531 15.75 23.5625 14.582031 25 14.582031 C 26.4375 14.582031 27.605469 15.75 27.605469 17.1875 Z M 27.605469 17.1875 "/>
</g>
</svg>
