<?xml version="1.0" encoding="UTF-8"?>
<svg xmlns="http://www.w3.org/2000/svg" xmlns:xlink="http://www.w3.org/1999/xlink" width="50px" height="50px" viewBox="0 0 50 50" version="1.1">
<g id="surface1">
<path style=" stroke:none;fill-rule:nonzero;fill:rgb(84.313725%,35.294118%,29.019608%);fill-opacity:1;" d="M 37.175781 2.199219 C 40.109375 -0.734375 44.867188 -0.734375 47.800781 2.199219 C 50.734375 5.132812 50.734375 9.890625 47.800781 12.824219 Z M 37.175781 2.199219 "/>
<path style=" stroke:none;fill-rule:nonzero;fill:rgb(92.941176%,54.117647%,9.803922%);fill-opacity:1;" d="M 39.832031 16.804688 L 15.503906 41.136719 L 15.003906 45.617188 L 41.824219 18.796875 Z M 39.832031 16.804688 "/>
<path style=" stroke:none;fill-rule:nonzero;fill:rgb(92.941176%,54.117647%,9.803922%);fill-opacity:1;" d="M 9.695312 40.304688 L 14.175781 39.808594 L 38.503906 15.476562 L 34.523438 11.496094 L 10.191406 35.824219 Z M 9.695312 40.304688 "/>
<path style=" stroke:none;fill-rule:nonzero;fill:rgb(92.941176%,54.117647%,9.803922%);fill-opacity:1;" d="M 33.195312 10.167969 L 31.203125 8.175781 L 4.382812 34.996094 L 8.863281 34.496094 Z M 33.195312 10.167969 "/>
<path style=" stroke:none;fill-rule:nonzero;fill:rgb(78.039216%,79.215686%,78.039216%);fill-opacity:1;" d="M 45.808594 14.8125 L 47.800781 12.824219 L 37.175781 2.199219 L 35.183594 4.191406 L 35.1875 4.191406 Z M 45.808594 14.8125 "/>
<path style=" stroke:none;fill-rule:nonzero;fill:rgb(78.039216%,79.215686%,78.039216%);fill-opacity:1;" d="M 33.859375 5.519531 L 32.53125 6.847656 L 43.152344 17.46875 L 44.480469 16.140625 Z M 33.859375 5.519531 "/>
<path style=" stroke:none;fill-rule:nonzero;fill:rgb(98.431373%,80.784314%,61.568627%);fill-opacity:1;" d="M 13.542969 41.769531 L 8.734375 42.304688 C 8.699219 42.308594 8.664062 42.308594 8.632812 42.308594 C 8.632812 42.308594 8.628906 42.308594 8.628906 42.308594 C 8.59375 42.308594 8.5625 42.308594 8.527344 42.304688 C 8.492188 42.300781 8.460938 42.277344 8.425781 42.269531 C 8.359375 42.253906 8.292969 42.238281 8.230469 42.207031 C 8.183594 42.183594 8.144531 42.15625 8.101562 42.128906 C 8.046875 42.089844 8 42.050781 7.953125 42.003906 C 7.917969 41.964844 7.890625 41.925781 7.859375 41.882812 C 7.824219 41.828125 7.796875 41.773438 7.769531 41.714844 C 7.75 41.664062 7.734375 41.613281 7.722656 41.558594 C 7.71875 41.527344 7.703125 41.503906 7.699219 41.472656 C 7.695312 41.4375 7.707031 41.402344 7.707031 41.367188 C 7.707031 41.332031 7.695312 41.300781 7.699219 41.265625 L 8.230469 36.457031 L 3.421875 36.992188 C 3.386719 36.996094 3.351562 36.996094 3.320312 36.996094 C 3.246094 36.996094 3.175781 36.972656 3.105469 36.957031 L 0.414062 48.257812 L 2.390625 46.28125 C 2.757812 45.914062 3.351562 45.914062 3.71875 46.28125 C 4.085938 46.648438 4.085938 47.242188 3.71875 47.609375 L 1.742188 49.585938 L 13.039062 46.894531 C 13.011719 46.792969 12.996094 46.6875 13.007812 46.578125 Z M 13.542969 41.769531 "/>
<path style=" stroke:none;fill-rule:nonzero;fill:rgb(21.960784%,27.058824%,30.980392%);fill-opacity:1;" d="M 3.71875 46.28125 C 3.351562 45.914062 2.757812 45.914062 2.390625 46.28125 L 0.414062 48.257812 L 0 50 L 1.742188 49.585938 L 3.71875 47.609375 C 4.085938 47.242188 4.085938 46.648438 3.71875 46.28125 Z M 3.71875 46.28125 "/>
<path style=" stroke:none;fill-rule:nonzero;fill:rgb(94.901961%,92.54902%,74.901961%);fill-opacity:1;" d="M 45.808594 14.8125 L 35.1875 4.191406 L 35.183594 4.191406 L 33.859375 5.519531 L 44.480469 16.140625 Z M 45.808594 14.8125 "/>
<path style=" stroke:none;fill-rule:nonzero;fill:rgb(92.156863%,72.941176%,8.627451%);fill-opacity:1;" d="M 38.503906 15.476562 L 14.175781 39.808594 L 9.695312 40.304688 L 10.191406 35.824219 L 34.523438 11.496094 L 33.195312 10.167969 L 8.863281 34.496094 L 4.382812 34.996094 L 3.320312 36.058594 L 3.105469 36.957031 C 3.175781 36.972656 3.242188 36.996094 3.316406 36.996094 C 3.351562 36.996094 3.386719 36.996094 3.421875 36.992188 L 8.230469 36.457031 L 7.695312 41.265625 C 7.691406 41.300781 7.707031 41.335938 7.707031 41.367188 C 7.707031 41.40625 7.691406 41.4375 7.695312 41.472656 C 7.699219 41.503906 7.714844 41.527344 7.722656 41.558594 C 7.734375 41.613281 7.75 41.664062 7.769531 41.714844 C 7.792969 41.773438 7.824219 41.828125 7.859375 41.882812 C 7.886719 41.925781 7.917969 41.964844 7.953125 42.003906 C 7.996094 42.050781 8.046875 42.089844 8.101562 42.128906 C 8.140625 42.15625 8.183594 42.1875 8.230469 42.207031 C 8.292969 42.238281 8.355469 42.253906 8.425781 42.269531 C 8.460938 42.277344 8.488281 42.296875 8.527344 42.304688 C 8.558594 42.308594 8.59375 42.308594 8.628906 42.308594 L 8.632812 42.308594 C 8.664062 42.308594 8.699219 42.308594 8.734375 42.304688 L 13.542969 41.769531 L 13.007812 46.578125 C 12.996094 46.6875 13.011719 46.792969 13.039062 46.894531 L 13.941406 46.679688 L 15.003906 45.617188 L 15.503906 41.136719 L 39.832031 16.804688 Z M 38.503906 15.476562 "/>
<path style=" stroke:none;fill-rule:nonzero;fill:rgb(94.901961%,92.54902%,74.901961%);fill-opacity:1;" d="M 43.152344 17.46875 L 32.53125 6.847656 L 31.203125 8.175781 L 41.824219 18.796875 Z M 43.152344 17.46875 "/>
</g>
</svg>
