<?xml version="1.0" encoding="UTF-8"?>
<svg xmlns="http://www.w3.org/2000/svg" xmlns:xlink="http://www.w3.org/1999/xlink" width="30px" height="30px" viewBox="0 0 30 30" version="1.1">
<g id="surface1">
<path style=" stroke:none;fill-rule:nonzero;fill:rgb(17.647059%,24.313725%,31.372549%);fill-opacity:1;" d="M 8.949219 16.203125 C 8.949219 16.460938 9.160156 16.671875 9.417969 16.671875 C 9.675781 16.671875 9.886719 16.460938 9.886719 16.203125 L 9.886719 15.203125 C 9.886719 14.941406 9.675781 14.734375 9.417969 14.734375 C 9.160156 14.734375 8.949219 14.941406 8.949219 15.203125 Z M 8.949219 16.203125 "/>
<path style=" stroke:none;fill-rule:nonzero;fill:rgb(17.647059%,24.313725%,31.372549%);fill-opacity:1;" d="M 8.949219 12.5625 C 8.949219 12.824219 9.160156 13.03125 9.417969 13.03125 C 9.675781 13.03125 9.886719 12.824219 9.886719 12.5625 L 9.886719 11.5625 C 9.886719 11.304688 9.675781 11.09375 9.417969 11.09375 C 9.160156 11.09375 8.949219 11.304688 8.949219 11.5625 Z M 8.949219 12.5625 "/>
<path style=" stroke:none;fill-rule:nonzero;fill:rgb(17.647059%,24.313725%,31.372549%);fill-opacity:1;" d="M 8.949219 8.925781 C 8.949219 9.183594 9.160156 9.394531 9.417969 9.394531 C 9.675781 9.394531 9.886719 9.183594 9.886719 8.925781 L 9.886719 7.921875 C 9.886719 7.664062 9.675781 7.453125 9.417969 7.453125 C 9.160156 7.453125 8.949219 7.664062 8.949219 7.921875 Z M 8.949219 8.925781 "/>
<path style=" stroke:none;fill-rule:nonzero;fill:rgb(17.647059%,24.313725%,31.372549%);fill-opacity:1;" d="M 9.417969 5.753906 C 9.542969 5.753906 9.664062 5.707031 9.75 5.617188 C 9.839844 5.53125 9.886719 5.410156 9.886719 5.285156 L 9.886719 4.285156 C 9.886719 4.023438 9.675781 3.816406 9.417969 3.816406 C 9.160156 3.816406 8.949219 4.023438 8.949219 4.285156 L 8.949219 5.285156 C 8.949219 5.546875 9.160156 5.753906 9.417969 5.753906 Z M 9.417969 5.753906 "/>
<path style=" stroke:none;fill-rule:nonzero;fill:rgb(17.647059%,24.313725%,31.372549%);fill-opacity:1;" d="M 27.96875 0.753906 L 2.03125 0.753906 C 1.21875 0.757812 0.5625 1.414062 0.558594 2.226562 L 0.558594 6.636719 C 0.558594 7.054688 0.769531 7.441406 1.121094 7.664062 C 2.019531 8.210938 2.566406 9.191406 2.5625 10.246094 C 2.566406 11.296875 2.019531 12.277344 1.121094 12.828125 C 0.769531 13.046875 0.558594 13.433594 0.558594 13.851562 L 0.558594 18.261719 C 0.5625 19.074219 1.21875 19.730469 2.03125 19.734375 L 7.953125 19.734375 L 9.015625 18.234375 L 2.054688 18.234375 L 2.054688 14.003906 C 3.3125 13.164062 4.066406 11.753906 4.0625 10.246094 C 4.066406 8.734375 3.3125 7.324219 2.054688 6.484375 L 2.054688 2.253906 L 27.945312 2.253906 L 27.945312 18.234375 L 16.242188 18.234375 L 15.175781 19.734375 L 27.96875 19.734375 C 28.78125 19.730469 29.4375 19.074219 29.441406 18.261719 L 29.441406 2.226562 C 29.4375 1.414062 28.78125 0.757812 27.96875 0.753906 Z M 27.96875 0.753906 "/>
<path style=" stroke:none;fill-rule:nonzero;fill:rgb(17.647059%,24.313725%,31.372549%);fill-opacity:1;" d="M 18.980469 5.054688 L 18.980469 6.324219 C 18.671875 6.375 18.371094 6.476562 18.089844 6.621094 C 17.632812 6.859375 17.289062 7.273438 17.136719 7.769531 C 17.0625 8.011719 17.023438 8.261719 17.023438 8.515625 C 17.015625 8.8125 17.078125 9.105469 17.207031 9.375 C 17.226562 9.417969 17.25 9.457031 17.273438 9.496094 C 17.382812 9.679688 17.523438 9.84375 17.6875 9.980469 C 17.699219 9.988281 17.710938 9.996094 17.71875 10.003906 C 17.914062 10.160156 18.128906 10.292969 18.355469 10.394531 C 18.601562 10.507812 18.855469 10.613281 19.113281 10.707031 C 19.375 10.800781 19.613281 10.886719 19.816406 10.96875 C 19.992188 11.039062 20.160156 11.121094 20.320312 11.222656 C 20.4375 11.296875 20.542969 11.394531 20.625 11.507812 C 20.695312 11.621094 20.734375 11.753906 20.730469 11.890625 C 20.738281 12.105469 20.640625 12.308594 20.464844 12.433594 C 20.289062 12.5625 19.964844 12.628906 19.484375 12.628906 C 19.234375 12.628906 18.980469 12.609375 18.730469 12.566406 C 18.78125 13.046875 18.757812 13.527344 18.667969 14.003906 C 18.769531 14.015625 18.875 14.027344 18.980469 14.035156 L 18.980469 15.429688 L 20.460938 15.429688 L 20.460938 14 C 20.796875 13.949219 21.121094 13.847656 21.425781 13.695312 C 21.667969 13.570312 21.886719 13.398438 22.066406 13.191406 C 22.222656 13.003906 22.34375 12.785156 22.417969 12.554688 C 22.484375 12.328125 22.523438 12.09375 22.523438 11.855469 C 22.542969 11.253906 22.289062 10.675781 21.835938 10.28125 C 21.605469 10.078125 21.351562 9.90625 21.074219 9.769531 C 20.765625 9.613281 20.445312 9.476562 20.121094 9.359375 C 19.894531 9.28125 19.699219 9.207031 19.539062 9.140625 C 19.398438 9.085938 19.261719 9.015625 19.136719 8.9375 C 19.035156 8.875 18.953125 8.792969 18.894531 8.695312 C 18.839844 8.597656 18.816406 8.484375 18.820312 8.375 C 18.8125 8.179688 18.90625 7.996094 19.066406 7.882812 C 19.308594 7.734375 19.589844 7.667969 19.875 7.695312 C 20.234375 7.691406 20.59375 7.730469 20.945312 7.8125 C 21.253906 7.878906 21.550781 7.972656 21.84375 8.09375 L 22.207031 6.6875 C 21.980469 6.589844 21.746094 6.511719 21.507812 6.453125 C 21.164062 6.363281 20.8125 6.304688 20.460938 6.273438 L 20.460938 5.054688 Z M 18.980469 5.054688 "/>
<path style=" stroke:none;fill-rule:nonzero;fill:rgb(18.039216%,47.45098%,74.117647%);fill-opacity:1;" d="M 15.722656 21.425781 C 14.867188 21.425781 14.03125 21.703125 13.351562 22.226562 L 12.734375 21.351562 L 17.003906 15.355469 C 18.121094 13.765625 17.929688 11.601562 16.554688 10.230469 C 16.472656 10.148438 16.359375 10.105469 16.246094 10.117188 C 16.128906 10.125 16.023438 10.1875 15.957031 10.28125 L 7.464844 22.230469 C 6.109375 21.195312 4.238281 21.15625 2.84375 22.132812 C 1.445312 23.113281 0.84375 24.886719 1.359375 26.511719 C 1.871094 28.140625 3.382812 29.246094 5.085938 29.246094 C 6.421875 29.238281 7.660156 28.558594 8.382812 27.4375 C 8.457031 27.378906 8.347656 27.503906 10.421875 24.640625 C 12.46875 27.511719 12.347656 27.375 12.425781 27.4375 C 13.4375 29.019531 15.425781 29.660156 17.167969 28.964844 C 18.910156 28.273438 19.914062 26.441406 19.5625 24.597656 C 19.207031 22.757812 17.597656 21.425781 15.722656 21.425781 Z M 5.085938 27.464844 C 3.910156 27.464844 2.957031 26.511719 2.957031 25.335938 C 2.957031 24.15625 3.910156 23.203125 5.085938 23.203125 C 6.265625 23.203125 7.21875 24.15625 7.21875 25.335938 C 7.21875 26.511719 6.261719 27.464844 5.085938 27.464844 Z M 15.722656 27.464844 C 14.542969 27.464844 13.589844 26.511719 13.589844 25.335938 C 13.589844 24.15625 14.542969 23.203125 15.722656 23.203125 C 16.898438 23.203125 17.851562 24.15625 17.851562 25.335938 C 17.851562 26.511719 16.898438 27.464844 15.722656 27.464844 Z M 15.722656 27.464844 "/>
</g>
</svg>
