<?xml version="1.0" encoding="UTF-8"?>
<svg xmlns="http://www.w3.org/2000/svg" xmlns:xlink="http://www.w3.org/1999/xlink" width="50px" height="50px" viewBox="0 0 50 50" version="1.1">
<g id="surface1">
<path style=" stroke:none;fill-rule:nonzero;fill:rgb(0%,46.666667%,19.607843%);fill-opacity:1;" d="M 31.257812 37.5 L 28.015625 37.5 L 24.902344 32.4375 L 21.789062 37.5 L 18.75 37.5 L 23.191406 30.597656 L 19.035156 24.113281 L 22.164062 24.113281 L 25.050781 28.929688 L 27.878906 24.113281 L 30.9375 24.113281 L 26.734375 30.753906 Z M 31.257812 37.5 "/>
<path style=" stroke:none;fill-rule:nonzero;fill:rgb(0%,46.666667%,19.607843%);fill-opacity:1;" d="M 40.625 31.25 C 35.445312 31.25 31.25 35.445312 31.25 40.625 C 31.25 45.804688 35.445312 50 40.625 50 C 45.804688 50 50 45.804688 50 40.625 C 50 35.445312 45.804688 31.25 40.625 31.25 Z M 44.875 37.886719 L 44.832031 37.953125 L 41.617188 42.421875 C 41.402344 42.761719 41.027344 42.96875 40.625 42.96875 C 40.222656 42.96875 39.847656 42.761719 39.632812 42.421875 L 36.375 37.886719 C 36.167969 37.523438 36.167969 37.078125 36.378906 36.714844 C 36.585938 36.355469 36.976562 36.132812 37.390625 36.132812 L 39.0625 36.132812 L 39.0625 33.59375 C 39.0625 32.949219 39.589844 32.421875 40.234375 32.421875 L 41.015625 32.421875 C 41.660156 32.421875 42.1875 32.949219 42.1875 33.59375 L 42.1875 36.132812 L 43.859375 36.132812 C 44.273438 36.132812 44.664062 36.355469 44.871094 36.714844 C 45.082031 37.078125 45.082031 37.523438 44.875 37.886719 Z M 44.875 37.886719 "/>
<path style=" stroke:none;fill-rule:nonzero;fill:rgb(100%,60.392157%,18.823529%);fill-opacity:1;" d="M 32.8125 49.199219 L 32.792969 49.21875 L 32.8125 49.21875 Z M 32.8125 49.199219 "/>
<path style=" stroke:none;fill-rule:nonzero;fill:rgb(100%,60.392157%,18.823529%);fill-opacity:1;" d="M 44.53125 30.078125 L 44.53125 30.058594 L 44.511719 30.078125 Z M 44.53125 30.078125 "/>
<path style=" stroke:none;fill-rule:nonzero;fill:rgb(0%,46.666667%,19.607843%);fill-opacity:1;" d="M 43.386719 17.28125 L 28.03125 1.925781 C 27.292969 1.1875 26.3125 0.78125 25.269531 0.78125 L 9.375 0.78125 C 7.222656 0.78125 5.46875 2.535156 5.46875 4.6875 L 5.46875 45.3125 C 5.46875 47.464844 7.222656 49.21875 9.375 49.21875 L 32.792969 49.21875 L 31.230469 47.65625 L 9.375 47.65625 C 8.082031 47.65625 7.03125 46.605469 7.03125 45.3125 L 7.03125 4.6875 C 7.03125 3.394531 8.082031 2.34375 9.375 2.34375 L 25.269531 2.34375 C 25.894531 2.34375 26.484375 2.585938 26.925781 3.03125 L 42.28125 18.386719 C 42.71875 18.824219 42.96875 19.425781 42.96875 20.042969 L 42.96875 28.496094 L 44.53125 30.058594 L 44.53125 20.042969 C 44.53125 19 44.125 18.019531 43.386719 17.28125 Z M 43.386719 17.28125 "/>
<path style=" stroke:none;fill-rule:nonzero;fill:rgb(100%,100%,100%);fill-opacity:1;" d="M 44.511719 30.078125 L 44.53125 30.058594 L 42.96875 28.496094 "/>
</g>
</svg>
