<svg xmlns="http://www.w3.org/2000/svg"  viewBox="0 0 48 48" width="30px" height="30px"><linearGradient id="QHiwmPd87YwdyvizV99Zca" x1="12.952" x2="34.386" y1="7.43" y2="42.777" gradientUnits="userSpaceOnUse"><stop offset="0" stop-color="#7dd8f3"/><stop offset="1" stop-color="#45b0d0"/></linearGradient><path fill="url(#QHiwmPd87YwdyvizV99Zca)" d="M36,42H10c-1.105,0-2-0.895-2-2V8c0-1.105,0.895-2,2-2l26,0c1.105,0,2,0.895,2,2v32	C38,41.105,37.105,42,36,42z"/><linearGradient id="QHiwmPd87YwdyvizV99Zcb" x1="20" x2="20" y1="37.284" y2="42.01" gradientUnits="userSpaceOnUse"><stop offset="0" stop-color="#0176d0"/><stop offset="1" stop-color="#16538c"/></linearGradient><path fill="url(#QHiwmPd87YwdyvizV99Zcb)" d="M34,40v-3H4v3c0,1.105,0.895,2,2,2h30C34.895,42,34,41.105,34,40z"/><path fill="#057093" d="M32.5,19h-13c-0.276,0-0.5-0.224-0.5-0.5v-2c0-0.276,0.224-0.5,0.5-0.5h13c0.276,0,0.5,0.224,0.5,0.5	v2C33,18.776,32.776,19,32.5,19z"/><path fill="#057093" d="M32.5,25h-13c-0.276,0-0.5-0.224-0.5-0.5v-2c0-0.276,0.224-0.5,0.5-0.5h13c0.276,0,0.5,0.224,0.5,0.5	v2C33,24.776,32.776,25,32.5,25z"/><path fill="#057093" d="M32.5,31h-13c-0.276,0-0.5-0.224-0.5-0.5v-2c0-0.276,0.224-0.5,0.5-0.5h13c0.276,0,0.5,0.224,0.5,0.5	v2C33,30.776,32.776,31,32.5,31z"/><path fill="#057093" d="M15.5,19h-2c-0.276,0-0.5-0.224-0.5-0.5v-2c0-0.276,0.224-0.5,0.5-0.5h2c0.276,0,0.5,0.224,0.5,0.5v2	C16,18.776,15.776,19,15.5,19z"/><path fill="#057093" d="M15.5,25h-2c-0.276,0-0.5-0.224-0.5-0.5v-2c0-0.276,0.224-0.5,0.5-0.5h2c0.276,0,0.5,0.224,0.5,0.5v2	C16,24.776,15.776,25,15.5,25z"/><path fill="#057093" d="M15.5,31h-2c-0.276,0-0.5-0.224-0.5-0.5v-2c0-0.276,0.224-0.5,0.5-0.5h2c0.276,0,0.5,0.224,0.5,0.5v2	C16,30.776,15.776,31,15.5,31z"/></svg>