<?xml version="1.0" encoding="UTF-8"?>
<svg xmlns="http://www.w3.org/2000/svg" xmlns:xlink="http://www.w3.org/1999/xlink" width="100px" height="100px" viewBox="0 0 100 100" version="1.1">
<g id="surface1">
<path style=" stroke:none;fill-rule:nonzero;fill:rgb(90.980392%,61.960784%,3.921569%);fill-opacity:1;" d="M 92.1875 51.5625 L 92.1875 95.3125 L 7.8125 95.3125 L 7.8125 67.1875 L 29.34375 55.21875 L 35.9375 51.5625 L 35.9375 64.0625 L 43.1875 60.84375 L 57.296875 54.5625 L 64.0625 51.5625 L 64.0625 64.0625 L 71.421875 60.796875 L 71.671875 60.6875 Z M 92.1875 51.5625 "/>
<path style=" stroke:none;fill-rule:nonzero;fill:rgb(83.921569%,84.313725%,84.705882%);fill-opacity:1;" d="M 35.9375 64.0625 L 35.9375 51.5625 L 34.375 52.421875 L 29.34375 55.21875 L 31.25 39.0625 L 40.625 39.0625 L 43.1875 60.84375 Z M 35.9375 64.0625 "/>
<path style=" stroke:none;fill-rule:nonzero;fill:rgb(90.196078%,90.196078%,90.196078%);fill-opacity:1;" d="M 64.0625 64.0625 L 64.0625 51.5625 L 57.296875 54.5625 L 58.78125 35.9375 L 59.375 29.6875 L 68.75 29.6875 L 69.34375 35.9375 L 71.421875 60.796875 Z M 64.0625 64.0625 "/>
<path style=" stroke:none;fill-rule:nonzero;fill:rgb(75.686275%,15.294118%,17.647059%);fill-opacity:1;" d="M 41.40625 45.3125 L 30.46875 45.3125 L 31.25 39.0625 L 40.625 39.0625 Z M 41.40625 45.3125 "/>
<path style=" stroke:none;fill-rule:nonzero;fill:rgb(75.686275%,15.294118%,17.647059%);fill-opacity:1;" d="M 69.34375 35.9375 L 58.78125 35.9375 L 59.375 29.6875 L 68.75 29.6875 Z M 69.34375 35.9375 "/>
<path style=" stroke:none;fill-rule:nonzero;fill:rgb(71.764706%,71.764706%,71.764706%);fill-opacity:1;" d="M 39.0625 79.6875 L 60.9375 79.6875 L 60.9375 95.3125 L 39.0625 95.3125 Z M 39.0625 79.6875 "/>
<path style=" stroke:none;fill-rule:nonzero;fill:rgb(50.196078%,50.196078%,50.196078%);fill-opacity:1;" d="M 48.4375 79.6875 L 51.5625 79.6875 L 51.5625 95.3125 L 48.4375 95.3125 Z M 48.4375 79.6875 "/>
<path style=" stroke:none;fill-rule:nonzero;fill:rgb(30.588235%,78.823529%,95.686275%);fill-opacity:1;" d="M 12.5 78.125 L 15.625 78.125 L 15.625 81.25 L 12.5 81.25 Z M 12.5 78.125 "/>
<path style=" stroke:none;fill-rule:nonzero;fill:rgb(30.588235%,78.823529%,95.686275%);fill-opacity:1;" d="M 18.75 78.125 L 21.875 78.125 L 21.875 81.25 L 18.75 81.25 Z M 18.75 78.125 "/>
<path style=" stroke:none;fill-rule:nonzero;fill:rgb(30.588235%,78.823529%,95.686275%);fill-opacity:1;" d="M 25 78.125 L 28.125 78.125 L 28.125 81.25 L 25 81.25 Z M 25 78.125 "/>
<path style=" stroke:none;fill-rule:nonzero;fill:rgb(30.588235%,78.823529%,95.686275%);fill-opacity:1;" d="M 31.25 78.125 L 34.375 78.125 L 34.375 81.25 L 31.25 81.25 Z M 31.25 78.125 "/>
<path style=" stroke:none;fill-rule:nonzero;fill:rgb(30.588235%,78.823529%,95.686275%);fill-opacity:1;" d="M 65.625 78.125 L 68.75 78.125 L 68.75 81.25 L 65.625 81.25 Z M 65.625 78.125 "/>
<path style=" stroke:none;fill-rule:nonzero;fill:rgb(30.588235%,78.823529%,95.686275%);fill-opacity:1;" d="M 71.875 78.125 L 75 78.125 L 75 81.25 L 71.875 81.25 Z M 71.875 78.125 "/>
<path style=" stroke:none;fill-rule:nonzero;fill:rgb(30.588235%,78.823529%,95.686275%);fill-opacity:1;" d="M 78.125 78.125 L 81.25 78.125 L 81.25 81.25 L 78.125 81.25 Z M 78.125 78.125 "/>
<path style=" stroke:none;fill-rule:nonzero;fill:rgb(30.588235%,78.823529%,95.686275%);fill-opacity:1;" d="M 84.375 78.125 L 87.5 78.125 L 87.5 81.25 L 84.375 81.25 Z M 84.375 78.125 "/>
<path style=" stroke:none;fill-rule:nonzero;fill:rgb(90.196078%,90.196078%,90.196078%);fill-opacity:1;" d="M 21.875 14.0625 C 21.332031 14.066406 20.792969 14.167969 20.28125 14.359375 C 20.28125 14.257812 20.3125 14.164062 20.3125 14.0625 C 20.3125 11.472656 18.214844 9.375 15.625 9.375 C 13.035156 9.375 10.9375 11.472656 10.9375 14.0625 C 10.9375 14.164062 10.960938 14.257812 10.96875 14.359375 C 10.457031 14.167969 9.917969 14.066406 9.375 14.0625 C 6.785156 14.0625 4.6875 16.160156 4.6875 18.75 L 4.6875 20.3125 L 26.5625 20.3125 L 26.5625 18.75 C 26.5625 16.160156 24.464844 14.0625 21.875 14.0625 Z M 21.875 14.0625 "/>
<path style=" stroke:none;fill-rule:nonzero;fill:rgb(90.196078%,90.196078%,90.196078%);fill-opacity:1;" d="M 91.296875 30.578125 C 90.828125 30.585938 90.367188 30.671875 89.929688 30.835938 C 89.929688 30.75 89.953125 30.667969 89.953125 30.578125 C 89.953125 28.359375 88.15625 26.5625 85.9375 26.5625 C 83.71875 26.5625 81.921875 28.359375 81.921875 30.578125 C 81.921875 30.667969 81.9375 30.75 81.945312 30.835938 C 80.714844 30.371094 79.339844 30.546875 78.261719 31.296875 C 77.1875 32.050781 76.550781 33.285156 76.5625 34.597656 L 76.5625 35.9375 L 95.3125 35.9375 L 95.3125 34.597656 C 95.3125 32.378906 93.515625 30.582031 91.296875 30.578125 Z M 91.296875 30.578125 "/>
<path style=" stroke:none;fill-rule:nonzero;fill:rgb(70.196078%,70.196078%,70.196078%);fill-opacity:1;" d="M 42.1875 21.875 C 39.597656 21.875 37.5 23.972656 37.5 26.5625 C 35.933594 26.5625 34.605469 27.722656 34.402344 29.277344 C 34.195312 30.832031 35.171875 32.296875 36.6875 32.703125 C 38.199219 33.113281 39.78125 32.335938 40.382812 30.890625 C 42.136719 31.621094 44.152344 31.222656 45.496094 29.882812 C 46.839844 28.542969 47.246094 26.523438 46.519531 24.773438 C 45.796875 23.019531 44.085938 21.875 42.1875 21.875 Z M 42.1875 21.875 "/>
<path style=" stroke:none;fill-rule:nonzero;fill:rgb(70.196078%,70.196078%,70.196078%);fill-opacity:1;" d="M 78.125 6.25 C 74.671875 6.25 71.875 9.046875 71.875 12.5 C 71.875 12.601562 71.898438 12.695312 71.90625 12.796875 C 71.394531 12.605469 70.855469 12.503906 70.3125 12.5 C 67.722656 12.5 65.625 14.597656 65.625 17.1875 C 64.058594 17.1875 62.730469 18.347656 62.527344 19.902344 C 62.320312 21.457031 63.296875 22.921875 64.8125 23.328125 C 66.324219 23.738281 67.90625 22.960938 68.507812 21.515625 C 69.847656 22.074219 71.367188 21.980469 72.625 21.261719 C 73.882812 20.542969 74.734375 19.28125 74.933594 17.847656 C 77.195312 19.199219 80.066406 18.984375 82.101562 17.308594 C 84.136719 15.632812 84.898438 12.859375 84.007812 10.378906 C 83.117188 7.898438 80.761719 6.246094 78.125 6.25 Z M 78.125 6.25 "/>
<path style=" stroke:none;fill-rule:nonzero;fill:rgb(30.196078%,30.196078%,30.196078%);fill-opacity:1;" d="M 3.125 93.75 L 96.875 93.75 L 96.875 96.875 L 3.125 96.875 Z M 3.125 93.75 "/>
<path style=" stroke:none;fill-rule:nonzero;fill:rgb(90.196078%,90.196078%,90.196078%);fill-opacity:1;" d="M 35.9375 64.0625 L 35.9375 51.5625 L 34.375 52.421875 L 34.375 39.0625 L 40.625 39.0625 L 43.1875 60.84375 Z M 35.9375 64.0625 "/>
<path style=" stroke:none;fill-rule:nonzero;fill:rgb(81.960784%,21.568627%,25.882353%);fill-opacity:1;" d="M 41.40625 45.3125 L 34.375 45.3125 L 34.375 39.0625 L 40.625 39.0625 Z M 41.40625 45.3125 "/>
</g>
</svg>
