<?xml version="1.0" encoding="UTF-8"?>
<svg xmlns="http://www.w3.org/2000/svg" xmlns:xlink="http://www.w3.org/1999/xlink" width="32px" height="32px" viewBox="0 0 32 32" version="1.1">
<g id="surface1">
<path style=" stroke:none;fill-rule:nonzero;fill:rgb(100%,79.607843%,35.686275%);fill-opacity:1;" d="M 27 32 L 5.019531 32 C 4.464844 32 4.019531 31.554688 4.019531 31 L 4.019531 14.015625 L 16.011719 2.523438 L 28 14.015625 L 28 31 C 28 31.550781 27.550781 32 27 32 Z M 27 32 "/>
<path style=" stroke:none;fill-rule:nonzero;fill:rgb(96.470588%,70.980392%,27.058824%);fill-opacity:1;" d="M 16.011719 2.523438 L 4.019531 14.015625 C 4.019531 14.730469 4.59375 15.308594 5.308594 15.3125 C 5.65625 15.3125 5.984375 15.175781 6.226562 14.933594 L 12.621094 8.613281 C 14.5 6.757812 17.523438 6.757812 19.402344 8.613281 L 24.949219 14.109375 C 25.941406 15.089844 26.5 16.425781 26.5 17.820312 L 26.5 29.503906 C 26.5 30.054688 26.054688 30.5 25.503906 30.5 C 24.675781 30.5 24.003906 31.171875 24.003906 32 L 27 32 C 27.554688 32 28 31.554688 28 31 L 28 14.015625 Z M 16.011719 2.523438 "/>
<path style=" stroke:none;fill-rule:nonzero;fill:rgb(96.470588%,70.980392%,27.058824%);fill-opacity:1;" d="M 11.015625 19.007812 L 21.007812 19.007812 L 21.007812 32 L 11.015625 32 Z M 11.015625 19.007812 "/>
<path style=" stroke:none;fill-rule:nonzero;fill:rgb(57.254902%,34.509804%,16.862745%);fill-opacity:1;" d="M 12.015625 20.007812 L 20.007812 20.007812 L 20.007812 32 L 12.015625 32 Z M 12.015625 20.007812 "/>
<path style=" stroke:none;fill-rule:nonzero;fill:rgb(31.372549%,74.509804%,90.980392%);fill-opacity:1;" d="M 18.011719 12.515625 C 18.011719 13.617188 17.117188 14.511719 16.011719 14.511719 C 14.910156 14.511719 14.011719 13.617188 14.011719 12.515625 C 14.011719 11.410156 14.910156 10.515625 16.011719 10.515625 C 17.117188 10.515625 18.011719 11.410156 18.011719 12.515625 Z M 18.011719 12.515625 "/>
<path style=" stroke:none;fill-rule:nonzero;fill:rgb(57.254902%,34.509804%,16.862745%);fill-opacity:1;" d="M 16.011719 15.511719 C 14.355469 15.511719 13.011719 14.171875 13.011719 12.515625 C 13.011719 10.859375 14.355469 9.519531 16.011719 9.519531 C 17.664062 9.519531 19.007812 10.859375 19.007812 12.515625 C 19.007812 14.171875 17.664062 15.511719 16.011719 15.511719 Z M 16.011719 10.515625 C 14.90625 10.515625 14.011719 11.410156 14.011719 12.515625 C 14.011719 13.621094 14.90625 14.515625 16.011719 14.515625 C 17.113281 14.515625 18.007812 13.621094 18.007812 12.515625 C 18.007812 11.410156 17.113281 10.515625 16.011719 10.515625 Z M 16.011719 10.515625 "/>
<path style=" stroke:none;fill-rule:nonzero;fill:rgb(87.058824%,20%,24.705882%);fill-opacity:1;" d="M 16.011719 3.769531 L 3.910156 15.726562 C 3.519531 16.109375 2.898438 16.109375 2.511719 15.726562 L 1.8125 15.015625 C 1.441406 14.628906 1.441406 14.015625 1.8125 13.628906 L 15.300781 0.285156 C 15.6875 -0.09375 16.3125 -0.09375 16.699219 0.285156 L 30.1875 13.628906 C 30.558594 14.015625 30.558594 14.628906 30.1875 15.015625 L 29.5 15.726562 C 29.109375 16.109375 28.488281 16.109375 28.101562 15.726562 L 16.011719 3.769531 "/>
<path style=" stroke:none;fill-rule:nonzero;fill:rgb(79.215686%,81.960784%,84.705882%);fill-opacity:1;" d="M 19.007812 26.503906 C 19.007812 26.78125 18.785156 27.003906 18.511719 27.003906 C 18.234375 27.003906 18.011719 26.78125 18.011719 26.503906 C 18.011719 26.226562 18.234375 26.003906 18.511719 26.003906 C 18.785156 26.003906 19.007812 26.226562 19.007812 26.503906 Z M 19.007812 26.503906 "/>
</g>
</svg>
