<svg xmlns="http://www.w3.org/2000/svg"  viewBox="0 0 48 48" width="28px" height="28px"><linearGradient id="S6~yJK3zbgPDUJz_wH1l3a" x1="6" x2="42" y1="2757" y2="2757" gradientTransform="translate(0 -2716)" gradientUnits="userSpaceOnUse"><stop offset="0" stop-color="#c8d3de"/><stop offset="1" stop-color="#c8d3de"/></linearGradient><path fill="url(#S6~yJK3zbgPDUJz_wH1l3a)" d="M42,39H6v2c0,1.104,0.895,2,1.999,2C7.999,43,8,43,8,43h32c1.104,0,2-0.895,2-1.999	c0,0,0-0.001,0-0.001V39z"/><linearGradient id="S6~yJK3zbgPDUJz_wH1l3b" x1="14.095" x2="31.385" y1="2726.338" y2="2759.787" gradientTransform="translate(0 -2716)" gradientUnits="userSpaceOnUse"><stop offset="0" stop-color="#fcfcfc"/><stop offset=".495" stop-color="#f4f4f4"/><stop offset=".946" stop-color="#e8e8e8"/><stop offset="1" stop-color="#e8e8e8"/></linearGradient><path fill="url(#S6~yJK3zbgPDUJz_wH1l3b)" d="M42,39H6V20L24,3l18,17V39z"/><path d="M24,4c-0.489,0-0.961,0.179-1.326,0.503l-5.359,4.811L6,20v5.39L24,9.428	L42,25.39V20L30.685,9.314l-5.359-4.811C24.961,4.179,24.489,4,24,4z" opacity=".05"/><path d="M24,3c-0.488-0.001-0.96,0.177-1.326,0.5l-5.359,4.784L6,18.909v5.359	L24,8.397l18,15.871v-5.359L30.685,8.284L25.326,3.5C24.96,3.177,24.488,2.999,24,3z" opacity=".07"/><linearGradient id="S6~yJK3zbgPDUJz_wH1l3c" x1="24" x2="24" y1="2717.684" y2="2739.696" gradientTransform="translate(0 -2716)" gradientUnits="userSpaceOnUse"><stop offset="0" stop-color="#d43a02"/><stop offset="1" stop-color="#b9360c"/></linearGradient><path fill="url(#S6~yJK3zbgPDUJz_wH1l3c)" d="M44.495,19.507L25.326,2.503c-0.757-0.671-1.895-0.671-2.652,0L3.505,19.507	c-0.412,0.367-0.449,0.998-0.082,1.41c0.006,0.007,0.012,0.013,0.018,0.02l1.636,1.745c0.369,0.394,0.985,0.424,1.39,0.067L24,7.428	L41.533,22.75c0.406,0.356,1.021,0.327,1.39-0.067l1.636-1.745c0.378-0.403,0.358-1.035-0.045-1.413	C44.508,19.519,44.502,19.513,44.495,19.507z"/><path fill="#d35230" d="M27,26h7c0.552,0,1,0.448,1,1v15.993h-9V27C26,26.448,26.448,26,27,26z"/><path fill="#199be2" d="M13.5,26h6c0.276,0,0.5,0.224,0.5,0.5v7.872c0,0.276-0.224,0.5-0.5,0.5h-6	c-0.276,0-0.5-0.224-0.5-0.5V26.5C13,26.224,13.224,26,13.5,26z"/></svg>