<svg xmlns="http://www.w3.org/2000/svg"  viewBox="0 0 48 48" width="30px" height="30px"><path fill="#50e6ff" d="M39,41c0,1.105-0.895,2-2,2H11c-1.105,0-2-0.895-2-2V7c0-1.105,0.895-2,2-2h26c1.105,0,2,0.895,2,2 V41z"/><path fill="#057093" d="M29.5,24h-15c-0.276,0-0.5-0.224-0.5-0.5v-1c0-0.276,0.224-0.5,0.5-0.5h15 c0.276,0,0.5,0.224,0.5,0.5v1C30,23.776,29.776,24,29.5,24z"/><path fill="#057093" d="M33.5,16h-19c-0.276,0-0.5-0.224-0.5-0.5v-3c0-0.276,0.224-0.5,0.5-0.5h19 c0.276,0,0.5,0.224,0.5,0.5v3C34,15.776,33.776,16,33.5,16z"/><path fill="#057093" d="M33.5,24h-1c-0.276,0-0.5-0.224-0.5-0.5v-1c0-0.276,0.224-0.5,0.5-0.5h1c0.276,0,0.5,0.224,0.5,0.5 v1C34,23.776,33.776,24,33.5,24z"/><path fill="#057093" d="M27.5,28h-13c-0.276,0-0.5-0.224-0.5-0.5v-1c0-0.276,0.224-0.5,0.5-0.5h13 c0.276,0,0.5,0.224,0.5,0.5v1C28,27.776,27.776,28,27.5,28z"/><path fill="#057093" d="M33.5,28h-1c-0.276,0-0.5-0.224-0.5-0.5v-1c0-0.276,0.224-0.5,0.5-0.5h1c0.276,0,0.5,0.224,0.5,0.5 v1C34,27.776,33.776,28,33.5,28z"/><path fill="#057093" d="M29.5,32h-15c-0.276,0-0.5-0.224-0.5-0.5v-1c0-0.276,0.224-0.5,0.5-0.5h15 c0.276,0,0.5,0.224,0.5,0.5v1C30,31.776,29.776,32,29.5,32z"/><path fill="#057093" d="M33.5,32h-1c-0.276,0-0.5-0.224-0.5-0.5v-1c0-0.276,0.224-0.5,0.5-0.5h1c0.276,0,0.5,0.224,0.5,0.5 v1C34,31.776,33.776,32,33.5,32z"/><path fill="#057093" d="M27.5,36h-13c-0.276,0-0.5-0.224-0.5-0.5v-1c0-0.276,0.224-0.5,0.5-0.5h13 c0.276,0,0.5,0.224,0.5,0.5v1C28,35.776,27.776,36,27.5,36z"/><path fill="#057093" d="M33.5,36h-1c-0.276,0-0.5-0.224-0.5-0.5v-1c0-0.276,0.224-0.5,0.5-0.5h1c0.276,0,0.5,0.224,0.5,0.5 v1C34,35.776,33.776,36,33.5,36z"/></svg>