<?xml version="1.0" encoding="UTF-8"?>
<svg xmlns="http://www.w3.org/2000/svg" xmlns:xlink="http://www.w3.org/1999/xlink" width="30px" height="30px" viewBox="0 0 30 30" version="1.1">
<g id="surface1">
<path style=" stroke:none;fill-rule:nonzero;fill:rgb(0%,0%,0%);fill-opacity:1;" d="M 15 7.5 C 15.574219 7.5 15.9375 7.777344 15.9375 7.96875 C 15.9375 8.09375 15.988281 8.210938 16.074219 8.300781 C 16.164062 8.386719 16.28125 8.4375 16.40625 8.4375 C 16.53125 8.4375 16.648438 8.386719 16.738281 8.300781 C 16.824219 8.210938 16.875 8.09375 16.875 7.96875 C 16.875 7.300781 16.285156 6.761719 15.46875 6.609375 L 15.46875 6.09375 C 15.46875 5.96875 15.417969 5.851562 15.332031 5.761719 C 15.242188 5.675781 15.125 5.625 15 5.625 C 14.875 5.625 14.757812 5.675781 14.667969 5.761719 C 14.582031 5.851562 14.53125 5.96875 14.53125 6.09375 L 14.53125 6.609375 C 13.714844 6.761719 13.125 7.300781 13.125 7.96875 C 13.125 8.757812 13.949219 9.375 15 9.375 C 15.574219 9.375 15.9375 9.652344 15.9375 9.84375 C 15.9375 10.035156 15.574219 10.3125 15 10.3125 C 14.425781 10.3125 14.0625 10.035156 14.0625 9.84375 C 14.0625 9.71875 14.011719 9.601562 13.925781 9.511719 C 13.835938 9.425781 13.71875 9.375 13.59375 9.375 C 13.46875 9.375 13.351562 9.425781 13.261719 9.511719 C 13.175781 9.601562 13.125 9.71875 13.125 9.84375 C 13.125 10.511719 13.714844 11.050781 14.53125 11.203125 L 14.53125 11.71875 C 14.53125 11.84375 14.582031 11.960938 14.667969 12.050781 C 14.757812 12.136719 14.875 12.1875 15 12.1875 C 15.125 12.1875 15.242188 12.136719 15.332031 12.050781 C 15.417969 11.960938 15.46875 11.84375 15.46875 11.71875 L 15.46875 11.203125 C 16.285156 11.050781 16.875 10.511719 16.875 9.84375 C 16.875 9.054688 16.050781 8.4375 15 8.4375 C 14.425781 8.4375 14.0625 8.160156 14.0625 7.96875 C 14.0625 7.777344 14.425781 7.5 15 7.5 Z M 15 7.5 "/>
<path style=" stroke:none;fill-rule:nonzero;fill:rgb(0%,0%,0%);fill-opacity:1;" d="M 13.125 4.6875 L 16.875 4.6875 C 17 4.6875 17.117188 4.636719 17.207031 4.550781 C 17.292969 4.460938 17.34375 4.34375 17.34375 4.21875 C 17.34375 4.09375 17.292969 3.976562 17.207031 3.886719 C 17.117188 3.800781 17 3.75 16.875 3.75 L 13.125 3.75 C 13 3.75 12.882812 3.800781 12.792969 3.886719 C 12.707031 3.976562 12.65625 4.09375 12.65625 4.21875 C 12.65625 4.34375 12.707031 4.460938 12.792969 4.550781 C 12.882812 4.636719 13 4.6875 13.125 4.6875 Z M 13.125 4.6875 "/>
<path style=" stroke:none;fill-rule:nonzero;fill:rgb(0%,0%,0%);fill-opacity:1;" d="M 13.125 14.0625 L 16.875 14.0625 C 17 14.0625 17.117188 14.011719 17.207031 13.925781 C 17.292969 13.835938 17.34375 13.71875 17.34375 13.59375 C 17.34375 13.46875 17.292969 13.351562 17.207031 13.261719 C 17.117188 13.175781 17 13.125 16.875 13.125 L 13.125 13.125 C 13 13.125 12.882812 13.175781 12.792969 13.261719 C 12.707031 13.351562 12.65625 13.46875 12.65625 13.59375 C 12.65625 13.71875 12.707031 13.835938 12.792969 13.925781 C 12.882812 14.011719 13 14.0625 13.125 14.0625 Z M 13.125 14.0625 "/>
<path style=" stroke:none;fill-rule:nonzero;fill:rgb(0%,0%,0%);fill-opacity:1;" d="M 9.375 19.6875 L 20.625 19.6875 C 20.75 19.6875 20.867188 19.636719 20.957031 19.550781 C 21.042969 19.460938 21.09375 19.34375 21.09375 19.21875 C 21.09375 19.09375 21.042969 18.976562 20.957031 18.886719 C 20.867188 18.800781 20.75 18.75 20.625 18.75 L 9.375 18.75 C 9.25 18.75 9.132812 18.800781 9.042969 18.886719 C 8.957031 18.976562 8.90625 19.09375 8.90625 19.21875 C 8.90625 19.34375 8.957031 19.460938 9.042969 19.550781 C 9.132812 19.636719 9.25 19.6875 9.375 19.6875 Z M 9.375 19.6875 "/>
<path style=" stroke:none;fill-rule:nonzero;fill:rgb(0%,0%,0%);fill-opacity:1;" d="M 9.375 17.8125 L 20.625 17.8125 C 20.75 17.8125 20.867188 17.761719 20.957031 17.675781 C 21.042969 17.585938 21.09375 17.46875 21.09375 17.34375 C 21.09375 17.21875 21.042969 17.101562 20.957031 17.011719 C 20.867188 16.925781 20.75 16.875 20.625 16.875 L 9.375 16.875 C 9.25 16.875 9.132812 16.925781 9.042969 17.011719 C 8.957031 17.101562 8.90625 17.21875 8.90625 17.34375 C 8.90625 17.46875 8.957031 17.585938 9.042969 17.675781 C 9.132812 17.761719 9.25 17.8125 9.375 17.8125 Z M 9.375 17.8125 "/>
<path style=" stroke:none;fill-rule:nonzero;fill:rgb(0%,0%,0%);fill-opacity:1;" d="M 18.75 20.625 L 9.375 20.625 C 9.25 20.625 9.132812 20.675781 9.042969 20.761719 C 8.957031 20.851562 8.90625 20.96875 8.90625 21.09375 C 8.90625 21.21875 8.957031 21.335938 9.042969 21.425781 C 9.132812 21.511719 9.25 21.5625 9.375 21.5625 L 18.75 21.5625 C 18.875 21.5625 18.992188 21.511719 19.082031 21.425781 C 19.167969 21.335938 19.21875 21.21875 19.21875 21.09375 C 19.21875 20.96875 19.167969 20.851562 19.082031 20.761719 C 18.992188 20.675781 18.875 20.625 18.75 20.625 Z M 18.75 20.625 "/>
<path style=" stroke:none;fill-rule:nonzero;fill:rgb(0%,0%,0%);fill-opacity:1;" d="M 18.75 22.5 L 9.375 22.5 C 9.25 22.5 9.132812 22.550781 9.042969 22.636719 C 8.957031 22.726562 8.90625 22.84375 8.90625 22.96875 C 8.90625 23.09375 8.957031 23.210938 9.042969 23.300781 C 9.132812 23.386719 9.25 23.4375 9.375 23.4375 L 18.75 23.4375 C 18.875 23.4375 18.992188 23.386719 19.082031 23.300781 C 19.167969 23.210938 19.21875 23.09375 19.21875 22.96875 C 19.21875 22.84375 19.167969 22.726562 19.082031 22.636719 C 18.992188 22.550781 18.875 22.5 18.75 22.5 Z M 18.75 22.5 "/>
<path style=" stroke:none;fill-rule:nonzero;fill:rgb(0%,0%,0%);fill-opacity:1;" d="M 18.75 14.0625 L 19.21875 14.0625 C 19.34375 14.0625 19.460938 14.011719 19.550781 13.925781 C 19.636719 13.835938 19.6875 13.71875 19.6875 13.59375 C 19.6875 13.46875 19.636719 13.351562 19.550781 13.261719 C 19.460938 13.175781 19.34375 13.125 19.21875 13.125 L 18.75 13.125 C 18.625 13.125 18.507812 13.175781 18.417969 13.261719 C 18.332031 13.351562 18.28125 13.46875 18.28125 13.59375 C 18.28125 13.71875 18.332031 13.835938 18.417969 13.925781 C 18.507812 14.011719 18.625 14.0625 18.75 14.0625 Z M 18.75 14.0625 "/>
<path style=" stroke:none;fill-rule:nonzero;fill:rgb(0%,0%,0%);fill-opacity:1;" d="M 10.78125 14.0625 L 11.25 14.0625 C 11.375 14.0625 11.492188 14.011719 11.582031 13.925781 C 11.667969 13.835938 11.71875 13.71875 11.71875 13.59375 C 11.71875 13.46875 11.667969 13.351562 11.582031 13.261719 C 11.492188 13.175781 11.375 13.125 11.25 13.125 L 10.78125 13.125 C 10.65625 13.125 10.539062 13.175781 10.449219 13.261719 C 10.363281 13.351562 10.3125 13.46875 10.3125 13.59375 C 10.3125 13.71875 10.363281 13.835938 10.449219 13.925781 C 10.539062 14.011719 10.65625 14.0625 10.78125 14.0625 Z M 10.78125 14.0625 "/>
<path style=" stroke:none;fill-rule:nonzero;fill:rgb(0%,0%,0%);fill-opacity:1;" d="M 18.75 4.6875 L 19.21875 4.6875 C 19.34375 4.6875 19.460938 4.636719 19.550781 4.550781 C 19.636719 4.460938 19.6875 4.34375 19.6875 4.21875 C 19.6875 4.09375 19.636719 3.976562 19.550781 3.886719 C 19.460938 3.800781 19.34375 3.75 19.21875 3.75 L 18.75 3.75 C 18.625 3.75 18.507812 3.800781 18.417969 3.886719 C 18.332031 3.976562 18.28125 4.09375 18.28125 4.21875 C 18.28125 4.34375 18.332031 4.460938 18.417969 4.550781 C 18.507812 4.636719 18.625 4.6875 18.75 4.6875 Z M 18.75 4.6875 "/>
<path style=" stroke:none;fill-rule:nonzero;fill:rgb(0%,0%,0%);fill-opacity:1;" d="M 10.78125 4.6875 L 11.25 4.6875 C 11.375 4.6875 11.492188 4.636719 11.582031 4.550781 C 11.667969 4.460938 11.71875 4.34375 11.71875 4.21875 C 11.71875 4.09375 11.667969 3.976562 11.582031 3.886719 C 11.492188 3.800781 11.375 3.75 11.25 3.75 L 10.78125 3.75 C 10.65625 3.75 10.539062 3.800781 10.449219 3.886719 C 10.363281 3.976562 10.3125 4.09375 10.3125 4.21875 C 10.3125 4.34375 10.363281 4.460938 10.449219 4.550781 C 10.539062 4.636719 10.65625 4.6875 10.78125 4.6875 Z M 10.78125 4.6875 "/>
<path style=" stroke:none;fill-rule:nonzero;fill:rgb(0%,0%,0%);fill-opacity:1;" d="M 24.84375 19.710938 L 24.84375 11.25 L 28.125 11.25 C 28.25 11.25 28.367188 11.199219 28.457031 11.113281 C 28.542969 11.023438 28.59375 10.90625 28.59375 10.78125 L 28.59375 3.28125 C 28.59375 2.660156 28.347656 2.0625 27.90625 1.625 C 27.46875 1.183594 26.871094 0.9375 26.25 0.9375 L 7.5 0.9375 C 6.878906 0.9375 6.28125 1.183594 5.84375 1.625 C 5.402344 2.0625 5.15625 2.660156 5.15625 3.28125 L 5.15625 28.59375 C 5.15625 28.6875 5.183594 28.777344 5.234375 28.855469 C 5.285156 28.929688 5.359375 28.992188 5.445312 29.023438 C 5.503906 29.050781 5.5625 29.0625 5.625 29.0625 C 5.75 29.0625 5.871094 29.015625 5.957031 28.925781 L 7.5 27.378906 L 9.042969 28.925781 C 9.128906 29.015625 9.25 29.0625 9.375 29.0625 C 9.5 29.0625 9.621094 29.015625 9.707031 28.925781 L 11.25 27.378906 L 12.792969 28.925781 C 12.878906 29.015625 13 29.0625 13.125 29.0625 C 13.25 29.0625 13.371094 29.015625 13.457031 28.925781 L 15 27.378906 L 16.542969 28.925781 C 16.628906 29.015625 16.75 29.0625 16.875 29.0625 C 17 29.0625 17.121094 29.015625 17.207031 28.925781 L 18.75 27.378906 L 20.292969 28.925781 C 20.378906 29.015625 20.5 29.0625 20.625 29.0625 C 20.75 29.0625 20.871094 29.015625 20.957031 28.925781 L 21.679688 28.203125 C 22.265625 28.617188 22.9375 28.890625 23.648438 29.003906 C 24.355469 29.117188 25.082031 29.066406 25.765625 28.855469 C 26.453125 28.644531 27.082031 28.277344 27.601562 27.785156 C 28.125 27.289062 28.527344 26.683594 28.777344 26.011719 C 29.027344 25.339844 29.121094 24.617188 29.046875 23.90625 C 28.976562 23.191406 28.742188 22.503906 28.359375 21.894531 C 27.980469 21.285156 27.464844 20.773438 26.855469 20.394531 C 26.246094 20.015625 25.558594 19.78125 24.84375 19.710938 Z M 24.84375 3.28125 C 24.84375 2.910156 24.992188 2.550781 25.253906 2.285156 C 25.519531 2.023438 25.878906 1.875 26.25 1.875 C 26.621094 1.875 26.980469 2.023438 27.246094 2.285156 C 27.507812 2.550781 27.65625 2.910156 27.65625 3.28125 L 27.65625 10.3125 L 24.84375 10.3125 Z M 20.625 27.933594 L 19.082031 26.386719 C 18.996094 26.296875 18.875 26.25 18.75 26.25 C 18.625 26.25 18.503906 26.296875 18.417969 26.386719 L 16.875 27.933594 L 15.332031 26.386719 C 15.246094 26.296875 15.125 26.25 15 26.25 C 14.875 26.25 14.753906 26.296875 14.667969 26.386719 L 13.125 27.933594 L 11.582031 26.386719 C 11.496094 26.296875 11.375 26.25 11.25 26.25 C 11.125 26.25 11.003906 26.296875 10.917969 26.386719 L 9.375 27.933594 L 7.832031 26.386719 C 7.746094 26.296875 7.625 26.25 7.5 26.25 C 7.375 26.25 7.253906 26.296875 7.167969 26.386719 L 6.09375 27.464844 L 6.09375 3.28125 C 6.09375 2.910156 6.242188 2.550781 6.507812 2.289062 C 6.769531 2.023438 7.128906 1.875 7.5 1.875 L 24.390625 1.875 C 24.078125 2.277344 23.90625 2.773438 23.90625 3.28125 L 23.90625 19.710938 C 23.035156 19.796875 22.203125 20.125 21.511719 20.660156 C 20.816406 21.195312 20.289062 21.914062 19.980469 22.734375 C 19.675781 23.554688 19.605469 24.441406 19.78125 25.300781 C 19.957031 26.160156 20.367188 26.949219 20.972656 27.585938 Z M 24.375 28.125 C 23.632812 28.125 22.910156 27.90625 22.292969 27.492188 C 21.675781 27.082031 21.195312 26.496094 20.910156 25.808594 C 20.625 25.125 20.550781 24.371094 20.695312 23.644531 C 20.839844 22.914062 21.199219 22.246094 21.722656 21.722656 C 22.246094 21.199219 22.914062 20.839844 23.644531 20.695312 C 24.371094 20.550781 25.125 20.625 25.808594 20.910156 C 26.496094 21.195312 27.082031 21.675781 27.492188 22.292969 C 27.90625 22.910156 28.125 23.632812 28.125 24.375 C 28.125 25.367188 27.726562 26.320312 27.023438 27.023438 C 26.320312 27.726562 25.367188 28.125 24.375 28.125 Z M 24.375 28.125 "/>
<path style=" stroke:none;fill-rule:nonzero;fill:rgb(0%,0%,0%);fill-opacity:1;" d="M 26.890625 22.796875 C 26.800781 22.710938 26.683594 22.660156 26.558594 22.660156 C 26.433594 22.660156 26.316406 22.710938 26.226562 22.796875 L 23.90625 25.117188 L 22.910156 24.125 C 22.824219 24.039062 22.703125 23.992188 22.582031 23.992188 C 22.460938 23.992188 22.339844 24.042969 22.253906 24.128906 C 22.167969 24.214844 22.117188 24.335938 22.117188 24.457031 C 22.117188 24.578125 22.164062 24.699219 22.25 24.785156 L 23.574219 26.113281 C 23.664062 26.199219 23.78125 26.25 23.90625 26.25 C 24.03125 26.25 24.148438 26.199219 24.238281 26.113281 L 26.890625 23.460938 C 26.976562 23.375 27.027344 23.253906 27.027344 23.128906 C 27.027344 23.003906 26.976562 22.886719 26.890625 22.796875 Z M 26.890625 22.796875 "/>
</g>
</svg>
