<?xml version="1.0" encoding="UTF-8"?>
<svg xmlns="http://www.w3.org/2000/svg" xmlns:xlink="http://www.w3.org/1999/xlink" width="50px" height="50px" viewBox="0 0 50 50" version="1.1">
<g id="surface1">
<path style=" stroke:none;fill-rule:nonzero;fill:rgb(92.54902%,93.72549%,94.509804%);fill-opacity:1;" d="M 48.4375 42.1875 L 26.5625 42.1875 C 25.699219 42.1875 25 41.488281 25 40.625 C 25 39.761719 25 10.238281 25 9.375 C 25 8.511719 25.699219 7.8125 26.5625 7.8125 L 48.4375 7.8125 C 49.300781 7.8125 50 8.511719 50 9.375 L 50 40.625 C 50 41.488281 49.300781 42.1875 48.4375 42.1875 Z M 48.4375 42.1875 "/>
<path style=" stroke:none;fill-rule:nonzero;fill:rgb(21.960784%,55.686275%,23.529412%);fill-opacity:1;" d="M 32.8125 17.1875 L 26.5625 17.1875 C 25.699219 17.1875 25 16.488281 25 15.625 C 25 14.761719 25.699219 14.0625 26.5625 14.0625 L 32.8125 14.0625 C 33.675781 14.0625 34.375 14.761719 34.375 15.625 C 34.375 16.488281 33.675781 17.1875 32.8125 17.1875 Z M 32.8125 17.1875 "/>
<path style=" stroke:none;fill-rule:nonzero;fill:rgb(21.960784%,55.686275%,23.529412%);fill-opacity:1;" d="M 32.8125 23.4375 L 26.5625 23.4375 C 25.699219 23.4375 25 22.738281 25 21.875 C 25 21.011719 25.699219 20.3125 26.5625 20.3125 L 32.8125 20.3125 C 33.675781 20.3125 34.375 21.011719 34.375 21.875 C 34.375 22.738281 33.675781 23.4375 32.8125 23.4375 Z M 32.8125 23.4375 "/>
<path style=" stroke:none;fill-rule:nonzero;fill:rgb(21.960784%,55.686275%,23.529412%);fill-opacity:1;" d="M 32.8125 29.6875 L 26.5625 29.6875 C 25.699219 29.6875 25 28.988281 25 28.125 C 25 27.261719 25.699219 26.5625 26.5625 26.5625 L 32.8125 26.5625 C 33.675781 26.5625 34.375 27.261719 34.375 28.125 C 34.375 28.988281 33.675781 29.6875 32.8125 29.6875 Z M 32.8125 29.6875 "/>
<path style=" stroke:none;fill-rule:nonzero;fill:rgb(21.960784%,55.686275%,23.529412%);fill-opacity:1;" d="M 32.8125 35.9375 L 26.5625 35.9375 C 25.699219 35.9375 25 35.238281 25 34.375 C 25 33.511719 25.699219 32.8125 26.5625 32.8125 L 32.8125 32.8125 C 33.675781 32.8125 34.375 33.511719 34.375 34.375 C 34.375 35.238281 33.675781 35.9375 32.8125 35.9375 Z M 32.8125 35.9375 "/>
<path style=" stroke:none;fill-rule:nonzero;fill:rgb(21.960784%,55.686275%,23.529412%);fill-opacity:1;" d="M 42.1875 17.1875 L 39.0625 17.1875 C 38.199219 17.1875 37.5 16.488281 37.5 15.625 C 37.5 14.761719 38.199219 14.0625 39.0625 14.0625 L 42.1875 14.0625 C 43.050781 14.0625 43.75 14.761719 43.75 15.625 C 43.75 16.488281 43.050781 17.1875 42.1875 17.1875 Z M 42.1875 17.1875 "/>
<path style=" stroke:none;fill-rule:nonzero;fill:rgb(21.960784%,55.686275%,23.529412%);fill-opacity:1;" d="M 42.1875 23.4375 L 39.0625 23.4375 C 38.199219 23.4375 37.5 22.738281 37.5 21.875 C 37.5 21.011719 38.199219 20.3125 39.0625 20.3125 L 42.1875 20.3125 C 43.050781 20.3125 43.75 21.011719 43.75 21.875 C 43.75 22.738281 43.050781 23.4375 42.1875 23.4375 Z M 42.1875 23.4375 "/>
<path style=" stroke:none;fill-rule:nonzero;fill:rgb(21.960784%,55.686275%,23.529412%);fill-opacity:1;" d="M 42.1875 29.6875 L 39.0625 29.6875 C 38.199219 29.6875 37.5 28.988281 37.5 28.125 C 37.5 27.261719 38.199219 26.5625 39.0625 26.5625 L 42.1875 26.5625 C 43.050781 26.5625 43.75 27.261719 43.75 28.125 C 43.75 28.988281 43.050781 29.6875 42.1875 29.6875 Z M 42.1875 29.6875 "/>
<path style=" stroke:none;fill-rule:nonzero;fill:rgb(21.960784%,55.686275%,23.529412%);fill-opacity:1;" d="M 42.1875 35.9375 L 39.0625 35.9375 C 38.199219 35.9375 37.5 35.238281 37.5 34.375 C 37.5 33.511719 38.199219 32.8125 39.0625 32.8125 L 42.1875 32.8125 C 43.050781 32.8125 43.75 33.511719 43.75 34.375 C 43.75 35.238281 43.050781 35.9375 42.1875 35.9375 Z M 42.1875 35.9375 "/>
<path style=" stroke:none;fill-rule:nonzero;fill:rgb(18.039216%,49.019608%,19.607843%);fill-opacity:1;" d="M 27.558594 1.921875 C 27.203125 1.625 26.726562 1.496094 26.273438 1.589844 L 1.273438 6.277344 C 0.535156 6.417969 0 7.058594 0 7.8125 L 0 42.1875 C 0 42.9375 0.535156 43.585938 1.273438 43.722656 L 26.273438 48.410156 C 26.367188 48.429688 26.464844 48.4375 26.5625 48.4375 C 26.925781 48.4375 27.277344 48.3125 27.558594 48.078125 C 27.917969 47.78125 28.125 47.339844 28.125 46.875 L 28.125 3.125 C 28.125 2.660156 27.917969 2.21875 27.558594 1.921875 Z M 27.558594 1.921875 "/>
<path style=" stroke:none;fill-rule:nonzero;fill:rgb(98.039216%,98.039216%,98.039216%);fill-opacity:1;" d="M 21.488281 30.222656 L 16.546875 24.574219 L 21.542969 18.152344 C 22.074219 17.46875 21.949219 16.488281 21.273438 15.957031 C 20.59375 15.425781 19.613281 15.550781 19.078125 16.230469 L 14.449219 22.179688 L 10.550781 17.722656 C 9.976562 17.066406 8.992188 17.007812 8.347656 17.574219 C 7.695312 18.144531 7.632812 19.132812 8.199219 19.777344 L 12.496094 24.691406 L 8.140625 30.292969 C 7.609375 30.972656 7.734375 31.953125 8.414062 32.484375 C 8.699219 32.707031 9.039062 32.8125 9.375 32.8125 C 9.839844 32.8125 10.300781 32.605469 10.609375 32.210938 L 14.59375 27.085938 L 19.136719 32.277344 C 19.445312 32.632812 19.878906 32.8125 20.3125 32.8125 C 20.679688 32.8125 21.042969 32.683594 21.339844 32.425781 C 21.992188 31.855469 22.054688 30.871094 21.488281 30.222656 Z M 21.488281 30.222656 "/>
</g>
</svg>
