<?xml version="1.0" encoding="UTF-8"?>
<svg xmlns="http://www.w3.org/2000/svg" xmlns:xlink="http://www.w3.org/1999/xlink" width="30px" height="30px" viewBox="0 0 30 30" version="1.1">
<g id="surface1">
<path style=" stroke:none;fill-rule:nonzero;fill:rgb(0%,0%,0%);fill-opacity:1;" d="M 28.125 1.40625 L 26.582031 1.40625 C 26.324219 1.40625 26.113281 1.617188 26.113281 1.875 L 26.113281 9.578125 L 24.84375 9.578125 L 24.84375 4.070312 C 24.84375 3.808594 24.632812 3.601562 24.375 3.601562 L 17.976562 3.601562 C 17.71875 3.601562 17.507812 3.808594 17.507812 4.070312 L 17.507812 9.578125 L 16.238281 9.578125 L 16.238281 1.875 C 16.238281 1.617188 16.027344 1.40625 15.769531 1.40625 L 14.230469 1.40625 C 13.972656 1.40625 13.761719 1.617188 13.761719 1.875 L 13.761719 9.578125 L 12.488281 9.578125 L 12.488281 4.070312 C 12.488281 3.808594 12.277344 3.601562 12.019531 3.601562 L 5.625 3.601562 C 5.367188 3.601562 5.15625 3.808594 5.15625 4.070312 L 5.15625 9.578125 L 3.886719 9.578125 L 3.886719 1.875 C 3.886719 1.617188 3.675781 1.40625 3.417969 1.40625 L 1.875 1.40625 C 1.617188 1.40625 1.40625 1.617188 1.40625 1.875 L 1.40625 28.125 C 1.40625 28.382812 1.617188 28.59375 1.875 28.59375 L 3.417969 28.59375 C 3.675781 28.59375 3.886719 28.382812 3.886719 28.125 L 3.886719 26.113281 L 13.761719 26.113281 L 13.761719 28.125 C 13.761719 28.382812 13.972656 28.59375 14.230469 28.59375 L 15.769531 28.59375 C 16.027344 28.59375 16.238281 28.382812 16.238281 28.125 L 16.238281 26.113281 L 26.113281 26.113281 L 26.113281 28.125 C 26.113281 28.382812 26.324219 28.59375 26.582031 28.59375 L 28.125 28.59375 C 28.382812 28.59375 28.59375 28.382812 28.59375 28.125 L 28.59375 1.875 C 28.59375 1.617188 28.382812 1.40625 28.125 1.40625 Z M 20.625 4.539062 L 21.695312 4.539062 L 21.695312 5.476562 L 21.429688 5.289062 C 21.269531 5.175781 21.054688 5.175781 20.890625 5.289062 L 20.625 5.476562 Z M 18.429688 4.539062 L 19.6875 4.539062 L 19.6875 6.367188 C 19.6875 6.542969 19.785156 6.703125 19.941406 6.78125 C 20.007812 6.816406 20.082031 6.832031 20.15625 6.835938 C 20.253906 6.835938 20.351562 6.804688 20.429688 6.746094 L 21.160156 6.226562 L 21.890625 6.746094 C 22.027344 6.839844 22.207031 6.855469 22.359375 6.78125 C 22.515625 6.703125 22.613281 6.542969 22.613281 6.367188 L 22.613281 4.539062 L 23.90625 4.539062 L 23.90625 9.578125 L 18.445312 9.578125 Z M 8.273438 4.539062 L 9.375 4.539062 L 9.375 5.476562 L 9.113281 5.289062 C 8.949219 5.171875 8.730469 5.171875 8.570312 5.289062 L 8.304688 5.476562 Z M 6.09375 4.539062 L 7.351562 4.539062 L 7.351562 6.367188 C 7.351562 6.542969 7.449219 6.703125 7.601562 6.78125 C 7.667969 6.816406 7.742188 6.835938 7.820312 6.835938 C 7.917969 6.832031 8.011719 6.800781 8.089844 6.746094 L 8.820312 6.226562 L 9.554688 6.746094 C 9.691406 6.839844 9.871094 6.855469 10.023438 6.78125 C 10.175781 6.703125 10.273438 6.542969 10.273438 6.367188 L 10.273438 4.539062 L 11.53125 4.539062 L 11.53125 9.578125 L 6.09375 9.578125 Z M 26.113281 10.515625 L 26.113281 17.375 L 24.84375 17.375 L 24.84375 11.867188 C 24.84375 11.609375 24.632812 11.398438 24.375 11.398438 L 17.976562 11.398438 C 17.71875 11.398438 17.507812 11.609375 17.507812 11.867188 L 17.507812 17.375 L 16.238281 17.375 L 16.238281 10.515625 Z M 20.625 12.335938 L 21.695312 12.335938 L 21.695312 13.273438 L 21.4375 13.085938 C 21.273438 12.972656 21.054688 12.972656 20.890625 13.085938 L 20.625 13.273438 Z M 19.941406 14.582031 C 20.007812 14.617188 20.082031 14.632812 20.15625 14.632812 C 20.253906 14.636719 20.347656 14.605469 20.429688 14.550781 L 21.160156 14.03125 L 21.90625 14.53125 C 22.046875 14.632812 22.234375 14.644531 22.390625 14.566406 C 22.546875 14.488281 22.644531 14.328125 22.644531 14.152344 L 22.644531 12.324219 L 23.90625 12.324219 L 23.90625 17.375 L 18.445312 17.375 L 18.445312 12.335938 L 19.6875 12.335938 L 19.6875 14.164062 C 19.691406 14.34375 19.792969 14.507812 19.953125 14.582031 Z M 13.761719 10.515625 L 13.761719 17.375 L 12.488281 17.375 L 12.488281 11.867188 C 12.488281 11.609375 12.277344 11.398438 12.019531 11.398438 L 5.625 11.398438 C 5.367188 11.398438 5.15625 11.609375 5.15625 11.867188 L 5.15625 17.375 L 3.886719 17.375 L 3.886719 10.515625 Z M 8.289062 12.335938 L 9.375 12.335938 L 9.375 13.273438 L 9.113281 13.085938 C 8.949219 12.972656 8.730469 12.972656 8.570312 13.085938 L 8.304688 13.273438 Z M 7.601562 14.582031 C 7.753906 14.65625 7.933594 14.644531 8.070312 14.550781 L 8.804688 14.03125 L 9.554688 14.53125 C 9.695312 14.640625 9.886719 14.664062 10.046875 14.585938 C 10.207031 14.507812 10.3125 14.34375 10.3125 14.164062 L 10.3125 12.335938 L 11.570312 12.335938 L 11.570312 17.375 L 6.09375 17.375 L 6.09375 12.335938 L 7.351562 12.335938 L 7.351562 14.164062 C 7.351562 14.339844 7.449219 14.503906 7.601562 14.582031 Z M 2.949219 27.65625 L 2.34375 27.65625 L 2.34375 2.34375 L 2.949219 2.34375 Z M 6.09375 25.175781 L 6.09375 20.15625 L 7.351562 20.15625 L 7.351562 21.984375 C 7.351562 22.160156 7.449219 22.320312 7.601562 22.402344 C 7.753906 22.476562 7.933594 22.460938 8.070312 22.367188 L 8.804688 21.847656 L 9.535156 22.363281 C 9.613281 22.421875 9.707031 22.453125 9.804688 22.453125 C 9.882812 22.453125 9.953125 22.433594 10.023438 22.402344 C 10.175781 22.320312 10.273438 22.160156 10.273438 21.984375 L 10.273438 20.15625 L 11.53125 20.15625 L 11.53125 25.175781 Z M 8.289062 20.15625 L 9.375 20.15625 L 9.375 21.09375 L 9.113281 20.90625 C 8.949219 20.789062 8.730469 20.789062 8.570312 20.90625 L 8.304688 21.09375 Z M 12.507812 25.195312 L 12.507812 19.6875 C 12.507812 19.429688 12.296875 19.21875 12.039062 19.21875 L 5.625 19.21875 C 5.367188 19.21875 5.15625 19.429688 5.15625 19.6875 L 5.15625 25.175781 L 3.886719 25.175781 L 3.886719 18.3125 L 13.761719 18.3125 L 13.761719 25.175781 Z M 15.320312 27.675781 L 14.699219 27.675781 L 14.699219 2.34375 L 15.300781 2.34375 Z M 18.464844 25.195312 L 18.464844 20.15625 L 19.6875 20.15625 L 19.6875 21.984375 C 19.6875 22.160156 19.785156 22.320312 19.941406 22.402344 C 20.089844 22.476562 20.269531 22.460938 20.410156 22.367188 L 21.140625 21.847656 L 21.871094 22.363281 C 21.949219 22.421875 22.046875 22.453125 22.144531 22.453125 C 22.21875 22.453125 22.292969 22.433594 22.359375 22.402344 C 22.515625 22.320312 22.613281 22.160156 22.613281 21.984375 L 22.613281 20.15625 L 23.90625 20.15625 L 23.90625 25.175781 Z M 20.625 20.15625 L 21.695312 20.15625 L 21.695312 21.09375 L 21.429688 20.90625 C 21.269531 20.792969 21.054688 20.792969 20.890625 20.90625 L 20.625 21.09375 Z M 24.84375 25.195312 L 24.84375 19.6875 C 24.84375 19.429688 24.632812 19.21875 24.375 19.21875 L 17.976562 19.21875 C 17.71875 19.21875 17.507812 19.429688 17.507812 19.6875 L 17.507812 25.175781 L 16.238281 25.175781 L 16.238281 18.3125 L 26.113281 18.3125 L 26.113281 25.175781 Z M 27.65625 27.65625 L 27.050781 27.65625 L 27.050781 2.34375 L 27.65625 2.34375 Z M 27.65625 27.65625 "/>
</g>
</svg>
