<?xml version="1.0" encoding="UTF-8"?>
<svg xmlns="http://www.w3.org/2000/svg" xmlns:xlink="http://www.w3.org/1999/xlink" width="30px" height="30px" viewBox="0 0 30 30" version="1.1">
<g id="surface1">
<path style=" stroke:none;fill-rule:nonzero;fill:rgb(0%,0%,0%);fill-opacity:1;" d="M 24.496094 6.335938 L 16.527344 4.929688 C 16.324219 4.898438 16.113281 4.953125 15.957031 5.085938 C 15.796875 5.222656 15.703125 5.417969 15.703125 5.625 L 15.703125 6.414062 L 11.183594 7.5 C 10.867188 7.578125 10.648438 7.859375 10.644531 8.183594 L 10.644531 10.105469 C 10.644531 10.496094 10.960938 10.808594 11.347656 10.808594 C 11.738281 10.808594 12.050781 10.496094 12.050781 10.105469 L 12.050781 8.726562 L 15.703125 7.855469 L 15.703125 22.210938 L 12.050781 21.335938 L 12.050781 20.15625 C 12.050781 19.769531 11.738281 19.453125 11.347656 19.453125 C 10.960938 19.453125 10.644531 19.769531 10.644531 20.15625 L 10.644531 21.890625 C 10.648438 22.214844 10.867188 22.496094 11.183594 22.574219 L 15.703125 23.652344 L 15.703125 24.375 C 15.707031 24.582031 15.796875 24.777344 15.957031 24.910156 C 16.117188 25.042969 16.324219 25.101562 16.527344 25.070312 L 24.496094 23.664062 C 24.832031 23.601562 25.078125 23.308594 25.078125 22.96875 L 25.078125 7.03125 C 25.078125 6.691406 24.832031 6.398438 24.496094 6.335938 Z M 24.496094 6.335938 "/>
<path style=" stroke:none;fill-rule:nonzero;fill:rgb(0%,0%,0%);fill-opacity:1;" d="M 13.621094 15 C 13.621094 14.613281 13.308594 14.296875 12.917969 14.296875 L 9.132812 14.296875 L 9.132812 12.1875 C 9.121094 11.910156 8.945312 11.664062 8.683594 11.5625 C 8.425781 11.460938 8.128906 11.519531 7.929688 11.71875 L 5.117188 14.53125 C 4.851562 14.808594 4.851562 15.246094 5.117188 15.523438 L 7.929688 18.335938 C 8.136719 18.542969 8.445312 18.601562 8.710938 18.484375 C 8.976562 18.367188 9.144531 18.101562 9.132812 17.8125 L 9.132812 15.703125 L 12.917969 15.703125 C 13.308594 15.703125 13.621094 15.386719 13.621094 15 Z M 13.621094 15 "/>
</g>
</svg>
