<?xml version="1.0" encoding="UTF-8"?>
<svg xmlns="http://www.w3.org/2000/svg" xmlns:xlink="http://www.w3.org/1999/xlink" width="50px" height="50px" viewBox="0 0 50 50" version="1.1">
<g id="surface1">
<path style=" stroke:none;fill-rule:nonzero;fill:rgb(75.686275%,90.980392%,96.862745%);fill-opacity:1;" d="M 49.363281 24.972656 C 49.363281 38.421875 38.460938 49.328125 25.007812 49.328125 C 11.558594 49.328125 0.652344 38.421875 0.652344 24.972656 C 0.652344 11.519531 11.558594 0.617188 25.007812 0.617188 C 38.460938 0.617188 49.363281 11.519531 49.363281 24.972656 Z M 49.363281 24.972656 "/>
<path style=" stroke:none;fill-rule:nonzero;fill:rgb(100%,86.666667%,79.215686%);fill-opacity:1;" d="M 25.191406 33.867188 C 25.214844 33.886719 25.226562 33.90625 25.234375 33.929688 C 25.242188 33.90625 25.257812 33.886719 25.28125 33.867188 C 28.179688 31.648438 29.316406 30.160156 29.824219 29.769531 C 29.476562 29.023438 29.332031 28.289062 29.277344 27.679688 C 29.21875 27.734375 29.15625 27.789062 29.097656 27.84375 C 28.75 28.148438 28.378906 28.429688 27.976562 28.664062 C 27.636719 28.863281 27.277344 29.027344 26.902344 29.148438 C 26.558594 29.257812 26.207031 29.332031 25.851562 29.367188 C 25.40625 29.410156 24.953125 29.398438 24.511719 29.328125 C 24.148438 29.269531 23.796875 29.175781 23.457031 29.039062 C 23.074219 28.890625 22.710938 28.695312 22.367188 28.464844 C 21.960938 28.195312 21.585938 27.882812 21.234375 27.542969 C 21.234375 27.539062 21.230469 27.539062 21.230469 27.535156 C 21.183594 28.175781 21.042969 28.972656 20.664062 29.78125 C 21.175781 30.191406 22.320312 31.671875 25.191406 33.867188 Z M 25.191406 33.867188 "/>
<path style=" stroke:none;fill-rule:nonzero;fill:rgb(57.647059%,68.627451%,79.215686%);fill-opacity:1;" d="M 24.28125 37.996094 C 23.886719 37.121094 23.449219 36.617188 23.402344 35.890625 C 23.003906 36.335938 22.707031 36.808594 22.75 37.246094 C 22.867188 38.492188 19.246094 34.3125 18.792969 32.199219 C 18.75 32.570312 18.71875 33.425781 19.855469 35.101562 C 20.417969 35.933594 21.914062 40.207031 23.386719 44.804688 C 23.851562 41.710938 24.296875 38.898438 24.433594 38.148438 C 24.367188 38.109375 24.308594 38.0625 24.28125 37.996094 Z M 24.28125 37.996094 "/>
<path style=" stroke:none;fill-rule:nonzero;fill:rgb(57.647059%,68.627451%,79.215686%);fill-opacity:1;" d="M 26.191406 37.996094 C 26.160156 38.0625 26.101562 38.109375 26.035156 38.148438 C 26.175781 38.917969 26.640625 41.859375 27.117188 45.050781 C 28.367188 40.773438 29.902344 36.125 30.597656 35.101562 C 31.6875 33.5 31.707031 32.652344 31.664062 32.253906 C 31.164062 34.382812 27.601562 38.480469 27.71875 37.246094 C 27.761719 36.808594 27.46875 36.335938 27.066406 35.890625 C 27.019531 36.617188 26.582031 37.121094 26.191406 37.996094 Z M 26.191406 37.996094 "/>
<path style=" stroke:none;fill-rule:nonzero;fill:rgb(57.647059%,68.627451%,79.215686%);fill-opacity:1;" d="M 31.058594 36.328125 L 31.089844 36.351562 C 31.089844 36.34375 31.09375 36.335938 31.097656 36.328125 C 31.074219 36.328125 31.058594 36.328125 31.058594 36.328125 Z M 31.058594 36.328125 "/>
<path style=" stroke:none;fill-rule:nonzero;fill:rgb(71.372549%,15.294118%,22.352941%);fill-opacity:1;" d="M 27.117188 45.050781 C 26.640625 41.859375 26.175781 38.917969 26.035156 38.148438 C 26.101562 38.109375 26.160156 38.0625 26.191406 37.996094 C 26.582031 37.121094 27.019531 36.617188 27.066406 35.890625 C 26.367188 35.105469 25.339844 34.390625 25.234375 34.03125 C 25.128906 34.390625 24.105469 35.105469 23.402344 35.890625 C 23.449219 36.617188 23.886719 37.121094 24.28125 37.996094 C 24.308594 38.0625 24.367188 38.109375 24.433594 38.148438 C 24.296875 38.898438 23.851562 41.710938 23.386719 44.804688 C 23.871094 46.3125 24.351562 47.851562 24.792969 49.320312 C 24.890625 49.320312 24.984375 49.328125 25.078125 49.328125 C 25.371094 49.328125 25.65625 49.316406 25.941406 49.304688 C 26.261719 48.054688 26.671875 46.578125 27.117188 45.050781 Z M 27.117188 45.050781 "/>
<path style=" stroke:none;fill-rule:nonzero;fill:rgb(72.54902%,83.137255%,95.294118%);fill-opacity:1;" d="M 19.207031 31.128906 C 19.117188 31.214844 19.042969 31.292969 18.976562 31.359375 C 18.878906 31.5 18.796875 31.707031 18.8125 32.015625 C 18.816406 32.054688 18.804688 32.117188 18.792969 32.199219 C 19.246094 34.3125 22.867188 38.492188 22.75 37.246094 C 22.707031 36.808594 23.003906 36.335938 23.402344 35.890625 C 24.105469 35.105469 25.128906 34.390625 25.234375 34.03125 C 25.339844 34.390625 26.367188 35.105469 27.066406 35.890625 C 27.46875 36.335938 27.761719 36.808594 27.71875 37.246094 C 27.601562 38.480469 31.164062 34.382812 31.664062 32.253906 C 31.652344 32.140625 31.636719 32.0625 31.640625 32.015625 C 31.65625 31.667969 31.554688 31.445312 31.441406 31.304688 C 31.398438 31.261719 31.351562 31.21875 31.304688 31.167969 C 31.238281 31.121094 31.1875 31.097656 31.1875 31.097656 C 31.1875 31.097656 31.203125 31.09375 31.226562 31.09375 C 30.929688 30.800781 30.539062 30.386719 30.160156 29.746094 C 30.089844 29.625 29.988281 29.636719 29.824219 29.769531 C 29.316406 30.160156 28.179688 31.648438 25.28125 33.867188 C 25.257812 33.886719 25.242188 33.90625 25.234375 33.929688 C 25.226562 33.90625 25.214844 33.886719 25.191406 33.867188 C 22.320312 31.671875 21.175781 30.191406 20.664062 29.78125 C 20.488281 29.640625 20.382812 29.621094 20.308594 29.746094 C 19.933594 30.386719 19.539062 30.800781 19.242188 31.09375 C 19.257812 31.097656 19.265625 31.097656 19.265625 31.097656 C 19.265625 31.097656 19.242188 31.109375 19.207031 31.128906 Z M 19.207031 31.128906 "/>
<path style=" stroke:none;fill-rule:nonzero;fill:rgb(100%,90.196078%,82.745098%);fill-opacity:1;" d="M 22.367188 28.464844 C 22.710938 28.695312 23.074219 28.890625 23.453125 29.039062 C 23.796875 29.175781 24.148438 29.269531 24.511719 29.328125 C 24.953125 29.398438 25.40625 29.410156 25.851562 29.367188 C 26.207031 29.332031 26.558594 29.257812 26.902344 29.148438 C 27.277344 29.027344 27.636719 28.863281 27.976562 28.664062 C 28.375 28.429688 28.75 28.148438 29.097656 27.84375 C 29.15625 27.789062 29.21875 27.734375 29.277344 27.679688 C 29.324219 27.632812 29.375 27.589844 29.425781 27.542969 C 30.917969 26.101562 30.90625 22.457031 31.265625 22.714844 C 32.089844 23.269531 32.617188 21.621094 32.71875 20.644531 C 32.808594 19.804688 32.492188 19.386719 32.140625 19.542969 C 32.046875 19.75 31.929688 19.910156 31.785156 19.992188 C 31.785156 19.992188 31.269531 22.121094 31.050781 22.054688 C 30.828125 21.988281 30.925781 20.066406 31.269531 17.816406 C 31.640625 15.421875 28.695312 16.464844 26.636719 16.398438 C 24.574219 16.332031 19.808594 15.933594 19.4375 17.0625 C 19.070312 18.195312 19.792969 21.609375 19.496094 21.742188 C 19.203125 21.878906 18.835938 20.191406 18.539062 19.859375 C 18.492188 19.808594 18.441406 19.679688 18.394531 19.507812 C 18.097656 19.492188 17.863281 19.90625 17.941406 20.644531 C 18.042969 21.621094 18.570312 23.269531 19.394531 22.714844 C 19.753906 22.457031 19.742188 26.09375 21.230469 27.535156 C 21.230469 27.539062 21.234375 27.539062 21.234375 27.542969 C 21.585938 27.882812 21.960938 28.195312 22.367188 28.464844 Z M 22.367188 28.464844 "/>
<path style=" stroke:none;fill-rule:nonzero;fill:rgb(33.333333%,29.803922%,26.666667%);fill-opacity:1;" d="M 19.496094 21.742188 C 19.792969 21.609375 19.070312 18.195312 19.4375 17.0625 C 19.808594 15.933594 24.574219 16.332031 26.636719 16.398438 C 28.695312 16.464844 31.640625 15.421875 31.269531 17.816406 C 30.925781 20.066406 30.828125 21.988281 31.050781 22.054688 C 31.269531 22.121094 31.785156 19.992188 31.785156 19.992188 C 31.929688 19.910156 32.046875 19.75 32.140625 19.542969 C 32.71875 18.253906 32.449219 14.976562 32.449219 14.402344 C 32.449219 13.738281 31.417969 12.605469 30.976562 12.605469 C 30.535156 12.605469 30.902344 10.742188 27.886719 9.945312 C 24.867188 9.148438 22.21875 9.546875 20.746094 10.277344 C 19.277344 11.011719 18.171875 12.273438 17.507812 12.472656 C 16.847656 12.671875 17.730469 13.140625 17.214844 13.605469 C 16.699219 14.070312 17.582031 14.667969 17.730469 15.601562 C 17.855469 16.382812 18.132812 18.613281 18.394531 19.507812 C 18.441406 19.679688 18.492188 19.808594 18.539062 19.859375 C 18.835938 20.191406 19.203125 21.878906 19.496094 21.742188 Z M 19.496094 21.742188 "/>
<path style=" stroke:none;fill-rule:nonzero;fill:rgb(7.058824%,6.666667%,7.058824%);fill-opacity:1;" d="M 33.773438 33.183594 C 34.496094 34.476562 34.535156 35.273438 35.046875 35.652344 C 35.53125 36.011719 31.53125 36.296875 31.097656 36.328125 C 31.09375 36.335938 31.089844 36.34375 31.089844 36.351562 L 33.894531 38.46875 C 33.894531 38.46875 31.453125 41.789062 30.148438 43.734375 C 29.6875 44.417969 28.539062 46.390625 27.898438 47.515625 C 27.714844 47.832031 27.359375 48.5 26.960938 49.25 C 30.773438 48.957031 34.335938 47.792969 37.453125 45.949219 C 37.847656 41.160156 38.960938 34.699219 41.125 35.070312 C 40.261719 34.707031 37.867188 34.230469 36.246094 33.570312 C 34.839844 33 33.726562 32.285156 33.035156 32.273438 C 33.300781 32.515625 33.566406 32.816406 33.773438 33.183594 Z M 33.773438 33.183594 "/>
<path style=" stroke:none;fill-rule:nonzero;fill:rgb(0%,0%,0%);fill-opacity:1;" d="M 31.304688 31.167969 C 31.347656 31.199219 31.394531 31.246094 31.441406 31.304688 C 31.554688 31.445312 31.65625 31.667969 31.640625 32.015625 C 31.636719 32.0625 31.652344 32.140625 31.664062 32.253906 C 31.707031 32.652344 31.6875 33.5 30.597656 35.101562 C 29.902344 36.125 28.367188 40.773438 27.117188 45.050781 C 26.671875 46.578125 26.261719 48.054688 25.941406 49.304688 C 26.285156 49.292969 26.625 49.273438 26.960938 49.25 C 27.359375 48.5 27.714844 47.832031 27.898438 47.515625 C 28.539062 46.390625 29.6875 44.417969 30.148438 43.734375 C 31.453125 41.789062 33.894531 38.46875 33.894531 38.46875 L 31.089844 36.351562 L 31.058594 36.328125 C 31.058594 36.328125 31.074219 36.328125 31.097656 36.328125 C 31.53125 36.296875 35.53125 36.011719 35.046875 35.652344 C 34.535156 35.273438 34.496094 34.476562 33.773438 33.183594 C 33.566406 32.816406 33.300781 32.515625 33.035156 32.273438 C 32.671875 31.9375 32.316406 31.703125 32.132812 31.546875 C 31.625 31.117188 31.324219 31.089844 31.226562 31.09375 C 31.203125 31.09375 31.1875 31.097656 31.1875 31.097656 C 31.1875 31.097656 31.238281 31.121094 31.304688 31.167969 Z M 31.304688 31.167969 "/>
<path style=" stroke:none;fill-rule:nonzero;fill:rgb(11.372549%,10.588235%,11.764706%);fill-opacity:1;" d="M 13.355469 46.320312 C 16.359375 47.976562 19.753906 49.007812 23.363281 49.261719 C 22.972656 48.378906 22.671875 47.71875 22.554688 47.515625 C 21.914062 46.390625 20.765625 44.417969 20.304688 43.734375 C 19 41.789062 16.5625 38.46875 16.5625 38.46875 L 19.394531 36.328125 C 19.394531 36.328125 14.894531 36.035156 15.40625 35.652344 C 15.917969 35.273438 15.957031 34.476562 16.679688 33.183594 C 16.894531 32.800781 17.171875 32.496094 17.445312 32.25 C 16.757812 32.453125 15.8125 33.007812 14.675781 33.46875 C 12.886719 34.195312 10.15625 34.703125 9.585938 35.078125 C 11.851562 34.542969 12.984375 41.457031 13.355469 46.320312 Z M 13.355469 46.320312 "/>
<path style=" stroke:none;fill-rule:nonzero;fill:rgb(0%,0%,0%);fill-opacity:1;" d="M 16.679688 33.183594 C 15.957031 34.476562 15.917969 35.273438 15.40625 35.652344 C 14.894531 36.035156 19.394531 36.328125 19.394531 36.328125 L 16.5625 38.46875 C 16.5625 38.46875 19 41.789062 20.304688 43.734375 C 20.765625 44.417969 21.914062 46.390625 22.554688 47.515625 C 22.671875 47.71875 22.972656 48.378906 23.363281 49.261719 C 23.835938 49.292969 24.3125 49.316406 24.792969 49.320312 C 24.351562 47.851562 23.871094 46.3125 23.386719 44.804688 C 21.914062 40.207031 20.417969 35.933594 19.855469 35.101562 C 18.71875 33.425781 18.75 32.570312 18.792969 32.199219 C 18.804688 32.117188 18.816406 32.054688 18.8125 32.015625 C 18.796875 31.707031 18.878906 31.5 18.976562 31.359375 C 19.058594 31.238281 19.148438 31.164062 19.207031 31.128906 C 19.242188 31.109375 19.265625 31.097656 19.265625 31.097656 C 19.265625 31.097656 19.257812 31.097656 19.242188 31.09375 C 19.164062 31.085938 18.855469 31.09375 18.320312 31.546875 C 18.144531 31.699219 17.800781 31.925781 17.445312 32.25 C 17.171875 32.496094 16.894531 32.800781 16.679688 33.183594 Z M 16.679688 33.183594 "/>
<path style=" stroke:none;fill-rule:nonzero;fill:rgb(0%,0%,0%);fill-opacity:1;" d="M 13.355469 46.320312 C 12.984375 41.457031 11.851562 34.542969 9.585938 35.078125 C 9.492188 35.101562 9.398438 35.136719 9.300781 35.183594 C 8.78125 35.441406 8.257812 38.148438 7.597656 41.921875 C 9.28125 43.65625 11.21875 45.144531 13.355469 46.320312 Z M 13.355469 46.320312 "/>
<path style=" stroke:none;fill-rule:nonzero;fill:rgb(0%,0%,0%);fill-opacity:1;" d="M 37.453125 45.949219 C 39.550781 44.707031 41.453125 43.164062 43.085938 41.375 C 42.46875 37.890625 41.972656 35.429688 41.476562 35.183594 C 41.355469 35.125 41.238281 35.089844 41.125 35.070312 C 38.960938 34.699219 37.847656 41.160156 37.453125 45.949219 Z M 37.453125 45.949219 "/>
</g>
</svg>
