<?xml version="1.0" encoding="UTF-8"?>
<svg xmlns="http://www.w3.org/2000/svg" xmlns:xlink="http://www.w3.org/1999/xlink" width="30px" height="30px" viewBox="0 0 30 30" version="1.1">
<g id="surface1">
<path style=" stroke:none;fill-rule:evenodd;fill:rgb(16.078431%,21.176471%,26.666667%);fill-opacity:1;" d="M 15.734375 4.582031 C 15.296875 4.261719 14.703125 4.261719 14.265625 4.582031 L 6.25 10.410156 L 6.25 25 C 6.25 25.691406 6.808594 26.25 7.5 26.25 L 10 26.25 L 10 18.75 C 10 16.679688 11.679688 15 13.75 15 L 16.25 15 C 18.320312 15 20 16.679688 20 18.75 L 20 26.25 L 22.5 26.25 C 23.191406 26.25 23.75 25.691406 23.75 25 L 23.75 10.410156 Z M 26.25 12.226562 L 28.015625 13.511719 C 28.574219 13.917969 29.355469 13.792969 29.761719 13.234375 C 30.167969 12.675781 30.042969 11.894531 29.484375 11.488281 L 17.207031 2.558594 C 15.890625 1.601562 14.109375 1.601562 12.792969 2.558594 L 0.515625 11.488281 C -0.0429688 11.894531 -0.167969 12.675781 0.238281 13.234375 C 0.644531 13.792969 1.425781 13.917969 1.984375 13.511719 L 3.75 12.226562 L 3.75 25 C 3.75 27.070312 5.429688 28.75 7.5 28.75 L 22.5 28.75 C 24.570312 28.75 26.25 27.070312 26.25 25 Z M 17.5 26.25 L 17.5 18.75 C 17.5 18.058594 16.941406 17.5 16.25 17.5 L 13.75 17.5 C 13.058594 17.5 12.5 18.058594 12.5 18.75 L 12.5 26.25 Z M 17.5 26.25 "/>
</g>
</svg>
