<?xml version="1.0" encoding="UTF-8"?>
<svg xmlns="http://www.w3.org/2000/svg" xmlns:xlink="http://www.w3.org/1999/xlink" width="90px" height="103px" viewBox="0 0 90 102" version="1.1">
<g id="surface1">
<path style=" stroke:none;fill-rule:evenodd;fill:rgb(58.431373%,81.176471%,0%);fill-opacity:1;" d="M 57.273438 20.402344 C 55.574219 20.402344 54.203125 19.078125 54.203125 17.4375 C 54.203125 15.800781 55.574219 14.484375 57.273438 14.484375 C 58.96875 14.484375 60.339844 15.800781 60.339844 17.4375 C 60.339844 19.078125 58.96875 20.402344 57.273438 20.402344 Z M 32.726562 20.402344 C 31.03125 20.402344 29.660156 19.078125 29.660156 17.4375 C 29.660156 15.800781 31.03125 14.484375 32.726562 14.484375 C 34.425781 14.484375 35.796875 15.800781 35.796875 17.4375 C 35.796875 19.078125 34.425781 20.402344 32.726562 20.402344 Z M 59.085938 8.539062 C 67.761719 12.445312 73.632812 19.839844 73.632812 28.300781 L 16.367188 28.300781 C 16.367188 19.839844 22.238281 12.445312 30.917969 8.539062 L 29.769531 6.871094 L 28.625 5.230469 L 26.078125 1.535156 C 25.769531 1.078125 25.898438 0.46875 26.363281 0.167969 C 26.835938 -0.132812 27.472656 -0.0117188 27.789062 0.441406 L 30.523438 4.402344 L 31.671875 6.0625 L 32.832031 7.753906 C 36.53125 6.367188 40.65625 5.59375 45 5.59375 C 49.351562 5.59375 53.46875 6.367188 57.167969 7.753906 L 58.335938 6.0625 L 62.222656 0.441406 C 62.527344 -0.0117188 63.167969 -0.136719 63.636719 0.167969 C 64.105469 0.46875 64.238281 1.078125 63.921875 1.535156 L 61.375 5.230469 L 60.230469 6.871094 Z M 16.808594 32.246094 L 73.632812 32.246094 L 73.632812 75.679688 C 73.632812 79.125 70.738281 81.933594 67.160156 81.933594 L 62.480469 81.933594 C 62.640625 82.457031 62.734375 83 62.734375 83.578125 L 62.734375 96.082031 C 62.734375 99.347656 59.980469 102 56.589844 102 C 53.203125 102 50.457031 99.347656 50.457031 96.082031 L 50.457031 83.578125 C 50.457031 83 50.542969 82.457031 50.699219 81.933594 L 39.300781 81.933594 C 39.457031 82.457031 39.550781 83 39.550781 83.578125 L 39.550781 96.082031 C 39.550781 99.347656 36.796875 102 33.410156 102 C 30.023438 102 27.273438 99.347656 27.273438 96.082031 L 27.273438 83.578125 C 27.273438 83 27.359375 82.457031 27.519531 81.933594 L 22.847656 81.933594 C 19.269531 81.933594 16.367188 79.125 16.367188 75.679688 L 16.367188 32.246094 Z M 6.140625 32.246094 C 9.527344 32.246094 12.273438 34.898438 12.273438 38.164062 L 12.273438 63.503906 C 12.273438 66.773438 9.527344 69.421875 6.140625 69.421875 C 2.746094 69.421875 0 66.773438 0 63.503906 L 0 38.164062 C 0 34.898438 2.746094 32.246094 6.140625 32.246094 Z M 83.867188 32.246094 C 87.253906 32.246094 90 34.898438 90 38.164062 L 90 63.503906 C 90 66.773438 87.253906 69.421875 83.867188 69.421875 C 80.472656 69.421875 77.726562 66.773438 77.726562 63.503906 L 77.726562 38.164062 C 77.726562 34.898438 80.472656 32.246094 83.867188 32.246094 Z M 83.867188 32.246094 "/>
</g>
</svg>
