<?xml version="1.0" encoding="UTF-8"?>
<svg xmlns="http://www.w3.org/2000/svg" xmlns:xlink="http://www.w3.org/1999/xlink" width="100px" height="509px" viewBox="0 0 100 100" version="1.1">
<g id="surface1">
<path style=" stroke:none;fill-rule:evenodd;fill:rgb(13.72549%,22.352941%,32.156863%);fill-opacity:1;" d="M 62.109375 100 L 38.085938 100 C 37.304688 100 36.71875 99.414062 36.71875 98.828125 C 36.523438 98.242188 37.109375 97.460938 37.695312 97.265625 C 41.015625 96.484375 41.40625 88.671875 41.210938 85.9375 C 41.210938 85.351562 41.601562 84.570312 42.382812 84.570312 C 43.164062 84.570312 56.835938 84.570312 57.617188 84.570312 C 58.398438 84.570312 58.984375 85.351562 58.789062 85.9375 C 58.789062 88.671875 58.984375 96.484375 62.5 97.265625 C 63.085938 97.460938 63.476562 98.242188 63.476562 98.828125 C 63.28125 99.414062 62.695312 100 62.109375 100 Z M 62.109375 100 "/>
<path style=" stroke:none;fill-rule:evenodd;fill:rgb(11.372549%,18.039216%,26.27451%);fill-opacity:1;" d="M 41.210938 88.476562 C 41.210938 87.5 41.210938 86.71875 41.210938 85.9375 C 41.210938 85.351562 41.601562 84.570312 42.382812 84.570312 C 43.164062 84.570312 56.835938 84.570312 57.617188 84.570312 C 58.398438 84.570312 58.984375 85.351562 58.789062 85.9375 C 58.789062 86.71875 58.789062 87.5 58.789062 88.476562 Z M 41.210938 88.476562 "/>
<path style=" stroke:none;fill-rule:evenodd;fill:rgb(22.352941%,30.196078%,38.823529%);fill-opacity:1;" d="M 40.234375 94.335938 C 40.429688 93.554688 40.625 92.578125 40.820312 91.796875 L 59.179688 91.796875 C 59.375 92.578125 59.570312 93.554688 59.960938 94.335938 Z M 40.234375 94.335938 "/>
<path style=" stroke:none;fill-rule:evenodd;fill:rgb(15.294118%,24.705882%,35.686275%);fill-opacity:1;" d="M 77.539062 18.164062 L 93.164062 18.164062 C 96.09375 18.164062 98.4375 20.507812 98.4375 23.4375 L 98.4375 82.03125 C 98.242188 84.960938 95.898438 87.304688 93.164062 87.304688 L 6.835938 87.304688 C 3.90625 87.304688 1.5625 84.960938 1.5625 82.03125 L 1.5625 23.4375 C 1.5625 20.507812 3.90625 18.164062 6.835938 18.164062 Z M 77.539062 18.164062 "/>
<path style=" stroke:none;fill-rule:evenodd;fill:rgb(76.078431%,78.823529%,81.960784%);fill-opacity:1;" d="M 75.390625 23.4375 L 10.351562 23.4375 C 8.984375 23.4375 8.007812 24.414062 8.007812 25.78125 L 8.007812 75 L 91.992188 75 L 91.992188 25.78125 C 91.992188 24.414062 91.015625 23.4375 89.648438 23.4375 Z M 75.390625 23.4375 "/>
<path style=" stroke:none;fill-rule:evenodd;fill:rgb(31.372549%,38.823529%,47.843137%);fill-opacity:1;" d="M 53.125 82.421875 L 46.875 82.421875 C 46.09375 82.421875 45.507812 81.835938 45.507812 81.054688 C 45.507812 80.273438 46.09375 79.6875 46.875 79.6875 L 53.125 79.6875 C 53.710938 79.6875 54.296875 80.273438 54.296875 81.054688 C 54.296875 81.835938 53.710938 82.421875 53.125 82.421875 Z M 53.125 82.421875 "/>
<path style=" stroke:none;fill-rule:evenodd;fill:rgb(89.411765%,89.803922%,84.705882%);fill-opacity:1;" d="M 84.765625 67.578125 L 15.234375 67.578125 C 13.085938 67.578125 11.132812 65.625 11.132812 63.476562 L 11.132812 14.648438 L 48.828125 10.9375 L 88.867188 14.648438 L 88.867188 63.476562 C 88.867188 65.625 86.914062 67.578125 84.765625 67.578125 Z M 84.765625 67.578125 "/>
<path style=" stroke:none;fill-rule:evenodd;fill:rgb(37.254902%,82.745098%,68.235294%);fill-opacity:1;" d="M 11.132812 8.203125 L 11.132812 14.648438 L 88.867188 14.648438 L 88.867188 8.203125 C 88.867188 3.710938 85.15625 0 80.664062 0 L 19.335938 0 C 14.84375 0 11.132812 3.710938 11.132812 8.203125 Z M 11.132812 8.203125 "/>
<path style=" stroke:none;fill-rule:evenodd;fill:rgb(100%,25.490196%,25.490196%);fill-opacity:1;" d="M 20.507812 10.9375 C 18.554688 10.9375 16.992188 9.375 16.992188 7.421875 C 16.992188 5.46875 18.554688 3.90625 20.507812 3.90625 C 22.460938 3.90625 24.023438 5.46875 24.023438 7.421875 C 24.023438 9.375 22.460938 10.9375 20.507812 10.9375 Z M 20.507812 10.9375 "/>
<path style=" stroke:none;fill-rule:evenodd;fill:rgb(100%,74.509804%,0%);fill-opacity:1;" d="M 29.882812 10.9375 C 27.929688 10.9375 26.367188 9.375 26.367188 7.421875 C 26.367188 5.46875 27.929688 3.90625 29.882812 3.90625 C 31.835938 3.90625 33.59375 5.46875 33.59375 7.421875 C 33.59375 9.375 31.835938 10.9375 29.882812 10.9375 Z M 29.882812 10.9375 "/>
<path style=" stroke:none;fill-rule:evenodd;fill:rgb(0%,67.058824%,58.039216%);fill-opacity:1;" d="M 39.453125 10.9375 C 37.5 10.9375 35.9375 9.375 35.9375 7.421875 C 35.9375 5.46875 37.5 3.90625 39.453125 3.90625 C 41.40625 3.90625 42.96875 5.46875 42.96875 7.421875 C 42.96875 9.375 41.40625 10.9375 39.453125 10.9375 Z M 39.453125 10.9375 "/>
<path style=" stroke:none;fill-rule:evenodd;fill:rgb(100%,25.490196%,25.490196%);fill-opacity:1;" d="M 29.101562 38.085938 C 28.90625 38.085938 28.90625 38.085938 28.710938 38.085938 C 27.929688 37.890625 27.539062 37.304688 27.734375 36.523438 L 30.46875 22.265625 C 30.664062 21.484375 31.25 20.898438 32.03125 21.09375 C 32.8125 21.289062 33.203125 22.070312 33.203125 22.65625 L 30.273438 36.914062 C 30.273438 37.695312 29.6875 38.085938 29.101562 38.085938 Z M 29.101562 38.085938 "/>
<path style=" stroke:none;fill-rule:evenodd;fill:rgb(100%,25.490196%,25.490196%);fill-opacity:1;" d="M 25.195312 36.71875 C 24.804688 36.71875 24.414062 36.523438 24.21875 36.328125 L 18.359375 30.46875 C 17.96875 30.078125 17.96875 29.101562 18.359375 28.515625 L 24.21875 22.851562 C 24.609375 22.265625 25.585938 22.265625 26.171875 22.851562 C 26.5625 23.4375 26.5625 24.21875 26.171875 24.804688 L 21.289062 29.492188 L 26.171875 34.375 C 26.5625 34.960938 26.5625 35.742188 26.171875 36.328125 C 25.78125 36.523438 25.390625 36.71875 25.195312 36.71875 Z M 25.195312 36.71875 "/>
<path style=" stroke:none;fill-rule:evenodd;fill:rgb(100%,25.490196%,25.490196%);fill-opacity:1;" d="M 35.546875 36.71875 C 35.351562 36.71875 34.960938 36.523438 34.765625 36.328125 C 34.179688 35.742188 34.179688 34.960938 34.765625 34.375 L 39.453125 29.492188 L 34.765625 24.804688 C 34.179688 24.21875 34.179688 23.4375 34.765625 22.851562 C 35.15625 22.265625 36.132812 22.265625 36.523438 22.851562 L 42.382812 28.515625 C 42.96875 29.101562 42.96875 30.078125 42.382812 30.46875 L 36.523438 36.328125 C 36.328125 36.523438 35.9375 36.71875 35.546875 36.71875 Z M 35.546875 36.71875 "/>
<path style=" stroke:none;fill-rule:evenodd;fill:rgb(72.54902%,72.54902%,68.627451%);fill-opacity:1;" d="M 59.570312 31.25 L 46.484375 31.25 C 45.703125 31.25 45.117188 30.664062 45.117188 29.882812 C 45.117188 29.101562 45.703125 28.515625 46.484375 28.515625 L 59.570312 28.515625 C 60.351562 28.515625 60.9375 29.101562 60.9375 29.882812 C 60.9375 30.664062 60.351562 31.25 59.570312 31.25 Z M 59.570312 31.25 "/>
<path style=" stroke:none;fill-rule:evenodd;fill:rgb(72.54902%,72.54902%,68.627451%);fill-opacity:1;" d="M 63.867188 38.085938 L 46.484375 38.085938 C 45.898438 38.085938 45.117188 37.5 45.117188 36.71875 C 45.117188 35.9375 45.898438 35.351562 46.484375 35.351562 L 63.867188 35.351562 C 64.648438 35.351562 65.234375 35.9375 65.234375 36.71875 C 65.234375 37.5 64.648438 38.085938 63.867188 38.085938 Z M 63.867188 38.085938 "/>
<path style=" stroke:none;fill-rule:evenodd;fill:rgb(100%,60.392157%,60.392157%);fill-opacity:1;" d="M 80.664062 38.085938 L 68.75 38.085938 C 67.96875 38.085938 67.382812 37.5 67.382812 36.71875 L 67.382812 22.460938 C 67.382812 21.679688 67.96875 21.09375 68.75 21.09375 L 80.664062 21.09375 C 81.445312 21.09375 82.03125 21.679688 82.03125 22.460938 L 82.03125 36.71875 C 82.03125 37.5 81.445312 38.085938 80.664062 38.085938 Z M 80.664062 38.085938 "/>
<path style=" stroke:none;fill-rule:evenodd;fill:rgb(58.823529%,78.823529%,43.921569%);fill-opacity:1;" d="M 49.804688 59.960938 L 20.898438 59.960938 C 20.117188 59.960938 19.53125 59.375 19.53125 58.59375 L 19.53125 44.335938 C 19.53125 43.554688 20.117188 42.96875 20.898438 42.96875 L 49.804688 42.96875 C 50.585938 42.96875 51.171875 43.554688 51.171875 44.335938 L 51.171875 58.59375 C 51.171875 59.375 50.585938 59.960938 49.804688 59.960938 Z M 49.804688 59.960938 "/>
<path style=" stroke:none;fill-rule:evenodd;fill:rgb(72.54902%,72.54902%,68.627451%);fill-opacity:1;" d="M 80.664062 45.703125 L 58.59375 45.703125 C 57.8125 45.703125 57.226562 45.117188 57.226562 44.335938 C 57.226562 43.554688 57.8125 42.96875 58.59375 42.96875 L 80.664062 42.96875 C 81.445312 42.96875 82.03125 43.554688 82.03125 44.335938 C 82.03125 45.117188 81.445312 45.703125 80.664062 45.703125 Z M 80.664062 45.703125 "/>
<path style=" stroke:none;fill-rule:evenodd;fill:rgb(72.54902%,72.54902%,68.627451%);fill-opacity:1;" d="M 80.664062 52.734375 L 58.59375 52.734375 C 57.8125 52.734375 57.226562 52.148438 57.226562 51.367188 C 57.226562 50.585938 57.8125 50 58.59375 50 L 80.664062 50 C 81.445312 50 82.03125 50.585938 82.03125 51.367188 C 82.03125 52.148438 81.445312 52.734375 80.664062 52.734375 Z M 80.664062 52.734375 "/>
<path style=" stroke:none;fill-rule:evenodd;fill:rgb(72.54902%,72.54902%,68.627451%);fill-opacity:1;" d="M 80.664062 59.960938 L 58.59375 59.960938 C 57.8125 59.960938 57.226562 59.375 57.226562 58.59375 C 57.226562 57.8125 57.8125 57.226562 58.59375 57.226562 L 80.664062 57.226562 C 81.445312 57.226562 82.03125 57.8125 82.03125 58.59375 C 82.03125 59.375 81.445312 59.960938 80.664062 59.960938 Z M 80.664062 59.960938 "/>
</g>
</svg>
