<?xml version="1.0" encoding="UTF-8"?>
<svg xmlns="http://www.w3.org/2000/svg" xmlns:xlink="http://www.w3.org/1999/xlink" width="30px" height="32px" viewBox="0 0 30 30" version="1.1">
<g id="surface1">
<path style=" stroke:none;fill-rule:evenodd;fill:rgb(0%,0%,0%);fill-opacity:1;" d="M 14.53125 29.921875 C 14.480469 29.921875 14.425781 29.90625 14.375 29.886719 C 5.523438 25.820312 2.648438 19.035156 1.789062 14.058594 C 0.839844 8.675781 1.980469 4.3125 2.035156 4.136719 C 2.085938 3.945312 2.261719 3.839844 2.4375 3.875 C 7.957031 4.875 14.25 0.121094 14.320312 0.0703125 C 14.445312 -0.015625 14.621094 -0.015625 14.742188 0.0703125 C 14.792969 0.121094 21.085938 4.875 26.609375 3.875 C 26.800781 3.839844 26.976562 3.945312 27.011719 4.136719 C 27.03125 4.207031 28.957031 11.640625 25.835938 18.914062 C 25.769531 19.105469 25.558594 19.175781 25.382812 19.105469 C 25.207031 19.035156 25.117188 18.824219 25.207031 18.652344 C 27.871094 12.410156 26.730469 6.066406 26.417969 4.609375 C 21.191406 5.363281 15.6875 1.628906 14.53125 0.789062 C 13.460938 1.558594 8.800781 4.714844 4.050781 4.714844 C 3.574219 4.714844 3.101562 4.679688 2.648438 4.609375 C 2.402344 5.695312 1.699219 9.519531 2.472656 13.953125 C 3.679688 20.910156 7.746094 26.03125 14.53125 29.1875 C 15.96875 28.503906 17.300781 27.730469 18.511719 26.871094 C 18.667969 26.765625 18.878906 26.800781 18.984375 26.960938 C 19.105469 27.117188 19.070312 27.328125 18.914062 27.449219 C 17.632812 28.363281 16.214844 29.167969 14.671875 29.886719 C 14.621094 29.90625 14.585938 29.921875 14.53125 29.921875 Z M 14.53125 29.921875 "/>
<path style=" stroke:none;fill-rule:evenodd;fill:rgb(0%,0%,0%);fill-opacity:1;" d="M 14.53125 26.75 C 14.480469 26.75 14.410156 26.75 14.355469 26.714844 C 8.941406 23.875 5.660156 19.507812 4.609375 13.761719 C 4.242188 11.746094 4.15625 9.253906 4.382812 7.132812 C 4.398438 6.960938 4.539062 6.820312 4.699219 6.820312 C 7.730469 6.644531 11.253906 5.433594 14.355469 3.488281 C 14.460938 3.417969 14.601562 3.417969 14.722656 3.488281 C 17.898438 5.46875 21.316406 6.644531 24.347656 6.820312 C 24.523438 6.835938 24.664062 6.960938 24.679688 7.132812 C 24.910156 9.273438 24.820312 11.746094 24.453125 13.761719 C 24.15625 15.320312 23.699219 16.792969 23.085938 18.140625 C 23.015625 18.316406 22.804688 18.40625 22.628906 18.316406 C 22.453125 18.230469 22.367188 18.019531 22.453125 17.84375 C 23.050781 16.546875 23.488281 15.128906 23.75 13.636719 C 24.101562 11.78125 24.191406 9.5 24.015625 7.503906 C 21 7.273438 17.652344 6.101562 14.53125 4.207031 C 11.480469 6.066406 8.0625 7.257812 5.046875 7.503906 C 4.855469 9.5 4.960938 11.761719 5.292969 13.636719 C 6.292969 19.105469 9.394531 23.277344 14.53125 26.011719 C 15.476562 25.503906 16.355469 24.945312 17.160156 24.347656 C 17.320312 24.226562 17.546875 24.261719 17.652344 24.417969 C 17.773438 24.574219 17.738281 24.785156 17.582031 24.910156 C 16.707031 25.558594 15.722656 26.171875 14.6875 26.714844 C 14.636719 26.75 14.585938 26.75 14.53125 26.75 Z M 14.53125 26.75 "/>
<path style=" stroke:none;fill-rule:evenodd;fill:rgb(0%,0%,0%);fill-opacity:1;" d="M 12.585938 20.175781 C 12.5 20.175781 12.410156 20.160156 12.359375 20.089844 C 11.324219 19.160156 10.5 18.089844 9.886719 16.878906 C 9.816406 16.707031 9.886719 16.496094 10.042969 16.40625 C 10.21875 16.335938 10.429688 16.40625 10.515625 16.566406 C 11.078125 17.703125 11.847656 18.703125 12.8125 19.5625 C 12.953125 19.703125 12.972656 19.914062 12.847656 20.070312 C 12.777344 20.140625 12.671875 20.175781 12.585938 20.175781 Z M 12.585938 20.175781 "/>
<path style=" stroke:none;fill-rule:evenodd;fill:rgb(0%,0%,0%);fill-opacity:1;" d="M 12.128906 22.488281 C 12.058594 22.488281 11.972656 22.453125 11.902344 22.402344 C 10.394531 21.070312 9.21875 19.492188 8.394531 17.722656 C 8.308594 17.546875 8.394531 17.335938 8.570312 17.25 C 8.746094 17.179688 8.957031 17.25 9.027344 17.421875 C 9.816406 19.105469 10.9375 20.613281 12.375 21.875 C 12.515625 22 12.535156 22.226562 12.394531 22.367188 C 12.339844 22.4375 12.234375 22.488281 12.128906 22.488281 Z M 12.128906 22.488281 "/>
<path style=" stroke:none;fill-rule:evenodd;fill:rgb(0%,0%,0%);fill-opacity:1;" d="M 14.53125 26.75 C 14.339844 26.75 14.179688 26.589844 14.179688 26.398438 L 14.179688 3.785156 C 14.179688 3.59375 14.339844 3.4375 14.53125 3.4375 C 14.722656 3.4375 14.882812 3.59375 14.882812 3.785156 L 14.882812 26.398438 C 14.882812 26.589844 14.722656 26.75 14.53125 26.75 Z M 14.53125 26.75 "/>
<path style=" stroke:none;fill-rule:evenodd;fill:rgb(0%,0%,0%);fill-opacity:1;" d="M 23.785156 15.441406 L 5.277344 15.441406 C 5.082031 15.441406 4.925781 15.285156 4.925781 15.09375 C 4.925781 14.898438 5.082031 14.742188 5.277344 14.742188 L 23.785156 14.742188 C 23.980469 14.742188 24.136719 14.898438 24.136719 15.09375 C 24.136719 15.285156 23.980469 15.441406 23.785156 15.441406 Z M 23.785156 15.441406 "/>
<path style=" stroke:none;fill-rule:evenodd;fill:rgb(0%,0%,0%);fill-opacity:1;" d="M 22.699219 29.257812 C 19.492188 29.257812 16.898438 26.644531 16.898438 23.453125 C 16.898438 20.246094 19.492188 17.652344 22.699219 17.652344 C 25.90625 17.652344 28.503906 20.246094 28.503906 23.453125 C 28.503906 26.644531 25.90625 29.257812 22.699219 29.257812 Z M 22.699219 18.351562 C 19.878906 18.351562 17.597656 20.632812 17.597656 23.453125 C 17.597656 26.257812 19.878906 28.554688 22.699219 28.554688 C 25.503906 28.554688 27.800781 26.257812 27.800781 23.453125 C 27.800781 20.632812 25.503906 18.351562 22.699219 18.351562 Z M 22.699219 18.351562 "/>
<path style=" stroke:none;fill-rule:evenodd;fill:rgb(0%,0%,0%);fill-opacity:1;" d="M 22.699219 27.503906 C 21.910156 27.503906 21.140625 27.273438 20.492188 26.835938 C 20.386719 26.785156 20.332031 26.679688 20.332031 26.574219 C 20.316406 26.46875 20.351562 26.382812 20.421875 26.292969 L 25.558594 21.175781 C 25.628906 21.105469 25.734375 21.070312 25.835938 21.070312 C 25.941406 21.085938 26.03125 21.140625 26.082031 21.226562 C 26.519531 21.894531 26.75 22.664062 26.75 23.453125 C 26.75 25.679688 24.925781 27.503906 22.699219 27.503906 Z M 21.246094 26.46875 C 21.699219 26.679688 22.191406 26.800781 22.699219 26.800781 C 24.539062 26.800781 26.046875 25.292969 26.046875 23.453125 C 26.046875 22.945312 25.941406 22.453125 25.714844 22 Z M 19.597656 25.820312 C 19.597656 25.820312 19.578125 25.820312 19.5625 25.820312 C 19.457031 25.820312 19.371094 25.75 19.316406 25.664062 C 18.878906 25.015625 18.652344 24.242188 18.652344 23.453125 C 18.652344 21.210938 20.472656 19.40625 22.699219 19.40625 C 23.488281 19.40625 24.261719 19.632812 24.910156 20.054688 C 24.996094 20.125 25.066406 20.210938 25.066406 20.316406 C 25.082031 20.421875 25.050781 20.527344 24.980469 20.597656 L 19.84375 25.714844 C 19.789062 25.785156 19.703125 25.820312 19.597656 25.820312 Z M 22.699219 20.105469 C 20.859375 20.105469 19.351562 21.59375 19.351562 23.453125 C 19.351562 23.960938 19.457031 24.453125 19.683594 24.910156 L 24.15625 20.421875 C 23.699219 20.210938 23.207031 20.105469 22.699219 20.105469 Z M 22.699219 20.105469 "/>
</g>
</svg>
