<svg xmlns="http://www.w3.org/2000/svg"  viewBox="0 0 48 48" width="30px" height="30px"><path fill="#35c1f1" d="M42,10c-11.122,0-11.278-6-18-6s-6.878,6-18,6c-0.552,0-1,0.448-1,1c0,0,0,5.856,0,9	c0,1.378,0.178,2.712,0.493,4c2.935,12.007,18.08,19.907,18.08,19.907l0.004-0.008C23.706,43.96,23.847,44,24,44	s0.294-0.04,0.423-0.102l0.004,0.008c0,0,15.144-7.9,18.08-19.907C42.822,22.712,43,21.378,43,20c0-3.144,0-9,0-9	C43,10.448,42.552,10,42,10z"/><linearGradient id="KJhu1owPTD~d3fPObBtsva" x1="19.141" x2="32.298" y1="1867.457" y2="1892.202" gradientTransform="translate(0 -1858)" gradientUnits="userSpaceOnUse"><stop offset="0" stop-color="#0077d2"/><stop offset="1" stop-color="#0b59a2"/></linearGradient><path fill="url(#KJhu1owPTD~d3fPObBtsva)" d="M24,8c1.641,0,2.445,0.504,4.266,1.745c2.256,1.537,5.226,3.561,10.734,4.112V20	c0,0.996-0.127,2.022-0.379,3.05c-1.981,8.103-11.075,14.328-14.622,16.487c-1.383-0.842-3.606-2.3-5.922-4.253	c-3.28-2.766-7.451-7.133-8.698-12.234C9.127,22.022,9,20.996,9,20v-6.143c5.508-0.55,8.478-2.574,10.734-4.112	C21.555,8.504,22.359,8,24,8"/><path d="M41.27,27.49c-0.06,0.15-0.13,0.31-0.22,0.46	c-3.03,6.26-9.01,11.05-12.9,13.68c-0.15,0.1-0.29,0.2-0.43,0.29C27.25,40.7,27,39.38,27,38c0-6.07,4.93-11,11-11	C39.14,27,40.24,27.17,41.27,27.49z" opacity=".05"/><path d="M41.05,27.95c-3.03,6.26-9.01,11.05-12.9,13.68	C27.73,40.5,27.5,39.28,27.5,38c0-5.79,4.71-10.5,10.5-10.5C39.06,27.5,40.09,27.66,41.05,27.95z" opacity=".07"/><linearGradient id="KJhu1owPTD~d3fPObBtsvb" x1="34.243" x2="41.757" y1="19.065" y2="4.935" gradientTransform="matrix(1 0 0 -1 0 50)" gradientUnits="userSpaceOnUse"><stop offset="0" stop-color="#fcfcfc"/><stop offset=".495" stop-color="#f4f4f4"/><stop offset=".869" stop-color="#e8e8e8"/><stop offset="1" stop-color="#e8e8e8"/></linearGradient><circle cx="38" cy="38" r="8" fill="url(#KJhu1owPTD~d3fPObBtsvb)"/><linearGradient id="KJhu1owPTD~d3fPObBtsvc" x1="28" x2="48" y1="12" y2="12" gradientTransform="matrix(1 0 0 -1 0 50)" gradientUnits="userSpaceOnUse"><stop offset="0" stop-color="#f44f5a"/><stop offset=".443" stop-color="#ee3d4a"/><stop offset="1" stop-color="#e52030"/></linearGradient><path fill="url(#KJhu1owPTD~d3fPObBtsvc)" d="M38,28c-5.514,0-10,4.486-10,10s4.486,10,10,10s10-4.486,10-10S43.514,28,38,28z M38,31	c1.388,0,2.679,0.411,3.768,1.11l-9.658,9.658C31.411,40.679,31,39.388,31,38C31,34.141,34.14,31,38,31z M38,45	c-1.388,0-2.679-0.411-3.768-1.11l9.658-9.658C44.589,35.321,45,36.612,45,38C45,41.859,41.86,45,38,45z"/></svg>