<?xml version="1.0" encoding="UTF-8"?>
<svg xmlns="http://www.w3.org/2000/svg" xmlns:xlink="http://www.w3.org/1999/xlink" width="50px" height="50px" viewBox="0 0 50 50" version="1.1">
<g id="surface1">
<path style=" stroke:none;fill-rule:nonzero;fill:rgb(18.039216%,47.45098%,74.117647%);fill-opacity:1;" d="M 30.285156 15.375 L 33.539062 15.375 L 33.539062 30.257812 L 30.285156 30.257812 Z M 30.285156 15.375 "/>
<path style=" stroke:none;fill-rule:nonzero;fill:rgb(18.039216%,47.45098%,74.117647%);fill-opacity:1;" d="M 24.355469 15.375 L 27.898438 15.375 L 27.898438 30.257812 L 24.355469 30.257812 Z M 24.355469 15.375 "/>
<path style=" stroke:none;fill-rule:nonzero;fill:rgb(18.039216%,47.45098%,74.117647%);fill-opacity:1;" d="M 20.84375 15.375 L 22.804688 15.375 L 22.804688 30.257812 L 20.84375 30.257812 Z M 20.84375 15.375 "/>
<path style=" stroke:none;fill-rule:nonzero;fill:rgb(18.039216%,47.45098%,74.117647%);fill-opacity:1;" d="M 16.460938 15.375 L 19.484375 15.375 L 19.484375 30.257812 L 16.460938 30.257812 Z M 16.460938 15.375 "/>
<path style=" stroke:none;fill-rule:nonzero;fill:rgb(17.647059%,24.313725%,31.372549%);fill-opacity:1;" d="M 39.472656 2.566406 C 38.464844 1.523438 37.066406 0.941406 35.617188 0.964844 L 14.382812 0.964844 C 12.933594 0.941406 11.535156 1.523438 10.527344 2.566406 C 9.480469 3.578125 8.898438 4.972656 8.921875 6.425781 L 8.921875 43.574219 C 8.929688 46.585938 11.371094 49.027344 14.382812 49.035156 L 35.617188 49.035156 C 38.628906 49.027344 41.070312 46.585938 41.078125 43.574219 L 41.078125 6.425781 C 41.097656 4.972656 40.519531 3.578125 39.472656 2.566406 Z M 26.539062 46.875 C 25.804688 47.585938 24.671875 47.6875 23.828125 47.109375 C 22.984375 46.535156 22.664062 45.445312 23.0625 44.503906 C 23.460938 43.5625 24.464844 43.03125 25.464844 43.234375 C 26.46875 43.4375 27.1875 44.316406 27.1875 45.339844 C 27.191406 45.917969 26.953125 46.472656 26.539062 46.875 Z M 37.78125 39.203125 C 37.773438 40.398438 36.808594 41.363281 35.617188 41.367188 L 14.382812 41.367188 C 13.191406 41.359375 12.226562 40.394531 12.21875 39.203125 L 12.21875 6.425781 C 12.226562 5.234375 13.191406 4.269531 14.382812 4.261719 L 35.617188 4.261719 C 36.808594 4.269531 37.773438 5.234375 37.78125 6.425781 Z M 37.78125 39.203125 "/>
</g>
</svg>
