<?xml version="1.0" encoding="UTF-8"?>
<svg xmlns="http://www.w3.org/2000/svg" xmlns:xlink="http://www.w3.org/1999/xlink" width="30px" height="30px" viewBox="0 0 30 30" version="1.1">
<g id="surface1">
<path style="fill:none;stroke-width:2;stroke-linecap:butt;stroke-linejoin:round;stroke:rgb(0%,0%,0%);stroke-opacity:1;stroke-miterlimit:10;" d="M 21 29 L 11 29 C 9.9 29 9 28.1 9 27 L 9 5 C 9 3.9 9.9 3 11 3 L 21 3 C 22.1 3 23 3.9 23 5 L 23 27 C 23 28.1 22.1 29 21 29 Z M 21 29 " transform="matrix(0.9375,0,0,0.9375,0,0)"/>
<path style="fill:none;stroke-width:2;stroke-linecap:round;stroke-linejoin:round;stroke:rgb(0%,0%,0%);stroke-opacity:1;stroke-miterlimit:10;" d="M 9 7 L 23 7 " transform="matrix(0.9375,0,0,0.9375,0,0)"/>
<path style="fill:none;stroke-width:2;stroke-linecap:round;stroke-linejoin:round;stroke:rgb(0%,0%,0%);stroke-opacity:1;stroke-miterlimit:10;" d="M 9 23 L 23 23 " transform="matrix(0.9375,0,0,0.9375,0,0)"/>
<path style="fill:none;stroke-width:2;stroke-linecap:butt;stroke-linejoin:round;stroke:rgb(0%,0%,0%);stroke-opacity:1;stroke-miterlimit:10;" d="M 15 26 L 17 26 " transform="matrix(0.9375,0,0,0.9375,0,0)"/>
</g>
</svg>
