<?xml version="1.0" encoding="utf-8"?>
<!-- Generator: Adobe Illustrator 18.0.0, SVG Export Plug-In . SVG Version: 6.00 Build 0)  -->
<!DOCTYPE svg PUBLIC "-//W3C//DTD SVG 1.1//EN" "http://www.w3.org/Graphics/SVG/1.1/DTD/svg11.dtd">
<svg version="1.1" id="Layer_1" xmlns="http://www.w3.org/2000/svg" xmlns:xlink="http://www.w3.org/1999/xlink" x="0px" y="0px"
	 viewBox="0 0 64 64" enable-background="new 0 0 64 64" xml:space="preserve">
<g>
	<g>
		<g>
			<g>
				<path fill="#5DE2AF" d="M32,0c17.7,0,32,14.3,32,32S49.7,64,32,64S0,49.7,0,32S14.3,0,32,0z"/>
			</g>
		</g>
	</g>
	<g>
		<g>
			<g>
				<path fill="#FFFFFF" d="M42,53H22c-1.1,0-2-0.9-2-2V12c0-1.1,0.9-2,2-2h20c1.1,0,2,0.9,2,2v39C44,52.1,43.1,53,42,53z"/>
			</g>
		</g>
	</g>
	<g>
		<g>
			<g>
				<rect x="22.1" y="15" fill="#4F617F" width="20" height="31"/>
			</g>
		</g>
	</g>
	<g>
		<g>
			<g>
				<path fill="#B2C5CE" d="M35.5,13h-5c-0.3,0-0.5-0.2-0.5-0.5l0,0c0-0.3,0.2-0.5,0.5-0.5h5c0.3,0,0.5,0.2,0.5,0.5l0,0
					C36,12.8,35.8,13,35.5,13z"/>
			</g>
		</g>
	</g>
	<g>
		<g>
			<g>
				<circle fill="#B2C5CE" cx="28.5" cy="12.5" r="0.5"/>
			</g>
		</g>
	</g>
	<g>
		<g>
			<g>
				<path fill="#B2C5CE" d="M32,51.8c-1.2,0-2.2-1-2.2-2.2s1-2.2,2.2-2.2s2.2,1,2.2,2.2S33.2,51.8,32,51.8z M32,47.8
					c-1,0-1.8,0.8-1.8,1.8s0.8,1.8,1.8,1.8s1.8-0.8,1.8-1.8S33,47.8,32,47.8z"/>
			</g>
		</g>
	</g>
	<g>
		<g>
			<g>
				<g>
					<g>
						<path fill="#6A80A0" d="M34.7,30.3c0-1.3,1-1.9,1.1-1.9c-0.6-0.9-1.5-1-1.8-1c-0.8-0.1-1.5,0.5-1.9,0.5c-0.4,0-1-0.5-1.6-0.4
							c-0.8,0-1.6,0.5-2,1.3c-0.9,1.5-0.2,3.8,0.6,5c0.4,0.6,0.9,1.3,1.5,1.3c0.6,0,0.9-0.4,1.6-0.4c0.7,0,1,0.4,1.6,0.4
							c0.7,0,1.1-0.6,1.5-1.2c0.5-0.7,0.7-1.4,0.7-1.4C36,32.3,34.7,31.8,34.7,30.3z"/>
					</g>
				</g>
			</g>
			<g>
				<g>
					<g>
						<path fill="#6A80A0" d="M33.4,26.6c0.3-0.4,0.6-1,0.5-1.6c-0.5,0-1.1,0.3-1.4,0.8c-0.3,0.4-0.6,1-0.5,1.5
							C32.5,27.3,33.1,27,33.4,26.6z"/>
					</g>
				</g>
			</g>
		</g>
	</g>
</g>
</svg>
