<?xml version="1.0" encoding="UTF-8"?>
<svg xmlns="http://www.w3.org/2000/svg" xmlns:xlink="http://www.w3.org/1999/xlink" width="100px" height="100px" viewBox="0 0 100 100" version="1.1">
<g id="surface1">
<path style=" stroke:none;fill-rule:evenodd;fill:rgb(16.862745%,18.039216%,30.196078%);fill-opacity:1;" d="M 28.515625 18.945312 C 27.734375 18.945312 27.148438 18.359375 27.148438 17.578125 L 27.148438 1.367188 C 27.148438 0.585938 27.734375 0 28.515625 0 C 29.101562 0 29.882812 0.585938 29.882812 1.367188 L 29.882812 17.578125 C 29.882812 18.359375 29.101562 18.945312 28.515625 18.945312 Z M 28.515625 18.945312 "/>
<path style=" stroke:none;fill-rule:evenodd;fill:rgb(16.862745%,18.039216%,30.196078%);fill-opacity:1;" d="M 50 18.945312 C 49.21875 18.945312 48.632812 18.359375 48.632812 17.578125 L 48.632812 1.367188 C 48.632812 0.585938 49.21875 0 50 0 C 50.78125 0 51.367188 0.585938 51.367188 1.367188 L 51.367188 17.578125 C 51.367188 18.359375 50.78125 18.945312 50 18.945312 Z M 50 18.945312 "/>
<path style=" stroke:none;fill-rule:evenodd;fill:rgb(16.862745%,18.039216%,30.196078%);fill-opacity:1;" d="M 71.484375 18.945312 C 70.898438 18.945312 70.117188 18.359375 70.117188 17.578125 L 70.117188 1.367188 C 70.117188 0.585938 70.898438 0 71.484375 0 C 72.265625 0 72.851562 0.585938 72.851562 1.367188 L 72.851562 17.578125 C 72.851562 18.359375 72.265625 18.945312 71.484375 18.945312 Z M 71.484375 18.945312 "/>
<path style=" stroke:none;fill-rule:evenodd;fill:rgb(13.72549%,14.509804%,24.313725%);fill-opacity:1;" d="M 98.632812 29.882812 L 82.421875 29.882812 C 81.640625 29.882812 81.054688 29.101562 81.054688 28.515625 C 81.054688 27.734375 81.640625 27.148438 82.421875 27.148438 L 98.632812 27.148438 C 99.414062 27.148438 100 27.734375 100 28.515625 C 100 29.101562 99.414062 29.882812 98.632812 29.882812 Z M 98.632812 29.882812 "/>
<path style=" stroke:none;fill-rule:evenodd;fill:rgb(13.72549%,14.509804%,24.313725%);fill-opacity:1;" d="M 98.632812 51.367188 L 82.421875 51.367188 C 81.640625 51.367188 81.054688 50.78125 81.054688 50 C 81.054688 49.21875 81.640625 48.632812 82.421875 48.632812 L 98.632812 48.632812 C 99.414062 48.632812 100 49.21875 100 50 C 100 50.78125 99.414062 51.367188 98.632812 51.367188 Z M 98.632812 51.367188 "/>
<path style=" stroke:none;fill-rule:evenodd;fill:rgb(13.72549%,14.509804%,24.313725%);fill-opacity:1;" d="M 98.632812 72.851562 L 82.421875 72.851562 C 81.640625 72.851562 81.054688 72.265625 81.054688 71.484375 C 81.054688 70.898438 81.640625 70.117188 82.421875 70.117188 L 98.632812 70.117188 C 99.414062 70.117188 100 70.898438 100 71.484375 C 100 72.265625 99.414062 72.851562 98.632812 72.851562 Z M 98.632812 72.851562 "/>
<path style=" stroke:none;fill-rule:evenodd;fill:rgb(16.862745%,18.039216%,30.196078%);fill-opacity:1;" d="M 71.484375 100 C 70.898438 100 70.117188 99.414062 70.117188 98.632812 L 70.117188 82.421875 C 70.117188 81.640625 70.898438 81.054688 71.484375 81.054688 C 72.265625 81.054688 72.851562 81.640625 72.851562 82.421875 L 72.851562 98.632812 C 72.851562 99.414062 72.265625 100 71.484375 100 Z M 71.484375 100 "/>
<path style=" stroke:none;fill-rule:evenodd;fill:rgb(16.862745%,18.039216%,30.196078%);fill-opacity:1;" d="M 50 100 C 49.21875 100 48.632812 99.414062 48.632812 98.632812 L 48.632812 82.421875 C 48.632812 81.640625 49.21875 81.054688 50 81.054688 C 50.78125 81.054688 51.367188 81.640625 51.367188 82.421875 L 51.367188 98.632812 C 51.367188 99.414062 50.78125 100 50 100 Z M 50 100 "/>
<path style=" stroke:none;fill-rule:evenodd;fill:rgb(16.862745%,18.039216%,30.196078%);fill-opacity:1;" d="M 28.515625 100 C 27.734375 100 27.148438 99.414062 27.148438 98.632812 L 27.148438 82.421875 C 27.148438 81.640625 27.734375 81.054688 28.515625 81.054688 C 29.101562 81.054688 29.882812 81.640625 29.882812 82.421875 L 29.882812 98.632812 C 29.882812 99.414062 29.101562 100 28.515625 100 Z M 28.515625 100 "/>
<path style=" stroke:none;fill-rule:evenodd;fill:rgb(16.862745%,18.039216%,30.196078%);fill-opacity:1;" d="M 17.578125 72.851562 L 1.367188 72.851562 C 0.585938 72.851562 0 72.265625 0 71.484375 C 0 70.898438 0.585938 70.117188 1.367188 70.117188 L 17.578125 70.117188 C 18.359375 70.117188 18.945312 70.898438 18.945312 71.484375 C 18.945312 72.265625 18.359375 72.851562 17.578125 72.851562 Z M 17.578125 72.851562 "/>
<path style=" stroke:none;fill-rule:evenodd;fill:rgb(16.862745%,18.039216%,30.196078%);fill-opacity:1;" d="M 17.578125 51.367188 L 1.367188 51.367188 C 0.585938 51.367188 0 50.78125 0 50 C 0 49.21875 0.585938 48.632812 1.367188 48.632812 L 17.578125 48.632812 C 18.359375 48.632812 18.945312 49.21875 18.945312 50 C 18.945312 50.78125 18.359375 51.367188 17.578125 51.367188 Z M 17.578125 51.367188 "/>
<path style=" stroke:none;fill-rule:evenodd;fill:rgb(16.862745%,18.039216%,30.196078%);fill-opacity:1;" d="M 17.578125 29.882812 L 1.367188 29.882812 C 0.585938 29.882812 0 29.101562 0 28.515625 C 0 27.734375 0.585938 27.148438 1.367188 27.148438 L 17.578125 27.148438 C 18.359375 27.148438 18.945312 27.734375 18.945312 28.515625 C 18.945312 29.101562 18.359375 29.882812 17.578125 29.882812 Z M 17.578125 29.882812 "/>
<path style=" stroke:none;fill-rule:evenodd;fill:rgb(34.901961%,38.431373%,55.294118%);fill-opacity:1;" d="M 72.265625 83.789062 L 27.734375 83.789062 C 21.289062 83.789062 16.210938 78.710938 16.210938 72.265625 L 16.210938 27.734375 C 16.210938 21.289062 21.289062 16.210938 27.734375 16.210938 L 72.265625 16.210938 C 78.710938 16.210938 83.789062 21.289062 83.789062 27.734375 L 83.789062 72.265625 C 83.789062 78.710938 78.710938 83.789062 72.265625 83.789062 Z M 72.265625 83.789062 "/>
<path style=" stroke:none;fill-rule:evenodd;fill:rgb(16.862745%,18.039216%,30.196078%);fill-opacity:1;" d="M 72.265625 77.148438 L 27.734375 77.148438 C 25.195312 77.148438 22.851562 74.804688 22.851562 72.265625 L 22.851562 27.734375 C 22.851562 25.195312 25.195312 22.851562 27.734375 22.851562 L 72.265625 22.851562 C 74.804688 22.851562 77.148438 25.195312 77.148438 27.734375 L 77.148438 72.265625 C 77.148438 74.804688 74.804688 77.148438 72.265625 77.148438 Z M 72.265625 77.148438 "/>
<path style=" stroke:none;fill-rule:evenodd;fill:rgb(32.54902%,33.72549%,43.529412%);fill-opacity:1;" d="M 41.015625 37.890625 C 40.234375 37.890625 39.648438 37.304688 39.648438 36.523438 L 39.648438 29.882812 C 39.648438 29.101562 40.234375 28.515625 41.015625 28.515625 C 41.796875 28.515625 42.382812 29.101562 42.382812 29.882812 L 42.382812 36.523438 C 42.382812 37.304688 41.796875 37.890625 41.015625 37.890625 Z M 41.015625 37.890625 "/>
<path style=" stroke:none;fill-rule:evenodd;fill:rgb(32.54902%,33.72549%,43.529412%);fill-opacity:1;" d="M 50 37.890625 C 49.21875 37.890625 48.632812 37.304688 48.632812 36.523438 L 48.632812 29.882812 C 48.632812 29.101562 49.21875 28.515625 50 28.515625 C 50.78125 28.515625 51.367188 29.101562 51.367188 29.882812 L 51.367188 36.523438 C 51.367188 37.304688 50.78125 37.890625 50 37.890625 Z M 50 37.890625 "/>
<path style=" stroke:none;fill-rule:evenodd;fill:rgb(32.54902%,33.72549%,43.529412%);fill-opacity:1;" d="M 58.984375 37.890625 C 58.203125 37.890625 57.617188 37.304688 57.617188 36.523438 L 57.617188 29.882812 C 57.617188 29.101562 58.203125 28.515625 58.984375 28.515625 C 59.765625 28.515625 60.351562 29.101562 60.351562 29.882812 L 60.351562 36.523438 C 60.351562 37.304688 59.765625 37.890625 58.984375 37.890625 Z M 58.984375 37.890625 "/>
<path style=" stroke:none;fill-rule:evenodd;fill:rgb(32.54902%,33.72549%,43.529412%);fill-opacity:1;" d="M 70.117188 42.382812 L 63.476562 42.382812 C 62.695312 42.382812 62.109375 41.796875 62.109375 41.015625 C 62.109375 40.234375 62.695312 39.648438 63.476562 39.648438 L 70.117188 39.648438 C 70.898438 39.648438 71.484375 40.234375 71.484375 41.015625 C 71.484375 41.796875 70.898438 42.382812 70.117188 42.382812 Z M 70.117188 42.382812 "/>
<path style=" stroke:none;fill-rule:evenodd;fill:rgb(32.54902%,33.72549%,43.529412%);fill-opacity:1;" d="M 70.117188 51.367188 L 63.476562 51.367188 C 62.695312 51.367188 62.109375 50.78125 62.109375 50 C 62.109375 49.21875 62.695312 48.632812 63.476562 48.632812 L 70.117188 48.632812 C 70.898438 48.632812 71.484375 49.21875 71.484375 50 C 71.484375 50.78125 70.898438 51.367188 70.117188 51.367188 Z M 70.117188 51.367188 "/>
<path style=" stroke:none;fill-rule:evenodd;fill:rgb(32.54902%,33.72549%,43.529412%);fill-opacity:1;" d="M 70.117188 60.351562 L 63.476562 60.351562 C 62.695312 60.351562 62.109375 59.765625 62.109375 58.984375 C 62.109375 58.203125 62.695312 57.617188 63.476562 57.617188 L 70.117188 57.617188 C 70.898438 57.617188 71.484375 58.203125 71.484375 58.984375 C 71.484375 59.765625 70.898438 60.351562 70.117188 60.351562 Z M 70.117188 60.351562 "/>
<path style=" stroke:none;fill-rule:evenodd;fill:rgb(32.54902%,33.72549%,43.529412%);fill-opacity:1;" d="M 58.984375 71.484375 C 58.203125 71.484375 57.617188 70.898438 57.617188 70.117188 L 57.617188 63.476562 C 57.617188 62.695312 58.203125 62.109375 58.984375 62.109375 C 59.765625 62.109375 60.351562 62.695312 60.351562 63.476562 L 60.351562 70.117188 C 60.351562 70.898438 59.765625 71.484375 58.984375 71.484375 Z M 58.984375 71.484375 "/>
<path style=" stroke:none;fill-rule:evenodd;fill:rgb(32.54902%,33.72549%,43.529412%);fill-opacity:1;" d="M 50 71.484375 C 49.21875 71.484375 48.632812 70.898438 48.632812 70.117188 L 48.632812 63.476562 C 48.632812 62.695312 49.21875 62.109375 50 62.109375 C 50.78125 62.109375 51.367188 62.695312 51.367188 63.476562 L 51.367188 70.117188 C 51.367188 70.898438 50.78125 71.484375 50 71.484375 Z M 50 71.484375 "/>
<path style=" stroke:none;fill-rule:evenodd;fill:rgb(32.54902%,33.72549%,43.529412%);fill-opacity:1;" d="M 41.015625 71.484375 C 40.234375 71.484375 39.648438 70.898438 39.648438 70.117188 L 39.648438 63.476562 C 39.648438 62.695312 40.234375 62.109375 41.015625 62.109375 C 41.796875 62.109375 42.382812 62.695312 42.382812 63.476562 L 42.382812 70.117188 C 42.382812 70.898438 41.796875 71.484375 41.015625 71.484375 Z M 41.015625 71.484375 "/>
<path style=" stroke:none;fill-rule:evenodd;fill:rgb(32.54902%,33.72549%,43.529412%);fill-opacity:1;" d="M 36.523438 60.351562 L 29.882812 60.351562 C 29.101562 60.351562 28.515625 59.765625 28.515625 58.984375 C 28.515625 58.203125 29.101562 57.617188 29.882812 57.617188 L 36.523438 57.617188 C 37.304688 57.617188 37.890625 58.203125 37.890625 58.984375 C 37.890625 59.765625 37.304688 60.351562 36.523438 60.351562 Z M 36.523438 60.351562 "/>
<path style=" stroke:none;fill-rule:evenodd;fill:rgb(32.54902%,33.72549%,43.529412%);fill-opacity:1;" d="M 36.523438 51.367188 L 29.882812 51.367188 C 29.101562 51.367188 28.515625 50.78125 28.515625 50 C 28.515625 49.21875 29.101562 48.632812 29.882812 48.632812 L 36.523438 48.632812 C 37.304688 48.632812 37.890625 49.21875 37.890625 50 C 37.890625 50.78125 37.304688 51.367188 36.523438 51.367188 Z M 36.523438 51.367188 "/>
<path style=" stroke:none;fill-rule:evenodd;fill:rgb(32.54902%,33.72549%,43.529412%);fill-opacity:1;" d="M 36.523438 42.382812 L 29.882812 42.382812 C 29.101562 42.382812 28.515625 41.796875 28.515625 41.015625 C 28.515625 40.234375 29.101562 39.648438 29.882812 39.648438 L 36.523438 39.648438 C 37.304688 39.648438 37.890625 40.234375 37.890625 41.015625 C 37.890625 41.796875 37.304688 42.382812 36.523438 42.382812 Z M 36.523438 42.382812 "/>
<path style=" stroke:none;fill-rule:evenodd;fill:rgb(56.078431%,56.470588%,63.137255%);fill-opacity:1;" d="M 59.179688 64.84375 L 40.820312 64.84375 C 37.695312 64.84375 35.15625 62.304688 35.15625 59.375 L 35.15625 40.820312 C 35.15625 37.695312 37.695312 35.15625 40.820312 35.15625 L 59.179688 35.15625 C 62.304688 35.15625 64.84375 37.695312 64.84375 40.820312 L 64.84375 59.375 C 64.84375 62.304688 62.304688 64.84375 59.179688 64.84375 Z M 59.179688 64.84375 "/>
</g>
</svg>
