<?xml version="1.0" encoding="UTF-8"?>
<svg xmlns="http://www.w3.org/2000/svg" xmlns:xlink="http://www.w3.org/1999/xlink" width="25px" height="25px" viewBox="0 0 25 25" version="1.1">
<defs>
<linearGradient id="linear0" gradientUnits="userSpaceOnUse" x1="3" y1="32" x2="61" y2="32" gradientTransform="matrix(0.390625,0,0,0.390625,0,0)">
<stop offset="0" style="stop-color:rgb(96.470588%,17.254902%,51.764706%);stop-opacity:1;"/>
<stop offset="0.23" style="stop-color:rgb(88.235294%,18.823529%,61.176471%);stop-opacity:1;"/>
<stop offset="0.72" style="stop-color:rgb(67.058824%,21.960784%,85.098039%);stop-opacity:1;"/>
<stop offset="1" style="stop-color:rgb(54.117647%,24.313725%,100%);stop-opacity:1;"/>
</linearGradient>
</defs>
<g id="surface1">
<path style=" stroke:none;fill-rule:nonzero;fill:url(#linear0);" d="M 11.367188 22.695312 C 6.304688 22.695312 2.007812 18.984375 1.277344 13.976562 C 0.542969 8.96875 3.597656 4.179688 8.445312 2.730469 C 13.296875 1.28125 18.476562 3.613281 20.609375 8.203125 C 21.316406 7.515625 22.433594 7.488281 23.175781 8.140625 C 23.914062 8.792969 24.03125 9.90625 23.4375 10.695312 L 21.152344 13.691406 C 20.515625 14.519531 19.332031 14.679688 18.5 14.050781 L 15.507812 11.765625 C 14.914062 11.316406 14.644531 10.558594 14.8125 9.832031 C 14.980469 9.109375 15.558594 8.550781 16.289062 8.40625 C 14.386719 6.121094 11.164062 5.445312 8.503906 6.773438 C 5.84375 8.097656 4.445312 11.082031 5.128906 13.972656 C 5.8125 16.867188 8.394531 18.910156 11.367188 18.910156 C 12.378906 18.957031 13.175781 19.789062 13.175781 20.804688 C 13.175781 21.816406 12.378906 22.648438 11.367188 22.695312 Z M 11.367188 3.085938 C 6.167969 3.085938 1.953125 7.300781 1.953125 12.5 C 1.953125 17.699219 6.167969 21.914062 11.367188 21.914062 C 11.957031 21.878906 12.414062 21.390625 12.414062 20.804688 C 12.414062 20.214844 11.957031 19.726562 11.367188 19.691406 C 7.921875 19.6875 4.964844 17.246094 4.3125 13.863281 C 3.65625 10.484375 5.492188 7.113281 8.6875 5.828125 C 11.882812 4.542969 15.539062 5.703125 17.410156 8.59375 C 17.496094 8.730469 17.492188 8.90625 17.394531 9.039062 C 17.296875 9.167969 17.128906 9.226562 16.972656 9.179688 C 16.609375 9.074219 16.21875 9.15625 15.933594 9.402344 C 15.648438 9.648438 15.503906 10.019531 15.554688 10.394531 C 15.59375 10.6875 15.75 10.953125 15.984375 11.128906 L 18.980469 13.414062 C 19.214844 13.59375 19.511719 13.671875 19.804688 13.632812 C 20.097656 13.59375 20.363281 13.4375 20.542969 13.203125 L 22.828125 10.207031 C 23.164062 9.71875 23.058594 9.054688 22.585938 8.691406 C 22.117188 8.332031 21.445312 8.40625 21.0625 8.855469 L 20.820312 9.171875 C 20.734375 9.28125 20.59375 9.339844 20.457031 9.316406 C 20.316406 9.296875 20.199219 9.203125 20.148438 9.074219 C 18.71875 5.472656 15.242188 3.101562 11.367188 3.085938 Z M 11.367188 3.085938 "/>
</g>
</svg>
