<?xml version="1.0" encoding="UTF-8"?>
<svg xmlns="http://www.w3.org/2000/svg" xmlns:xlink="http://www.w3.org/1999/xlink" width="100px" height="100px" viewBox="0 0 100 100" version="1.1">
<g id="surface1">
<path style=" stroke:none;fill-rule:evenodd;fill:rgb(21.568627%,54.509804%,30.588235%);fill-opacity:1;" d="M 22.070312 100 C 21.679688 100 21.484375 99.804688 21.09375 99.609375 L 18.554688 97.070312 C 18.164062 96.679688 18.164062 96.09375 18.359375 95.507812 C 18.75 94.335938 18.554688 93.164062 17.773438 92.382812 C 16.992188 91.40625 15.625 91.210938 14.453125 91.796875 C 14.0625 91.992188 13.476562 91.796875 12.890625 91.40625 L 8.59375 87.109375 C 8.203125 86.71875 8.007812 86.132812 8.398438 85.546875 C 8.789062 84.375 8.59375 83.203125 7.8125 82.226562 C 6.835938 81.445312 5.664062 81.25 4.492188 81.640625 C 3.90625 82.03125 3.320312 81.835938 2.929688 81.445312 L 0.390625 78.90625 C 0.195312 78.710938 0 78.320312 0 77.929688 C 0 77.539062 0.195312 77.148438 0.390625 76.953125 L 76.953125 0.390625 C 77.539062 -0.195312 78.320312 -0.195312 78.90625 0.390625 L 81.445312 2.929688 C 81.835938 3.320312 82.03125 3.90625 81.640625 4.492188 C 81.25 5.664062 81.445312 6.835938 82.226562 7.617188 C 83.203125 8.59375 84.375 8.789062 85.546875 8.203125 C 85.9375 8.007812 86.71875 8.203125 87.109375 8.59375 L 91.40625 12.890625 C 91.796875 13.28125 91.992188 13.867188 91.796875 14.453125 C 91.210938 15.625 91.40625 16.796875 92.382812 17.773438 C 93.164062 18.554688 94.335938 18.75 95.507812 18.359375 C 96.09375 17.96875 96.679688 18.164062 97.070312 18.554688 L 99.609375 21.09375 C 100.195312 21.679688 100.195312 22.460938 99.609375 23.046875 L 63.085938 59.570312 C 62.695312 59.960938 61.71875 59.960938 61.132812 59.570312 L 59.375 57.8125 C 58.789062 57.03125 58.007812 57.226562 57.617188 57.617188 C 57.226562 58.007812 57.03125 58.59375 57.8125 59.375 L 59.570312 61.132812 C 59.765625 61.523438 59.960938 61.914062 59.960938 62.109375 C 59.960938 62.5 59.765625 62.890625 59.570312 63.085938 L 23.046875 99.609375 C 22.851562 99.804688 22.460938 100 22.070312 100 Z M 22.070312 100 "/>
<path style=" stroke:none;fill-rule:evenodd;fill:rgb(100%,67.058824%,0%);fill-opacity:1;" d="M 28.515625 94.140625 L 26.5625 96.09375 L 22.65625 91.992188 C 22.070312 91.40625 22.070312 90.625 22.65625 90.039062 C 23.046875 89.648438 24.023438 89.648438 24.414062 90.039062 Z M 28.515625 94.140625 "/>
<path style=" stroke:none;fill-rule:evenodd;fill:rgb(100%,67.058824%,0%);fill-opacity:1;" d="M 35.15625 87.5 L 33.203125 89.453125 L 29.101562 85.546875 C 28.515625 84.960938 28.515625 84.179688 29.101562 83.59375 C 29.6875 83.007812 30.46875 83.007812 31.054688 83.59375 Z M 35.15625 87.5 "/>
<path style=" stroke:none;fill-rule:evenodd;fill:rgb(100%,67.058824%,0%);fill-opacity:1;" d="M 41.601562 81.054688 L 39.648438 83.007812 L 35.546875 78.90625 C 35.15625 78.320312 35.15625 77.539062 35.546875 76.953125 C 36.132812 76.367188 37.109375 76.367188 37.5 76.953125 Z M 41.601562 81.054688 "/>
<path style=" stroke:none;fill-rule:evenodd;fill:rgb(100%,67.058824%,0%);fill-opacity:1;" d="M 48.242188 74.414062 L 46.289062 76.367188 L 42.1875 72.460938 C 41.601562 71.875 41.601562 70.898438 42.1875 70.507812 C 42.773438 69.921875 43.554688 69.921875 44.140625 70.507812 Z M 48.242188 74.414062 "/>
<path style=" stroke:none;fill-rule:evenodd;fill:rgb(100%,67.058824%,0%);fill-opacity:1;" d="M 54.6875 67.96875 L 52.734375 69.921875 L 48.828125 65.820312 C 48.242188 65.234375 48.242188 64.453125 48.828125 63.867188 C 49.21875 63.28125 50.195312 63.28125 50.78125 63.867188 Z M 54.6875 67.96875 "/>
<path style=" stroke:none;fill-rule:evenodd;fill:rgb(100%,67.058824%,0%);fill-opacity:1;" d="M 69.921875 52.734375 L 67.96875 54.6875 L 63.867188 50.78125 C 63.28125 50.195312 63.28125 49.21875 63.867188 48.828125 C 64.453125 48.242188 65.234375 48.242188 65.820312 48.828125 Z M 69.921875 52.734375 "/>
<path style=" stroke:none;fill-rule:evenodd;fill:rgb(100%,67.058824%,0%);fill-opacity:1;" d="M 76.367188 46.289062 L 74.414062 48.242188 L 70.507812 44.140625 C 69.921875 43.554688 69.921875 42.773438 70.507812 42.1875 C 70.898438 41.601562 71.875 41.601562 72.460938 42.1875 Z M 76.367188 46.289062 "/>
<path style=" stroke:none;fill-rule:evenodd;fill:rgb(100%,67.058824%,0%);fill-opacity:1;" d="M 83.007812 39.648438 L 81.054688 41.601562 L 76.953125 37.5 C 76.367188 37.109375 76.367188 36.132812 76.953125 35.546875 C 77.539062 35.15625 78.320312 35.15625 78.90625 35.546875 Z M 83.007812 39.648438 "/>
<path style=" stroke:none;fill-rule:evenodd;fill:rgb(100%,67.058824%,0%);fill-opacity:1;" d="M 89.453125 33.203125 L 87.5 34.960938 L 83.59375 31.054688 C 83.007812 30.46875 83.007812 29.6875 83.59375 29.101562 C 84.179688 28.515625 84.960938 28.515625 85.546875 29.101562 Z M 89.453125 33.203125 "/>
<path style=" stroke:none;fill-rule:evenodd;fill:rgb(100%,67.058824%,0%);fill-opacity:1;" d="M 96.09375 26.5625 L 94.140625 28.515625 L 90.039062 24.414062 C 89.648438 24.023438 89.648438 23.046875 90.039062 22.460938 C 90.625 22.070312 91.601562 22.070312 91.992188 22.460938 Z M 96.09375 26.5625 "/>
<path style=" stroke:none;fill-rule:evenodd;fill:rgb(100%,67.058824%,0%);fill-opacity:1;" d="M 20.507812 86.914062 C 20.117188 86.914062 19.921875 86.71875 19.53125 86.523438 L 10.742188 77.539062 C 10.15625 76.953125 10.15625 76.171875 10.742188 75.585938 L 16.992188 69.335938 C 17.1875 69.140625 17.578125 68.945312 17.773438 68.945312 C 18.164062 68.945312 18.554688 69.140625 18.75 69.335938 L 27.734375 78.320312 C 28.320312 78.90625 28.320312 79.6875 27.734375 80.273438 L 21.484375 86.523438 C 21.289062 86.71875 20.898438 86.914062 20.507812 86.914062 Z M 20.507812 86.914062 "/>
<path style=" stroke:none;fill-rule:evenodd;fill:rgb(100%,67.058824%,0%);fill-opacity:1;" d="M 31.25 76.171875 C 30.859375 76.171875 30.46875 75.976562 30.273438 75.78125 L 21.289062 66.796875 C 20.898438 66.40625 20.898438 65.429688 21.289062 64.84375 L 27.539062 58.59375 C 27.929688 58.398438 28.125 58.203125 28.515625 58.203125 C 28.90625 58.203125 29.296875 58.398438 29.492188 58.59375 L 38.476562 67.578125 C 39.0625 68.164062 39.0625 68.945312 38.476562 69.53125 L 32.226562 75.78125 C 31.835938 75.976562 31.640625 76.171875 31.25 76.171875 Z M 31.25 76.171875 "/>
<path style=" stroke:none;fill-rule:evenodd;fill:rgb(100%,67.058824%,0%);fill-opacity:1;" d="M 41.992188 65.429688 C 41.601562 65.429688 41.210938 65.429688 41.015625 65.039062 L 32.03125 56.054688 C 31.445312 55.664062 31.445312 54.6875 32.03125 54.296875 L 38.28125 48.046875 C 38.867188 47.460938 39.648438 47.460938 40.234375 48.046875 L 49.21875 56.835938 C 49.609375 57.421875 49.609375 58.398438 49.21875 58.789062 L 42.96875 65.039062 C 42.578125 65.429688 42.1875 65.429688 41.992188 65.429688 Z M 41.992188 65.429688 "/>
<path style=" stroke:none;fill-rule:evenodd;fill:rgb(100%,67.058824%,0%);fill-opacity:1;" d="M 57.8125 49.609375 C 57.617188 49.609375 57.226562 49.414062 56.835938 49.21875 L 48.046875 40.234375 C 47.65625 40.039062 47.65625 39.648438 47.65625 39.257812 C 47.65625 38.867188 47.65625 38.476562 48.046875 38.28125 L 54.296875 32.03125 C 54.6875 31.445312 55.664062 31.445312 56.25 32.03125 L 65.039062 41.015625 C 65.625 41.40625 65.625 42.382812 65.039062 42.96875 L 58.789062 49.21875 C 58.59375 49.414062 58.203125 49.609375 57.8125 49.609375 Z M 57.8125 49.609375 "/>
<path style=" stroke:none;fill-rule:evenodd;fill:rgb(100%,67.058824%,0%);fill-opacity:1;" d="M 68.554688 38.867188 C 68.164062 38.867188 67.773438 38.671875 67.578125 38.476562 L 58.59375 29.492188 C 58.203125 28.90625 58.203125 28.125 58.59375 27.539062 L 64.84375 21.289062 C 65.429688 20.703125 66.40625 20.703125 66.796875 21.289062 L 75.78125 30.273438 C 76.367188 30.859375 76.367188 31.640625 75.78125 32.226562 L 69.53125 38.476562 C 69.335938 38.671875 68.945312 38.867188 68.554688 38.867188 Z M 68.554688 38.867188 "/>
<path style=" stroke:none;fill-rule:evenodd;fill:rgb(100%,67.058824%,0%);fill-opacity:1;" d="M 79.296875 28.125 C 78.90625 28.125 78.515625 27.929688 78.320312 27.734375 L 69.335938 18.75 C 69.140625 18.554688 68.945312 18.164062 68.945312 17.773438 C 68.945312 17.578125 69.140625 17.1875 69.335938 16.992188 L 75.585938 10.742188 C 76.171875 10.15625 76.953125 10.15625 77.539062 10.742188 L 86.523438 19.53125 C 87.109375 20.117188 87.109375 20.898438 86.523438 21.484375 L 80.273438 27.734375 C 79.882812 27.929688 79.6875 28.125 79.296875 28.125 Z M 79.296875 28.125 "/>
<path style=" stroke:none;fill-rule:evenodd;fill:rgb(19.607843%,49.019608%,27.45098%);fill-opacity:1;" d="M 1.5625 80.078125 L 80.078125 1.5625 L 78.90625 0.390625 C 78.320312 -0.195312 77.539062 -0.195312 76.953125 0.390625 L 0.390625 76.953125 C 0.195312 77.148438 0 77.539062 0 77.929688 C 0 78.320312 0.195312 78.710938 0.390625 78.90625 Z M 1.5625 80.078125 "/>
</g>
</svg>
