<?xml version="1.0" encoding="UTF-8"?>
<svg xmlns="http://www.w3.org/2000/svg" xmlns:xlink="http://www.w3.org/1999/xlink" width="30px" height="30px" viewBox="0 0 30 30" version="1.1">
<g id="surface1">
<path style=" stroke:none;fill-rule:nonzero;fill:rgb(0%,0%,0%);fill-opacity:1;" d="M 16.492188 15.453125 C 16.300781 15.191406 15.933594 15.140625 15.671875 15.332031 C 15.484375 15.472656 15.257812 15.546875 15.023438 15.546875 C 14.789062 15.546875 14.566406 15.476562 14.375 15.335938 C 14.117188 15.144531 13.75 15.199219 13.558594 15.460938 C 13.367188 15.71875 13.421875 16.085938 13.679688 16.277344 C 14.070312 16.566406 14.535156 16.71875 15.023438 16.71875 C 15.515625 16.71875 15.980469 16.566406 16.375 16.273438 C 16.632812 16.078125 16.6875 15.710938 16.492188 15.453125 Z M 16.492188 15.453125 "/>
<path style=" stroke:none;fill-rule:nonzero;fill:rgb(0%,0%,0%);fill-opacity:1;" d="M 28.121094 29.351562 L 27.929688 27.578125 C 27.761719 26.0625 27.132812 24.667969 26.101562 23.546875 C 25.25 22.613281 24.1875 21.941406 23 21.566406 C 22.957031 21.546875 22.914062 21.535156 22.867188 21.527344 C 22.664062 21.46875 22.457031 21.414062 22.246094 21.375 L 19.363281 20.800781 C 18.921875 20.710938 18.558594 20.414062 18.375 20.027344 C 22.1875 19.722656 25.195312 16.523438 25.195312 12.632812 L 25.195312 9.960938 C 25.195312 7.847656 24.542969 5.828125 23.304688 4.121094 C 23.117188 3.859375 22.75 3.800781 22.488281 3.992188 C 22.226562 4.179688 22.167969 4.546875 22.355469 4.808594 C 23.445312 6.316406 24.023438 8.097656 24.023438 9.960938 L 24.023438 12.632812 C 24.023438 15.921875 21.464844 18.628906 18.234375 18.863281 L 18.234375 18.632812 L 19.980469 17.632812 C 19.988281 17.628906 20 17.621094 20.011719 17.613281 C 20.851562 17.058594 21.402344 16.070312 21.488281 14.972656 C 21.488281 14.957031 21.488281 14.941406 21.488281 14.925781 L 21.488281 13.695312 C 22.300781 13.660156 22.953125 12.988281 22.953125 12.167969 L 22.953125 11.246094 C 22.953125 10.425781 22.300781 9.75 21.488281 9.714844 L 21.488281 8.972656 C 21.488281 8.648438 21.226562 8.386719 20.90625 8.386719 C 19.566406 8.378906 18.324219 7.710938 17.582031 6.59375 C 17.460938 6.414062 17.25 6.3125 17.03125 6.335938 C 16.8125 6.359375 16.625 6.503906 16.546875 6.710938 C 15.863281 8.503906 14.117188 9.707031 12.199219 9.707031 C 11.195312 9.707031 10.246094 9.398438 9.441406 8.8125 C 9.265625 8.679688 9.027344 8.660156 8.832031 8.761719 C 8.636719 8.859375 8.511719 9.0625 8.511719 9.285156 L 8.511719 9.714844 C 7.691406 9.746094 7.035156 10.421875 7.035156 11.246094 L 7.035156 12.167969 C 7.035156 12.992188 7.691406 13.667969 8.511719 13.699219 L 8.511719 14.925781 C 8.511719 14.941406 8.511719 14.957031 8.511719 14.972656 C 8.597656 16.078125 9.144531 17.066406 9.980469 17.613281 C 9.988281 17.621094 10 17.628906 10.011719 17.636719 L 11.765625 18.636719 L 11.765625 18.863281 C 8.535156 18.628906 5.976562 15.925781 5.976562 12.632812 L 5.976562 9.960938 C 5.976562 5.113281 9.917969 1.171875 14.765625 1.171875 L 15.234375 1.171875 C 16.597656 1.171875 17.902344 1.476562 19.113281 2.074219 C 19.40625 2.214844 19.757812 2.097656 19.898438 1.804688 C 20.042969 1.515625 19.921875 1.164062 19.632812 1.019531 C 18.257812 0.34375 16.777344 0 15.234375 0 L 14.765625 0 C 9.273438 0 4.804688 4.46875 4.804688 9.960938 L 4.804688 12.632812 C 4.804688 16.523438 7.816406 19.722656 11.628906 20.027344 C 11.441406 20.414062 11.082031 20.710938 10.636719 20.800781 L 7.753906 21.375 C 6.257812 21.671875 4.925781 22.421875 3.898438 23.546875 C 2.867188 24.667969 2.238281 26.0625 2.070312 27.578125 L 1.878906 29.351562 C 1.859375 29.515625 1.914062 29.679688 2.023438 29.804688 C 2.136719 29.929688 2.292969 30 2.460938 30 L 27.539062 30 C 27.707031 30 27.863281 29.929688 27.976562 29.804688 C 28.085938 29.679688 28.140625 29.515625 28.121094 29.351562 Z M 21.488281 10.894531 C 21.65625 10.925781 21.78125 11.070312 21.78125 11.246094 L 21.78125 12.167969 C 21.78125 12.34375 21.65625 12.488281 21.488281 12.519531 Z M 8.511719 12.523438 C 8.339844 12.496094 8.207031 12.347656 8.207031 12.167969 L 8.207031 11.246094 C 8.207031 11.066406 8.339844 10.917969 8.511719 10.890625 Z M 10.609375 16.628906 C 10.089844 16.277344 9.746094 15.632812 9.683594 14.902344 L 9.683594 10.3125 C 10.460938 10.683594 11.316406 10.878906 12.195312 10.878906 C 13.402344 10.878906 14.558594 10.515625 15.539062 9.824219 C 16.230469 9.339844 16.800781 8.71875 17.222656 8.003906 C 18.046875 8.84375 19.136719 9.382812 20.316406 9.519531 L 20.316406 14.902344 C 20.253906 15.628906 19.90625 16.273438 19.378906 16.628906 L 15.855469 18.648438 C 15.84375 18.65625 15.835938 18.660156 15.824219 18.667969 C 15.308594 19.007812 14.691406 19.007812 14.175781 18.667969 C 14.164062 18.660156 14.15625 18.652344 14.144531 18.648438 Z M 17.554688 20.933594 C 15.945312 21.707031 14.058594 21.707031 12.445312 20.933594 C 12.757812 20.503906 12.9375 19.980469 12.9375 19.421875 L 12.9375 19.308594 L 13.546875 19.65625 C 13.996094 19.949219 14.5 20.09375 15 20.09375 C 15.503906 20.09375 16.003906 19.949219 16.453125 19.65625 L 17.0625 19.304688 L 17.0625 19.421875 C 17.0625 19.980469 17.246094 20.503906 17.554688 20.933594 Z M 7.820312 28.828125 L 7.820312 26.242188 C 7.824219 25.917969 7.558594 25.65625 7.238281 25.65625 C 7.238281 25.65625 7.238281 25.65625 7.234375 25.65625 C 6.914062 25.65625 6.652344 25.917969 6.648438 26.242188 L 6.648438 28.828125 L 3.113281 28.828125 L 3.238281 27.703125 C 3.519531 25.113281 5.425781 23.03125 7.984375 22.523438 L 10.867188 21.949219 C 10.933594 21.933594 11.003906 21.917969 11.070312 21.898438 L 12.617188 28.828125 Z M 16.183594 28.828125 L 13.816406 28.828125 L 12.328125 22.164062 C 13.183594 22.511719 14.09375 22.6875 15 22.6875 C 15.90625 22.6875 16.816406 22.511719 17.671875 22.164062 Z M 22.175781 28.828125 L 17.382812 28.828125 L 18.929688 21.898438 C 18.996094 21.917969 19.066406 21.933594 19.136719 21.949219 L 22.019531 22.523438 C 22.070312 22.535156 22.125 22.546875 22.175781 22.558594 Z M 23.351562 28.828125 L 23.351562 22.953125 C 25.21875 23.8125 26.53125 25.589844 26.761719 27.707031 L 26.886719 28.828125 Z M 23.351562 28.828125 "/>
<path style=" stroke:none;fill-rule:nonzero;fill:rgb(0%,0%,0%);fill-opacity:1;" d="M 21.667969 2.359375 C 21.382812 2.117188 21.023438 2.203125 20.835938 2.421875 C 20.652344 2.640625 20.628906 3.011719 20.914062 3.253906 C 20.917969 3.253906 20.917969 3.257812 20.921875 3.257812 C 21.039062 3.359375 21.171875 3.402344 21.300781 3.402344 C 21.480469 3.402344 21.648438 3.316406 21.753906 3.1875 C 21.9375 2.96875 21.957031 2.597656 21.667969 2.359375 Z M 21.667969 2.359375 "/>
<path style=" stroke:none;fill-rule:nonzero;fill:rgb(0%,0%,0%);fill-opacity:1;" d="M 13.039062 12.535156 C 12.929688 12.425781 12.78125 12.363281 12.625 12.363281 C 12.472656 12.363281 12.320312 12.425781 12.210938 12.535156 C 12.101562 12.644531 12.039062 12.796875 12.039062 12.949219 C 12.039062 13.101562 12.101562 13.253906 12.210938 13.363281 C 12.320312 13.472656 12.472656 13.535156 12.625 13.535156 C 12.78125 13.535156 12.929688 13.472656 13.039062 13.363281 C 13.148438 13.253906 13.210938 13.101562 13.210938 12.949219 C 13.210938 12.796875 13.148438 12.644531 13.039062 12.535156 Z M 13.039062 12.535156 "/>
<path style=" stroke:none;fill-rule:nonzero;fill:rgb(0%,0%,0%);fill-opacity:1;" d="M 17.816406 12.535156 C 17.707031 12.425781 17.554688 12.363281 17.402344 12.363281 C 17.25 12.363281 17.097656 12.425781 16.988281 12.535156 C 16.878906 12.644531 16.816406 12.792969 16.816406 12.949219 C 16.816406 13.101562 16.878906 13.253906 16.988281 13.363281 C 17.097656 13.472656 17.25 13.535156 17.402344 13.535156 C 17.554688 13.535156 17.707031 13.472656 17.816406 13.363281 C 17.925781 13.253906 17.988281 13.101562 17.988281 12.949219 C 17.988281 12.792969 17.925781 12.644531 17.816406 12.535156 Z M 17.816406 12.535156 "/>
<path style=" stroke:none;fill-rule:nonzero;fill:rgb(0%,0%,0%);fill-opacity:1;" d="M 7.234375 23.574219 C 6.910156 23.574219 6.648438 23.835938 6.648438 24.160156 C 6.648438 24.484375 6.910156 24.746094 7.234375 24.746094 C 7.558594 24.746094 7.820312 24.484375 7.820312 24.160156 C 7.820312 23.835938 7.558594 23.574219 7.234375 23.574219 Z M 7.234375 23.574219 "/>
</g>
</svg>
