<?xml version="1.0" encoding="UTF-8"?>
<svg xmlns="http://www.w3.org/2000/svg" xmlns:xlink="http://www.w3.org/1999/xlink" width="64px" height="64px" viewBox="0 0 64 64" version="1.1">
<g id="surface1">
<path style=" stroke:none;fill-rule:nonzero;fill:rgb(91.764706%,91.764706%,88.235294%);fill-opacity:1;" d="M 21.917969 41.683594 L 21.917969 63.613281 C 25.078125 63.847656 28.382812 64 31.652344 64 C 35.074219 64 38.574219 63.835938 41.933594 63.582031 L 41.96875 41.617188 Z M 21.917969 41.683594 "/>
<path style=" stroke:none;fill-rule:nonzero;fill:rgb(91.764706%,91.764706%,88.235294%);fill-opacity:1;" d="M 60.933594 50.867188 C 58.695312 43.292969 47.464844 44.132812 42.617188 41.957031 C 37.769531 39.78125 38.527344 32.484375 37.910156 31.214844 L 26.085938 31.214844 C 25.472656 32.484375 26.230469 39.785156 21.382812 41.957031 C 16.535156 44.132812 5.304688 43.292969 3.066406 50.867188 C 1.832031 55.046875 1.890625 56.324219 1.550781 60.953125 C 1.550781 60.953125 16.960938 64 31.652344 64 C 46.339844 64 62.449219 60.953125 62.449219 60.953125 C 62.105469 56.324219 62.164062 55.046875 60.933594 50.867188 Z M 60.933594 50.867188 "/>
<path style=" stroke:none;fill-rule:nonzero;fill:rgb(87.843137%,85.882353%,82.745098%);fill-opacity:1;" d="M 60.933594 50.867188 C 58.695312 43.292969 47.464844 44.132812 42.617188 41.957031 C 37.769531 39.78125 38.527344 32.484375 37.910156 31.214844 L 31.648438 31.214844 C 31.648438 31.214844 31.507812 41.453125 36.351562 43.625 C 41.199219 45.800781 52.433594 44.960938 54.667969 52.539062 C 55.84375 56.515625 55.84375 57.863281 56.136719 61.980469 C 59.996094 61.417969 62.445312 60.953125 62.445312 60.953125 C 62.105469 56.324219 62.164062 55.046875 60.933594 50.867188 Z M 60.933594 50.867188 "/>
<path style=" stroke:none;fill-rule:nonzero;fill:rgb(77.647059%,77.254902%,68.627451%);fill-opacity:1;" d="M 41.96875 41.617188 L 35.335938 47.378906 L 34.34375 41.28125 Z M 41.96875 41.617188 "/>
<path style=" stroke:none;fill-rule:nonzero;fill:rgb(77.647059%,77.254902%,68.627451%);fill-opacity:1;" d="M 21.917969 41.683594 L 28.65625 47.378906 L 29.453125 41.238281 Z M 21.917969 41.683594 "/>
<path style=" stroke:none;fill-rule:nonzero;fill:rgb(77.647059%,77.254902%,68.627451%);fill-opacity:1;" d="M 34.511719 41.238281 L 29.453125 41.238281 L 29.070312 42.476562 L 34.90625 42.511719 Z M 34.511719 41.238281 "/>
<path style=" stroke:none;fill-rule:nonzero;fill:rgb(66.666667%,65.882353%,56.078431%);fill-opacity:1;" d="M 29.453125 41.238281 L 29.070312 42.476562 L 29.292969 42.621094 Z M 29.453125 41.238281 "/>
<path style=" stroke:none;fill-rule:nonzero;fill:rgb(66.666667%,65.882353%,56.078431%);fill-opacity:1;" d="M 34.90625 42.511719 L 34.34375 41.28125 L 34.578125 42.710938 Z M 34.90625 42.511719 "/>
<path style=" stroke:none;fill-rule:nonzero;fill:rgb(29.803922%,29.803922%,29.803922%);fill-opacity:1;" d="M 34.800781 63.953125 L 34.914062 62.351562 L 33.695312 46.199219 L 30.480469 46.199219 L 29.054688 62.351562 L 29.171875 63.972656 C 30 63.988281 30.828125 64 31.652344 64 C 32.695312 64 33.746094 63.984375 34.800781 63.953125 Z M 34.800781 63.953125 "/>
<path style=" stroke:none;fill-rule:nonzero;fill:rgb(22.745098%,22.745098%,21.960784%);fill-opacity:1;" d="M 30.492188 46.269531 L 33.695312 46.195312 L 33.761719 47.097656 Z M 30.492188 46.269531 "/>
<path style=" stroke:none;fill-rule:nonzero;fill:rgb(29.803922%,29.803922%,29.803922%);fill-opacity:1;" d="M 28.199219 41.773438 L 35.765625 41.765625 L 35.335938 44.351562 L 33.628906 46.269531 L 30.492188 46.269531 L 28.632812 44.351562 Z M 28.199219 41.773438 "/>
<path style=" stroke:none;fill-rule:nonzero;fill:rgb(91.764706%,91.764706%,88.235294%);fill-opacity:1;" d="M 29.453125 41.238281 L 24.292969 38.429688 C 24.292969 38.429688 23.613281 39.398438 21.917969 41.683594 L 28.28125 46.269531 L 28.824219 43.273438 Z M 29.453125 41.238281 "/>
<path style=" stroke:none;fill-rule:nonzero;fill:rgb(91.764706%,91.764706%,88.235294%);fill-opacity:1;" d="M 34.335938 41.238281 L 39.496094 38.429688 C 39.496094 38.429688 40.269531 39.328125 41.96875 41.617188 L 35.507812 46.269531 L 34.964844 43.273438 Z M 34.335938 41.238281 "/>
<path style=" stroke:none;fill-rule:nonzero;fill:rgb(87.843137%,85.882353%,82.745098%);fill-opacity:1;" d="M 39.496094 38.429688 L 34.335938 41.238281 L 34.691406 42.394531 C 35.167969 42.917969 35.71875 43.339844 36.351562 43.625 C 36.914062 43.878906 37.5625 44.089844 38.269531 44.277344 L 41.964844 41.617188 C 40.269531 39.328125 39.496094 38.429688 39.496094 38.429688 Z M 39.496094 38.429688 "/>
<path style=" stroke:none;fill-rule:nonzero;fill:rgb(31.764706%,31.764706%,27.843137%);fill-opacity:1;" d="M 46.808594 50.308594 L 43.734375 49.191406 L 46.496094 48.433594 L 43.863281 42.417969 L 35.6875 63.929688 C 36.644531 63.898438 37.601562 63.855469 38.554688 63.800781 Z M 46.808594 50.308594 "/>
<path style=" stroke:none;fill-rule:nonzero;fill:rgb(31.764706%,31.764706%,27.843137%);fill-opacity:1;" d="M 17.292969 48.429688 L 20.058594 49.191406 L 16.980469 50.308594 L 25.25 63.824219 C 26.199219 63.875 27.152344 63.914062 28.109375 63.945312 L 19.914062 42.484375 Z M 17.292969 48.429688 "/>
<path style=" stroke:none;fill-rule:nonzero;fill:rgb(22.352941%,23.529412%,23.921569%);fill-opacity:1;" d="M 13.265625 62.753906 C 17.875 63.320312 23.390625 63.835938 28.941406 63.96875 C 25.601562 57.183594 23.039062 50.828125 21.917969 41.683594 C 21.746094 41.78125 21.570312 41.875 21.382812 41.957031 C 19.246094 42.917969 15.871094 43.289062 12.570312 44.054688 Z M 13.265625 62.753906 "/>
<path style=" stroke:none;fill-rule:nonzero;fill:rgb(22.352941%,23.529412%,23.921569%);fill-opacity:1;" d="M 50.734375 62.707031 L 51.425781 44.054688 C 48.125 43.289062 44.753906 42.917969 42.617188 41.957031 C 42.429688 41.875 42.253906 41.78125 42.082031 41.683594 L 42.078125 41.683594 C 40.957031 50.816406 38.398438 57.171875 35.0625 63.949219 C 40.578125 63.785156 46.105469 63.269531 50.734375 62.707031 Z M 50.734375 62.707031 "/>
<path style=" stroke:none;fill-rule:nonzero;fill:rgb(18.431373%,19.607843%,20%);fill-opacity:1;" d="M 42.082031 41.683594 L 42.078125 41.683594 C 41.9375 42.828125 41.773438 43.929688 41.589844 44.996094 C 44.871094 45.625 48.582031 46.289062 51.277344 48.070312 L 51.425781 44.054688 C 48.125 43.289062 44.753906 42.917969 42.617188 41.957031 C 42.429688 41.875 42.253906 41.78125 42.082031 41.683594 Z M 42.082031 41.683594 "/>
<path style=" stroke:none;fill-rule:nonzero;fill:rgb(80%,64.313725%,51.372549%);fill-opacity:1;" d="M 45.09375 28.011719 C 46.363281 28.238281 47.730469 26.535156 48.148438 24.199219 C 48.570312 21.867188 47.878906 19.792969 46.613281 19.566406 C 45.34375 19.335938 43.976562 21.042969 43.554688 23.375 C 43.136719 25.707031 43.824219 27.785156 45.09375 28.011719 Z M 45.09375 28.011719 "/>
<path style=" stroke:none;fill-rule:nonzero;fill:rgb(85.882353%,70.588235%,56.862745%);fill-opacity:1;" d="M 15.816406 24.203125 C 16.234375 26.535156 17.601562 28.242188 18.871094 28.011719 C 20.140625 27.785156 20.828125 25.710938 20.40625 23.378906 C 19.988281 21.042969 18.621094 19.339844 17.351562 19.566406 C 16.082031 19.796875 15.394531 21.871094 15.816406 24.203125 Z M 15.816406 24.203125 "/>
<path style=" stroke:none;fill-rule:nonzero;fill:rgb(85.882353%,70.588235%,56.862745%);fill-opacity:1;" d="M 44.875 9.503906 L 19.109375 9.503906 C 19.109375 9.503906 11.886719 38.921875 31.988281 41.769531 C 52.09375 38.921875 44.875 9.503906 44.875 9.503906 Z M 44.875 9.503906 "/>
<path style=" stroke:none;fill-rule:nonzero;fill:rgb(80%,64.313725%,51.372549%);fill-opacity:1;" d="M 31.988281 41.769531 C 52.09375 38.921875 44.875 9.503906 44.875 9.503906 L 41.859375 9.503906 C 42.683594 21.792969 43.828125 28.320312 39.085938 35.4375 C 35.332031 41.074219 31.988281 41.769531 31.988281 41.769531 Z M 31.988281 41.769531 "/>
<path style=" stroke:none;fill-rule:nonzero;fill:rgb(22.352941%,23.529412%,23.921569%);fill-opacity:1;" d="M 37.691406 1.097656 C 37.691406 1.097656 33.710938 -0.773438 28.363281 0.367188 C 24.359375 1.222656 17.84375 3.945312 16.378906 9.777344 C 16.378906 9.777344 14.1875 19.304688 17.921875 23.40625 C 17.921875 23.40625 17.738281 19.6875 18.113281 16.722656 C 18.113281 16.722656 20.355469 17.714844 24.871094 17.660156 C 30.929688 17.582031 36.800781 15.09375 38.605469 12.371094 C 38.605469 12.371094 38.398438 16.289062 36.421875 17.890625 C 36.421875 17.890625 43.351562 16.804688 45.398438 12.695312 C 45.398438 12.695312 46.082031 16.292969 46.082031 22.960938 C 46.082031 22.960938 47.164062 21.453125 47.417969 19.027344 C 47.992188 13.519531 46.949219 5.917969 42.828125 6.171875 C 42.828125 6.171875 41.082031 2.707031 37.691406 1.097656 Z M 37.691406 1.097656 "/>
<path style=" stroke:none;fill-rule:nonzero;fill:rgb(80%,64.313725%,51.372549%);fill-opacity:1;" d="M 36.421875 17.886719 C 38.398438 16.289062 38.605469 12.371094 38.605469 12.371094 C 36.800781 15.09375 30.929688 17.582031 24.871094 17.660156 C 20.503906 17.714844 18.265625 16.789062 18.121094 16.726562 C 18.40625 16.851562 26.980469 20.449219 36.515625 15.949219 C 36.515625 15.949219 35.996094 17.859375 34.882812 18.515625 C 34.882812 18.515625 43.683594 18.359375 45.398438 12.695312 C 43.351562 16.804688 36.421875 17.886719 36.421875 17.886719 Z M 36.421875 17.886719 "/>
<path style=" stroke:none;fill-rule:nonzero;fill:rgb(93.72549%,70.588235%,24.705882%);fill-opacity:1;" d="M 23.644531 60.640625 C 23.644531 60.878906 23.453125 61.070312 23.214844 61.070312 L 16.089844 61.070312 C 15.855469 61.070312 15.660156 60.878906 15.660156 60.640625 L 15.660156 58.015625 C 15.660156 57.78125 15.851562 57.589844 16.089844 57.589844 L 23.214844 57.589844 C 23.449219 57.589844 23.644531 57.78125 23.644531 58.015625 Z M 23.644531 60.640625 "/>
</g>
</svg>
