<?xml version="1.0" encoding="UTF-8"?>
<svg xmlns="http://www.w3.org/2000/svg" xmlns:xlink="http://www.w3.org/1999/xlink" width="32px" height="32px" viewBox="0 0 32 32" version="1.1">
<g id="surface1">
<path style=" stroke:none;fill-rule:nonzero;fill:rgb(0%,0%,0%);fill-opacity:1;" d="M 25.113281 12.878906 C 24.59375 12.359375 23.75 12.359375 23.226562 12.878906 L 17.886719 18.222656 L 15.058594 15.394531 C 14.808594 15.144531 14.46875 15.003906 14.113281 15.003906 C 13.761719 15.003906 13.421875 15.144531 13.171875 15.394531 L 6.886719 21.679688 C 6.367188 22.199219 6.367188 23.042969 6.886719 23.566406 C 7.148438 23.824219 7.488281 23.957031 7.828125 23.957031 C 8.171875 23.957031 8.511719 23.824219 8.773438 23.566406 L 14.113281 18.222656 L 16.941406 21.050781 C 17.191406 21.300781 17.53125 21.441406 17.886719 21.441406 C 18.238281 21.441406 18.578125 21.300781 18.828125 21.050781 L 25.113281 14.765625 C 25.632812 14.246094 25.632812 13.402344 25.113281 12.878906 Z M 25.113281 12.878906 "/>
<path style=" stroke:none;fill-rule:nonzero;fill:rgb(0%,0%,0%);fill-opacity:1;" d="M 29.332031 2.667969 L 20.890625 2.667969 L 20.890625 1.332031 C 20.890625 0.597656 20.292969 0 19.554688 0 L 12.445312 0 C 11.707031 0 11.109375 0.597656 11.109375 1.332031 L 11.109375 2.667969 L 2.667969 2.667969 C 1.929688 2.667969 1.332031 3.261719 1.332031 4 L 1.332031 30.667969 C 1.332031 31.402344 1.929688 32 2.667969 32 L 29.332031 32 C 30.070312 32 30.667969 31.402344 30.667969 30.667969 L 30.667969 4 C 30.667969 3.261719 30.070312 2.667969 29.332031 2.667969 Z M 13.777344 2.667969 L 18.222656 2.667969 L 18.222656 3.996094 C 18.222656 3.996094 18.222656 4 18.222656 4 C 18.222656 4 18.222656 4.003906 18.222656 4.003906 L 18.222656 5.332031 L 13.777344 5.332031 Z M 28 29.332031 L 4 29.332031 L 4 5.332031 L 11.109375 5.332031 L 11.109375 6.667969 C 11.109375 7.402344 11.707031 8 12.445312 8 L 19.554688 8 C 20.292969 8 20.890625 7.402344 20.890625 6.667969 L 20.890625 5.332031 L 28 5.332031 Z M 28 29.332031 "/>
</g>
</svg>
