<svg xmlns="http://www.w3.org/2000/svg"  viewBox="0 0 48 48" width="30px" height="30px"><path fill="#35c1f1" d="M36.672,21.905v19.77h-8v-19.77c0-0.549,0.448-0.993,1-0.993h6	C36.224,20.912,36.672,21.357,36.672,21.905z"/><path fill="#199be2" d="M28.672,7.997v33.678h-8V7.997c0-0.548,0.448-0.993,1-0.993h6	C28.224,7.004,28.672,7.449,28.672,7.997z"/><path fill="#0078d4" d="M20.672,14.951v26.724h-8V14.951c0-0.549,0.448-0.993,1-0.993h6	C20.224,13.958,20.672,14.403,20.672,14.951z"/><path fill="#abb4be" d="M42.25,43h-36c-0.552,0-1-0.445-1-0.993V6.243c0-0.548,0.448-0.993,1-0.993s1,0.445,1,0.993v34.77h35	c0.552,0,1,0.445,1,0.993S42.802,43,42.25,43z"/></svg>