<?xml version="1.0" encoding="UTF-8"?>
<svg xmlns="http://www.w3.org/2000/svg" xmlns:xlink="http://www.w3.org/1999/xlink" width="30px" height="32px" viewBox="0 0 30 30" version="1.1">
<g id="surface1">
<path style=" stroke:none;fill-rule:nonzero;fill:rgb(0%,0%,0%);fill-opacity:1;" d="M 10.03125 13.59375 C 11.042969 13.59375 11.5625 12.984375 11.980469 12.492188 C 12.398438 12 12.664062 11.71875 13.21875 11.71875 C 13.773438 11.71875 14.035156 12 14.457031 12.492188 C 14.875 12.984375 15.394531 13.59375 16.40625 13.59375 L 16.40625 12.65625 C 15.851562 12.65625 15.585938 12.375 15.167969 11.882812 C 14.75 11.390625 14.230469 10.78125 13.21875 10.78125 C 12.207031 10.78125 11.6875 11.390625 11.269531 11.882812 C 11.25 11.90625 11.234375 11.925781 11.21875 11.945312 L 12.183594 7.121094 C 12.226562 6.914062 12.121094 6.703125 11.933594 6.609375 L 10.785156 6.039062 L 10.785156 2.8125 C 10.785156 2.554688 10.574219 2.34375 10.316406 2.34375 L 8.441406 2.34375 L 8.441406 0.9375 C 8.441406 0.679688 8.230469 0.46875 7.972656 0.46875 L 6.097656 0.46875 C 5.839844 0.46875 5.628906 0.679688 5.628906 0.9375 L 5.628906 2.34375 L 3.753906 2.34375 C 3.496094 2.34375 3.285156 2.554688 3.285156 2.8125 L 3.285156 6.039062 L 2.136719 6.609375 C 1.949219 6.703125 1.847656 6.914062 1.890625 7.121094 L 2.949219 12.417969 C 2.78125 12.285156 2.617188 12.109375 2.421875 11.878906 C 2.007812 11.386719 1.484375 10.777344 0.472656 10.777344 L 0.472656 11.714844 C 1.027344 11.714844 1.289062 11.996094 1.710938 12.488281 C 2.128906 12.980469 2.648438 13.589844 3.660156 13.589844 C 4.671875 13.589844 5.195312 12.980469 5.609375 12.488281 C 6.027344 11.996094 6.296875 11.714844 6.847656 11.714844 C 7.402344 11.714844 7.664062 11.996094 8.085938 12.488281 C 8.503906 12.980469 9.023438 13.589844 10.035156 13.589844 Z M 6.5625 1.40625 L 7.5 1.40625 L 7.5 2.34375 L 6.5625 2.34375 Z M 4.21875 3.28125 L 9.84375 3.28125 L 9.84375 5.570312 L 7.242188 4.265625 C 7.109375 4.199219 6.957031 4.199219 6.824219 4.265625 L 4.222656 5.570312 L 4.222656 3.28125 Z M 6.5625 10.804688 C 5.734375 10.90625 5.269531 11.441406 4.894531 11.886719 C 4.554688 12.285156 4.3125 12.542969 3.941406 12.628906 L 3.214844 9 L 6.5625 7.328125 L 6.5625 10.808594 Z M 6.820312 6.144531 L 3.023438 8.042969 L 2.875 7.289062 L 7.03125 5.210938 L 11.1875 7.289062 L 11.039062 8.042969 L 7.242188 6.144531 C 7.109375 6.078125 6.957031 6.078125 6.824219 6.144531 Z M 7.5 10.882812 L 7.5 7.328125 L 10.847656 9.003906 L 10.117188 12.65625 C 10.085938 12.65625 10.058594 12.660156 10.027344 12.660156 C 9.472656 12.660156 9.210938 12.378906 8.789062 11.886719 C 8.476562 11.515625 8.101562 11.078125 7.496094 10.882812 Z M 7.5 10.882812 "/>
<path style=" stroke:none;fill-rule:nonzero;fill:rgb(0%,0%,0%);fill-opacity:1;" d="M 17.8125 21.09375 L 12.1875 21.09375 C 11.929688 21.09375 11.71875 21.304688 11.71875 21.5625 L 11.71875 26.25 C 11.71875 26.507812 11.929688 26.71875 12.1875 26.71875 L 13.59375 26.71875 L 13.59375 25.78125 L 12.65625 25.78125 L 12.65625 22.03125 L 13.59375 22.03125 L 13.59375 24.375 C 13.59375 24.5625 13.707031 24.734375 13.882812 24.804688 C 14.058594 24.882812 14.257812 24.839844 14.394531 24.703125 L 15 24.097656 L 15.605469 24.703125 C 15.695312 24.792969 15.816406 24.839844 15.9375 24.839844 C 16 24.839844 16.058594 24.828125 16.117188 24.800781 C 16.289062 24.730469 16.40625 24.558594 16.40625 24.371094 L 16.40625 22.027344 L 17.34375 22.027344 L 17.34375 25.777344 L 16.40625 25.777344 L 16.40625 26.714844 L 17.8125 26.714844 C 18.070312 26.714844 18.28125 26.503906 18.28125 26.246094 L 18.28125 21.558594 C 18.28125 21.300781 18.070312 21.089844 17.8125 21.089844 Z M 15.46875 23.246094 L 15.332031 23.109375 C 15.148438 22.925781 14.855469 22.925781 14.671875 23.109375 L 14.535156 23.246094 L 14.535156 22.03125 L 15.472656 22.03125 L 15.472656 23.246094 Z M 15.46875 23.246094 "/>
<path style=" stroke:none;fill-rule:nonzero;fill:rgb(0%,0%,0%);fill-opacity:1;" d="M 28.542969 10.570312 C 28.460938 10.410156 28.296875 10.3125 28.125 10.3125 L 26.71875 10.3125 L 26.71875 9.84375 C 26.71875 9.585938 26.507812 9.375 26.25 9.375 L 26.25 5.15625 C 26.25 4.898438 26.039062 4.6875 25.78125 4.6875 L 20.15625 4.6875 C 19.898438 4.6875 19.6875 4.898438 19.6875 5.15625 L 19.6875 9.375 C 19.429688 9.375 19.21875 9.585938 19.21875 9.84375 L 19.21875 14.53125 C 19.21875 14.789062 19.429688 15 19.6875 15 L 20.710938 15 C 20.902344 15.542969 21.417969 15.9375 22.03125 15.9375 C 22.644531 15.9375 23.15625 15.542969 23.351562 15 L 24.933594 15 C 25.125 15.542969 25.640625 15.9375 26.253906 15.9375 C 26.867188 15.9375 27.378906 15.542969 27.578125 15 L 29.066406 15 C 29.324219 15 29.535156 14.789062 29.535156 14.53125 L 29.535156 12.65625 C 29.535156 12.582031 29.515625 12.511719 29.484375 12.445312 L 28.546875 10.570312 Z M 22.5 5.625 L 23.4375 5.625 L 23.4375 6.839844 L 23.300781 6.703125 C 23.117188 6.519531 22.824219 6.519531 22.640625 6.703125 L 22.503906 6.839844 L 22.503906 5.625 Z M 20.625 5.625 L 21.5625 5.625 L 21.5625 7.96875 C 21.5625 8.15625 21.675781 8.328125 21.851562 8.398438 C 22.027344 8.476562 22.226562 8.433594 22.363281 8.296875 L 22.96875 7.691406 L 23.574219 8.296875 C 23.664062 8.386719 23.785156 8.433594 23.90625 8.433594 C 23.96875 8.433594 24.027344 8.421875 24.085938 8.394531 C 24.257812 8.324219 24.375 8.152344 24.375 7.964844 L 24.375 5.621094 L 25.3125 5.621094 L 25.3125 9.371094 L 20.625 9.371094 Z M 22.03125 15 C 21.773438 15 21.5625 14.789062 21.5625 14.53125 C 21.5625 14.273438 21.773438 14.0625 22.03125 14.0625 C 22.289062 14.0625 22.5 14.273438 22.5 14.53125 C 22.5 14.789062 22.289062 15 22.03125 15 Z M 24.929688 14.0625 L 23.347656 14.0625 C 23.15625 13.519531 22.640625 13.125 22.027344 13.125 C 21.414062 13.125 20.902344 13.519531 20.703125 14.0625 L 20.152344 14.0625 L 20.152344 10.3125 L 25.777344 10.3125 L 25.777344 13.210938 C 25.378906 13.351562 25.070312 13.664062 24.921875 14.0625 Z M 26.25 15 C 25.992188 15 25.78125 14.789062 25.78125 14.53125 C 25.78125 14.273438 25.992188 14.0625 26.25 14.0625 C 26.507812 14.0625 26.71875 14.273438 26.71875 14.53125 C 26.71875 14.789062 26.507812 15 26.25 15 Z M 28.59375 14.0625 L 27.570312 14.0625 C 27.429688 13.664062 27.117188 13.355469 26.71875 13.210938 L 26.71875 11.25 L 27.835938 11.25 L 28.59375 12.769531 Z M 28.59375 14.0625 "/>
<path style=" stroke:none;fill-rule:nonzero;fill:rgb(0%,0%,0%);fill-opacity:1;" d="M 20.617188 22.851562 C 20.46875 22.070312 20.164062 21.335938 19.71875 20.679688 C 19.636719 20.558594 19.5 20.484375 19.351562 20.480469 C 19.101562 20.46875 18.871094 20.371094 18.703125 20.203125 C 18.535156 20.035156 18.4375 19.804688 18.425781 19.554688 C 18.421875 19.40625 18.347656 19.269531 18.226562 19.1875 C 17.570312 18.734375 16.84375 18.4375 16.054688 18.289062 C 15.910156 18.265625 15.757812 18.308594 15.652344 18.40625 C 15.289062 18.742188 14.710938 18.742188 14.347656 18.40625 C 14.242188 18.308594 14.085938 18.265625 13.945312 18.289062 C 13.164062 18.4375 12.429688 18.742188 11.773438 19.1875 C 11.652344 19.269531 11.578125 19.40625 11.574219 19.554688 C 11.5625 19.804688 11.464844 20.035156 11.296875 20.203125 C 11.128906 20.371094 10.898438 20.46875 10.648438 20.480469 C 10.5 20.484375 10.363281 20.558594 10.28125 20.679688 C 9.828125 21.335938 9.53125 22.0625 9.382812 22.851562 C 9.355469 22.996094 9.398438 23.148438 9.5 23.253906 C 9.671875 23.4375 9.757812 23.667969 9.757812 23.90625 C 9.757812 24.144531 9.664062 24.375 9.5 24.558594 C 9.402344 24.664062 9.355469 24.816406 9.382812 24.960938 C 9.53125 25.742188 9.835938 26.476562 10.28125 27.132812 C 10.363281 27.253906 10.5 27.328125 10.648438 27.332031 C 10.898438 27.34375 11.128906 27.441406 11.296875 27.609375 C 11.464844 27.777344 11.5625 28.007812 11.574219 28.257812 C 11.578125 28.40625 11.652344 28.542969 11.773438 28.625 C 12.429688 29.078125 13.15625 29.375 13.945312 29.523438 C 14.085938 29.546875 14.242188 29.507812 14.347656 29.40625 C 14.710938 29.070312 15.289062 29.070312 15.652344 29.40625 C 15.742188 29.484375 15.851562 29.53125 15.96875 29.53125 C 16 29.53125 16.027344 29.53125 16.054688 29.523438 C 16.835938 29.375 17.570312 29.070312 18.226562 28.625 C 18.347656 28.542969 18.421875 28.40625 18.425781 28.257812 C 18.4375 28.007812 18.535156 27.777344 18.703125 27.609375 C 18.871094 27.441406 19.101562 27.34375 19.351562 27.332031 C 19.5 27.328125 19.636719 27.253906 19.71875 27.132812 C 20.171875 26.476562 20.46875 25.75 20.617188 24.960938 C 20.644531 24.816406 20.601562 24.664062 20.5 24.558594 C 20.328125 24.375 20.242188 24.144531 20.242188 23.90625 C 20.242188 23.667969 20.335938 23.4375 20.5 23.253906 C 20.597656 23.148438 20.644531 22.996094 20.617188 22.851562 Z M 19.648438 25 C 19.53125 25.503906 19.335938 25.988281 19.058594 26.421875 C 18.671875 26.488281 18.320312 26.671875 18.042969 26.949219 C 17.765625 27.226562 17.582031 27.582031 17.515625 27.96875 C 17.078125 28.242188 16.597656 28.4375 16.09375 28.5625 C 15.773438 28.335938 15.394531 28.214844 15 28.214844 C 14.605469 28.214844 14.230469 28.335938 13.90625 28.5625 C 13.402344 28.445312 12.917969 28.246094 12.484375 27.96875 C 12.417969 27.582031 12.234375 27.230469 11.957031 26.953125 C 11.679688 26.675781 11.324219 26.492188 10.9375 26.429688 C 10.664062 25.988281 10.46875 25.507812 10.34375 25.003906 C 10.570312 24.683594 10.691406 24.304688 10.691406 23.910156 C 10.691406 23.515625 10.570312 23.140625 10.34375 22.820312 C 10.460938 22.3125 10.660156 21.828125 10.9375 21.394531 C 11.324219 21.328125 11.675781 21.144531 11.953125 20.867188 C 12.230469 20.59375 12.414062 20.234375 12.476562 19.847656 C 12.917969 19.574219 13.398438 19.378906 13.902344 19.257812 C 14.539062 19.710938 15.445312 19.710938 16.082031 19.257812 C 16.589844 19.375 17.070312 19.570312 17.507812 19.847656 C 17.574219 20.234375 17.757812 20.585938 18.03125 20.863281 C 18.308594 21.140625 18.664062 21.324219 19.054688 21.390625 C 19.328125 21.828125 19.523438 22.308594 19.644531 22.8125 C 19.421875 23.132812 19.296875 23.511719 19.296875 23.90625 C 19.296875 24.300781 19.421875 24.675781 19.644531 25 Z M 19.648438 25 "/>
<path style=" stroke:none;fill-rule:nonzero;fill:rgb(0%,0%,0%);fill-opacity:1;" d="M 6.5625 15.46875 L 7.5 15.46875 L 7.5 16.40625 L 6.5625 16.40625 Z M 6.5625 15.46875 "/>
<path style=" stroke:none;fill-rule:nonzero;fill:rgb(0%,0%,0%);fill-opacity:1;" d="M 6.5625 13.59375 L 7.5 13.59375 L 7.5 14.53125 L 6.5625 14.53125 Z M 6.5625 13.59375 "/>
<path style=" stroke:none;fill-rule:nonzero;fill:rgb(0%,0%,0%);fill-opacity:1;" d="M 7.96875 17.34375 L 8.90625 17.34375 L 8.90625 18.28125 L 7.96875 18.28125 Z M 7.96875 17.34375 "/>
<path style=" stroke:none;fill-rule:nonzero;fill:rgb(0%,0%,0%);fill-opacity:1;" d="M 9.375 18.75 L 10.3125 18.75 L 10.3125 19.6875 L 9.375 19.6875 Z M 9.375 18.75 "/>
<path style=" stroke:none;fill-rule:nonzero;fill:rgb(0%,0%,0%);fill-opacity:1;" d="M 23.4375 15.9375 L 24.375 15.9375 L 24.375 16.875 L 23.4375 16.875 Z M 23.4375 15.9375 "/>
<path style=" stroke:none;fill-rule:nonzero;fill:rgb(0%,0%,0%);fill-opacity:1;" d="M 22.03125 17.8125 L 22.96875 17.8125 L 22.96875 18.75 L 22.03125 18.75 Z M 22.03125 17.8125 "/>
<path style=" stroke:none;fill-rule:nonzero;fill:rgb(0%,0%,0%);fill-opacity:1;" d="M 20.625 19.21875 L 21.5625 19.21875 L 21.5625 20.15625 L 20.625 20.15625 Z M 20.625 19.21875 "/>
<path style=" stroke:none;fill-rule:nonzero;fill:rgb(0%,0%,0%);fill-opacity:1;" d="M 14.53125 25.78125 L 15.46875 25.78125 L 15.46875 26.71875 L 14.53125 26.71875 Z M 14.53125 25.78125 "/>
</g>
</svg>
