<svg xmlns="http://www.w3.org/2000/svg"  viewBox="0 0 48 48" width="30px" height="30px"><linearGradient id="6hepWvSmV9yb6Yp88c00ba" x1="23" x2="25" y1="5" y2="5" gradientUnits="userSpaceOnUse"><stop offset="0" stop-color="#28afea"/><stop offset="1" stop-color="#0b88da"/></linearGradient><circle cx="24" cy="5" r="1" fill="url(#6hepWvSmV9yb6Yp88c00ba)"/><linearGradient id="6hepWvSmV9yb6Yp88c00bb" x1="14.786" x2="33.076" y1="31.187" y2="49.477" gradientUnits="userSpaceOnUse"><stop offset="0" stop-color="#33bef0"/><stop offset="1" stop-color="#0a85d9"/></linearGradient><path fill="url(#6hepWvSmV9yb6Yp88c00bb)" d="M24,30.571c-8.837,0-16,4.921-16,10.286V42c0,1.105,0.895,2,2,2h28c1.105,0,2-0.895,2-2	v-1.143C40,35.492,32.837,30.571,24,30.571z"/><polygon fill="#d6a121" points="29,31.356 24,37 19,31.356 19,25.965 29,25.965"/><linearGradient id="6hepWvSmV9yb6Yp88c00bc" x1="32.917" x2="34.251" y1="20" y2="20" gradientUnits="userSpaceOnUse"><stop offset="0" stop-color="#c48f0c"/><stop offset=".251" stop-color="#d19b16"/><stop offset=".619" stop-color="#dca51f"/><stop offset="1" stop-color="#e0a922"/></linearGradient><path fill="url(#6hepWvSmV9yb6Yp88c00bc)" d="M32.916,18h-0.527v4h0.703c0.515,0,0.954-0.312,1.041-0.74l0.344-1.703	C34.642,18.743,33.897,18,32.916,18z"/><linearGradient id="6hepWvSmV9yb6Yp88c00bd" x1="-71.083" x2="-69.749" y1="20" y2="20" gradientTransform="matrix(-1 0 0 1 -56 0)" gradientUnits="userSpaceOnUse"><stop offset="0" stop-color="#c48f0c"/><stop offset=".251" stop-color="#d19b16"/><stop offset=".619" stop-color="#dca51f"/><stop offset="1" stop-color="#e0a922"/></linearGradient><path fill="url(#6hepWvSmV9yb6Yp88c00bd)" d="M15.084,18h0.527v4h-0.703c-0.515,0-0.954-0.312-1.041-0.74l-0.344-1.703	C13.358,18.743,14.103,18,15.084,18z"/><radialGradient id="6hepWvSmV9yb6Yp88c00be" cx="-12.518" cy="72.498" r="12.224" gradientTransform="translate(35.037 -45.216) scale(.8816)" gradientUnits="userSpaceOnUse"><stop offset="0" stop-color="#ffcf54"/><stop offset=".261" stop-color="#fdcb4d"/><stop offset=".639" stop-color="#f7c13a"/><stop offset="1" stop-color="#f0b421"/></radialGradient><path fill="url(#6hepWvSmV9yb6Yp88c00be)" d="M24,6.4c-4.441,0-9,0.675-9,10.275c0,0.768,0,5.877,0,6.698C15,26.8,20.4,31,24,31	s9-4.2,9-7.627c0-0.821,0-5.929,0-6.698C33,7.075,28.441,6.4,24,6.4z"/><linearGradient id="6hepWvSmV9yb6Yp88c00bf" x1="21.363" x2="25.354" y1="29.897" y2="43.624" gradientUnits="userSpaceOnUse"><stop offset="0" stop-color="#0d61a9"/><stop offset="1" stop-color="#16528c"/></linearGradient><path fill="url(#6hepWvSmV9yb6Yp88c00bf)" d="M31,33.674V39c0,0.552-0.448,1-1,1H18c-0.552,0-1-0.448-1-1v-7.326	c-1.071,0.351-2.079,0.771-3,1.26V44h20V33.934L31,33.674z"/><rect width="3" height="2" x="31" y="36" fill="#37c6d0"/><rect width="3" height="2" x="14" y="36" fill="#37c6d0"/><radialGradient id="6hepWvSmV9yb6Yp88c00bg" cx="-22.221" cy="64.078" r="25.945" gradientTransform="translate(35.037 -45.216) scale(.8816)" gradientUnits="userSpaceOnUse"><stop offset="0" stop-color="#c26715"/><stop offset=".508" stop-color="#b85515"/><stop offset="1" stop-color="#ad3f16"/></radialGradient><path fill="url(#6hepWvSmV9yb6Yp88c00bg)" d="M24,10.545c-8,0-10,2.491-10,5.455c0,1,0,3,1,4c0-3,1-8,4-8c1.267,0,2.273,2,5,2	c2.303,0,2.875-2,5-2c3,0,4,5,4,8c1-1,1-4,1-4C34,12.57,32,10.545,24,10.545z"/><linearGradient id="6hepWvSmV9yb6Yp88c00bh" x1="24" x2="24" y1="4.517" y2="15.361" gradientUnits="userSpaceOnUse"><stop offset="0" stop-color="#0078d3"/><stop offset="1" stop-color="#0858a1"/></linearGradient><path fill="url(#6hepWvSmV9yb6Yp88c00bh)" d="M24,5c-9,0-10,6.959-10,8.143V16c0,0,1-1,10-1s10,1,10,1v-2.857C34,11.959,33,5,24,5z"/><linearGradient id="6hepWvSmV9yb6Yp88c00bi" x1="24" x2="24" y1="4.807" y2="15.035" gradientUnits="userSpaceOnUse"><stop offset="0" stop-color="#28afea"/><stop offset="1" stop-color="#0b88da"/></linearGradient><path fill="url(#6hepWvSmV9yb6Yp88c00bi)" d="M24,5c-3.6,0-4,6.959-4,8.143V15h8v-1.857C28,11.959,27.6,5,24,5z"/><linearGradient id="6hepWvSmV9yb6Yp88c00bj" x1="24" x2="24" y1="12.841" y2="17.853" gradientUnits="userSpaceOnUse"><stop offset="0" stop-color="#28afea"/><stop offset="1" stop-color="#0b88da"/></linearGradient><path fill="url(#6hepWvSmV9yb6Yp88c00bj)" d="M24,13c-6,0-8.75,2.149-10,3c1,1.48,1.922,2,2.618,2l0,0c0.473,0,1.381-1,7.381-1	s6.859,1,7.334,1C32.025,18,33,17.48,34,16C33.028,15.169,30,13,24,13z"/><linearGradient id="6hepWvSmV9yb6Yp88c00bk" x1="31.735" x2="47.15" y1="32.004" y2="47.877" gradientUnits="userSpaceOnUse"><stop offset="0" stop-color="#ffd869"/><stop offset="1" stop-color="#fec52b"/></linearGradient><path fill="url(#6hepWvSmV9yb6Yp88c00bk)" d="M47,48H32c-0.55,0-1-0.45-1-1V33c0-0.55,0.45-1,1-1h15c0.55,0,1,0.45,1,1v14	C48,47.55,47.55,48,47,48z"/><path fill="#fff8e6" d="M37,32h5v3h-5V32z"/><rect width="6" height="1" x="40" y="45" fill="#6b5f41"/><polygon fill="#6b5f41" points="45.5,42.5 44.5,41.5 43.5,42.5 44,42.5 44,44 45,44 45,42.5"/><polygon fill="#6b5f41" points="42.5,42.5 41.5,41.5 40.5,42.5 41,42.5 41,44 42,44 42,42.5"/></svg>