<?xml version="1.0" encoding="utf-8"?>
<!-- Generator: Adobe Illustrator 24.0.2, SVG Export Plug-In . SVG Version: 6.00 Build 0)  -->
<svg version="1.1" id="Layer_1" xmlns="http://www.w3.org/2000/svg" xmlns:xlink="http://www.w3.org/1999/xlink" x="0px" y="0px"
	 viewBox="0 0 512 512" enable-background="new 0 0 512 512" xml:space="preserve">
<g>
	<g>
		<g>
			<path fill="#768296" d="M83.4,241.3c0-97.9,79.3-177.2,177.2-177.2V35.3c-113.6,0-206,92.4-206,206c0,113.6,92.4,206,206,206
				v-28.9C162.8,418.5,83.4,339.2,83.4,241.3z"/>
			<path fill="#FFFFFF" d="M83.4,241.3c0,97.9,79.3,177.2,177.2,177.2v-28.8c-81.8,0-148.3-66.5-148.3-148.4
				c0-81.8,66.6-148.4,148.3-148.4V64.2C162.8,64.2,83.4,143.5,83.4,241.3z"/>
			<path fill="#768296" d="M141.1,241.3c0-65.9,53.6-119.5,119.5-119.5V93c-81.8,0-148.3,66.5-148.3,148.4
				c0,81.8,66.6,148.4,148.3,148.4v-28.9C194.7,360.8,141.1,307.2,141.1,241.3z"/>
			<path fill="#FFFFFF" d="M141.1,241.3c0,65.9,53.6,119.5,119.5,119.5V332c-50,0-90.7-40.7-90.7-90.7c0-50,40.7-90.7,90.7-90.7
				v-28.9C194.7,121.8,141.1,175.4,141.1,241.3z"/>
			<path fill="#768296" d="M198.8,241.3c0-34.1,27.7-61.8,61.8-61.8v-28.8c-50,0-90.7,40.7-90.7,90.7c0,50,40.7,90.7,90.7,90.7
				v-28.8C226.5,303.2,198.8,275.4,198.8,241.3z"/>
			<path fill="#FFFFFF" d="M198.8,241.3c0,34.1,27.7,61.8,61.8,61.8v-28.9c-18.2,0-33-14.8-33-33s14.8-33,33-33v-28.8
				C226.5,179.5,198.8,207.3,198.8,241.3z"/>
			<path fill="#768296" d="M227.7,241.3c0,18.2,14.8,33,33,33v-65.9C242.4,208.4,227.7,223.2,227.7,241.3z"/>
			<path fill="#768296" d="M260.6,35.3v28.9c97.9,0,177.2,79.3,177.2,177.2c0,97.9-79.3,177.2-177.2,177.2v28.9
				c113.6,0,206-92.4,206-206C466.7,127.7,374.2,35.3,260.6,35.3z"/>
			<path fill="#FFFFFF" d="M409,241.3c0,81.8-66.6,148.4-148.4,148.4v28.8c97.9,0,177.2-79.3,177.2-177.2
				c0-97.9-79.3-177.2-177.2-177.2V93C342.4,93,409,159.5,409,241.3z"/>
			<path fill="#768296" d="M409,241.3C409,159.5,342.4,93,260.6,93v28.8c65.9,0,119.5,53.6,119.5,119.5
				c0,65.9-53.6,119.5-119.5,119.5v28.9C342.4,389.7,409,323.2,409,241.3z"/>
			<path fill="#FFFFFF" d="M351.3,241.3c0,50-40.6,90.7-90.6,90.7v28.8c65.9,0,119.5-53.6,119.5-119.5
				c0-65.9-53.6-119.5-119.5-119.5v28.9C310.6,150.7,351.3,191.3,351.3,241.3z"/>
			<path fill="#768296" d="M351.3,241.3c0-50-40.6-90.7-90.6-90.7v28.8c34.1,0,61.8,27.7,61.8,61.8c0,34.1-27.7,61.8-61.8,61.8V332
				C310.6,332,351.3,291.3,351.3,241.3z"/>
			<path fill="#FFFFFF" d="M293.6,241.3c0,18.2-14.8,33-33,33v28.9c34.1,0,61.8-27.7,61.8-61.8c0-34.1-27.7-61.8-61.8-61.8v28.8
				C278.8,208.4,293.6,223.2,293.6,241.3z"/>
			<path fill="#768296" d="M293.6,241.3c0-18.2-14.8-33-33-33v65.9C278.8,274.3,293.6,259.5,293.6,241.3z"/>
		</g>
		<g>
			<path fill="#FFA229" d="M260.5,243.9c-18.1-27.1-50.4-57.8-50.4-57.8l-4.9,5.2l-4.9,5.2C200.2,196.5,232.5,227.2,260.5,243.9z"/>
			<path fill="#FFA229" d="M207.8,193.9c0,0,7.7-6.8,4.3-10L156,130.6L142,145.4l56.2,53.3C201.5,201.9,207.8,193.9,207.8,193.9z"/>
			<polygon fill="#FFA229" points="93.5,99.4 107.6,84.6 176.8,150.3 162.7,165.1 			"/>
			<path fill="#1C4670" d="M109.2,100.1c0,0,22.7-34.5,2.2-53.8C96.2,32.1,58.6-5.4,23.9,19.2C1.2,55.1,40.5,90.7,55.6,105.1
				C75.9,124.6,109.2,100.1,109.2,100.1z"/>
			<g>
				<path fill="#FFFFFF" d="M73.1,17.3c-2.8-1.4-5.8-2.6-8.7-3.6l2.1,45.8l-45.9,0.3c1.1,2.9,2.5,5.8,4,8.6l50.8-0.3L73.1,17.3z"/>
				<path fill="#FFFFFF" d="M93.6,85.4l-2.6-56.8c-3.4-2.6-7.1-5.2-10.9-7.5l2.4,53.8l-53.8,0.3c2.5,3.7,5.2,7.2,8,10.5L93.6,85.4z"
					/>
			</g>
		</g>
		<g>
			<path fill="#FFA229" d="M256.7,252.9c-22.6-12.2-56.5-21.7-56.5-21.7l-1.5,5.4l-1.5,5.4C197.2,242.1,231,251.6,256.7,252.9z"/>
			<path fill="#FFA229" d="M201.5,237.4c0,0,2.9-7.6-0.6-8.6L142,212.3l-4.4,15.5l58.8,16.5C200,245.4,201.5,237.4,201.5,237.4z"/>
			<polygon fill="#FFA229" points="86.9,213.6 91.3,198.1 163.8,218.4 159.4,234 			"/>
			<path fill="#1C4670" d="M98.1,208.4c0,0,3.1-32.4-18.3-38.3c-15.8-4.4-55.8-16.7-71,13.2c-2.6,33.4,38,43.8,53.8,48.3
				C83.9,237.7,98.1,208.4,98.1,208.4z"/>
			<g>
				<path fill="#FFFFFF" d="M42.4,163.9c-2.5,0.1-5,0.3-7.4,0.7l18.3,31.2l-31.9,17.1c1.9,1.6,3.9,3.1,6,4.5l35.3-18.9L42.4,163.9z"
					/>
				<path fill="#FFFFFF" d="M81.9,203.8l-22.7-38.7c-3.3-0.6-6.8-1-10.3-1.2l21.5,36.6l-37.4,20.1c3.1,1.7,6.3,3.1,9.4,4.4
					L81.9,203.8z"/>
			</g>
		</g>
		<g>
			<path fill="#FFA229" d="M263.7,247c16.3-24.3,45.2-51.8,45.2-51.8l4.4,4.7l4.4,4.6C317.8,204.5,288.8,232,263.7,247z"/>
			<path fill="#FFA229" d="M311,202.1c0,0-6.9-6.1-3.9-8.9l50.3-47.8l12.6,13.3l-50.4,47.8C316.7,209.3,311,202.1,311,202.1z"/>
			<polygon fill="#FFA229" points="413.5,117.4 400.9,104.1 338.8,163 351.4,176.3 			"/>
			<path fill="#1C4670" d="M399.5,118c0,0-20.3-30.9-2-48.2c13.6-12.8,47.3-46.4,78.4-24.4c20.4,32.2-14.9,64.1-28.4,77
				C429.3,140,399.5,118,399.5,118z"/>
			<g>
				<path fill="#FFFFFF" d="M431.8,43.8c2.6-1.2,5.2-2.3,7.8-3.2l-1.9,41.1l41.1,0.3c-1,2.6-2.2,5.2-3.6,7.7l-45.5-0.3L431.8,43.8z"
					/>
				<path fill="#FFFFFF" d="M413.4,104.8l2.3-50.9c3.1-2.3,6.3-4.6,9.8-6.7l-2.2,48.2l48.2,0.3c-2.2,3.3-4.7,6.5-7.2,9.4
					L413.4,104.8z"/>
			</g>
		</g>
	</g>
	<g>
		<polygon fill="#FFA229" points="299.3,330.8 262,284.3 224.9,330.8 243.5,330.8 243.5,471 280.7,471 280.6,330.8 		"/>
		<polygon fill="#FCD751" points="345.6,365.4 317.6,330.5 289.6,365.4 303.6,365.4 303.7,470.9 331.6,470.9 331.6,365.4 		"/>
		<polygon fill="#FCD751" points="178.6,365.7 206.5,330.8 234.5,365.7 220.5,365.7 220.6,471.2 192.6,471.2 192.6,365.7 		"/>
	</g>
	<path fill="#1C4670" d="M434.8,403c-20.3-17.9,30.4-84.1,15.5-132.9c-18.9-62.2-99.5-51.5-97.8-39.6c0.7,4.7,11.7,19.6,11.7,19.6
		s-23.3,21.7-34.4,35.5c-6.8,8.4-13.6,18.9,0,27.5c17,10.7,24.3,0.4,39.2-9.2c2.9-1.8,5.5-2.6,7.7-2.5l0,0c1.3,0,2.3,0.4,3.3,0.8
		c1.8,0.8,3.3,2.4,4.6,4.3c3.9,9.1-2.2,28.5-19.2,45.2c-23,22.6-20.5,57.1-20.5,57.1c-17.4,14.5-31.5,25.3-31.5,62.4h31.7h6.6h41.5
		h79.8C473.1,429.3,455.2,421,434.8,403z"/>
</g>
</svg>
