<?xml version="1.0" encoding="UTF-8"?>
<svg xmlns="http://www.w3.org/2000/svg" xmlns:xlink="http://www.w3.org/1999/xlink" width="128px" height="128px" viewBox="0 0 128 128" version="1.1">
<g id="surface1">
<path style=" stroke:none;fill-rule:nonzero;fill:rgb(68.235294%,74.901961%,80.784314%);fill-opacity:1;" d="M 31.699219 23.550781 C 31.574219 24.125 31.800781 24.675781 32.226562 24.773438 L 36.300781 25.699219 C 36.726562 25.800781 37.175781 25.425781 37.300781 24.824219 L 38.050781 21.550781 C 38.175781 20.976562 37.949219 20.425781 37.523438 20.324219 L 33.449219 19.375 C 33.023438 19.273438 32.574219 19.675781 32.449219 20.25 Z M 31.699219 23.550781 "/>
<path style=" stroke:none;fill-rule:nonzero;fill:rgb(68.235294%,74.901961%,80.784314%);fill-opacity:1;" d="M 24.351562 55.476562 C 24.476562 54.898438 24.925781 54.523438 25.351562 54.601562 L 29.425781 55.550781 C 29.851562 55.648438 30.074219 56.199219 29.949219 56.773438 L 29.199219 60.050781 C 29.074219 60.625 28.625 61 28.175781 60.898438 L 24.101562 59.949219 C 23.675781 59.851562 23.425781 59.300781 23.574219 58.726562 Z M 24.351562 55.476562 "/>
<path style=" stroke:none;fill-rule:nonzero;fill:rgb(68.235294%,74.901961%,80.784314%);fill-opacity:1;" d="M 39.875 26.199219 C 39.476562 26.625 39.398438 27.226562 39.726562 27.523438 L 42.773438 30.375 C 43.101562 30.675781 43.675781 30.574219 44.074219 30.125 L 46.375 27.675781 C 46.773438 27.25 46.851562 26.648438 46.523438 26.351562 L 43.5 23.5 C 43.175781 23.199219 42.601562 23.300781 42.199219 23.75 Z M 39.875 26.199219 "/>
<path style=" stroke:none;fill-rule:nonzero;fill:rgb(68.235294%,74.901961%,80.784314%);fill-opacity:1;" d="M 17.550781 50.175781 C 17.949219 49.75 18.550781 49.625 18.851562 49.925781 L 21.898438 52.773438 C 22.226562 53.074219 22.148438 53.648438 21.75 54.101562 L 19.449219 56.550781 C 19.050781 56.976562 18.449219 57.101562 18.148438 56.800781 L 15.101562 53.949219 C 14.773438 53.648438 14.851562 53.074219 15.25 52.625 Z M 17.550781 50.175781 "/>
<path style=" stroke:none;fill-rule:nonzero;fill:rgb(68.235294%,74.901961%,80.784314%);fill-opacity:1;" d="M 45.648438 32.601562 C 45.074219 32.773438 44.726562 33.25 44.851562 33.675781 L 46.074219 37.675781 C 46.199219 38.101562 46.773438 38.273438 47.324219 38.101562 L 50.550781 37.125 C 51.125 36.949219 51.476562 36.476562 51.351562 36.050781 L 50.125 32.050781 C 50 31.625 49.425781 31.425781 48.875 31.601562 Z M 45.648438 32.601562 "/>
<path style=" stroke:none;fill-rule:nonzero;fill:rgb(68.235294%,74.901961%,80.784314%);fill-opacity:1;" d="M 14.324219 42.199219 C 14.898438 42.023438 15.449219 42.226562 15.574219 42.648438 L 16.800781 46.648438 C 16.925781 47.074219 16.574219 47.550781 16 47.726562 L 12.773438 48.699219 C 12.199219 48.875 11.648438 48.675781 11.523438 48.25 L 10.300781 44.25 C 10.175781 43.824219 10.523438 43.351562 11.074219 43.175781 Z M 14.324219 42.199219 "/>
<path style=" stroke:none;fill-rule:nonzero;fill:rgb(68.235294%,74.901961%,80.784314%);fill-opacity:1;" d="M 47.425781 41.023438 C 46.851562 40.898438 46.300781 41.125 46.199219 41.550781 L 45.273438 45.625 C 45.175781 46.050781 45.550781 46.5 46.148438 46.625 L 49.425781 47.375 C 50 47.5 50.550781 47.273438 50.648438 46.851562 L 51.574219 42.773438 C 51.675781 42.351562 51.273438 41.898438 50.699219 41.773438 Z M 47.425781 41.023438 "/>
<path style=" stroke:none;fill-rule:nonzero;fill:rgb(68.235294%,74.901961%,80.784314%);fill-opacity:1;" d="M 15.5 33.675781 C 16.074219 33.800781 16.476562 34.25 16.375 34.675781 L 15.425781 38.75 C 15.324219 39.175781 14.773438 39.425781 14.199219 39.273438 L 10.925781 38.523438 C 10.351562 38.375 9.976562 37.925781 10.074219 37.5 L 11.023438 33.425781 C 11.125 33 11.675781 32.773438 12.25 32.898438 Z M 15.5 33.675781 "/>
<path style=" stroke:none;fill-rule:nonzero;fill:rgb(68.235294%,74.901961%,80.784314%);fill-opacity:1;" d="M 44.773438 49.226562 C 44.351562 48.824219 43.75 48.75 43.476562 49.074219 L 40.625 52.125 C 40.324219 52.449219 40.425781 53.023438 40.875 53.425781 L 43.351562 55.726562 C 43.773438 56.125 44.375 56.199219 44.675781 55.875 L 47.523438 52.824219 C 47.824219 52.5 47.726562 51.925781 47.273438 51.523438 Z M 44.773438 49.226562 "/>
<path style=" stroke:none;fill-rule:nonzero;fill:rgb(68.235294%,74.901961%,80.784314%);fill-opacity:1;" d="M 20.800781 26.898438 C 21.226562 27.300781 21.351562 27.898438 21.050781 28.199219 L 18.199219 31.25 C 17.898438 31.574219 17.300781 31.5 16.875 31.101562 L 14.425781 28.800781 C 14 28.398438 13.898438 27.824219 14.175781 27.5 L 17.023438 24.449219 C 17.324219 24.125 17.898438 24.199219 18.351562 24.601562 Z M 20.800781 26.898438 "/>
<path style=" stroke:none;fill-rule:nonzero;fill:rgb(68.235294%,74.901961%,80.784314%);fill-opacity:1;" d="M 38.375 54.976562 C 38.199219 54.425781 37.726562 54.050781 37.300781 54.175781 L 33.300781 55.398438 C 32.875 55.523438 32.675781 56.101562 32.851562 56.648438 L 33.824219 59.875 C 34 60.425781 34.476562 60.800781 34.898438 60.648438 L 38.898438 59.425781 C 39.324219 59.300781 39.5 58.726562 39.351562 58.175781 Z M 38.375 54.976562 "/>
<path style=" stroke:none;fill-rule:nonzero;fill:rgb(68.235294%,74.901961%,80.784314%);fill-opacity:1;" d="M 28.773438 23.648438 C 28.949219 24.226562 28.75 24.773438 28.324219 24.898438 L 24.324219 26.125 C 23.898438 26.25 23.425781 25.898438 23.25 25.351562 L 22.273438 22.125 C 22.101562 21.550781 22.300781 21 22.726562 20.875 L 26.726562 19.648438 C 27.148438 19.523438 27.625 19.875 27.800781 20.449219 Z M 28.773438 23.648438 "/>
<path style=" stroke:none;fill-rule:nonzero;fill:rgb(68.235294%,74.901961%,80.784314%);fill-opacity:1;" d="M 13.675781 36.199219 C 11.5 45.675781 17.398438 55.125 26.875 57.300781 C 36.351562 59.476562 45.800781 53.550781 47.976562 44.101562 C 50.148438 34.625 44.25 25.175781 34.773438 23 C 25.300781 20.824219 15.851562 26.75 13.675781 36.199219 Z M 19.523438 37.550781 C 20.976562 31.300781 27.175781 27.425781 33.425781 28.851562 C 39.648438 30.300781 43.550781 36.5 42.125 42.75 C 40.675781 49 34.476562 52.875 28.226562 51.449219 C 21.976562 50 18.101562 43.800781 19.523438 37.550781 Z M 19.523438 37.550781 "/>
<path style=" stroke:none;fill-rule:nonzero;fill:rgb(46.27451%,50.980392%,58.823529%);fill-opacity:1;" d="M 6.625 63.300781 C 3.476562 67.949219 4.699219 74.300781 9.351562 77.449219 C 14.023438 80.601562 20.351562 79.375 23.5 74.726562 C 26.648438 70.050781 25.425781 63.726562 20.773438 60.574219 C 16.101562 57.398438 9.773438 58.648438 6.625 63.300781 Z M 9.5 65.25 C 11.574219 62.175781 15.75 61.375 18.824219 63.449219 C 21.898438 65.523438 22.699219 69.699219 20.625 72.773438 C 18.550781 75.851562 14.375 76.648438 11.300781 74.574219 C 8.226562 72.5 7.425781 68.324219 9.5 65.25 Z M 9.5 65.25 "/>
<path style=" stroke:none;fill-rule:nonzero;fill:rgb(46.27451%,50.980392%,58.823529%);fill-opacity:1;" d="M 18.324219 60.101562 C 18.125 60.375 18.199219 60.773438 18.5 60.976562 L 21.226562 62.824219 C 21.5 63.023438 21.898438 62.949219 22.101562 62.648438 L 23.199219 61.023438 C 23.398438 60.726562 23.324219 60.351562 23.023438 60.148438 L 20.300781 58.300781 C 20.023438 58.101562 19.625 58.175781 19.425781 58.476562 Z M 18.324219 60.101562 "/>
<path style=" stroke:none;fill-rule:nonzero;fill:rgb(46.27451%,50.980392%,58.823529%);fill-opacity:1;" d="M 8.023438 75.351562 C 8.226562 75.074219 8.601562 75 8.898438 75.175781 L 11.625 77.023438 C 11.898438 77.226562 11.976562 77.601562 11.800781 77.898438 L 10.699219 79.523438 C 10.5 79.824219 10.125 79.898438 9.824219 79.699219 L 7.101562 77.851562 C 6.824219 77.648438 6.75 77.273438 6.925781 76.976562 Z M 8.023438 75.351562 "/>
<path style=" stroke:none;fill-rule:nonzero;fill:rgb(46.27451%,50.980392%,58.823529%);fill-opacity:1;" d="M 23.675781 65.023438 C 23.324219 65.101562 23.101562 65.425781 23.175781 65.75 L 23.800781 69 C 23.875 69.351562 24.199219 69.550781 24.523438 69.5 L 26.449219 69.125 C 26.800781 69.050781 27 68.726562 26.949219 68.398438 L 26.324219 65.148438 C 26.25 64.800781 25.925781 64.601562 25.601562 64.648438 Z M 23.675781 65.023438 "/>
<path style=" stroke:none;fill-rule:nonzero;fill:rgb(46.27451%,50.980392%,58.823529%);fill-opacity:1;" d="M 5.574219 68.523438 C 5.925781 68.449219 6.25 68.675781 6.300781 69.023438 L 6.925781 72.273438 C 7 72.601562 6.773438 72.949219 6.425781 73 L 4.5 73.375 C 4.175781 73.449219 3.824219 73.226562 3.773438 72.875 L 3.148438 69.648438 C 3.074219 69.300781 3.300781 68.976562 3.648438 68.925781 Z M 5.574219 68.523438 "/>
<path style=" stroke:none;fill-rule:nonzero;fill:rgb(46.27451%,50.980392%,58.823529%);fill-opacity:1;" d="M 23.949219 72.273438 C 23.675781 72.101562 23.273438 72.148438 23.101562 72.449219 L 21.25 75.175781 C 21.050781 75.449219 21.125 75.851562 21.425781 76.050781 L 23.050781 77.148438 C 23.324219 77.351562 23.726562 77.273438 23.898438 76.976562 L 25.75 74.25 C 25.949219 73.976562 25.875 73.574219 25.574219 73.375 Z M 23.949219 72.273438 "/>
<path style=" stroke:none;fill-rule:nonzero;fill:rgb(46.27451%,50.980392%,58.823529%);fill-opacity:1;" d="M 8.699219 61.976562 C 8.976562 62.175781 9.050781 62.550781 8.875 62.851562 L 7.023438 65.574219 C 6.824219 65.851562 6.449219 65.925781 6.148438 65.75 L 4.523438 64.648438 C 4.226562 64.449219 4.148438 64.074219 4.351562 63.773438 L 6.199219 61.050781 C 6.398438 60.773438 6.773438 60.699219 7.050781 60.875 Z M 8.699219 61.976562 "/>
<path style=" stroke:none;fill-rule:nonzero;fill:rgb(46.27451%,50.980392%,58.823529%);fill-opacity:1;" d="M 19.023438 77.625 C 18.949219 77.273438 18.625 77.074219 18.300781 77.125 L 15.050781 77.75 C 14.726562 77.824219 14.5 78.148438 14.550781 78.476562 L 14.925781 80.398438 C 15 80.75 15.324219 80.949219 15.648438 80.898438 L 18.898438 80.273438 C 19.25 80.199219 19.449219 79.875 19.398438 79.550781 Z M 19.023438 77.625 "/>
<path style=" stroke:none;fill-rule:nonzero;fill:rgb(46.27451%,50.980392%,58.823529%);fill-opacity:1;" d="M 15.550781 59.523438 C 15.625 59.851562 15.398438 60.199219 15.050781 60.25 L 11.824219 60.875 C 11.476562 60.949219 11.148438 60.726562 11.101562 60.375 L 10.726562 58.449219 C 10.675781 58.101562 10.875 57.773438 11.226562 57.726562 L 14.476562 57.101562 C 14.824219 57.023438 15.148438 57.25 15.199219 57.601562 Z M 15.550781 59.523438 "/>
<path style=" stroke:none;fill-rule:nonzero;fill:rgb(46.666667%,81.568627%,87.058824%);fill-opacity:1;" d="M 105.75 37.273438 C 80.699219 44.273438 66.648438 14.148438 66.648438 14.148438 C 66.648438 14.148438 52.625 44.300781 27.550781 37.273438 C 27.550781 37.273438 20.523438 98.425781 66.648438 114.449219 C 112.773438 98.425781 105.75 37.273438 105.75 37.273438 Z M 105.75 37.273438 "/>
<path style=" stroke:none;fill-rule:nonzero;fill:rgb(100%,63.529412%,16.078431%);fill-opacity:1;" d="M 66.675781 105.523438 C 36.398438 93.976562 34.550781 57.75 34.949219 44.625 C 35.949219 44.726562 36.949219 44.773438 37.925781 44.773438 C 52.023438 44.773438 61.648438 34.226562 66.675781 26.800781 C 71.699219 34.226562 81.300781 44.773438 95.425781 44.773438 C 96.398438 44.773438 97.398438 44.726562 98.398438 44.625 C 98.75 57.773438 96.898438 94 66.675781 105.523438 Z M 66.675781 105.523438 "/>
<path style=" stroke:none;fill-rule:nonzero;fill:rgb(46.27451%,50.980392%,58.823529%);fill-opacity:1;" d="M 113.976562 96.875 C 113.976562 106.324219 106.324219 113.949219 96.898438 113.949219 C 87.449219 113.949219 79.824219 106.300781 79.824219 96.875 C 79.824219 87.449219 87.476562 79.800781 96.898438 79.800781 C 106.300781 79.800781 113.976562 87.449219 113.976562 96.875 Z M 113.976562 96.875 "/>
<path style=" stroke:none;fill-rule:nonzero;fill:rgb(98.823529%,84.313725%,31.764706%);fill-opacity:1;" d="M 85.898438 88.75 L 98.175781 104.949219 L 108.324219 93.726562 L 98.175781 98.425781 Z M 85.898438 88.75 "/>
<path style=" stroke:none;fill-rule:nonzero;fill:rgb(98.823529%,84.313725%,31.764706%);fill-opacity:1;" d="M 67.023438 66.175781 L 36.726562 66.175781 C 39.773438 81.125 47.523438 98.25 66.648438 105.523438 C 66.773438 105.476562 66.875 105.425781 67 105.375 L 67 66.175781 Z M 67.023438 66.175781 "/>
<path style=" stroke:none;fill-rule:nonzero;fill:rgb(98.823529%,84.313725%,31.764706%);fill-opacity:1;" d="M 95.476562 44.800781 C 96.425781 44.800781 97.398438 44.75 98.398438 44.648438 C 98.550781 49.574219 98.375 57.75 96.550781 66.648438 L 67.023438 66.648438 L 67.023438 27.351562 C 67.148438 27.175781 66.550781 27 66.675781 26.824219 C 71.574219 34.25 81.699219 44.800781 95.476562 44.800781 Z M 95.476562 44.800781 "/>
<path style=" stroke:none;fill-rule:nonzero;fill:rgb(100%,63.529412%,16.078431%);fill-opacity:1;" d="M 112.75 66.023438 L 120.925781 66.023438 L 120.925781 75.851562 L 112.75 75.851562 Z M 112.75 66.023438 "/>
<path style=" stroke:none;fill-rule:nonzero;fill:rgb(100%,63.529412%,16.078431%);fill-opacity:1;" d="M 124.75 66.773438 L 108.925781 66.773438 L 116.824219 56.398438 Z M 124.75 66.773438 "/>
<path style=" stroke:none;fill-rule:nonzero;fill:rgb(100%,63.529412%,16.078431%);fill-opacity:1;" d="M 94.300781 24.25 L 100.074219 24.25 L 100.074219 31.175781 L 94.300781 31.175781 Z M 94.300781 24.25 "/>
<path style=" stroke:none;fill-rule:nonzero;fill:rgb(100%,63.529412%,16.078431%);fill-opacity:1;" d="M 102.75 24.773438 L 91.601562 24.773438 L 97.175781 17.449219 Z M 102.75 24.773438 "/>
<path style=" stroke:none;fill-rule:nonzero;fill:rgb(100%,63.529412%,16.078431%);fill-opacity:1;" d="M 25.199219 97.101562 L 32.550781 97.101562 L 32.550781 105.925781 L 25.199219 105.925781 Z M 25.199219 97.101562 "/>
<path style=" stroke:none;fill-rule:nonzero;fill:rgb(100%,63.529412%,16.078431%);fill-opacity:1;" d="M 35.976562 97.773438 L 21.773438 97.773438 L 28.875 88.449219 Z M 35.976562 97.773438 "/>
</g>
</svg>
