<?xml version="1.0" encoding="UTF-8"?>
<svg xmlns="http://www.w3.org/2000/svg" xmlns:xlink="http://www.w3.org/1999/xlink" width="128px" height="128px" viewBox="0 0 128 128" version="1.1">
<g id="surface1">
<path style=" stroke:none;fill-rule:nonzero;fill:rgb(94.901961%,94.901961%,94.901961%);fill-opacity:1;" d="M 62.425781 4.675781 C 29.5 4.675781 2.824219 31.375 2.824219 64.300781 C 2.824219 97.226562 29.523438 123.925781 62.449219 123.925781 C 95.375 123.925781 122.074219 97.226562 122.074219 64.300781 C 122.050781 31.375 95.351562 4.675781 62.425781 4.675781 Z M 62.425781 109.75 C 37.324219 109.75 16.976562 89.398438 16.976562 64.300781 C 16.976562 39.199219 37.324219 18.851562 62.425781 18.851562 C 87.523438 18.851562 107.875 39.199219 107.875 64.300781 C 107.875 89.398438 87.523438 109.75 62.425781 109.75 Z M 62.425781 109.75 "/>
<path style=" stroke:none;fill-rule:nonzero;fill:rgb(80.392157%,80%,79.215686%);fill-opacity:1;" d="M 95.824219 64.300781 C 95.824219 82.75 80.875 97.699219 62.425781 97.699219 C 43.976562 97.699219 29.023438 82.75 29.023438 64.300781 C 29.023438 45.851562 43.976562 30.898438 62.425781 30.898438 C 80.875 30.898438 95.824219 45.851562 95.824219 64.300781 Z M 95.824219 64.300781 "/>
<path style=" stroke:none;fill-rule:nonzero;fill:rgb(100%,100%,100%);fill-opacity:1;" d="M 85.476562 64.300781 C 85.476562 77.023438 75.148438 87.351562 62.425781 87.351562 C 49.699219 87.351562 39.375 77.023438 39.375 64.300781 C 39.375 51.574219 49.699219 41.25 62.425781 41.25 C 75.148438 41.25 85.476562 51.574219 85.476562 64.300781 Z M 85.476562 64.300781 "/>
<path style=" stroke:none;fill-rule:nonzero;fill:rgb(20.784314%,24.705882%,28.627451%);fill-opacity:1;" d="M 61.574219 69.601562 L 28.949219 50.773438 L 31.976562 45.523438 L 61.601562 62.625 L 104.351562 38.050781 L 107.375 43.300781 Z M 61.574219 69.601562 "/>
<path style=" stroke:none;fill-rule:nonzero;fill:rgb(96.862745%,48.235294%,33.333333%);fill-opacity:1;" d="M 73.851562 64.300781 C 73.851562 70.601562 68.75 75.726562 62.425781 75.726562 C 56.101562 75.726562 51 70.625 51 64.300781 C 51 58 56.101562 52.875 62.425781 52.875 C 68.75 52.875 73.851562 58 73.851562 64.300781 Z M 73.851562 64.300781 "/>
<path style=" stroke:none;fill-rule:nonzero;fill:rgb(94.901961%,94.901961%,94.901961%);fill-opacity:1;" d="M 62.425781 18.851562 C 87.523438 18.851562 107.875 39.199219 107.875 64.300781 C 107.875 70.175781 106.75 75.800781 104.699219 80.949219 L 117.898438 86.148438 C 120.574219 79.375 122.023438 72 122.023438 64.300781 C 122.023438 31.375 95.324219 4.675781 62.398438 4.675781 C 61.773438 4.675781 61.125 4.699219 60.5 4.699219 L 60.949219 18.875 C 61.476562 18.875 61.949219 18.851562 62.425781 18.851562 Z M 62.425781 18.851562 "/>
<path style=" stroke:none;fill-rule:nonzero;fill:rgb(98.823529%,84.313725%,31.764706%);fill-opacity:1;" d="M 43.449219 105.601562 C 29.375 99.125 19.199219 85.675781 17.324219 69.675781 L 3.25 71.351562 C 5.726562 92.324219 19.074219 109.976562 37.523438 118.476562 Z M 43.449219 105.601562 "/>
<path style=" stroke:none;fill-rule:nonzero;fill:rgb(20.784314%,24.705882%,28.627451%);fill-opacity:1;" d="M 62.425781 109.75 C 55.648438 109.75 49.226562 108.25 43.425781 105.601562 L 37.5 118.476562 C 45.074219 121.976562 53.523438 123.925781 62.398438 123.925781 C 69.523438 123.925781 76.351562 122.675781 82.699219 120.375 L 77.875 107.050781 C 73.074219 108.800781 67.851562 109.75 62.425781 109.75 Z M 62.425781 109.75 "/>
<path style=" stroke:none;fill-rule:nonzero;fill:rgb(100%,63.529412%,16.078431%);fill-opacity:1;" d="M 16.976562 64.300781 C 16.976562 39.675781 36.550781 19.648438 60.976562 18.875 L 60.523438 4.699219 C 28.476562 5.726562 2.824219 32 2.824219 64.300781 C 2.824219 66.675781 2.976562 69.023438 3.25 71.351562 L 17.324219 69.675781 C 17.101562 67.898438 16.976562 66.125 16.976562 64.300781 Z M 16.976562 64.300781 "/>
<path style=" stroke:none;fill-rule:nonzero;fill:rgb(57.254902%,87.843137%,91.764706%);fill-opacity:1;" d="M 93.601562 97.351562 L 103.324219 107.675781 C 109.648438 101.699219 114.675781 94.375 117.898438 86.148438 L 104.699219 80.949219 C 102.25 87.226562 98.425781 92.824219 93.601562 97.351562 Z M 93.601562 97.351562 "/>
<path style=" stroke:none;fill-rule:nonzero;fill:rgb(96.862745%,48.235294%,33.333333%);fill-opacity:1;" d="M 107.226562 18.824219 L 108.273438 11.25 L 120.351562 3.625 L 118.175781 11.648438 Z M 107.226562 18.824219 "/>
<path style=" stroke:none;fill-rule:nonzero;fill:rgb(96.862745%,48.235294%,33.333333%);fill-opacity:1;" d="M 107.824219 19.925781 L 115.125 22.125 L 127.101562 14.324219 L 118.875 12.949219 Z M 107.824219 19.925781 "/>
<path style=" stroke:none;fill-rule:nonzero;fill:rgb(20.784314%,24.705882%,28.627451%);fill-opacity:1;" d="M 118.171875 11.640625 L 119.003906 12.921875 L 74.808594 41.722656 L 73.976562 40.445312 Z M 118.171875 11.640625 "/>
</g>
</svg>
