<?xml version="1.0" encoding="UTF-8"?>
<svg xmlns="http://www.w3.org/2000/svg" xmlns:xlink="http://www.w3.org/1999/xlink" width="112px" height="132px" viewBox="0 0 112 132" version="1.1">
<g id="surface1">
<path style=" stroke:none;fill-rule:nonzero;fill:rgb(98.823529%,84.313725%,31.764706%);fill-opacity:1;" d="M 68.269531 39.292969 L 75.269531 39.292969 L 75.269531 47.6875 L 68.269531 47.6875 Z M 68.269531 39.292969 "/>
<path style=" stroke:none;fill-rule:nonzero;fill:rgb(98.823529%,84.313725%,31.764706%);fill-opacity:1;" d="M 78.511719 39.929688 L 65.011719 39.929688 L 71.75 31.078125 Z M 78.511719 39.929688 "/>
<path style=" stroke:none;fill-rule:nonzero;fill:rgb(10.980392%,27.45098%,43.921569%);fill-opacity:1;" d="M 10.519531 36.234375 L 13.519531 36.234375 L 13.519531 120.289062 L 10.519531 120.289062 Z M 10.519531 36.234375 "/>
<path style=" stroke:none;fill-rule:nonzero;fill:rgb(10.980392%,27.45098%,43.921569%);fill-opacity:1;" d="M 3.042969 111.328125 L 93.84375 111.328125 L 93.84375 114.320312 L 3.042969 114.320312 Z M 3.042969 111.328125 "/>
<path style=" stroke:none;fill-rule:nonzero;fill:rgb(68.235294%,74.901961%,80.784314%);fill-opacity:1;" d="M 17.761719 87.832031 L 31.589844 87.832031 L 31.589844 107.066406 L 17.761719 107.066406 Z M 17.761719 87.832031 "/>
<path style=" stroke:none;fill-rule:nonzero;fill:rgb(100%,63.529412%,16.078431%);fill-opacity:1;" d="M 31.609375 80.90625 L 45.433594 80.90625 L 45.433594 107.085938 L 31.609375 107.085938 Z M 31.609375 80.90625 "/>
<path style=" stroke:none;fill-rule:nonzero;fill:rgb(10.980392%,27.45098%,43.921569%);fill-opacity:1;" d="M 45.480469 67.859375 L 59.300781 67.859375 L 59.300781 107.085938 L 45.480469 107.085938 Z M 45.480469 67.859375 "/>
<path style=" stroke:none;fill-rule:nonzero;fill:rgb(100%,63.529412%,16.078431%);fill-opacity:1;" d="M 59.347656 58.261719 L 73.171875 58.261719 L 73.171875 107.085938 L 59.347656 107.085938 Z M 59.347656 58.261719 "/>
<path style=" stroke:none;fill-rule:nonzero;fill:rgb(68.235294%,74.901961%,80.784314%);fill-opacity:1;" d="M 73.191406 45.609375 L 87.019531 45.609375 L 87.019531 107.085938 L 73.191406 107.085938 Z M 73.191406 45.609375 "/>
<path style=" stroke:none;fill-rule:nonzero;fill:rgb(10.980392%,27.45098%,43.921569%);fill-opacity:1;" d="M 24.457031 81.582031 L 21.808594 79.722656 L 29.621094 68.558594 L 36.769531 68.558594 L 44.097656 54.65625 L 51.515625 54.65625 L 58.824219 44.015625 L 66.042969 44.015625 L 73.128906 31.054688 L 75.753906 28.238281 L 78.113281 30.421875 L 75.644531 33.089844 L 67.941406 47.25 L 60.503906 47.25 L 53.222656 57.871094 L 46.046875 57.871094 L 38.71875 71.792969 L 31.300781 71.792969 Z M 24.457031 81.582031 "/>
<path style=" stroke:none;fill-rule:nonzero;fill:rgb(10.980392%,27.45098%,43.921569%);fill-opacity:1;" d="M 80.347656 35.054688 L 83.191406 22.511719 L 70.894531 26.3125 Z M 80.347656 35.054688 "/>
<path style=" stroke:none;fill-rule:nonzero;fill:rgb(98.823529%,84.313725%,31.764706%);fill-opacity:1;" d="M 95.394531 81.535156 L 104.605469 81.535156 L 104.605469 92.574219 L 95.394531 92.574219 Z M 95.394531 81.535156 "/>
<path style=" stroke:none;fill-rule:nonzero;fill:rgb(98.823529%,84.313725%,31.764706%);fill-opacity:1;" d="M 108.871094 82.371094 L 91.109375 82.371094 L 99.988281 70.71875 Z M 108.871094 82.371094 "/>
<path style=" stroke:none;fill-rule:nonzero;fill:rgb(98.823529%,84.313725%,31.764706%);fill-opacity:1;" d="M 21.941406 56.449219 L 31.152344 56.449219 L 31.152344 67.484375 L 21.941406 67.484375 Z M 21.941406 56.449219 "/>
<path style=" stroke:none;fill-rule:nonzero;fill:rgb(98.823529%,84.313725%,31.764706%);fill-opacity:1;" d="M 35.417969 57.277344 L 17.652344 57.277344 L 26.535156 45.609375 Z M 35.417969 57.277344 "/>
<path style=" stroke:none;fill-rule:nonzero;fill:rgb(98.823529%,84.313725%,31.764706%);fill-opacity:1;" d="M 45.28125 20.324219 L 51.097656 20.324219 L 51.097656 27.296875 L 45.28125 27.296875 Z M 45.28125 20.324219 "/>
<path style=" stroke:none;fill-rule:nonzero;fill:rgb(98.823529%,84.313725%,31.764706%);fill-opacity:1;" d="M 53.792969 20.851562 L 42.566406 20.851562 L 48.191406 13.484375 Z M 53.792969 20.851562 "/>
</g>
</svg>
