<?xml version="1.0" encoding="UTF-8"?>
<svg xmlns="http://www.w3.org/2000/svg" xmlns:xlink="http://www.w3.org/1999/xlink" width="50px" height="50px" viewBox="0 0 50 50" version="1.1">
<g id="surface1">
<path style=" stroke:none;fill-rule:nonzero;fill:rgb(75.686275%,90.980392%,96.862745%);fill-opacity:1;" d="M 49.539062 24.972656 C 49.539062 38.519531 38.554688 49.5 25.007812 49.5 C 11.460938 49.5 0.480469 38.519531 0.480469 24.972656 C 0.480469 11.425781 11.460938 0.441406 25.007812 0.441406 C 38.554688 0.441406 49.539062 11.425781 49.539062 24.972656 Z M 49.539062 24.972656 "/>
<path style=" stroke:none;fill-rule:nonzero;fill:rgb(56.470588%,41.568627%,36.470588%);fill-opacity:1;" d="M 30.730469 22.453125 C 30.363281 22.195312 30.378906 25.871094 28.871094 27.324219 C 28.761719 27.429688 28.652344 27.53125 28.539062 27.632812 C 28.425781 27.730469 28.304688 27.824219 28.183594 27.917969 C 28.1875 27.96875 28.1875 28.019531 28.1875 28.074219 C 29.578125 27.667969 30.558594 26.433594 31.167969 25.375 C 31.4375 24.902344 31.660156 24.433594 31.832031 24.007812 C 31.835938 23.378906 31.835938 22.753906 31.835938 22.144531 C 31.71875 22.242188 31.597656 22.3125 31.476562 22.355469 C 31.265625 22.574219 31.015625 22.648438 30.730469 22.453125 Z M 30.730469 22.453125 "/>
<path style=" stroke:none;fill-rule:nonzero;fill:rgb(56.470588%,41.568627%,36.470588%);fill-opacity:1;" d="M 19.019531 32.242188 C 18.980469 32.261719 18.867188 32.328125 18.753906 32.503906 C 18.832031 32.429688 18.917969 32.34375 19.019531 32.242188 Z M 19.019531 32.242188 "/>
<path style=" stroke:none;fill-rule:nonzero;fill:rgb(56.470588%,41.568627%,36.470588%);fill-opacity:1;" d="M 28.195312 28.265625 C 28.230469 29.074219 28.394531 30.136719 29.050781 31.105469 C 29.269531 30.910156 29.390625 30.867188 29.46875 31.003906 C 29.957031 31.828125 30.46875 32.265625 30.75 32.546875 C 30.605469 32.300781 30.445312 32.234375 30.445312 32.234375 C 30.445312 32.234375 30.792969 32.097656 31.398438 32.613281 C 31.539062 32.730469 31.785156 32.898438 32.054688 33.121094 C 31.738281 31.554688 31.804688 27.992188 31.828125 24.488281 C 31.683594 24.804688 31.519531 25.136719 31.332031 25.464844 C 30.457031 26.984375 29.386719 27.933594 28.195312 28.265625 Z M 28.195312 28.265625 "/>
<path style=" stroke:none;fill-rule:nonzero;fill:rgb(56.470588%,41.568627%,36.470588%);fill-opacity:1;" d="M 19.027344 32.234375 C 19.304688 31.957031 19.652344 31.570312 19.988281 31.003906 C 20.070312 30.863281 20.191406 30.910156 20.417969 31.113281 C 21.183594 30 21.289062 28.753906 21.292969 27.917969 C 21.054688 27.730469 20.824219 27.535156 20.609375 27.324219 C 19.101562 25.871094 19.113281 22.195312 18.75 22.453125 C 18.46875 22.644531 18.222656 22.574219 18.011719 22.367188 C 17.9375 22.34375 17.863281 22.308594 17.789062 22.261719 C 17.777344 26.277344 17.945312 30.984375 17.597656 32.980469 C 17.796875 32.828125 17.972656 32.707031 18.082031 32.613281 C 18.65625 32.125 18.996094 32.222656 19.027344 32.234375 Z M 19.027344 32.234375 "/>
<path style=" stroke:none;fill-rule:nonzero;fill:rgb(100%,86.666667%,79.215686%);fill-opacity:1;" d="M 27.878906 28.148438 C 27.984375 28.128906 28.085938 28.101562 28.1875 28.074219 C 28.1875 28.019531 28.1875 27.96875 28.183594 27.917969 C 28.085938 27.996094 27.984375 28.074219 27.878906 28.148438 Z M 27.878906 28.148438 "/>
<path style=" stroke:none;fill-rule:nonzero;fill:rgb(100%,86.666667%,79.215686%);fill-opacity:1;" d="M 24.6875 34.972656 C 24.710938 34.992188 24.722656 35.015625 24.730469 35.039062 C 24.738281 35.015625 24.746094 34.992188 24.773438 34.972656 C 27.402344 32.957031 28.523438 31.574219 29.050781 31.105469 C 28.394531 30.136719 28.230469 29.074219 28.195312 28.265625 C 27.976562 28.328125 27.753906 28.367188 27.53125 28.386719 C 27.464844 28.664062 27.179688 29.175781 26.214844 29.167969 C 26.011719 29.164062 25.84375 29.140625 25.707031 29.097656 C 25.558594 29.128906 25.414062 29.152344 25.265625 29.167969 C 24.816406 29.210938 24.359375 29.199219 23.914062 29.128906 C 23.550781 29.070312 23.191406 28.972656 22.847656 28.839844 C 22.460938 28.6875 22.09375 28.488281 21.75 28.257812 C 21.59375 28.152344 21.441406 28.035156 21.292969 27.917969 C 21.289062 28.753906 21.183594 30 20.417969 31.113281 C 20.953125 31.597656 22.078125 32.972656 24.6875 34.972656 Z M 24.6875 34.972656 "/>
<path style=" stroke:none;fill-rule:nonzero;fill:rgb(100%,86.666667%,79.215686%);fill-opacity:1;" d="M 24.730469 35.101562 C 24.726562 35.109375 24.726562 35.113281 24.726562 35.117188 L 24.730469 35.117188 C 24.730469 35.113281 24.730469 35.109375 24.730469 35.101562 Z M 24.730469 35.101562 "/>
<path style=" stroke:none;fill-rule:nonzero;fill:rgb(100%,90.196078%,82.745098%);fill-opacity:1;" d="M 22.847656 28.839844 C 23.191406 28.972656 23.550781 29.070312 23.914062 29.128906 C 24.359375 29.199219 24.816406 29.210938 25.265625 29.167969 C 25.414062 29.152344 25.558594 29.128906 25.707031 29.097656 C 25.0625 28.917969 25.015625 28.410156 25 28.238281 C 25.023438 28.03125 25.097656 27.324219 26.230469 27.335938 C 27.261719 27.347656 27.507812 27.933594 27.542969 28.195312 C 27.65625 28.183594 27.769531 28.167969 27.878906 28.148438 C 27.984375 28.074219 28.085938 27.996094 28.183594 27.917969 C 28.304688 27.824219 28.425781 27.730469 28.539062 27.632812 C 28.652344 27.53125 28.761719 27.429688 28.871094 27.324219 C 30.378906 25.871094 30.363281 22.195312 30.730469 22.453125 C 31.015625 22.648438 31.265625 22.574219 31.476562 22.355469 C 31.300781 22.417969 31.128906 22.425781 31.003906 22.347656 C 30.800781 22.21875 31.011719 21.191406 31.160156 19.617188 C 31.136719 19.625 31.117188 19.632812 31.09375 19.644531 C 30.808594 19.828125 30.453125 17.378906 29.074219 16.238281 C 27.699219 15.09375 27.585938 14.320312 27.585938 14.320312 C 26.210938 14.476562 24.863281 14.972656 22.59375 16.78125 C 20.796875 18.210938 19.195312 19.636719 18.46875 19.828125 C 18.402344 19.84375 18.359375 19.773438 18.304688 19.675781 C 18.449219 21.21875 18.65625 22.222656 18.453125 22.347656 C 18.335938 22.417969 18.179688 22.417969 18.011719 22.367188 C 18.222656 22.574219 18.46875 22.644531 18.75 22.453125 C 19.113281 22.195312 19.101562 25.871094 20.609375 27.324219 C 20.824219 27.535156 21.054688 27.730469 21.292969 27.917969 C 21.441406 28.035156 21.59375 28.152344 21.75 28.257812 C 22.09375 28.488281 22.460938 28.6875 22.847656 28.839844 Z M 22.847656 28.839844 "/>
<path style=" stroke:none;fill-rule:nonzero;fill:rgb(56.470588%,41.568627%,36.470588%);fill-opacity:1;" d="M 17.734375 16.9375 C 17.800781 15.589844 19.039062 10.707031 24.730469 10.707031 C 30.421875 10.707031 31.65625 15.589844 31.722656 16.9375 C 31.769531 17.808594 31.683594 18.3125 31.753906 18.613281 C 31.78125 18.320312 31.796875 17.941406 31.796875 17.4375 C 31.796875 14.867188 30.753906 12.214844 29.070312 11.773438 C 28.257812 11.5625 28.15625 10.777344 26.355469 10.238281 C 23.476562 9.375 20.230469 10.570312 18.574219 13.332031 C 17.414062 15.265625 17.351562 17.976562 17.472656 18.917969 C 17.882812 18.703125 17.667969 18.210938 17.734375 16.9375 Z M 17.734375 16.9375 "/>
<path style=" stroke:none;fill-rule:nonzero;fill:rgb(56.470588%,41.568627%,36.470588%);fill-opacity:1;" d="M 18.46875 19.828125 C 19.195312 19.636719 20.796875 18.210938 22.59375 16.78125 C 24.863281 14.972656 26.210938 14.476562 27.585938 14.320312 C 27.585938 14.320312 27.699219 15.09375 29.074219 16.238281 C 30.453125 17.378906 30.808594 19.828125 31.09375 19.644531 C 31.117188 19.632812 31.136719 19.625 31.160156 19.617188 C 31.175781 19.453125 31.191406 19.289062 31.203125 19.117188 C 31.34375 17.257812 31.324219 16.652344 31.144531 15.976562 C 29.738281 10.792969 24.730469 11.160156 24.730469 11.160156 C 24.730469 11.160156 19.894531 10.707031 18.339844 15.894531 C 18.132812 16.585938 18.113281 17.257812 18.253906 19.117188 C 18.269531 19.308594 18.285156 19.496094 18.304688 19.675781 C 18.359375 19.773438 18.402344 19.84375 18.46875 19.828125 Z M 18.46875 19.828125 "/>
<path style=" stroke:none;fill-rule:nonzero;fill:rgb(16.078431%,16.078431%,16.078431%);fill-opacity:1;" d="M 18.453125 22.347656 C 18.65625 22.222656 18.449219 21.21875 18.304688 19.675781 C 18.285156 19.496094 18.269531 19.308594 18.253906 19.117188 C 18.113281 17.257812 18.132812 16.585938 18.339844 15.894531 C 19.894531 10.707031 24.730469 11.160156 24.730469 11.160156 C 24.730469 11.160156 29.738281 10.792969 31.144531 15.976562 C 31.324219 16.652344 31.34375 17.257812 31.203125 19.117188 C 31.191406 19.289062 31.175781 19.453125 31.160156 19.617188 C 31.011719 21.191406 30.800781 22.21875 31.003906 22.347656 C 31.128906 22.425781 31.300781 22.417969 31.476562 22.355469 C 31.597656 22.3125 31.71875 22.242188 31.835938 22.144531 C 32.027344 21.980469 32.191406 21.75 32.28125 21.46875 C 32.210938 21.449219 32.105469 21.511719 32.046875 21.386719 C 31.976562 21.246094 32.015625 20.613281 32.070312 20.476562 C 32.125 20.34375 32.1875 20.277344 32.402344 20.316406 C 32.414062 20.316406 32.425781 20.324219 32.4375 20.328125 C 32.464844 19.695312 32.386719 19.082031 32.050781 18.953125 C 31.871094 18.886719 31.789062 18.777344 31.753906 18.613281 C 31.683594 18.3125 31.769531 17.808594 31.722656 16.9375 C 31.65625 15.589844 30.421875 10.707031 24.730469 10.707031 C 19.039062 10.707031 17.800781 15.589844 17.734375 16.9375 C 17.667969 18.210938 17.882812 18.703125 17.472656 18.917969 C 17.449219 18.929688 17.433594 18.945312 17.40625 18.953125 C 16.898438 19.152344 16.980469 20.46875 17.125 21.28125 C 17.203125 21.734375 17.488281 22.082031 17.789062 22.261719 C 17.863281 22.308594 17.9375 22.34375 18.011719 22.367188 C 18.179688 22.417969 18.335938 22.417969 18.453125 22.347656 Z M 18.453125 22.347656 "/>
<path style=" stroke:none;fill-rule:nonzero;fill:rgb(8.627451%,7.843137%,7.45098%);fill-opacity:1;" d="M 32.070312 20.476562 C 32.015625 20.613281 31.976562 21.246094 32.046875 21.386719 C 32.105469 21.511719 32.210938 21.449219 32.28125 21.46875 C 32.289062 21.472656 32.300781 21.476562 32.308594 21.484375 C 32.375 21.539062 32.226562 22.332031 32.277344 22.40625 C 32.292969 22.429688 32.316406 22.441406 32.347656 22.453125 C 32.3125 22.617188 32.152344 23.230469 31.832031 24.007812 C 31.660156 24.433594 31.4375 24.902344 31.167969 25.375 C 30.558594 26.433594 29.578125 27.667969 28.1875 28.074219 C 28.085938 28.101562 27.984375 28.128906 27.878906 28.148438 C 27.769531 28.167969 27.65625 28.183594 27.542969 28.195312 C 27.507812 27.933594 27.261719 27.347656 26.230469 27.335938 C 25.097656 27.324219 25.023438 28.03125 25 28.238281 C 25.015625 28.410156 25.0625 28.917969 25.707031 29.097656 C 25.84375 29.140625 26.011719 29.164062 26.214844 29.167969 C 27.179688 29.175781 27.464844 28.664062 27.53125 28.386719 C 27.753906 28.367188 27.976562 28.328125 28.195312 28.265625 C 29.386719 27.933594 30.457031 26.984375 31.332031 25.464844 C 31.519531 25.136719 31.683594 24.804688 31.828125 24.488281 C 32.285156 23.472656 32.515625 22.613281 32.539062 22.445312 C 32.550781 22.441406 32.566406 22.4375 32.574219 22.433594 C 32.65625 22.378906 32.710938 21.859375 32.761719 21.261719 C 32.808594 20.699219 32.632812 20.390625 32.4375 20.328125 C 32.425781 20.324219 32.414062 20.316406 32.402344 20.316406 C 32.1875 20.277344 32.125 20.34375 32.070312 20.476562 Z M 32.070312 20.476562 "/>
<path style=" stroke:none;fill-rule:nonzero;fill:rgb(95.686275%,95.686275%,95.686275%);fill-opacity:1;" d="M 23.730469 39.308594 C 23.320312 38.386719 22.859375 37.863281 22.816406 37.09375 C 22.511719 37.46875 22.304688 37.855469 22.335938 38.222656 C 22.453125 39.4375 18.855469 35.273438 18.511719 33.269531 C 18.449219 33.652344 18.445312 34.457031 19.554688 36.027344 C 20.308594 37.09375 22.066406 40.125 23.347656 42.847656 C 23.601562 41.207031 23.804688 39.945312 23.894531 39.46875 C 23.824219 39.429688 23.761719 39.378906 23.730469 39.308594 Z M 23.730469 39.308594 "/>
<path style=" stroke:none;fill-rule:nonzero;fill:rgb(95.686275%,95.686275%,95.686275%);fill-opacity:1;" d="M 27.121094 38.222656 C 27.15625 37.855469 26.945312 37.46875 26.640625 37.09375 C 26.597656 37.863281 26.136719 38.386719 25.726562 39.308594 C 25.695312 39.378906 25.632812 39.429688 25.566406 39.46875 C 25.65625 39.964844 25.871094 41.308594 26.140625 43.046875 C 27.386719 40.273438 29.152344 37.121094 29.921875 36.027344 C 31.089844 34.375 31.027344 33.574219 30.957031 33.21875 C 30.667969 35.195312 27.003906 39.449219 27.121094 38.222656 Z M 27.121094 38.222656 "/>
<path style=" stroke:none;fill-rule:nonzero;fill:rgb(95.686275%,95.686275%,95.686275%);fill-opacity:1;" d="M 19.097656 37.207031 C 19.101562 37.210938 19.101562 37.214844 19.105469 37.214844 L 19.113281 37.207031 C 19.113281 37.207031 19.109375 37.207031 19.097656 37.207031 Z M 19.097656 37.207031 "/>
<path style=" stroke:none;fill-rule:nonzero;fill:rgb(54.117647%,6.666667%,8.627451%);fill-opacity:1;" d="M 25.726562 39.308594 C 26.136719 38.386719 26.597656 37.863281 26.640625 37.09375 C 25.964844 36.261719 24.816406 35.484375 24.730469 35.117188 L 24.726562 35.117188 C 24.644531 35.484375 23.492188 36.261719 22.816406 37.09375 C 22.859375 37.863281 23.320312 38.386719 23.730469 39.308594 C 23.761719 39.378906 23.824219 39.429688 23.894531 39.46875 C 23.804688 39.945312 23.601562 41.207031 23.347656 42.847656 C 24.109375 44.464844 24.703125 45.976562 24.8125 46.894531 C 24.917969 46.015625 25.449219 44.589844 26.140625 43.046875 C 25.871094 41.308594 25.65625 39.964844 25.566406 39.46875 C 25.632812 39.429688 25.695312 39.378906 25.726562 39.308594 Z M 25.726562 39.308594 "/>
<path style=" stroke:none;fill-rule:nonzero;fill:rgb(91.764706%,91.764706%,91.764706%);fill-opacity:1;" d="M 29.46875 31.003906 C 29.390625 30.867188 29.269531 30.910156 29.050781 31.105469 C 28.523438 31.574219 27.402344 32.957031 24.773438 34.972656 C 24.746094 34.992188 24.738281 35.015625 24.730469 35.039062 C 24.722656 35.015625 24.710938 34.992188 24.6875 34.972656 C 22.078125 32.972656 20.953125 31.597656 20.417969 31.113281 C 20.191406 30.910156 20.070312 30.863281 19.988281 31.003906 C 19.652344 31.570312 19.304688 31.957031 19.027344 32.234375 C 19.03125 32.234375 19.035156 32.234375 19.035156 32.234375 C 19.035156 32.234375 19.027344 32.238281 19.019531 32.242188 C 18.917969 32.34375 18.832031 32.429688 18.753906 32.503906 C 18.675781 32.628906 18.597656 32.808594 18.554688 33.0625 C 18.546875 33.109375 18.527344 33.179688 18.511719 33.269531 C 18.855469 35.273438 22.453125 39.4375 22.335938 38.222656 C 22.304688 37.855469 22.511719 37.46875 22.816406 37.09375 C 23.492188 36.261719 24.644531 35.484375 24.726562 35.117188 C 24.726562 35.113281 24.726562 35.109375 24.730469 35.101562 C 24.730469 35.109375 24.730469 35.113281 24.730469 35.117188 C 24.816406 35.484375 25.964844 36.261719 26.640625 37.09375 C 26.945312 37.46875 27.15625 37.855469 27.121094 38.222656 C 27.003906 39.449219 30.667969 35.195312 30.957031 33.21875 C 30.945312 33.152344 30.929688 33.101562 30.925781 33.0625 C 30.886719 32.835938 30.820312 32.671875 30.75 32.546875 C 30.46875 32.265625 29.957031 31.828125 29.46875 31.003906 Z M 29.46875 31.003906 "/>
<path style=" stroke:none;fill-rule:nonzero;fill:rgb(8.627451%,7.843137%,7.45098%);fill-opacity:1;" d="M 39.191406 36.136719 C 38.96875 35.835938 34.113281 34.160156 32.535156 33.578125 C 32.695312 33.757812 32.847656 33.957031 32.976562 34.183594 C 33.671875 35.429688 33.707031 36.191406 34.199219 36.558594 C 34.691406 36.925781 30.363281 37.207031 30.363281 37.207031 L 33.089844 39.265625 C 33.089844 39.265625 30.035156 42.757812 27.972656 44.261719 C 27.332031 44.730469 25.3125 46.597656 24.820312 47.402344 C 24.933594 47.945312 25.132812 48.757812 25.175781 49.078125 C 25.195312 49.222656 25.210938 49.355469 25.230469 49.492188 C 28.988281 49.449219 32.546875 48.5625 35.71875 47.003906 C 35.816406 45.121094 35.492188 37.722656 39.046875 36.148438 C 39.125 36.113281 39.207031 36.191406 39.300781 36.355469 C 39.300781 36.355469 39.300781 36.351562 39.304688 36.351562 C 39.269531 36.273438 39.234375 36.195312 39.191406 36.136719 Z M 39.191406 36.136719 "/>
<path style=" stroke:none;fill-rule:nonzero;fill:rgb(12.941176%,12.54902%,12.54902%);fill-opacity:1;" d="M 24.820312 47.402344 C 24.246094 46.902344 22.144531 44.730469 21.507812 44.261719 C 19.441406 42.757812 16.386719 39.265625 16.386719 39.265625 L 19.105469 37.214844 C 19.101562 37.214844 19.101562 37.210938 19.097656 37.207031 C 18.820312 37.1875 14.804688 36.910156 15.277344 36.558594 C 15.769531 36.191406 15.808594 35.429688 16.503906 34.183594 C 16.640625 33.9375 16.808594 33.726562 16.984375 33.539062 C 15.335938 34.140625 10.621094 35.769531 10.402344 36.066406 C 14.207031 36.265625 13.828125 44.734375 13.902344 46.878906 C 17.21875 48.554688 20.964844 49.5 24.933594 49.5 C 25.03125 49.5 25.128906 49.496094 25.230469 49.492188 C 25.210938 49.355469 25.195312 49.222656 25.175781 49.078125 C 25.132812 48.757812 24.933594 47.945312 24.820312 47.402344 Z M 24.820312 47.402344 "/>
<path style=" stroke:none;fill-rule:nonzero;fill:rgb(3.529412%,2.745098%,2.352941%);fill-opacity:1;" d="M 16.503906 34.183594 C 15.808594 35.429688 15.769531 36.191406 15.277344 36.558594 C 14.804688 36.910156 18.820312 37.1875 19.097656 37.207031 C 19.109375 37.207031 19.113281 37.207031 19.113281 37.207031 L 19.105469 37.214844 L 16.386719 39.265625 C 16.386719 39.265625 19.441406 42.757812 21.507812 44.261719 C 22.144531 44.730469 24.246094 46.902344 24.820312 47.402344 C 25.3125 46.597656 27.332031 44.730469 27.972656 44.261719 C 30.035156 42.757812 33.089844 39.265625 33.089844 39.265625 L 30.363281 37.207031 C 30.363281 37.207031 34.691406 36.925781 34.199219 36.558594 C 33.707031 36.191406 33.671875 35.429688 32.976562 34.183594 C 32.847656 33.957031 32.695312 33.757812 32.535156 33.578125 C 32.375 33.40625 32.210938 33.253906 32.054688 33.121094 C 31.785156 32.898438 31.539062 32.730469 31.398438 32.613281 C 30.792969 32.097656 30.445312 32.234375 30.445312 32.234375 C 30.445312 32.234375 30.605469 32.300781 30.75 32.546875 C 30.820312 32.671875 30.886719 32.835938 30.925781 33.0625 C 30.929688 33.101562 30.945312 33.152344 30.957031 33.21875 C 31.027344 33.574219 31.089844 34.375 29.921875 36.027344 C 29.152344 37.121094 27.386719 40.273438 26.140625 43.046875 C 25.449219 44.589844 24.917969 46.015625 24.8125 46.894531 C 24.703125 45.976562 24.109375 44.464844 23.347656 42.847656 C 22.066406 40.125 20.308594 37.09375 19.554688 36.027344 C 18.445312 34.457031 18.449219 33.652344 18.511719 33.269531 C 18.527344 33.179688 18.546875 33.109375 18.554688 33.0625 C 18.597656 32.808594 18.675781 32.628906 18.753906 32.503906 C 18.867188 32.328125 18.980469 32.261719 19.019531 32.242188 C 19.027344 32.238281 19.035156 32.234375 19.035156 32.234375 C 19.035156 32.234375 19.03125 32.234375 19.027344 32.234375 C 18.996094 32.222656 18.65625 32.125 18.082031 32.613281 C 17.972656 32.707031 17.796875 32.828125 17.597656 32.980469 C 17.40625 33.132812 17.191406 33.316406 16.984375 33.539062 C 16.808594 33.726562 16.640625 33.9375 16.503906 34.183594 Z M 16.503906 34.183594 "/>
<path style=" stroke:none;fill-rule:nonzero;fill:rgb(3.529412%,2.745098%,2.352941%);fill-opacity:1;" d="M 10.402344 36.066406 C 10.183594 36.054688 9.464844 39.382812 8.738281 43.390625 C 10.296875 44.761719 12.03125 45.933594 13.902344 46.878906 C 13.828125 44.734375 14.207031 36.265625 10.402344 36.066406 Z M 10.402344 36.066406 "/>
<path style=" stroke:none;fill-rule:nonzero;fill:rgb(3.529412%,2.745098%,2.352941%);fill-opacity:1;" d="M 39.046875 36.148438 C 35.492188 37.722656 35.816406 45.121094 35.71875 47.003906 C 37.636719 46.0625 39.414062 44.875 41.011719 43.488281 C 40.402344 40.074219 39.753906 37.148438 39.300781 36.355469 C 39.207031 36.191406 39.125 36.113281 39.046875 36.148438 Z M 39.046875 36.148438 "/>
</g>
</svg>
