<?xml version="1.0" encoding="utf-8"?>
<!-- Generator: Adobe Illustrator 16.0.0, SVG Export Plug-In . SVG Version: 6.00 Build 0)  -->
<!DOCTYPE svg PUBLIC "-//W3C//DTD SVG 1.1//EN" "http://www.w3.org/Graphics/SVG/1.1/DTD/svg11.dtd">
<svg version="1.1" id="Layer_1" xmlns="http://www.w3.org/2000/svg" xmlns:xlink="http://www.w3.org/1999/xlink" x="0px" y="0px"
	 width="500px" height="422px" viewBox="0 0 500 422" enable-background="new 0 0 500 422" xml:space="preserve">
<g id="BACKGROUND">
</g>
<path fill="#ECF3FF" d="M112.412,59.949c15.62,1.045,22.155-9.612,29.494-23.311c20.092-37.502,64.838-33.888,79.848-10.795
	c10.632,16.357,33.559,12.992,52.104,6.59c18.254-6.3,49.354-12.354,74.126-4.824c21.636,6.577,30.514,30.302,50.235,28.842
	c43.025-3.184,64.716,39.293,56.924,57.818c-5.087,12.091-7.611,25.617-3.477,38.059c4.555,13.703,14.958,24.551,23.367,36.331
	c8.408,11.78,15.181,26.506,11.001,40.325c-3.577,11.826-14.247,20.008-20.871,30.465c-20.568,32.475-0.222,82.242-27.628,109.311
	c-19.618,19.375-51.604,14.902-79.053,18.6c-22.893,3.084-44.435,12.697-67.221,16.466c-46.147,7.627-92.75-9.175-139.535-9.648
	c-16.479-0.165-33.266,1.671-49.227-2.395c-21.295-5.423-39.417-21.808-46.806-42.318C45.499,321.159,55.159,288.4,43.641,260.6
	c-9.383-22.648-32.328-41.076-30.884-65.517c0.898-15.215,11.294-27.943,18.443-41.44C41.829,133.583,27.76,54.284,112.412,59.949z
	 M248.59,23.207c-4.105,0-7.434,2.55-7.434,5.695s3.337,5.424,7.434,5.695c13.35,0.882,13.35-4.515,13.35-7.66
	C261.939,21.912,252.695,23.207,248.59,23.207z M384.166,47.491c3.57,2.948,8.119,4.713,12.761,4.951
	c1.239,0.063,2.589-0.015,3.545-0.8c1.184-0.972,1.311-2.957,0.262-4.069c-0.659-0.7-1.621-1.014-2.517-1.377
	c-1.525-0.62-3.021-1.508-3.886-2.899c-0.251-0.404-0.467-0.867-0.883-1.101C390.864,40.742,379.469,43.612,384.166,47.491z
	 M406.906,52.522c1.175,0.406,2.463,0.032,3.646-0.352c0.759-0.246,1.689-0.789,1.485-1.553c-0.098-0.368-0.444-0.613-0.783-0.793
	c-1.557-0.833-3.575-1.447-5.14-0.381C404.55,50.507,405.73,52.116,406.906,52.522z M461.199,159.787
	c0.203,1.771,1.296,3.302,2.354,4.745c2.04,2.782,4.111,5.599,6.806,7.77c1.139,0.918,2.464,1.74,3.932,1.791
	c1.338,0.046,2.618-0.559,3.702-1.336c2.642-1.893,4.424-4.918,4.789-8.127c0.501-4.403-1.548-8.689-3.93-12.439
	c-1.476-2.323-3.195-4.638-5.664-5.883c-4.14-2.088-6.874-0.266-8.03,3.4C464.093,153.079,460.769,156.03,461.199,159.787z
	 M20.819,262.293c-2.18,1.92-0.214,7.539,0.43,11.248c0.193,1.111,0.45,2.262,1.153,3.15c0.96,1.215,2.555,1.713,4.051,2.146
	c2.653,0.771,5.869,1.422,7.895-0.44c1.503-1.383,1.716-3.638,1.713-5.67c-0.002-1.855-0.103-3.711-0.3-5.558
	c-0.095-0.885-0.222-1.801-0.697-2.558c-0.606-0.969-1.687-1.532-2.745-1.979C28.525,261.025,22.999,260.373,20.819,262.293z
	 M154.038,403.059c-1.29,0.261-2.829,0.816-3.016,2.105c-0.154,1.066,0.744,1.977,1.612,2.623
	c7.114,5.307,16.687,5.646,25.592,5.771c1.04,0.015,2.116,0.021,3.073-0.381c1.905-0.803,2.819-3.313,1.932-5.164
	c-0.324-0.676-0.835-1.246-1.374-1.77C174.703,399.279,162.941,401.273,154.038,403.059z M331.696,399.469
	c-8.029,5.873,0.091,11.115,10.23,7.226c5.465-2.097,10.704-4.166,16.297-5.568c1.808-0.453,12.736-2.816,12.737-5.271
	c0.004-6.508-12.313-4.972-20.061-3.888C344.656,392.842,338.316,394.625,331.696,399.469z"/>
<ellipse fill="#C8DBFB" cx="180.805" cy="378.891" rx="38.647" ry="3.611"/>
<ellipse fill="#C8DBFB" cx="379.356" cy="378.891" rx="38.646" ry="3.611"/>
<g>
	<g>
		<path fill="none" stroke="#C8DBFB" stroke-linecap="round" stroke-linejoin="round" d="M461.012,124.671
			c-0.108-0.672-0.229-1.329-0.356-1.968"/>
		<path fill="none" stroke="#C8DBFB" stroke-linecap="round" stroke-linejoin="round" stroke-dasharray="3.9929,3.9929" d="
			M459.703,118.823c-6.896-23.479-28.879-21.214-48.748-21.173c-21.388,0.044-352.509,0.728-352.509,0.728
			c-33.275,0.069-30.055,48.107-4,48.053c14.98-0.031,20.676,28.098-5.225,28.151c-15.539,0.032-16.036,19.729-5.589,23.675"/>
		<path fill="none" stroke="#C8DBFB" stroke-linecap="round" stroke-linejoin="round" d="M45.553,198.777
			c0.634,0.109,1.3,0.166,1.997,0.164"/>
	</g>
</g>
<circle fill="#5193F4" cx="46.914" cy="198.837" r="4.789"/>
<circle fill="#5193F4" cx="461.014" cy="125.966" r="4.789"/>
<path fill="#5E82B5" d="M100.45,163.05c-0.69,3.89-1.7,7.69-2.93,11.44c-2.65,8.09-6.31,15.88-10.01,23.57
	c-1.93,4.02-9.76,13.32-13.96,15.09c0.49-10.49,0.53-22.74-0.69-33.331c-1.17-10.2,2.5-17.93-1.5-27.39
	c-0.51-1.21-1.04-2.42-1.57-3.63c-1.99-4.5-3.96-9.02-4.58-13.87c-0.8-6.15,1.11-13.16,6.43-16.36c3.83-2.3,8.82-2.18,12.91-0.37
	c4.09,1.81,7.37,5.12,9.86,8.83C101.38,137.391,102.64,150.771,100.45,163.05z"/>
<path fill="none" stroke="#0B43A4" stroke-linecap="round" stroke-linejoin="round" stroke-miterlimit="10" d="M81.85,129.076
	c7.831,11.056,8.51,23.939,9.188,37.471c0.679,13.532-2.573,27.238-9.259,39.022"/>
<g>
	<path fill="#00AD9F" d="M81.523,333.057c-5.488-4.852-11.041-9.774-15.096-15.873c-3.532-5.313-5.812-11.344-8.893-16.93
		c-1.994-3.613-4.348-7.096-5.503-11.059c-1.155-3.963-0.878-8.656,1.938-11.674c2.937-3.148,7.989-3.631,11.977-2.01
		c3.988,1.622,7.037,4.977,9.365,8.598c3.092,4.811,5.157,10.274,6.019,15.928c0.78,5.123,0.581,10.357,1.376,15.477
		c0.741,4.771,2.345,9.353,4.366,13.721c1.833,3.966,6.477,11.031,7.662,15.095C91.451,345.973,83.862,335.123,81.523,333.057z"/>
	<path fill="none" stroke="#00AD9F" stroke-linecap="round" stroke-linejoin="round" stroke-miterlimit="10" d="M62.334,282.76
		c5.218,2.285,7.293,8.508,8.382,14.1c1.239,6.363,0.964,13.255,3.882,19.043c5.496,10.906,12.65,23.32,17.967,27.029"/>
</g>
<path fill="#3A5796" d="M54.513,318.135c-4.554-1.797-10.636-2.537-13.556,1.395c-2.445,3.291-1.179,7.955,0.51,11.691
	c1.426,3.152,3.237,6.359,6.244,8.074c2.054,1.172,4.46,1.523,6.808,1.803c6.548,0.779,13.144,1.16,19.738,1.142
	c7.643-0.021,16.901,3.1,23.225,7.866C89.367,335.02,69.841,324.189,54.513,318.135z"/>
<path fill="none" stroke="#0B43A4" stroke-linecap="round" stroke-linejoin="round" stroke-miterlimit="10" d="M46.523,327.941
	c5.797,0.248,11.647,0.654,17.211,2.301c5.69,1.682,27.578,11.727,30.999,16.002"/>
<g>
	<path fill="#52D2BC" d="M104.19,287.182c-5.926-9.281-16.068-15.76-26.985-17.227c-8.06-1.082-16.354,0.426-24.309-1.252
		c-8.357-1.752-15.897-7.137-20.262-14.486c-4.365-7.348-5.501-16.535-3.048-24.723c1.869-6.223,6.138-12.117,12.319-14.113
		c3.367-1.083,7.052-0.936,10.492-0.105c3.175,0.765,6.128,2.091,8.846,3.822c6.223,3.939,11.247,10.004,15.027,16.439
		c3.43,5.852,11.895,14.963,17.65,20.889c3.377,3.463,5.83,5.83,5.83,5.83C103.702,267.162,101.854,281.33,104.19,287.182z"/>
	<path fill="none" stroke="#00AD9F" stroke-linecap="round" stroke-linejoin="round" stroke-miterlimit="10" d="M40.109,233.371
		c19.367,8.744,40.494,20.203,54.229,36.418"/>
</g>
<g>
	<path opacity="0.2" fill="#5275A0" enable-background="new    " d="M96.194,267.609c0,0-28.864-23.396-34.95-48.512
		c6.223,3.938,11.247,10.004,15.027,16.438c3.43,5.853,11.895,14.963,17.65,20.889C94.601,259.57,95.355,263.254,96.194,267.609z"/>
	<path opacity="0.2" fill="#5275A0" enable-background="new    " d="M97.52,174.49c-2.65,8.09-6.31,15.88-10.01,23.57
		c-1.93,4.02-9.76,13.32-13.96,15.09c0.49-10.49,0.53-22.74-0.69-33.331c-1.17-10.2,2.5-17.93-1.5-27.39
		c-0.51-1.21-1.04-2.42-1.57-3.63c0.37,0.12,0.73,0.25,1.08,0.4c6.58,2.82,9.62,9.78,10.18,16.54c0.47,5.58-0.54,11.17-1.29,16.72
		c-0.35,2.56-0.63,5.18-0.08,7.69c0.01,0.03,0.02,0.05,0.02,0.08c0.69,2.99,5.06,2.82,5.62-0.21l1.75-9.29
		c0.52-2.78,1.09-5.69,3.37-7.63c0.9-0.77,2.06-1.25,3.24-1.21C95.56,171.96,96.74,173.061,97.52,174.49z"/>
	<path fill="#7EE8D4" d="M96.198,261.742c-4.559-23.809-6.957-27.477-4.951-33.445c2.555-7.605,1.119-15.253,3.53-22.906
		c2.411-7.653,4.052-15.883,2.107-23.667c-0.615-2.461-1.861-5.145-4.818-5.247c-1.186-0.041-2.341,0.437-3.244,1.207
		c-2.279,1.942-2.854,4.851-3.375,7.63l-1.741,9.292c-0.566,3.021-4.932,3.199-5.623,0.203c-0.006-0.025-0.012-0.05-0.017-0.075
		c-0.559-2.515-0.271-5.133,0.073-7.687c0.749-5.555,1.758-11.143,1.296-16.729c-0.559-6.759-3.601-13.72-10.185-16.533
		c-2.334-0.998-4.968-1.224-7.427-0.593c-6.872,1.764-8.65,8.479-7.643,14.214c0.709,4.035,2.603,7.746,4.315,11.468
		c4.18,9.092,1.114,17.43,1.692,27.42C61.785,233.863,96.198,261.742,96.198,261.742z"/>
	<path fill="none" stroke="#00AD9F" stroke-linecap="round" stroke-linejoin="round" stroke-miterlimit="10" d="M65.538,160.398
		c3.391,16.94,6.819,34.003,13.4,49.977c1.93,4.686,2.874,10.85,14.042,23.594"/>
</g>
<path fill="#5E82B5" d="M197.78,164.74c-3.51-4.01-6.75-8.09-10.16-12.02c-2.21-2.55-4.49-5.04-6.97-7.4
	c-1.23-1.18-2.5-2.32-3.84-3.43c-7.92-6.54-16.76-11.97-26.21-16.01c-5.7-2.44-11.72-4.45-16.56-8.34
	c-4.84-3.88-8.32-10.26-6.71-16.25c1.17-4.32,4.84-7.68,9.05-9.22c4.2-1.53,8.86-1.41,13.23-0.47c12.2,2.63,22.39,11.4,29.32,21.77
	c0.12,0.18,0.25,0.37,0.37,0.56c5.08,7.75,8.63,16.37,11.72,25.15c0.99,2.82,1.93,5.66,2.86,8.49
	C195.28,151.8,199.58,160.55,197.78,164.74z"/>
<path fill="none" stroke="#0B43A4" stroke-linecap="round" stroke-linejoin="round" stroke-miterlimit="10" d="M141.973,101.783
	c13.309,2.538,22.73,11.351,32.602,20.632c9.872,9.281,17.031,21.412,20.384,34.54"/>
<g>
	<path opacity="0.2" fill="#5275A0" enable-background="new    " d="M187.62,152.72c-0.11,1.38-0.07,2.76,0.19,4.16
		c-3.33-0.76-5.64-5.93-7.16-11.56c-1.49-5.47-2.23-11.39-2.46-14.12c-0.45-5.76-0.08-11.6,1.11-17.27
		c5.08,7.75,8.63,16.37,11.72,25.15c-1.06,3.15-1.97,6.34-2.72,9.56C187.98,150.01,187.73,151.36,187.62,152.72z"/>
	<path fill="#52D2BC" d="M210.717,104.67c-1.125,4.991-4.142,9.303-6.796,13.678c-1.402,2.305-2.708,4.673-3.93,7.073
		c-3.908,7.678-6.892,15.834-8.856,24.224c-0.648,2.75-1.009,5.448-0.489,8.241c-6.563-1.498-9.175-20.146-9.622-25.688
		c-0.786-9.982,0.914-20.209,5.023-29.354c1.794-4.014,4.11-7.954,7.678-10.524c3.558-2.57,8.602-3.473,12.372-1.232
		c2.272,1.349,3.728,3.589,4.439,6.138C211.227,99.605,211.258,102.26,210.717,104.67z"/>
	<path fill="none" stroke="#00AD9F" stroke-linecap="round" stroke-linejoin="round" stroke-miterlimit="10" d="M188.13,152.382
		c-4.08-10.247-1.601-31.936,4.944-45.568c1.972-4.107,4.779-7.958,8.714-10.253"/>
</g>
<g>
	<path opacity="0.2" fill="#5275A0" enable-background="new    " d="M210.717,104.67c-1.125,4.991-4.142,9.303-6.796,13.678
		c-1.402,2.305-2.708,4.673-3.93,7.073c-1.794-3.016-3.016-6.351-3.355-9.834c-0.552-5.809,1.667-12.032,6.393-15.452
		c2.209-1.593,4.8-2.496,7.508-2.91C211.227,99.605,211.258,102.26,210.717,104.67z"/>
	<path fill="#00AD9F" d="M248.565,148.073c-0.308,1.912-0.881,3.749-1.699,5.522c-2.91,6.297-9.016,11.703-18.17,16.1
		c0,0-0.509-9.961-0.616-12.627c-0.446-11.417-12.839-17.735-20.677-26.061c-3.993-4.248-7.02-9.611-7.583-15.42
		c-0.552-5.809,1.667-12.032,6.393-15.452c3.961-2.856,9.144-3.483,14.018-3.111c7.859,0.626,15.792,3.918,20.677,10.057
		c0.212,0.234,0.393,0.478,0.573,0.722c2.995,4.089,4.535,9.069,5.661,14.029C249.097,130.423,249.978,139.365,248.565,148.073z"/>
	<path fill="none" stroke="#00AD9F" stroke-linecap="round" stroke-linejoin="round" stroke-miterlimit="10" d="M209.581,106.261
		c8.577,4.436,17.169,9.799,22.165,18.063c6.969,11.528,5.45,26.528,0.075,38.88"/>
</g>
<g>
	<path fill="#52D2BC" d="M392.063,221.725c5.468-9,2.676-20.577,4.577-30.934c1.463-7.962,5.895-15.343,12.231-20.379
		c3.979-3.161,9.565-5.418,14.061-3.049c0.975,0.514,2.133,1.235,3.069,0.659c0.56-0.345,0.784-1.038,0.916-1.682
		c1.14-5.594-1.55-11.704,0.647-16.973c1.184-2.837,3.631-4.956,6.224-6.608c4.997-3.186,10.846-5.021,16.768-5.261
		c1.572-0.064,3.208-0.003,4.615,0.702c2.541,1.274,3.703,4.438,3.362,7.261c-0.341,2.823-1.897,5.348-3.625,7.606
		c-5.741,7.507-14.154,13.985-15.264,23.371c-0.141,1.185-0.141,2.44,0.403,3.501c0.526,1.025,1.506,1.757,2.058,2.77
		c1.769,3.25-1.647,6.936-4.984,8.533c-3.047,1.459-6.354,2.374-9.717,2.689c-2.315,0.217-4.934,0.272-6.509,1.983
		c-2.906,3.158,0.434,8.207-0.177,12.455c-0.381,2.652-2.305,4.793-4.234,6.65c-3.586,3.447-7.512,6.543-11.699,9.227
		c-3.396,2.176-6.99,4.098-10.001,6.781c-3.011,2.683-5.444,6.313-5.642,10.344"/>
	<path fill="none" stroke="#00AD9F" stroke-linecap="round" stroke-linejoin="round" stroke-miterlimit="10" d="M399.268,212.971
		c0.895-4.362,2.924-8.396,4.933-12.37c3.14-6.21,6.341-12.511,11.083-17.604c3.601-3.867,7.991-6.927,11.651-10.736
		c2.61-2.715,4.835-5.801,6.582-9.138c0.947-1.809,1.768-3.71,3.046-5.302c1.518-1.891,3.593-3.238,5.397-4.856
		c2.439-2.184,4.404-4.895,5.723-7.892"/>
</g>
<path fill="#5E82B5" d="M470.57,227.971c-1.23,4.74-3.062,9.43-6.2,13.189c-2.17,2.59-4.87,4.641-7.82,6.311
	c-1.52,0.869-3.12,1.629-4.729,2.312c-6.262,2.629-12.99,4.118-19.771,4.379c-9.88,0.371-20.04-1.812-29.52,1.01
	c-4.352,1.291-8.36,3.642-11.65,6.75c-2.06,1.931-3.83,4.16-5.229,6.611l1.29-8.201c2.39-8.82,4.828-17.799,9.71-25.529
	c3.148-5.01,7.238-9.37,11.59-13.381c6.95-6.419,14.66-12.069,23.17-16.2c6.88-3.34,14.52-5.69,22.12-4.76
	c7.59,0.92,15.05,5.72,17.42,12.99C472.47,218.12,471.81,223.221,470.57,227.971z"/>
<path fill="none" stroke="#0B43A4" stroke-linecap="round" stroke-linejoin="round" stroke-miterlimit="10" d="M393.4,254.088
	c7.261-10.742,18.135-18.996,30.434-23.102c7.664-2.56,15.768-3.531,23.53-5.771c7.762-2.24,15.507-6.044,20.058-12.719"/>
<g>
	<path fill="#52D2BC" d="M398.184,332.859c0.434-11.027,6.135-21.211,13.059-29.808c5.773-7.168,12.743-13.729,21.35-16.995
		c2.696-1.023,5.656-1.709,8.457-1.021c2.8,0.688,5.339,3.084,5.391,5.969c0.043,2.432-1.591,4.555-3.311,6.277
		c-5.658,5.666-12.972,9.303-19.825,13.445c-11.779,7.119-22.977,16.623-27.65,29.569"/>
	<path fill="none" stroke="#00AD9F" stroke-linecap="round" stroke-linejoin="round" stroke-miterlimit="10" d="M402.543,323.209
		c7.199-16.059,25.836-30.418,38.128-32.211"/>
</g>
<g>
	<path fill="#00AD9F" d="M393.683,341.629c-0.098-1.85,5.931-6.682,7.288-7.914c7.525-6.824,16.474-11.846,25.921-14.811
		c3.824-1.201,7.887-2.074,11.712-1.15s7.336,4.057,7.712,8.184c0.363,4.002-2.321,7.918-5.747,9.854
		c-3.427,1.938-7.434,2.229-11.253,2.008c-5.904-0.344-11.7-1.812-17.625-1.766C405.764,336.078,397.445,336.678,393.683,341.629z"
		/>
	<path fill="none" stroke="#00AD9F" stroke-linecap="round" stroke-linejoin="round" stroke-miterlimit="10" d="M399.822,336.016
		c12.111-6.561,30.425-10.832,43.72-9.223"/>
</g>
<g>
	<path opacity="0.2" fill="#5275A0" enable-background="new    " d="M248.565,148.073c-0.308,1.912-0.881,3.749-1.699,5.522
		c-4.248-9.005-7.986-20.772-8.889-35.215c-0.244-3.908,0.85-7.933,2.931-11.3c0.212,0.234,0.393,0.478,0.573,0.722
		c2.995,4.089,4.535,9.069,5.661,14.029C249.097,130.423,249.978,139.365,248.565,148.073z"/>
	<path fill="#7EE8D4" d="M290.457,147.569c9.044-3.212,18.436-5.774,26.658-10.726c2.485-1.497,4.883-3.238,6.646-5.542
		c1.765-2.304,2.85-5.243,2.455-8.118c-0.398-2.923-2.271-5.724-1.641-8.606c0.415-1.9,1.841-3.385,2.931-4.996
		c2.593-3.832,3.364-8.841,2.046-13.276c-1.418-4.765-4.987-8.577-7.021-13.114c-1.66-3.705-2.254-7.881-1.692-11.902
		c-7.586,0.102-14.511,4.246-21.971,5.629c-5.706,1.058-11.643,0.483-17.299,1.783c-10.313,2.37-18.744,11.447-20.35,21.908
		c-4.783-0.822-9.932,0.903-13.256,4.441c-3.535,3.763-5.524,9.107-5.203,14.26c2.331,37.428,23.759,56.954,23.759,56.954
		S287.009,148.793,290.457,147.569z"/>
	<g>
		<path fill="none" stroke="#00AD9F" stroke-linecap="round" stroke-linejoin="round" stroke-miterlimit="10" d="M270.229,147.307
			c-0.939-9.233,2.285-18.359,5.992-26.869c3.612-8.292,7.769-16.421,13.348-23.541c5.578-7.12,12.668-13.224,21.038-16.656"/>
		<path fill="none" stroke="#00AD9F" stroke-linecap="round" stroke-linejoin="round" stroke-miterlimit="10" d="M278.277,85.905
			c-0.95,8.231-0.285,18.148,1.857,26.152"/>
		<path fill="none" stroke="#00AD9F" stroke-linecap="round" stroke-linejoin="round" stroke-miterlimit="10" d="M281.676,109.109
			c9.401-6.03,23.863-9.692,35.015-9.053"/>
		<path fill="none" stroke="#00AD9F" stroke-linecap="round" stroke-linejoin="round" stroke-miterlimit="10" d="M258.688,110.648
			c11.316,4.772,11.783,21.414,12.086,26.142"/>
		<path fill="none" stroke="#00AD9F" stroke-linecap="round" stroke-linejoin="round" stroke-miterlimit="10" d="M273.857,126.208
			c8.66-6.211,21.174-8.078,30.384-5.762"/>
		<path fill="none" stroke="#00AD9F" stroke-linecap="round" stroke-linejoin="round" stroke-miterlimit="10" d="M297.482,81.631
			c-2.604,3.212-3.252,7.033-2.99,9.676"/>
		<path fill="none" stroke="#00AD9F" stroke-linecap="round" stroke-linejoin="round" stroke-miterlimit="10" d="M296.958,88.962
			c3.992-2.045,9.329-2.514,15.038-1.082"/>
	</g>
</g>
<g>
	<path fill="#4A49CA" d="M74.297,107.063c1.064-0.056,8.318-5.43,11.112-7.24c0.786-0.51,1.584-1.044,2.133-1.803
		c0.549-0.759,0.805-1.8,0.406-2.646c-0.496-1.051-1.319-2.101-3.395-2.097c-3.614,0.008-4.869,1.195-6.626,3.013
		C72.115,102.299,74.297,107.063,74.297,107.063z"/>
	<path fill="#4A49CA" d="M106.821,128.735c3.158,1.419,6.533,2.834,9.968,2.395c1.333-0.17,2.787-0.776,3.23-2.043
		c0.379-1.083-0.144-2.325-1.002-3.086c-0.859-0.761-1.992-1.129-3.107-1.401c-4.205-1.026-10.107-0.458-14.271,0.724
		C101.639,125.322,104.936,127.888,106.821,128.735z"/>
	<path fill="#4A49CA" d="M127.624,82.081c-1.409-0.89-2.965-2.08-2.964-3.746c0.001-1.671,1.744-2.944,3.415-2.953
		c1.671-0.008,3.222,0.903,4.478,2.005c5.315,4.666,4.652,9.986,4.652,9.986S129.193,83.072,127.624,82.081z"/>
	<path fill="#4A49CA" d="M131.814,67.849c-1.236-0.531-2.512-1.172-3.237-2.306c-0.353-0.552-0.553-1.25-0.335-1.868
		c0.364-1.034,1.012-1.962,3.617-1.49c8.25,1.497,10.047,7.146,10.047,7.146S134.005,68.79,131.814,67.849z"/>
	<path fill="#4A49CA" d="M155.985,80.346c3.31-0.285,6.727-1.934,8.813-4.519c0.788-0.976,1.508-2.052,1.771-3.278
		c0.262-1.226-0.017-2.632-0.967-3.451c-1.159-0.998-2.997-0.838-4.272,0.004c-1.276,0.842-2.096,2.216-2.76,3.593
		C157.685,74.531,155.985,80.346,155.985,80.346z"/>
	<path fill="none" stroke="#0B43A4" stroke-linecap="round" stroke-linejoin="round" stroke-miterlimit="10" d="M96.897,201.008
		c-8.013-7.063-16.025-14.126-24.038-21.19c-4.271-3.765-8.63-7.639-11.335-12.648c-5.814-10.768-2.462-24.759,5.39-34.145
		c7.852-9.386,19.353-14.929,30.906-18.962c11.554-4.034,23.58-6.864,34.593-12.198c6.907-3.346,13.852-8.33,15.746-15.767
		c1.14-4.474,0.182-9.436-2.541-13.164c-2.723-3.728-7.159-6.149-11.767-6.424"/>
	<path fill="none" stroke="#0B43A4" stroke-linecap="round" stroke-linejoin="round" stroke-miterlimit="10" d="M161.583,72.665
		c-2.189,6.723-10.717,10.813-14.609,16.637"/>
	<path fill="none" stroke="#0B43A4" stroke-linecap="round" stroke-linejoin="round" stroke-miterlimit="10" d="M130.964,80.397
		c1.679,1.773,3.69,3.239,5.156,5.192c3.096,4.128,3.354,10.836-1.226,14.997"/>
	<path fill="none" stroke="#0B43A4" stroke-linecap="round" stroke-linejoin="round" stroke-miterlimit="10" d="M87.816,118.034
		c7.069,5.447,16.362,9.078,25.279,9.424"/>
	<path fill="none" stroke="#0B43A4" stroke-linecap="round" stroke-linejoin="round" stroke-miterlimit="10" d="M71.633,127.957
		c-3.255-9.598,0.292-21.096,8.388-27.193"/>
</g>
<g>
	<path fill="#4A49CA" d="M330.047,87.402c-0.384-1.188-0.364-2.647,0.514-3.535c0.696-0.704,1.864-1.019,2.771-0.621
		c7.029,3.091,6.269,14.058,6.269,14.058S332.933,96.34,330.047,87.402z"/>
	<path fill="#4A49CA" d="M329.876,107.943c-4.547,8.218,11.615,7.591,17.443,2.751C347.319,110.695,333.791,100.869,329.876,107.943
		z"/>
	<path fill="#4A49CA" d="M350.311,88.024c-1.097-1.504-1.485-3.744-0.292-5.172c0.891-1.063,2.439-1.391,3.802-1.129
		c1.361,0.262,3.4,1.522,4.271,2.603c5.318,6.617,2.818,13.092,2.818,13.092S352.108,90.488,350.311,88.024z"/>
	<path fill="#4A49CA" d="M414.495,108.374c-0.394-1.28-0.301-2.842,0.694-3.738c0.628-0.566,1.521-0.771,2.363-0.707
		c0.845,0.063,1.648,0.37,2.418,0.722c1.648,0.754,2.932,2.07,3.723,3.7c1.999,4.118,0.642,9.214,0.642,9.214
		S415.474,111.563,414.495,108.374z"/>
	<path fill="#4A49CA" d="M394.305,123.455c-2.855-2.51-7.232-3.252-10.716-1.725c-0.886,0.388-1.727,0.937-2.293,1.72
		c-1.276,1.766-0.829,4.347,0.496,6.077c1.324,1.73,3.333,2.782,5.317,3.683c3.597,1.632,9.179,1.959,13.007,2.936
		C400.116,136.145,400.101,128.544,394.305,123.455z"/>
	<path fill="none" stroke="#0B43A4" stroke-linecap="round" stroke-linejoin="round" stroke-miterlimit="10" d="M335.084,89.165
		c2.378,7.783,9.107,13.656,16.6,16.833c7.492,3.177,15.745,4.015,23.866,4.541c8.121,0.525,16.339,0.787,24.192,2.919
		c7.654,2.078,15.275,6.405,18.562,13.624c3.997,8.786,0.457,19.293-5.154,27.146c-5.613,7.853-13.173,14.183-18.603,22.164
		c-2.494,3.665-4.576,7.955-4.072,12.359c0.673,5.871,5.618,10.194,10.216,13.908"/>
	<path fill="none" stroke="#0B43A4" stroke-linecap="round" stroke-linejoin="round" stroke-miterlimit="10" d="M353.804,86.31
		c5.382,5.954,9.685,15.265,10.73,23.222"/>
	<path fill="none" stroke="#0B43A4" stroke-linecap="round" stroke-linejoin="round" stroke-miterlimit="10" d="M335.707,109.306
		c3.077,0.817,6.195,1.639,9.379,1.647c3.184,0.008,6.872-1.755,9.161-3.968"/>
	<path fill="none" stroke="#0B43A4" stroke-linecap="round" stroke-linejoin="round" stroke-miterlimit="10" d="M419.761,108.857
		c2.883,2.784,4.636,6.707,4.785,10.712c0.15,4.005-2.072,8.859-4.738,11.851"/>
	<path fill="none" stroke="#0B43A4" stroke-linecap="round" stroke-linejoin="round" stroke-miterlimit="10" d="M389.596,127.034
		c5.758,5.301,10.771,9.587,17.173,14.09c2.923,2.055,8.725,4.689,11.3,4.011"/>
</g>
<g>
	<path opacity="0.2" fill="#5275A0" enable-background="new    " d="M456.55,247.471c-1.52,0.869-3.12,1.629-4.729,2.312
		c-6.262,2.629-12.99,4.118-19.771,4.379c-9.88,0.371-20.04-1.812-29.52,1.01c-4.352,1.291-8.36,3.642-11.65,6.75
		c-0.33,0.16-0.66,0.34-0.99,0.531c-0.79-6.69,15.892-15.41,20.96-17.683c9.15-4.1,19.352-5.92,29.352-5.119
		c4.38,0.351,8.87,1.211,12.479,3.699C454.23,244.42,455.59,245.85,456.55,247.471z"/>
	<path fill="#52D2BC" d="M440.199,243.648c4.378,0.35,8.867,1.209,12.482,3.701c3.616,2.489,6.159,6.938,5.315,11.25
		c-0.981,5.02-6.172,8.284-11.249,8.901s-10.15-0.778-15.16-1.812c-11.086-2.282-22.531-2.807-33.779-1.545
		c-2.805,0.314-5.467,0.871-7.924,2.308c-0.789-6.695,15.898-15.41,20.969-17.685C420.002,244.672,430.2,242.852,440.199,243.648z"
		/>
	<path fill="none" stroke="#00AD9F" stroke-linecap="round" stroke-linejoin="round" stroke-miterlimit="10" d="M394.228,262.232
		c8.284-7.281,29.549-12.224,44.587-10.631c4.529,0.479,9.1,1.832,12.582,4.77"/>
</g>
<path fill="none" stroke="#0B43A4" stroke-linecap="round" stroke-linejoin="round" stroke-miterlimit="10" stroke-dasharray="4" d="
	M378.754,180.434l80.886-0.167c9.491-0.02,17.202,7.659,17.223,17.151l0,0c0.02,9.492-7.659,17.203-17.151,17.223l-55.328,0.113"/>
<path fill="none" stroke="#0B43A4" stroke-linecap="round" stroke-linejoin="round" stroke-miterlimit="10" stroke-dasharray="4" d="
	M134.01,239.824l-56.567,0.115c-5.357,0.012-9.692,4.363-9.681,9.721l0,0c0.011,5.359,4.363,9.693,9.721,9.682l16.493-0.033"/>
<path fill="none" stroke="#C8DBFB" stroke-linecap="round" stroke-linejoin="round" stroke-miterlimit="10" stroke-dasharray="4" d="
	M43.723,283.631c-19.378,0.039-19.783,28.945,4.875,28.895c24.658-0.051,348.127-0.719,363.382-0.75
	c15.253-0.032,16.862-23.83-1.994-23.791c-37.525,0.078-38.771-17.819-17.938-17.862"/>
<circle fill="#5193F4" cx="43.537" cy="283.631" r="4.789"/>
<circle fill="#0B43A4" cx="396.62" cy="271.057" r="4.789"/>
<path opacity="0.2" fill="#5275A0" enable-background="new    " d="M406.558,353.822l-300.889,0.621
	c-4.015,0.01-7.275-3.238-7.284-7.254l-0.412-199.333c-0.008-4.014,3.239-7.275,7.254-7.284l300.889-0.621
	c4.014-0.008,7.274,3.239,7.283,7.254l0.41,199.333C413.819,350.553,410.571,353.814,406.558,353.822z"/>
<path fill="#FFFFFF" d="M400.665,350.014l-300.889,0.621c-4.015,0.008-7.275-3.238-7.284-7.254L92.08,144.048
	c-0.008-4.014,3.239-7.275,7.254-7.284l300.889-0.621c4.016-0.008,7.275,3.239,7.284,7.253l0.411,199.333
	C407.927,346.744,404.68,350.006,400.665,350.014z"/>
<path fill="#3A5796" d="M399.734,136.146l-299.603,0.618c-4.37,0.009-7.905,3.559-7.896,7.929l0.014,6.88l315.427-0.651l-0.015-6.88
	C407.654,139.672,404.104,136.137,399.734,136.146z"/>
<path fill="#C8DBFB" d="M100.493,350.635l45.268-0.094l-0.411-199.077l-53.18,0.109l0.394,191.175
	C92.574,347.113,96.124,350.645,100.493,350.635z"/>
<path fill="#3A5796" d="M400.313,138.145c2.898,0,5.263,2.359,5.269,5.258l0.411,199.333c0.003,1.406-0.542,2.73-1.535,3.729
	s-2.315,1.549-3.723,1.551l-300.899,0.621c-2.899,0-5.263-2.357-5.269-5.258l-0.411-199.333c-0.006-2.905,2.353-5.274,5.257-5.28
	l300.885-0.621H400.313 M400.313,136.145c-0.005,0-0.011,0-0.016,0l-300.889,0.621c-4.014,0.008-7.262,3.27-7.253,7.284
	l0.411,199.333c0.008,4.01,3.262,7.254,7.269,7.254c0.005,0,0.01,0,0.015,0l300.889-0.621c4.015-0.008,7.263-3.27,7.254-7.283
	L407.582,143.4C407.572,139.389,404.32,136.145,400.313,136.145L400.313,136.145z"/>
<path fill="#FFFFFF" d="M138.126,335.418l-34.886,0.072c-1.539,0.002-2.79-1.242-2.792-2.781l-0.001-0.346
	c-0.003-1.539,1.242-2.789,2.781-2.793l34.886-0.072c1.539-0.002,2.789,1.242,2.792,2.781v0.346
	C140.911,334.164,139.666,335.414,138.126,335.418z"/>
<path fill="#FFFFFF" d="M133.932,200.359l-29.701,0.062c-2.82,0.006-5.111-2.276-5.117-5.096l-0.063-29.701
	c-0.006-2.82,2.276-5.111,5.096-5.117l29.701-0.062c2.82-0.006,5.111,2.276,5.117,5.096l0.062,29.701
	C139.033,198.063,136.751,200.354,133.932,200.359z"/>
<path fill="#C8DBFB" d="M261.082,289.33l-103.479,0.215c-2.01,0.004-3.644-1.623-3.647-3.633l-0.001-0.451
	c-0.004-2.01,1.622-3.643,3.632-3.648l103.478-0.213c2.012-0.004,3.645,1.623,3.647,3.633l0.001,0.451
	C264.718,287.693,263.092,289.326,261.082,289.33z"/>
<path fill="#C8DBFB" d="M255.102,171.432l-81.774,0.168c-2.01,0.004-3.643-1.622-3.647-3.632l-0.001-0.451
	c-0.004-2.01,1.622-3.643,3.632-3.647l81.775-0.168c2.01-0.004,3.643,1.622,3.646,3.632l0.002,0.451
	C258.738,169.795,257.111,171.428,255.102,171.432z"/>
<path fill="#C8DBFB" d="M384.37,254.133l-109.029,0.225c-2.01,0.004-3.643-1.621-3.647-3.633v-0.451
	c-0.004-2.01,1.621-3.643,3.633-3.646l109.027-0.226c2.012-0.004,3.645,1.621,3.647,3.634l0.001,0.45
	C388.007,252.496,386.38,254.129,384.37,254.133z"/>
<path fill="#C8DBFB" d="M261.114,305.314l-103.478,0.213c-2.01,0.004-3.643-1.623-3.647-3.633l-0.001-0.451
	c-0.004-2.01,1.622-3.644,3.632-3.646l103.479-0.215c2.01-0.004,3.644,1.623,3.646,3.633l0.001,0.451
	C264.751,303.676,263.125,305.311,261.114,305.314z"/>
<path fill="#C8DBFB" d="M261.146,321.297l-103.478,0.213c-2.01,0.004-3.644-1.621-3.647-3.631l-0.001-0.451
	c-0.004-2.012,1.622-3.645,3.632-3.648l103.479-0.213c2.011-0.004,3.644,1.621,3.647,3.634v0.45
	C264.784,319.66,263.158,321.293,261.146,321.297z"/>
<path fill="#C8DBFB" d="M382.158,331.721l-104.285,0.215c-3.32,0.008-6.018-2.678-6.023-5.998l-0.093-44.789
	c-0.007-3.319,2.679-6.018,5.999-6.024l104.285-0.215c3.32-0.007,6.018,2.68,6.024,6l0.092,44.789
	C388.164,329.018,385.479,331.715,382.158,331.721z"/>
<circle fill="#C8DBFB" cx="106.989" cy="144.017" r="2.549"/>
<circle fill="#C8DBFB" cx="117.78" cy="143.994" r="2.549"/>
<circle fill="#C8DBFB" cx="128.572" cy="143.972" r="2.549"/>
<circle fill="#C8DBFB" cx="158.346" cy="167.766" r="7.371"/>
<path fill="#FFFFFF" d="M136.002,206.589l-32.647,0.067c-0.759,0.001-1.375-0.612-1.376-1.371v-0.17
	c-0.001-0.758,0.612-1.375,1.371-1.376l32.648-0.067c0.759-0.002,1.375,0.612,1.376,1.371v0.17
	C137.375,205.971,136.761,206.587,136.002,206.589z"/>
<path fill="#FFFFFF" d="M136.015,212.823l-32.648,0.067c-0.759,0-1.375-0.613-1.376-1.371v-0.17
	c-0.002-0.759,0.612-1.375,1.371-1.376l32.647-0.067c0.759-0.001,1.375,0.612,1.376,1.371v0.17
	C137.387,212.205,136.773,212.82,136.015,212.823z"/>
<path fill="#C8DBFB" d="M173.397,226.004l-9.233,0.094l0.068,38.678l-7.967,0.017c-2.811,0.006-5.095-2.269-5.101-5.078
	l-0.147-71.527c-0.006-2.841,2.292-5.149,5.133-5.154l17.146-0.044L173.397,226.004z"/>
<path fill="#C8DBFB" d="M233.288,182.873v1c2.757,0,5.004,2.244,5.01,5.001l0.144,69.737c0.006,2.764-2.237,5.016-5.001,5.021
	l-76.269,0.156c-2.756,0-5.003-2.243-5.009-5l-0.144-69.737c-0.003-1.339,0.516-2.598,1.46-3.547
	c0.944-0.948,2.202-1.472,3.541-1.475l76.257-0.157L233.288,182.873 M233.288,182.873c-0.004,0-0.009,0-0.014,0l-76.256,0.157
	c-3.32,0.007-6.006,2.704-5.999,6.024l0.144,69.737c0.007,3.314,2.696,5.998,6.009,5.998c0.005,0,0.01,0,0.015,0l76.256-0.156
	c3.32-0.008,6.006-2.705,5.999-6.023l-0.144-69.737C239.292,185.556,236.602,182.873,233.288,182.873L233.288,182.873z"/>
<path fill="#C8DBFB" d="M360.628,240.271l-101.721-22.99c-3.238-0.731-5.271-3.95-4.538-7.188l11.441-50.628
	c0.731-3.238,3.95-5.271,7.188-4.539l101.721,22.989c3.238,0.732,5.271,3.951,4.538,7.189l-11.441,50.628
	C367.085,238.971,363.866,241.004,360.628,240.271z"/>
<polygon fill="#3A5796" points="163.763,377.971 149.53,378 146.047,359.867 167.171,359.824 "/>
<path fill="#C8DBFB" d="M149.987,359.859c0.003,1.479-0.279,3.963,0.706,4c0.985,0.037,0.578-2.357,1.7-2.293
	c0.717,0.041-0.334,7.879,2.376,8.065c1.863,0.13,1.522-3.844,1.713-6.329c0.13-1.685,2.285-1.354,2.302-0.24
	c0.02,1.246-0.06,2.08,0,3.496c0.101,2.366,3.739,1.737,3.609-1.425c-0.129-3.161-0.008-5.301-0.008-5.301L149.987,359.859z"/>
<path fill="#0C2340" d="M146.58,370.811c-0.291,0.002-0.571-0.024-0.841-0.086c-1.048-0.231-1.784-0.783-2.188-1.639
	c-1.451-3.076,2.37-8.842,2.519-9.098l0.199,1.037c-0.035,0.061-3.356,5.016-2.051,7.779c0.31,0.657,0.862,1.065,1.687,1.247
	c0.228,0.052,0.467,0.074,0.714,0.074c5.126-0.01,13.889-9.563,13.985-9.674c0.358-0.433,1.028-0.025,0.79,0.338
	C160.994,361.25,152.09,370.799,146.58,370.811z"/>
<g>
	<path opacity="0.2" fill="#5275A0" enable-background="new    " d="M296.146,122.834c-20.229-0.774-48.078,14.187-38.198,50.765
		c-0.216,3.093,1.638,5.299,3.606,4.695s0.233-6.465,0.233-6.465c3.368-27.196,9.668-31.901,20.362-31.803l25.091-0.052
		c6.2,0.914,17.473,5.25,19.164,27.021l6.246,1.154C333.139,152.424,329.332,124.103,296.146,122.834z"/>
	<path fill="#EF832B" d="M296.146,119.648c-20.229-0.774-48.078,14.187-38.198,50.765l3.841-1.77
		c3.368-27.196,9.668-31.901,20.363-31.803l25.09-0.052c6.2,0.914,17.773,6.417,19.465,28.188l5.945-0.013
		C333.139,149.238,329.332,120.917,296.146,119.648z"/>
	<path fill="#FFB9A3" d="M292.009,120.244l-3.004,6.604c0,0,0.358,3.719,4.009,3.642c3.649-0.077,4.137-1.763,4.137-1.763
		l0.477-7.582L292.009,120.244z"/>
	<path fill="#FFB9A3" d="M307.453,114.736c-3.426,6.055-4.941,7.939-9.421,8.849c-5.8,1.179-12.304-2.732-9.28-12.373
		c2.465-7.861,6.196-6.65,9.852-6.353C302.258,105.156,311.153,108.195,307.453,114.736z"/>
	<path fill="#0C2340" d="M293.839,109.959c-0.909-0.474-2.081-0.071-2.787,0.673c-0.727,0.765-1.077,1.911-0.769,2.919
		c-1.402,0.021-2.633,1.395-2.499,2.791c-0.958-2.235-0.438-4.559-0.63-6.846c-0.189-2.287,0.062-4.773,1.544-6.524
		c0.606-0.718,1.391-1.271,2.222-1.712c3.154-1.676,7.117-1.732,10.318-0.146c0.662,0.329,2.324,1.375,4.643,0.814
		c4.418-1.068,7.004,1.919,4.35,4.719c0.853,0.308,1.786,0.688,2.174,1.508c0.099,0.209,0.149,0.472,0.019,0.663
		c-0.093,0.133-0.252,0.199-0.405,0.251c-0.743,0.251-1.551,0.315-2.324,0.185c0.298,0.253,1.938,0.352,2.432,1.306
		c1.317,2.539-3.902,1.257-4.697,1.002c0.908,0.171,3.292,2.073,2.529,3.378c-0.15,0.258-3.369,2.133-6.752-1.796
		c-0.787-0.914-1.77-1.758-2.934-2.068c-0.914-0.244-1.871,0.094-2.758,0.427c-0.646,0.243-2.296,1.247-2.769,0.649
		C294.225,111.495,294.895,110.483,293.839,109.959z"/>
	<path fill="#FFB9A3" d="M327.348,164.981c-0.896,3.086-1.804,3.393-0.717,3.884c1.088,0.492,1.967-1.238,1.967-1.238l5.019,0.998
		c0,0-1.132-3.259-1.923-3.653S327.348,164.981,327.348,164.981z"/>
	<path fill="#FFB9A3" d="M261.789,168.644c0.654,1.628,0.836,1.639,1.749,3.596c1.746,3.74-2.343,9.655-4.882,3.197
		c-0.695-1.77-0.708-5.023-0.708-5.023L261.789,168.644z"/>
</g>
<g>
	<g>
		<path fill="#0C2340" d="M300.984,101.641c3.43,0.187,7.649-2.236,10.337,0.874c0.248,0.288,0.745-0.094,0.526-0.407
			c-2.57-3.694-7.33-0.944-10.863-1.038C300.615,101.061,300.619,101.621,300.984,101.641L300.984,101.641z"/>
		<path fill="#0C2340" d="M302.361,99.748c-2.245,0.39-4.373-0.721-6.596-0.381c-2.067,0.315-3.841,1.217-5.412,2.585
			c-0.373,0.324,0.114,0.951,0.524,0.681c2.046-1.346,3.938-2.434,6.481-2.294c1.84,0.101,3.369,0.679,5.199,0.133
			C303.031,100.331,302.83,99.667,302.361,99.748L302.361,99.748z"/>
		<path fill="#0C2340" d="M289.021,102.948c-1.607,0.999-2.681,2.411-2.797,4.373c-0.086,1.446-0.223,4.653,1.248,5.473
			c0.346,0.192,0.702-0.262,0.422-0.546c-0.898-0.912-0.891-3.182-0.943-4.32c-0.088-1.906,0.832-3.469,2.308-4.576
			C289.494,103.176,289.285,102.785,289.021,102.948L289.021,102.948z"/>
		<path fill="#0C2340" d="M314.393,108.579c-0.848-1.471-3.02-2.773-4.688-1.839c-0.264,0.147-0.14,0.548,0.148,0.553
			c0.689,0.013,1.319-0.068,2,0.103c0.854,0.214,1.585,0.734,2.089,1.447C314.133,109.115,314.564,108.876,314.393,108.579
			L314.393,108.579z"/>
	</g>
</g>
<path fill="#0B43A4" d="M203.116,261.127c10.605,3.896,19.816,16.064,17.703,24.908c-2.387,9.99-9.279,14.299-9.279,14.299
	l-2.171-4.012c0,0,5.509-8.613,5.031-12.682c-0.766-6.515-8.993-10.865-8.993-10.865L203.116,261.127z"/>
<path fill="#0C2340" d="M177.005,373.85c0,0-6.514,2.631-8.142,4.115l12.902-0.025l-0.009-4.1L177.005,373.85z"/>
<path fill="#0C2340" d="M205.514,373.6c0,0,1.849,2.144,2.189,4.289l-8.803,0.019c0.151-1.484,0.784-2.906,1.641-4.298
	L205.514,373.6z"/>
<path fill="#047F76" d="M206.05,373.791l-6.01,0.01c0.12-7.08-1.34-31.211-2.75-49.25c-0.83-10.58-1.65-19.08-2.13-20.801
	l3.22-0.709l12.15-2.701C212.61,309.84,207.81,353.461,206.05,373.791z"/>
<path fill="#009790" d="M183.961,303.369c-4.688,7.385-5.9,60.744-7.862,70.633l5.7,0.324c0,0,6.546-33.643,20.489-71.461
	L183.961,303.369z"/>
<path opacity="0.2" fill="#5275A0" enable-background="new    " d="M204.69,302.861c-2.75,7.469-5.22,14.779-7.4,21.688
	c-0.83-10.579-1.65-19.079-2.13-20.801l3.22-0.709L204.69,302.861z"/>
<path fill="#009790" d="M183.961,303.369c-4.688,7.385-5.9,60.744-7.862,70.633l5.7,0.324c0,0,6.546-33.643,20.489-71.461
	L183.961,303.369z"/>
<path fill="#FFB9A3" d="M187.543,243.801c0,0-3.649,13.906,5.466,13.889l-0.541,3.554l6.922,0.756l-1.496-4.951
	c0,0,1.369-8.741,1.46-10.319C199.527,243.777,191.266,238.582,187.543,243.801z"/>
<rect x="162.333" y="228.214" transform="matrix(-1 0.0022 -0.0022 -1 327.8614 467.4197)" fill="#0C2340" width="2.686" height="11.35"/>
<path fill="#3A5796" d="M171.369,228.201l-15.422,0.029c-1.079,0.004-1.956-0.869-1.958-1.949l-0.001-0.404
	c-0.002-1.078,0.871-1.955,1.95-1.957l15.421-0.031c1.079-0.002,1.956,0.871,1.958,1.951l0.001,0.402
	C173.321,227.322,172.448,228.199,171.369,228.201z"/>
<path fill="#FFB9A3" d="M161.591,242.527c-0.073-2.574-2.196-1.9-1.026-6.101c0.724-2.598,6.086,0.416,5.418,2.22
	c-0.667,1.801-1.437,4.647-1.437,4.647L161.591,242.527z"/>
<path fill="#0056EC" d="M193.075,260.424c-13.63,0.902-14.527,5.496-20.627,4.777c-9.028-1.064-7.448-17.83-6.333-23.842
	l-5.392,0.01c0,0-9.72,38.193,20.98,31.131c-1.179,6.691,6.455,17.615-0.947,30.877c11.654,3.164,22.528,3.941,31.839-0.064
	c-1.63-2.194,3.342-24.387-6.394-40.36C204.301,259.834,194.072,260.357,193.075,260.424z"/>
<path fill="#3A5796" d="M193.075,260.424c-13.63,0.902-14.527,5.496-20.627,4.777c-9.028-1.064-7.448-17.83-6.333-23.842
	l-5.392,0.01c0,0-9.72,38.193,20.98,31.131c-1.179,6.691,6.455,17.615-0.947,30.877c11.654,3.164,22.528,3.941,31.839-0.064
	c-1.63-2.194,3.342-24.387-6.394-40.36C204.301,259.834,194.072,260.357,193.075,260.424z"/>
<path fill="#EF832B" d="M191.197,246.467c0.889,0.227,1.923,0.396,2.398,1.152c0.308,0.49,0.287,1.1,0.256,1.67
	c0.164-0.598,0.825-1.027,1.464-0.955c0.64,0.074,1.176,0.645,1.188,1.262c0.005,0.289-0.091,0.572-0.198,0.844
	c-0.266,0.674-0.606,1.322-1.014,1.931c1.115,0.407,2.046,3.666,2.604,4.678c1.873-0.469,6.038-2.078,6.401-8.709
	c0.169-3.09-0.772-6.787-4.123-8.846c-2.367-1.451-6.294-1.474-9.004-0.779c-2.197,0.562-5.702,2.754-4.068,5.32
	C187.926,245.328,189.729,246.092,191.197,246.467z"/>
<path fill="#EF832B" d="M202.872,242.244c1.269-0.422,2.878-0.199,3.64,0.861c0.594,0.826,0.541,1.912,0.733,2.897
	c0.092,0.478,0.261,0.963,0.631,1.291c0.441,0.394,1.082,0.485,1.683,0.519c1.467,0.078,2.953-0.107,4.399,0.139
	s2.926,1.063,3.338,2.414c0.228,0.748,0.104,1.57,0.376,2.303c0.41,1.102,1.583,1.727,2.603,2.367
	c2.172,1.359,4.017,3.197,5.354,5.328c0.846,1.35,1.498,2.848,1.601,4.42c0.102,1.57,1.235,3.646,0.934,5.193
	c-0.326,1.67-1.967,3.926-5.209,4.971c-5.604,1.803-7.378,2.584-12.747-0.607c-0.647-0.385-1.912-1.693-2.498-2.162
	c-0.459-0.367-0.75-0.897-0.911-1.451c-0.448-1.541,0.07-3.201,0.874-4.602c0.805-1.402,1.889-2.641,2.708-4.035
	c0.492-0.838,0.894-1.768,0.848-2.729c-0.017-0.359-0.108-0.734-0.369-0.992c-0.226-0.225-0.55-0.33-0.869-0.393
	c-1.179-0.23-2.475,0.014-3.544-0.517c-1.039-0.517-1.608-1.771-1.293-2.851c0.21-0.721,0.757-1.327,0.913-2.063
	c0.224-1.055-0.438-2.141-1.357-2.76c-0.919-0.617-2.053-0.857-3.16-1.039c-0.545-0.09-1.117-0.18-1.56-0.498
	c-0.547-0.391-0.798-1.078-0.791-1.734C199.222,244.445,200.911,242.896,202.872,242.244z"/>
<g>
	<g>
		<path fill="#EF832B" d="M201.867,247.833c4.785,1.033,1.646,5.37,0.926,7.979c-0.311,1.129,0.105,2.127,0.87,2.928
			c0.804,0.841,2.345,0.787,3.393,0.762c1.451-0.189,2.422,0.686,2.915,2.619c-0.219,0.65-0.474,1.288-0.765,1.91
			c-0.271,0.611-0.304,1-0.387,1.648c-0.047,0.369,0.563,0.441,0.645,0.086c0.434-1.883,1.66-3.459,1.174-5.442
			c-0.373-1.521-2.392-1.554-3.581-1.532c-0.629,0.046-1.256,0.012-1.88-0.102c-3.371-0.547-1.208-4.217-0.595-5.437
			c0.494-0.983,0.682-1.897,0.549-2.994c-0.191-1.583-1.76-2.538-3.167-2.772C201.738,247.449,201.638,247.784,201.867,247.833
			L201.867,247.833z"/>
	</g>
</g>
<g>
	<g>
		<path fill="#EF832B" d="M187.971,239.578c5.201-2.639,10.383-2.111,14.774,1.761c0.299,0.265,0.702-0.138,0.437-0.437
			c-3.854-4.338-10.702-5.105-15.352-1.566C187.688,239.443,187.806,239.662,187.971,239.578L187.971,239.578z"/>
	</g>
</g>
<polygon fill="#FFB9A3" points="362.634,255.891 360.38,260.422 365.888,262.674 366.476,257.457 "/>
<path fill="#FFB9A3" d="M365.959,241.141c-12.492,5.438-7.374,18.615,0.23,17.068c3.699-0.754,5.573-12.67,5.573-12.67
	L365.959,241.141z"/>
<path fill="#4A49CA" d="M370.108,239.266c-0.411-0.766-0.801-1.58-1.478-2.123c-0.677-0.545-1.749-0.717-2.385-0.125
	c-0.84,0.781-0.349,2.244,0.503,3.015c-0.732,0.088-1.603-0.418-2.143,0.086c-0.409,0.381-0.268,1.057-0.032,1.563
	c0.551,1.195,1.451,2.228,2.56,2.937c-0.634,0.358-1.368,1.055-0.988,1.678c0.105,0.172,0.282,0.291,0.387,0.463
	c0.242,0.404,0.008,0.918-0.235,1.32c-0.395,0.649-0.819,1.28-1.272,1.892c0.429-0.589,1.476-0.347,1.79,0.311
	c0.313,0.658,0.04,1.471-0.445,2.012c-0.271,0.303-0.613,0.553-1.008,0.645c-0.345,0.08-1.856,4.761-0.677,5.677
	c1.459,1.133,6.425,0.149,7.143-1.132c0.718,0.779,1.77,1.369,2.81,1.162c1.039-0.205,1.832-1.487,1.271-2.387
	c1.123,0.414,2.488,0.049,3.256-0.869c0.767-0.92,0.879-2.33,0.269-3.361c0.612-0.184,0.735-1.012,0.579-1.633
	c-0.315-1.254-1.339-2.305-2.585-2.656c0.633,0.013,1.136-0.625,1.165-1.258c0.03-0.631-0.299-1.227-0.697-1.719
	c-1.174-1.445-2.562-1.832-4.294-2.051C371.848,242.488,370.883,240.705,370.108,239.266z"/>
<path fill="#0C2340" d="M358.402,372.982c0,0-7.31,3.51-8.29,4.604c0,0,14.381,0.648,15.507-0.031
	c1.125-0.68-2.303-4.582-2.303-4.582L358.402,372.982z"/>
<path fill="#0C2340" d="M385.593,369.016c0,0-6.425,4.945-7.157,6.219c0,0,15.163-2.25,15.163-3.239c0-0.99-3.2-4.007-3.2-4.007
	L385.593,369.016z"/>
<path fill="#D8742A" d="M365.47,305.221c-0.271,1.486-10.276,40.992,18.354,64.676l8.294-1.901c0,0-9.652-9.054-14.201-25.347
	c-4.302-15.405-0.886-16.918,1.694-25.401c2.854-9.394,0.73-16.211,0.73-16.211L365.47,305.221z"/>
<path fill="#EF832B" d="M351.785,305.1c-4.539,10.849-12.332,47.816,4.652,68.633l8.48-0.018c0,0-6.681-7.322-7.428-24.311
	c-0.746-16.988,3.571-24.445,6.619-30.051c3.046-5.605,5.864-15.133,5.864-15.133L351.785,305.1z"/>
<path fill="#0B43A4" d="M345.8,237.85c-2.253,7.945-2.994,22.621,8.292,28.533l7.555-1.84c0,0-13.617-7.141-10.7-25.186
	L345.8,237.85z"/>
<path fill="#3A5796" d="M324.99,233.783l5.862-0.723c0,0-0.704,24.623,27.731,26.694c21.707,1.584,23.413,42.318,23.413,42.318
	c-6.999,4.713-18.745,6.139-33.795,5.061c0,0,0.963-29.063-1.428-37.018C346.775,270.117,323.149,262.684,324.99,233.783z"/>
<path fill="#FFB9A3" d="M317.82,229.314c-0.992,1.149,3.15,2.608,7.17,4.469l5.146-0.635c0,0,0.062-1.027-0.004-2.101
	c-0.063-1.069-0.602-1.682-1.212-0.762c-0.61,0.918-3.212,1.229-4.438,0.391C323.256,229.838,318.813,228.164,317.82,229.314z"/>
<path fill="#FFB9A3" d="M345.8,237.85c-1.885-1.854-1.385-1.74-1.385-1.74l5.751,1.3c0,0,1.265-2.808,2.336-2.886
	s-0.808,1.935-0.377,2.681s-1.18,2.153-1.18,2.153L345.8,237.85z"/>
<g>
	<g>
		<path fill="#4A49CA" d="M373.337,241.977c1.113,0.285,2.176,0.426,3.165,1.064c1.125,0.727,1.635,2.281,0.901,3.443
			c-0.328,0.521,0.45,0.932,0.803,0.469c0.876-1.152,0.675-2.794-0.247-3.876c-1.075-1.261-2.935-1.804-4.551-1.63
			C373.122,241.479,373.021,241.896,373.337,241.977L373.337,241.977z"/>
	</g>
</g>
<g>
	<g>
		<path fill="#4A49CA" d="M378.537,252.645c0.819,0.482,1.373,1.176,1.104,2.168c-0.239,0.885-1.247,1.445-1.942,1.936
			c-0.352,0.247-0.049,0.785,0.34,0.58c1.042-0.553,2.276-1.383,2.392-2.688c0.104-1.162-0.593-2.004-1.574-2.535
			C378.499,251.914,378.189,252.439,378.537,252.645L378.537,252.645z"/>
	</g>
</g>
<g>
	<g>
		<path fill="#4A49CA" d="M365.404,258.605c2.65,1.646,6.396,1.381,8.588-0.938c0.271-0.288-0.099-0.825-0.44-0.57
			c-2.389,1.771-5.129,2.344-7.931,1.137C365.373,258.127,365.163,258.455,365.404,258.605L365.404,258.605z"/>
	</g>
</g>
<g>
	<g>
		<path fill="#4A49CA" d="M378.884,243.717c1.521,1.445,0.001,3.424-0.979,4.67c-0.216,0.274,0.124,0.643,0.393,0.393
			c0.825-0.771,1.699-1.639,1.84-2.821c0.116-0.981-0.225-1.933-1.115-2.418C378.91,243.479,378.788,243.626,378.884,243.717
			L378.884,243.717z"/>
	</g>
</g>
<polygon fill="#0B43A4" points="209.727,61.033 207.381,55.304 230.011,46.712 "/>
<polygon fill="#5193F4" points="210.867,57.502 230.011,46.712 216.685,60.247 "/>
<polygon fill="#5193F4" points="202.202,52.971 230.011,46.712 207.381,55.304 "/>
<polygon fill="#0056EC" points="210.867,57.502 209.727,61.033 213.181,58.594 "/>
<path fill="none" stroke="#C8DBFB" stroke-linecap="round" stroke-linejoin="round" stroke-miterlimit="10" stroke-dasharray="4" d="
	M207.068,60.267c-5.907-0.999-13.927,4.975-10.478,11.199c1.174,2.119,7.232,1.199,6.781-1.143
	c-0.215-1.121-1.588-1.598-2.723-1.468c-6.604,0.757-6.866,6.292-6.574,7.701c1.512,7.279,12.668,4.817,16.419,3.79"/>
<g id="DESIGNED_BY_FREEPIK">
</g>
</svg>
